<?xml version="1.0"?>
<svg xmlns="http://www.w3.org/2000/svg" xmlns:xlink="http://www.w3.org/1999/xlink" width="665.978882" height="191.364746">
	<defs>
		<marker id="CustomMarker-01" markerUnits="strokeWidth" markerWidth="15.000001" markerHeight="9" viewBox="-15 -4.5 15 9" orient="auto-start-reverse">
			<path d="M 0 -0 L -10 -3, -8 -0.5, -8 0.5, -10 3 Z" fill="#000000" stroke="#000000" stroke-linejoin="round" />
		</marker>
		<marker id="CustomMarker-02" markerUnits="strokeWidth" markerWidth="15.000001" markerHeight="9" viewBox="-15 -4.5 15 9" orient="auto-start-reverse">
			<path d="M 0 -0 L -10 -3, -8 -0.5, -8 0.5, -10 3 Z" fill="#000000" stroke="#000000" stroke-linejoin="round" />
		</marker>
		<marker id="CustomMarker-03" markerUnits="strokeWidth" markerWidth="15.000001" markerHeight="9" viewBox="-15 -4.5 15 9" orient="auto-start-reverse">
			<path d="M 0 -0 L -10 -3, -8 -0.5, -8 0.5, -10 3 Z" fill="#000000" stroke="#000000" stroke-linejoin="round" />
		</marker>
		<marker id="CustomMarker-04" markerUnits="strokeWidth" markerWidth="15.000001" markerHeight="9" viewBox="-15 -4.5 15 9" orient="auto-start-reverse">
			<path d="M 0 -0 L -10 -3, -8 -0.5, -8 0.5, -10 3 Z" fill="#000000" stroke="#000000" stroke-linejoin="round" />
		</marker>
		<marker id="CustomMarker-05" markerUnits="strokeWidth" markerWidth="15.000001" markerHeight="9" viewBox="-15 -4.5 15 9" orient="auto-start-reverse">
			<path d="M 0 -0 L -10 -3, -8 -0.5, -8 0.5, -10 3 Z" fill="#000000" stroke="#000000" stroke-linejoin="round" />
		</marker>
	</defs>
	<rect x="-0" y="-0" width="665.978882" height="191.364746" stroke="none" fill="#FFFFFF" />
	<rect x="-113.869202" y="-113.869293" width="227.738403" height="227.738586" stroke="none" fill="#D57232" fill-opacity="0.392156839" transform="matrix(0.5 0 -0 0.5 64.9347 126.43)" />
	<path d="M -113.869 -113.869 L 113.869 -113.869, 113.869 113.869, -113.869 113.869 Z" fill="none" stroke="#000000" stroke-width="2" stroke-linecap="round" stroke-linejoin="round" transform="matrix(0.5 0 -0 0.5 64.9347 126.43)" />
	<g transform="matrix(1 0 -0 1 50.0061 117.624)">
		<svg width="93.0502319" height="50.9571342">
			<defs />
			<path d="M 2.04215 2.84062 C 2.04215 2.29434, 2.02236 1.68474, 1.97486 1.00387 L 2.95261 1.51056, 11.8276 1.51056, 12.8053 0.560522, 14.1749 1.89058, 2.95261 1.89058, 2.95261 7.33747 C 3.00011 8.77836, 2.86948 10.1084, 2.56467 11.3316, 2.25987 12.5587, 1.49984 13.7977, 0.280622 15.0644 L 0.0826975 14.9378 C 0.953566 13.675, 1.51171 12.4835, 1.74922 11.3633, 1.98673 10.247, 2.0857 9.00795, 2.04215 7.65415 Z M 6.2817 13.4811 C 6.80422 13.5286, 7.30695 13.5602, 7.78197 13.58, 8.26095 13.6038, 8.49846 13.4019, 8.49846 12.9744 L 8.49846 8.92087, 5.75918 8.92087, 5.75918 9.36422, 4.84477 9.74423 C 4.89227 9.07129, 4.91206 8.09354, 4.91206 6.80307, 4.91206 5.51656, 4.89227 4.47152, 4.84477 3.66398 L 5.75918 4.10733, 7.32674 4.10733 C 7.71863 3.22459, 7.9799 2.5081, 8.10657 1.95391 L 9.28224 2.52394 C 8.98139 2.69811, 8.70826 2.89999, 8.46679 3.12959, 8.22928 3.36314, 7.97594 3.68773, 7.71468 4.10733 L 11.8276 4.10733, 12.2828 3.47398, 13.2605 4.23401, 12.8053 4.61402, 12.8053 7.71748 C 12.8053 8.18458, 12.8291 8.71502, 12.8686 9.30088 L 11.9582 9.6809, 11.9582 8.92087, 9.34558 8.92087, 9.34558 13.3544 C 9.39308 14.158, 8.95764 14.7082, 8.04323 15.0011, 7.99969 14.4113, 7.41383 13.9877, 6.2817 13.7344 Z M 5.75918 4.48735 L 5.75918 6.32409, 11.9582 6.32409, 11.9582 4.48735 Z M 5.75918 6.70411 L 5.75918 8.54085, 11.9582 8.54085, 11.9582 6.70411 Z M 6.2817 10.1876 L 7.39008 11.1376 C 6.91506 11.3118, 6.23816 11.7551, 5.36729 12.4677, 4.50038 13.1881, 3.56617 13.7977, 2.56467 14.3044 L 2.43404 14.1144 C 3.26137 13.485, 4.0214 12.8121, 4.7181 12.0916, 5.41479 11.3751, 5.93335 10.7418, 6.2817 10.1876 Z M 10.1967 10.5043 C 12.7618 11.5216, 14.0997 12.1866, 14.2066 12.5033, 14.3174 12.82, 14.3689 13.0852, 14.3689 13.291, 14.3689 13.5483, 14.3372 13.7581, 14.2739 13.9244, 14.2106 14.0946, 14.1314 14.1777, 14.0443 14.1777, 13.9572 14.1777, 13.8266 14.0511, 13.6524 13.7977, 13.3516 13.3781, 12.8924 12.8952, 12.2828 12.345, 11.6732 11.7987, 10.9567 11.2683, 10.1294 10.7576 Z" stroke="none" fill="#000000" />
			<path d="M 28.9223 1.89058 L 28.9223 12.4043 C 28.9223 13.2515, 28.946 14.0115, 28.9856 14.6844 L 28.0079 15.1911, 28.0079 13.9244, 17.3753 13.9244, 17.3753 14.9378, 16.3936 15.3178 C 16.4411 14.4746, 16.4609 13.6117, 16.4609 12.721 L 16.4609 3.1573 C 16.4609 2.44477, 16.4411 1.64119, 16.3936 0.75053 L 17.3753 1.32055, 27.8772 1.32055, 28.3325 0.687195, 29.3775 1.51056 Z M 17.3753 1.70057 L 17.3753 9.49089 C 19.4179 8.65169, 21.0053 7.70165, 22.1374 6.64077, 21.5714 5.8847, 21.0726 5.01779, 20.6371 4.044, 19.9405 5.10488, 19.2002 5.99158, 18.4164 6.70411 L 18.2225 6.57744 C 18.9192 5.69469, 19.509 4.77632, 19.984 3.82628, 20.463 2.87624, 20.744 2.16767, 20.8311 1.70057 Z M 17.3753 13.5444 L 28.0079 13.5444, 28.0079 1.70057, 20.9617 1.70057, 22.0701 2.27059, 21.6782 2.4606 C 21.417 2.84457, 21.223 3.14146, 21.0924 3.3473 L 24.5481 3.3473, 25.0073 2.77728, 25.9851 3.66398, 25.4626 3.98066 C 24.7263 4.998, 23.9623 5.92824, 23.1785 6.76744, 24.5284 7.74123, 26.0722 8.31126, 27.8099 8.47751 L 27.8099 8.73086 C 27.1607 8.77836, 26.7451 9.0317, 26.5709 9.49089, 25.0509 8.94462, 23.7248 8.18458, 22.5926 7.21079, 21.0726 8.39834, 19.3308 9.2613, 17.3753 9.80757 Z M 20.8984 3.72732 C 21.508 4.7882, 22.0939 5.61156, 22.6599 6.19742, 23.2695 5.52448, 23.8752 4.70111, 24.4848 3.72732 Z M 21.2863 8.60419 C 22.3314 8.81794, 23.0716 9.01191, 23.5071 9.17817, 23.9425 9.34838, 24.1404 9.63339, 24.0969 10.0332, 24.0533 10.437, 23.9662 10.6349, 23.8317 10.6309, 23.705 10.6349, 23.5506 10.528, 23.3764 10.3143, 22.941 9.89465, 22.2245 9.38797, 21.223 8.79419 Z M 20.0473 10.8843 C 22.0503 11.098, 23.3646 11.2999, 23.994 11.4899, 24.6273 11.6799, 24.9638 12.0085, 25.0073 12.4716, 25.0509 12.9387, 24.9638 13.1683, 24.7461 13.1644, 24.6154 13.1683, 24.3977 13.0417, 24.0929 12.7844, 23.4437 12.2816, 22.0939 11.7314, 20.0473 11.1376 Z" stroke="none" fill="#000000" />
			<rect />
		</svg>
	</g>
	<path d="M 0 0 L 145.906 0.00012207" fill="none" stroke="#000000" stroke-width="2" stroke-linecap="round" stroke-linejoin="round" marker-end="url(#CustomMarker-01)" transform="matrix(0.5 0 0 0.5 121.869 126.43)" />
	<rect x="-94.8910828" y="-37.9564819" width="189.782166" height="75.9129639" stroke="none" fill="#08DD66" fill-opacity="0.392156839" transform="matrix(0.5 0 -0 0.5 242.268 126.43)" />
	<path d="M -94.8911 -37.9565 L 94.8911 -37.9565, 94.8911 37.9565, -94.8911 37.9565 Z" fill="none" stroke="#000000" stroke-width="2" stroke-linecap="round" stroke-linejoin="round" transform="matrix(0.5 0 -0 0.5 242.268 126.43)" />
	<g transform="matrix(1 0 -0 1 217.599 117.624)">
		<svg width="152.997955" height="38.9999886">
			<defs />
			<path d="M 6.02381 11.391 C 5.98467 11.7031, 5.88481 11.9816, 5.72377 12.2263, 5.56318 12.471, 5.36436 12.6797, 5.12685 12.8525, 4.88979 13.0252, 4.62529 13.157, 4.3338 13.2479, 4.04231 13.3392, 3.74092 13.3846, 3.42919 13.3846, 2.96497 13.3846, 2.52279 13.296, 2.10265 13.1188, 1.6825 12.9415, 1.31185 12.6919, 0.990668 12.3698, 0.654645 12.0342, 0.40499 11.6577, 0.241702 11.2403, 0.0788642 10.8228, -0.00300473 10.3815, -0.00300473 9.91553, -0.00300473 9.4648, 0.0748157 9.03206, 0.230457 8.61687, 0.386097 8.20213, 0.620009 7.82877, 0.93129 7.49724, 1.22773 7.17607, 1.57365 6.92821, 1.96905 6.75278, 2.36445 6.57779, 2.77964 6.49008, 3.21417 6.48963, 3.60013 6.49008, 3.97438 6.55485, 4.3374 6.6844, 4.70086 6.81395, 5.02069 7.02492, 5.29733 7.31731, 5.57443 7.64389, 5.7647 8.00285, 5.86816 8.39375, 5.97207 8.78511, 6.02381 9.17961, 6.02381 9.57725, 6.02381 9.73604, 5.94239 9.81521, 5.77955 9.81476 L 1.40541 9.81476, 1.40541 9.91553 C 1.40541 10.2758, 1.4378 10.6308, 1.50212 10.9807, 1.5615 11.3748, 1.7023 11.7297, 1.92451 12.0459, 2.11254 12.2911, 2.3433 12.489, 2.6177 12.6401, 2.8921 12.7913, 3.18224 12.8669, 3.48857 12.8664, 3.72113 12.8669, 3.94469 12.83, 4.15971 12.7553, 4.37473 12.6811, 4.57401 12.5745, 4.75664 12.435, 4.93927 12.296, 5.09401 12.1341, 5.21996 11.9492, 5.34591 11.7648, 5.43858 11.5592, 5.49751 11.3334, 5.52719 11.2187, 5.60636 11.1611, 5.73501 11.1607 L 5.81643 11.1607 C 5.95003 11.1899, 6.01931 11.2668, 6.02381 11.391 Z M 4.8601 9.36134 C 4.8502 9.06895, 4.81601 8.76936, 4.75664 8.46213, 4.69726 8.15534, 4.5785 7.8697, 4.40037 7.6052, 4.26227 7.40413, 4.08954 7.24579, 3.88172 7.13063, 3.67435 7.01548, 3.45168 6.9579, 3.21417 6.95745, 2.93798 6.9579, 2.68337 7.03257, 2.45081 7.18102, 2.2187 7.32991, 2.02348 7.52918, 1.86514 7.77839, 1.70725 8.02804, 1.59839 8.29074, 1.53901 8.56649, 1.47963 8.84268, 1.44275 9.10763, 1.4279 9.36134 L 4.8601 9.36134 Z" stroke="none" fill="#000000" />
			<path d="M 14.4348 13.2263 C 13.8073 13.193, 13.2095 13.1759, 12.6409 13.1759, 12.0633 13.1759, 11.4727 13.193, 10.8699 13.2263 L 10.8699 12.6217 C 11.0921 12.6221, 11.2959 12.6185, 11.4812 12.6114, 11.6666 12.6042, 11.8065 12.579, 11.9 12.5353, 11.9545 12.507, 11.9904 12.458, 12.0075 12.3882, 12.0246 12.319, 12.0332 12.2429, 12.0332 12.1611 L 12.0332 8.64881 C 12.0332 8.4095, 12.021 8.18143, 11.9963 7.96552, 11.972 7.7496, 11.9027 7.55302, 11.7889 7.37489, 11.7196 7.26018, 11.6171 7.17652, 11.4812 7.12344, 11.3454 7.07081, 11.201 7.04427, 11.0476 7.04382, 10.766 7.04427, 10.5033 7.10319, 10.2586 7.2206, 10.0139 7.33846, 9.80518 7.4968, 9.63199 7.69562, 9.45926 7.89489, 9.32071 8.12881, 9.2168 8.39735, 9.11334 8.66635, 9.06116 8.94659, 9.06116 9.23898 L 9.06116 12.1611 C 9.06116 12.2429, 9.07106 12.319, 9.09085 12.3882, 9.11064 12.458, 9.15023 12.507, 9.2096 12.5353, 9.30362 12.579, 9.44441 12.6042, 9.63199 12.6114, 9.82002 12.6185, 10.0224 12.6221, 10.2397 12.6217 L 10.2397 13.2191 C 9.98781 13.2096, 9.7557 13.2024, 9.54338 13.1975, 9.33106 13.193, 9.12324 13.1858, 8.92036 13.1759 L 8.45344 13.1759 C 7.87541 13.1759, 7.28478 13.193, 6.68201 13.2263 L 6.68201 12.6217 C 6.90468 12.6221, 7.10845 12.6185, 7.29378 12.6114, 7.47911 12.6042, 7.61901 12.579, 7.71257 12.5353, 7.77195 12.507, 7.81108 12.458, 7.83088 12.3882, 7.85067 12.319, 7.86057 12.2429, 7.86057 12.1611 L 7.86057 8.07303 C 7.86057 7.93898, 7.85472 7.81707, 7.84212 7.70642, 7.82998 7.59621, 7.78185 7.50714, 7.69773 7.43967, 7.61406 7.38254, 7.47821 7.34925, 7.29018 7.33935, 7.10215 7.32991, 6.89973 7.32496, 6.68201 7.32451 L 6.68201 6.72714, 7.95683 6.63357, 8.97974 6.5544, 8.97974 7.79233 C 9.07375 7.57192, 9.31486 7.31192, 9.70262 7.01188, 10.0904 6.71229, 10.5487 6.56205, 11.0773 6.5616, 11.3544 6.56205, 11.6396 6.59444, 11.9333 6.65921, 12.2275 6.72399, 12.4857 6.86434, 12.7079 7.08025, 12.9301 7.29617, 13.0759 7.54448, 13.1452 7.82517, 13.2144 8.10586, 13.2491 8.38071, 13.2491 8.64881 L 13.2491 12.1611 C 13.2491 12.2429, 13.259 12.319, 13.2788 12.3882, 13.2985 12.458, 13.3377 12.507, 13.3971 12.5353, 13.4911 12.579, 13.6319 12.6042, 13.8195 12.6114, 14.0075 12.6185, 14.2126 12.6221, 14.4348 12.6217 L 14.4348 13.2263 Z" stroke="none" fill="#000000" />
			<path d="M 20.9442 11.3982 C 20.8606 11.9982, 20.5776 12.4796, 20.0959 12.8417, 19.6141 13.2038, 19.0325 13.3846, 18.3505 13.3846, 17.8962 13.3846, 17.4639 13.296, 17.0537 13.1188, 16.6434 12.9415, 16.2854 12.6964, 15.9786 12.3842, 15.6574 12.0585, 15.414 11.6892, 15.2485 11.2763, 15.083 10.8638, 15.0002 10.4319, 15.0002 9.9803, 15.0002 9.52013, 15.0821 9.07659, 15.2449 8.64926, 15.4082 8.22237, 15.6529 7.84316, 15.9786 7.51164, 16.2854 7.19046, 16.6434 6.93991, 17.0537 6.75997, 17.4639 6.58004, 17.8962 6.49008, 18.3505 6.48963, 18.6371 6.49008, 18.9236 6.52022, 19.2101 6.58004, 19.4971 6.64032, 19.7553 6.73478, 19.9848 6.86434, 20.2146 6.99389, 20.4035 7.16302, 20.552 7.37174, 20.7004 7.58046, 20.7742 7.82652, 20.7742 8.10901, 20.7742 8.35912, 20.6941 8.5485, 20.5335 8.67805, 20.373 8.8076, 20.1962 8.87237, 20.0032 8.87192, 19.8107 8.87237, 19.6339 8.8076, 19.4733 8.67805, 19.3127 8.5485, 19.2322 8.35912, 19.2322 8.10901, 19.2322 7.85981, 19.319 7.66818, 19.4917 7.53323, 19.6402 7.42797, 19.8008 7.37309, 19.9735 7.36769 L 19.8327 7.36769 C 19.749 7.29122, 19.566 7.21115, 19.2844 7.12704, 19.0028 7.04337, 18.6915 7.00108, 18.3505 7.00063, 18.0739 7.00108, 17.8085 7.07576, 17.5539 7.2242, 17.2993 7.37309, 17.0883 7.57192, 16.9201 7.82112, 16.7176 8.1333, 16.584 8.47202, 16.5197 8.83639, 16.4558 9.2012, 16.4235 9.58265, 16.4235 9.9803, 16.4235 10.36, 16.4621 10.727, 16.5386 11.0819, 16.6151 11.4373, 16.7622 11.7634, 16.9794 12.0603, 17.1576 12.3055, 17.3762 12.5011, 17.6353 12.6473, 17.8948 12.794, 18.1679 12.8669, 18.454 12.8664, 18.983 12.8669, 19.4126 12.7256, 19.7436 12.4422, 20.0747 12.1593, 20.2996 11.7945, 20.4184 11.3478, 20.4481 11.2331, 20.5196 11.1755, 20.633 11.175 L 20.7666 11.1894 C 20.8853 11.2187, 20.9442 11.2884, 20.9442 11.3982 Z" stroke="none" fill="#000000" />
			<path d="M 28.401 10.0091 C 28.401 10.4607, 28.3146 10.8926, 28.1419 11.305, 27.9692 11.718, 27.7168 12.0824, 27.3857 12.3986, 27.07 12.7063, 26.7042 12.9474, 26.2891 13.1224, 25.8739 13.2973, 25.4339 13.3846, 24.9697 13.3846, 24.5055 13.3846, 24.0655 13.2987, 23.6504 13.126, 23.2356 12.9532, 22.8672 12.7108, 22.546 12.3986, 22.21 12.0774, 21.9581 11.7117, 21.7899 11.3014, 21.6221 10.8912, 21.538 10.4607, 21.538 10.0091, 21.538 9.54891, 21.6234 9.10538, 21.7939 8.67805, 21.9644 8.25116, 22.215 7.867, 22.546 7.52603, 22.8623 7.20486, 23.2293 6.95205, 23.6468 6.76717, 24.0642 6.58274, 24.5055 6.49008, 24.9697 6.48963, 25.4339 6.49008, 25.8739 6.58274, 26.2891 6.76717, 26.7042 6.95205, 27.07 7.20486, 27.3857 7.52603, 27.7218 7.87195, 27.975 8.25701, 28.1455 8.68164, 28.316 9.10628, 28.401 9.54891, 28.401 10.0091 Z M 26.993 9.84355 C 26.993 9.47469, 26.9674 9.10988, 26.9152 8.75002, 26.8635 8.39016, 26.7362 8.06133, 26.5333 7.76354, 26.3457 7.50984, 26.1159 7.31192, 25.8442 7.17022, 25.5725 7.02897, 25.281 6.9579, 24.9697 6.95745, 24.6584 6.9579, 24.3669 7.02897, 24.0952 7.17022, 23.8235 7.31192, 23.5937 7.50984, 23.4056 7.76354, 23.2032 8.05683, 23.0764 8.38431, 23.0242 8.74642, 22.9725 9.10898, 22.9464 9.47469, 22.9464 9.84355, 22.9464 10.2327, 22.9702 10.6177, 23.017 10.9992, 23.0638 11.3806, 23.1933 11.7319, 23.4056 12.0531, 23.5739 12.3032, 23.7988 12.5011, 24.0804 12.6473, 24.362 12.794, 24.6584 12.8669, 24.9697 12.8664, 25.281 12.8669, 25.5774 12.794, 25.859 12.6473, 26.1406 12.5011, 26.3655 12.3032, 26.5333 12.0531, 26.7461 11.7319, 26.8761 11.3806, 26.9229 10.9992, 26.9696 10.6177, 26.993 10.2327, 26.993 9.84355 Z" stroke="none" fill="#000000" />
			<path d="M 34.3571 13.3918 L 34.3571 12.5353 C 34.1988 12.7324, 33.9455 12.9235, 33.5974 13.108, 33.2492 13.2924, 32.8601 13.3846, 32.4301 13.3846, 31.9757 13.3846, 31.5457 13.296, 31.1404 13.1188, 30.7356 12.9415, 30.3847 12.6964, 30.0878 12.3842, 29.7666 12.0486, 29.5233 11.6771, 29.3577 11.2691, 29.1922 10.8615, 29.1094 10.4319, 29.1094 9.9803, 29.1094 9.52957, 29.1962 9.09549, 29.369 8.67805, 29.5422 8.2606, 29.7941 7.89129, 30.1251 7.56967, 30.4562 7.24849, 30.8341 7.00018, 31.2587 6.82475, 31.6838 6.64977, 32.1287 6.56205, 32.5929 6.5616, 32.9933 6.56205, 33.3581 6.64752, 33.6864 6.81755, 34.0148 6.98804, 34.2483 7.16167, 34.3868 7.3389 L 34.3868 4.34484 C 34.3868 4.22069, 34.381 4.09969, 34.3684 3.98183, 34.3558 3.86442, 34.3077 3.77446, 34.2235 3.71148, 34.1399 3.65436, 34.0063 3.62107, 33.8236 3.61117, 33.641 3.60172, 33.4408 3.59678, 33.2231 3.59633 L 33.2231 3.01335, 35.5577 2.84061, 35.5577 11.8804 C 35.5577 12.0054, 35.564 12.1255, 35.5762 12.2407, 35.5888 12.3558, 35.6382 12.4422, 35.7246 12.4998, 35.811 12.5574, 35.9459 12.5925, 36.1286 12.6042, 36.3112 12.6163, 36.5141 12.6221, 36.7363 12.6217 L 36.7363 13.2119 Z M 34.3571 8.1522 C 34.1943 7.83102, 33.9617 7.56607, 33.6604 7.35735, 33.359 7.14863, 33.013 7.04427, 32.6226 7.04382, 32.3113 7.04427, 32.0198 7.11759, 31.7481 7.26378, 31.4764 7.41043, 31.2421 7.61285, 31.0441 7.8715, 30.8269 8.16479, 30.6874 8.49227, 30.6254 8.85438, 30.5637 9.21694, 30.5327 9.5921, 30.5327 9.9803, 30.5327 10.3694, 30.5601 10.7414, 30.6141 11.0963, 30.6685 11.4517, 30.7972 11.785, 30.9996 12.0963, 31.1678 12.3415, 31.3815 12.5385, 31.6406 12.6869, 31.9002 12.8358, 32.1732 12.91, 32.4598 12.9096, 32.8898 12.91, 33.2699 12.7913, 33.601 12.5538, 33.932 12.3163, 34.1844 12.0126, 34.3571 11.6429 Z" stroke="none" fill="#000000" />
			<path d="M 43.3582 11.391 C 43.319 11.7031, 43.2192 11.9816, 43.0581 12.2263, 42.8975 12.471, 42.6987 12.6797, 42.4612 12.8525, 42.2241 13.0252, 41.9596 13.157, 41.6682 13.2479, 41.3767 13.3392, 41.0753 13.3846, 40.7635 13.3846, 40.2993 13.3846, 39.8571 13.296, 39.437 13.1188, 39.0169 12.9415, 38.6462 12.6919, 38.325 12.3698, 37.989 12.0342, 37.7393 11.6577, 37.5761 11.2403, 37.4132 10.8228, 37.3314 10.3815, 37.3314 9.91553, 37.3314 9.4648, 37.4092 9.03206, 37.5648 8.61687, 37.7205 8.20213, 37.9544 7.82877, 38.2656 7.49724, 38.5621 7.17607, 38.908 6.92821, 39.3034 6.75278, 39.6988 6.57779, 40.114 6.49008, 40.5485 6.48963, 40.9345 6.49008, 41.3087 6.55485, 41.6718 6.6844, 42.0352 6.81395, 42.355 7.02492, 42.6317 7.31731, 42.9088 7.64389, 43.0991 8.00285, 43.2025 8.39375, 43.3064 8.78511, 43.3582 9.17961, 43.3582 9.57725, 43.3582 9.73604, 43.2767 9.81521, 43.1139 9.81476 L 38.7398 9.81476, 38.7398 9.91553 C 38.7398 10.2758, 38.7722 10.6308, 38.8365 10.9807, 38.8959 11.3748, 39.0367 11.7297, 39.2589 12.0459, 39.4469 12.2911, 39.6777 12.489, 39.9521 12.6401, 40.2265 12.7913, 40.5166 12.8669, 40.8229 12.8664, 41.0555 12.8669, 41.279 12.83, 41.4941 12.7553, 41.7091 12.6811, 41.9084 12.5745, 42.091 12.435, 42.2736 12.296, 42.4284 12.1341, 42.5543 11.9492, 42.6803 11.7648, 42.7729 11.5592, 42.8319 11.3334, 42.8615 11.2187, 42.9407 11.1611, 43.0694 11.1607 L 43.1508 11.1607 C 43.2844 11.1899, 43.3537 11.2668, 43.3582 11.391 Z M 42.1945 9.36134 C 42.1846 9.06895, 42.1504 8.76936, 42.091 8.46213, 42.0316 8.15534, 41.9129 7.8697, 41.7347 7.6052, 41.5966 7.40413, 41.4239 7.24579, 41.2161 7.13063, 41.0087 7.01548, 40.786 6.9579, 40.5485 6.95745, 40.2723 6.9579, 40.0177 7.03257, 39.7852 7.18102, 39.5531 7.32991, 39.3578 7.52918, 39.1995 7.77839, 39.0416 8.02804, 38.9327 8.29074, 38.8734 8.56649, 38.814 8.84268, 38.7771 9.10763, 38.7623 9.36134 L 42.1945 9.36134 Z" stroke="none" fill="#000000" />
			<path d="M 49.1861 7.54763 C 49.1861 7.78783, 49.111 7.96822, 48.9603 8.08787, 48.8096 8.20797, 48.6427 8.2678, 48.4601 8.26735, 48.2775 8.2678, 48.1106 8.20797, 47.9599 8.08787, 47.8092 7.96822, 47.7336 7.78783, 47.7336 7.54763, 47.7336 7.39468, 47.7709 7.26513, 47.8447 7.15942, 47.9189 7.05416, 47.9585 7.00108, 47.9635 7.00063, 48.0525 7.02987, 48.0674 7.04427, 48.008 7.04382, 47.7314 7.04427, 47.4867 7.11624, 47.2743 7.26018, 47.062 7.40413, 46.8816 7.60116, 46.7332 7.85036, 46.5847 8.10002, 46.4736 8.38791, 46.3994 8.71403, 46.3256 9.04061, 46.2883 9.37843, 46.2883 9.7284 L 46.2883 12.1611 C 46.2883 12.2479, 46.3059 12.3262, 46.3405 12.3954, 46.3751 12.4652, 46.4219 12.5119, 46.4813 12.5353, 46.6099 12.579, 46.7926 12.6042, 47.0296 12.6114, 47.2671 12.6185, 47.5114 12.6221, 47.7633 12.6217 L 47.7633 13.2191 C 47.1065 13.2002, 46.4741 13.1858, 45.8659 13.1759 L 45.5915 13.1759 C 45.0679 13.1759, 44.5223 13.193, 43.9537 13.2263 L 43.9537 12.6217 C 44.1759 12.6221, 44.3797 12.6185, 44.565 12.6114, 44.7503 12.6042, 44.8902 12.579, 44.9838 12.5353, 45.0432 12.507, 45.0841 12.4566, 45.1062 12.3846, 45.1287 12.3127, 45.1394 12.2384, 45.1394 12.1611 L 45.1394 8.07303 C 45.1394 7.93898, 45.1336 7.81707, 45.121 7.70642, 45.1089 7.59621, 45.058 7.50714, 44.969 7.43967, 44.8853 7.38254, 44.7503 7.34925, 44.565 7.33935, 44.3797 7.32991, 44.1759 7.32496, 43.9537 7.32451 L 43.9537 6.72714, 46.2141 6.5544, 46.2141 7.78514 C 46.2636 7.6223, 46.4466 7.37804, 46.7629 7.05146, 47.0791 6.72534, 47.4943 6.56205, 48.008 6.5616, 48.2945 6.56205, 48.5626 6.64842, 48.8119 6.82115, 49.0615 6.99389, 49.1861 7.23634, 49.1861 7.54763 Z" stroke="none" fill="#000000" />
			<rect />
		</svg>
	</g>
	<path d="M 0 0 L 69.7758 -0.00012207" fill="none" stroke="#000000" stroke-width="2" stroke-linecap="round" stroke-linejoin="round" marker-end="url(#CustomMarker-02)" transform="matrix(0.5 0 0 0.5 289.714 126.43)" />
	<rect x="-37.9564209" y="-113.869308" width="75.9128418" height="227.738617" stroke="none" fill="#3D8C7A" fill-opacity="0.392156839" transform="matrix(0.5 0 -0 0.5 343.58 126.43)" />
	<path d="M -37.9564 -113.869 L 37.9564 -113.869, 37.9564 113.869, -37.9564 113.869 Z" fill="none" stroke="#000000" stroke-width="2" stroke-linecap="round" stroke-linejoin="round" transform="matrix(0.5 0 -0 0.5 343.58 126.43)" />
	<g transform="matrix(1 0 -0 1 328.651 105.148)">
		<svg width="98.967804" height="126.042831">
			<defs />
			<path d="M 13.5416 13.4811 L 14.2581 11.011, 14.5866 11.1376 C 14.4124 12.2381, 14.3372 13.0021, 14.357 13.4217, 14.3808 13.8413, 14.456 14.2411, 14.5866 14.6211, 14.6302 14.7913, 14.5629 14.8744, 14.3887 14.8744, 14.1749 14.8744, 13.6643 14.6844, 12.8568 14.3044, 12.0492 13.9244, 11.309 13.1287, 10.636 11.9016, 9.9631 10.6784, 9.53558 9.19796, 9.36141 7.46414 L 6.15899 7.46414, 6.15899 12.8477, 9.16348 11.3276, 9.29412 11.5176 C 7.55238 12.7052, 6.40046 13.6552, 5.83439 14.3678 L 5.11394 13.4811 C 5.24853 13.2752, 5.31187 12.9348, 5.31187 12.4677 L 5.31187 5.75407 C 5.31187 4.87132, 5.29208 3.85795, 5.24458 2.71394 L 6.15899 3.22063 C 7.25153 3.05437, 8.38366 2.78124, 9.55933 2.40122, 10.735 2.02121, 11.6257 1.59765, 12.2353 1.13055 L 13.2803 2.33393 C 12.932 2.33789, 12.552 2.38143, 12.1363 2.46456, 11.7246 2.55165, 11.0161 2.69811, 10.0146 2.90395, 10.0146 4.13109, 10.0581 5.52448, 10.1452 7.08412 L 12.5599 7.08412, 13.3437 6.32409, 14.5193 7.46414, 10.2085 7.46414 C 10.3827 9.07129, 10.8102 10.3934, 11.4832 11.4266, 12.1601 12.4637, 12.8449 13.1485, 13.5416 13.4811 Z M 9.10015 3.09396 C 8.53408 3.18105, 7.55238 3.35126, 6.15899 3.60065 L 6.15899 7.08412, 9.29412 7.08412 C 9.20703 5.69469, 9.14369 4.36464, 9.10015 3.09396 Z M 7.72655 12.7844 C 8.59742 13.1683, 9.16348 13.4771, 9.42475 13.7067, 9.68601 13.9363, 9.81664 14.1777, 9.81664 14.4311, 9.81664 14.5578, 9.76518 14.7399, 9.65434 14.9694, 9.54746 15.203, 9.4485 15.3178, 9.36141 15.3178, 9.27432 15.3178, 9.16744 15.1713, 9.03285 14.8744, 8.8191 14.3678, 8.34012 13.7384, 7.59592 12.9744 Z M 3.35241 4.9307 L 2.96052 5.24738, 2.96052 12.5943 C 2.96052 13.2317, 2.98427 13.9877, 3.02386 14.8744 L 2.04611 15.3178 C 2.08965 13.7186, 2.10945 12.6814, 2.10945 12.2143 L 2.10945 5.56406 C 1.49984 6.49827, 0.739808 7.42455, -0.174605 8.35084 L -0.372529 8.16083 C 0.720015 6.64473, 1.59088 5.12467, 2.24404 3.60461, 2.89719 2.08454, 3.28908 1.05138, 3.41575 0.497187 L 4.72205 1.38389 C 4.37371 1.55806, 4.04911 1.91829, 3.74431 2.46456, 3.4395 3.01479, 3.09115 3.71148, 2.69926 4.55069 Z" stroke="none" fill="#000000" />
			<path d="M 16.7262 9.8709 C 18.1631 9.62152, 19.4892 9.36817, 20.7084 9.11087 L 20.7757 9.36422 C 19.7742 9.62152, 18.8162 9.9382, 17.9018 10.3182, 16.9874 10.6982, 16.3976 11.0347, 16.1363 11.3276 L 15.2219 10.0609 C 15.5307 10.0213, 15.9543 9.7284, 16.4966 9.17817, 17.0428 8.63189, 17.6841 7.74123, 18.4244 6.5141, 18.0325 6.60119, 17.597 6.70807, 17.118 6.83474, 16.6391 6.96141, 16.2234 7.19496, 15.8751 7.52747 L 15.028 6.38743 C 15.4634 6.30826, 15.9859 5.5799, 16.5955 4.2063, 17.2051 2.83666, 17.6208 1.70453, 17.8345 0.813867 L 19.2715 1.5739, 18.6856 1.82724 C 18.076 2.88812, 17.1853 4.40818, 16.0057 6.38743 L 18.6183 6.13408 C 19.1883 5.04154, 19.5802 4.13109, 19.794 3.41064 L 20.9697 4.29734, 20.5144 4.55069 C 19.2952 6.66452, 18.0325 8.43793, 16.7262 9.8709 Z M 15.3526 13.1644 C 15.7009 13.0852, 16.2907 12.915, 17.118 12.6616, 17.9454 12.4083, 19.2081 12.0085, 20.9063 11.4543 L 20.9697 11.7076 C 19.7979 12.2183, 18.7846 12.6854, 17.9335 13.105, 17.0864 13.5286, 16.5282 13.9244, 16.267 14.3044 Z M 22.5372 7.46414 L 22.5372 10.1242, 25.2805 10.1242, 25.2805 7.46414 Z M 22.5372 10.5043 L 22.5372 13.4177, 25.2805 13.4177, 25.2805 10.5043 Z M 24.8252 0.940538 C 26.088 1.53431, 26.753 1.98954, 26.8164 2.30622, 26.8837 2.6229, 26.8203 2.89999, 26.6224 3.12959, 26.4245 3.36314, 26.282 3.47793, 26.1949 3.47398, 26.0682 3.47793, 25.9574 3.30772, 25.8703 2.96729, 25.6961 2.42102, 25.3042 1.78766, 24.6946 1.06721 Z M 21.6228 15.3811 C 21.6703 14.2846, 21.6901 11.0585, 21.6901 5.69073, 21.3418 6.37159, 20.7757 7.23455, 19.9919 8.28751 L 19.794 8.16083 C 20.4907 6.94162, 21.0805 5.65511, 21.5595 4.3013, 22.0385 2.95145, 22.3868 1.68474, 22.6045 0.497187 L 24.1048 1.32055, 23.5823 1.63723 C 23.3685 2.14788, 23.0202 2.95145, 22.5372 4.044 L 27.7624 4.044, 28.6769 3.1573, 29.7892 4.42401, 26.1315 4.42401, 26.1315 7.08412, 27.5012 7.08412, 28.4156 6.19742, 29.4606 7.46414, 26.1315 7.46414, 26.1315 10.1242, 27.4378 10.1242, 28.3523 9.30088, 29.4606 10.5043, 26.1315 10.5043, 26.1315 13.4177, 28.091 13.4177, 29.0054 12.531, 30.1138 13.7977, 22.5372 13.7977, 22.5372 14.9378 Z M 25.2805 4.42401 L 22.5372 4.42401, 22.5372 7.08412, 25.2805 7.08412 Z" stroke="none" fill="#000000" />
			<path d="M 5.50584 32.0514 L 5.50584 35.3449, 9.16348 35.3449, 9.16348 32.0514 Z M 9.7533 38.5117 C 10.6242 38.5592, 11.3209 38.5909, 11.8434 38.6106, 12.3659 38.6344, 12.6074 38.3454, 12.5599 37.7517 L 12.5599 28.948, 2.37071 28.948, 2.37071 39.8417, 1.39296 40.2851 C 1.4365 39.0619, 1.4563 38.0723, 1.4563 37.3083 L 1.4563 30.5314 C 1.4563 29.6486, 1.4365 28.7817, 1.39296 27.9346 L 2.438 28.5679, 5.24458 28.5679 C 5.7671 27.0954, 6.05211 26.0583, 6.09565 25.4645 L 7.53258 26.1612 C 7.01006 26.462, 6.40046 27.2616, 5.70376 28.5679 L 12.4292 28.5679, 12.8884 27.8713, 13.9968 28.6946, 13.4743 29.138, 13.4743 38.1317 C 13.5614 39.1886, 13.0824 39.8853, 12.0374 40.2218, 11.9978 39.5053, 11.2338 39.0421, 9.7533 38.8284 Z M 10.0779 34.9015 C 10.0779 35.242, 10.1016 35.7487, 10.1452 36.4216 L 9.16348 36.8016, 9.16348 35.7249, 5.50584 35.7249, 5.50584 36.6749, 4.52809 37.055 C 4.57163 36.002, 4.59142 34.9292, 4.59142 33.8288, 4.59142 32.7323, 4.57163 31.8218, 4.52809 31.1014 L 5.50584 31.6714, 9.10015 31.6714, 9.55538 31.038, 10.6004 31.8614, 10.0779 32.3048 Z" stroke="none" fill="#000000" />
			<path d="M 18.555 32.6848 L 18.555 34.0148, 22.0147 34.0148, 22.0147 32.6848 Z M 22.8658 32.6848 L 22.8658 34.0148, 26.1949 34.0148, 26.1949 32.6848 Z M 18.555 34.3949 L 18.555 35.6616, 22.0147 35.6616, 22.0147 34.3949 Z M 22.8658 34.3949 L 22.8658 35.6616, 26.1949 35.6616, 26.1949 34.3949 Z M 27.046 32.8748 C 27.046 34.5255, 27.0697 35.622, 27.1093 36.1683 L 26.1949 36.5483, 26.1949 36.0416, 22.8658 36.0416, 22.8658 37.435, 26.3928 37.435, 27.3072 36.6749, 28.3523 37.815, 22.8658 37.815, 22.8658 39.3351, 27.8931 39.3351, 28.8748 38.4484, 29.9832 39.7151, 17.1814 39.7151 C 16.6193 39.7151, 16.0968 39.7784, 15.6138 39.9051 L 15.028 39.3351, 22.0147 39.3351, 22.0147 37.815, 18.6183 37.815 C 18.0562 37.819, 17.5337 37.8823, 17.0508 38.005 L 16.4649 37.435, 22.0147 37.435, 22.0147 36.0416, 18.555 36.0416, 18.555 36.4216, 17.6406 36.7383 C 17.6841 35.8991, 17.7039 35.0638, 17.7039 34.2405, 17.7039 33.4171, 17.6841 32.6056, 17.6406 31.7981 L 18.555 32.3048, 26.1315 32.3048, 26.5234 31.7981, 27.5012 32.4948 Z M 18.7489 26.6045 L 18.7489 27.6812, 26.0009 27.6812, 26.0009 26.6045 Z M 18.7489 28.0613 L 18.7489 29.2013, 26.0009 29.2013, 26.0009 28.0613 Z M 26.848 26.7312 C 26.848 28.2988, 26.8718 29.3319, 26.9153 29.8347 L 26.0009 30.2147, 26.0009 29.5813, 18.7489 29.5813, 18.7489 30.1513, 17.8345 30.5314 C 17.882 29.8584, 17.9018 29.0073, 17.9018 27.9702, 17.9018 26.937, 17.882 26.2087, 17.8345 25.7812 L 18.8162 26.2245, 25.8703 26.2245, 26.2622 25.6545, 27.3072 26.3512 Z M 14.7667 30.848 L 28.1543 30.848, 29.0687 30.0247, 30.1811 31.2281, 16.5955 31.2281 C 16.2472 31.232, 15.8355 31.2954, 15.3526 31.4181 Z" stroke="none" fill="#000000" />
			<rect />
		</svg>
	</g>
	<rect x="-94.8909302" y="-37.9564819" width="189.78186" height="75.9129639" stroke="none" fill="#08DD66" fill-opacity="0.392156839" transform="matrix(0.5 0 -0 0.5 462.989 126.43)" />
	<path d="M -94.8909 -37.9565 L 94.8909 -37.9565, 94.8909 37.9565, -94.8909 37.9565 Z" fill="none" stroke="#000000" stroke-width="2" stroke-linecap="round" stroke-linejoin="round" transform="matrix(0.5 0 -0 0.5 462.989 126.43)" />
	<g transform="matrix(1 0 -0 1 438.361 117.624)">
		<svg width="152.997955" height="38.9999886">
			<defs />
			<path d="M 5.24448 13.3918 L 5.24448 12.5353 C 5.08614 12.7324, 4.83288 12.9235, 4.48472 13.108, 4.13655 13.2924, 3.74745 13.3846, 3.31741 13.3846, 2.86308 13.3846, 2.43304 13.296, 2.02775 13.1188, 1.6229 12.9415, 1.27204 12.6964, 0.975149 12.3842, 0.653971 12.0486, 0.410614 11.6771, 0.245076 11.2691, 0.0795393 10.8615, -0.00322923 10.4319, -0.00322923 9.9803, -0.00322923 9.52957, 0.0835878 9.09549, 0.256322 8.67805, 0.429506 8.2606, 0.681411 7.89129, 1.01248 7.56967, 1.34356 7.24849, 1.72142 7.00018, 2.14605 6.82475, 2.57114 6.64977, 3.01602 6.56205, 3.48025 6.5616, 3.88059 6.56205, 4.24541 6.64752, 4.57378 6.81755, 4.90216 6.98804, 5.13562 7.16167, 5.27417 7.3389 L 5.27417 4.34484 C 5.27417 4.22069, 5.26832 4.09969, 5.25572 3.98183, 5.24313 3.86442, 5.195 3.77446, 5.11088 3.71148, 5.02721 3.65436, 4.89361 3.62107, 4.71098 3.61117, 4.52835 3.60172, 4.32818 3.59678, 4.11046 3.59633 L 4.11046 3.01335, 6.44507 2.84061, 6.44507 11.8804 C 6.44507 12.0054, 6.45137 12.1255, 6.46351 12.2407, 6.47611 12.3558, 6.52559 12.4422, 6.61196 12.4998, 6.69832 12.5574, 6.83327 12.5925, 7.0159 12.6042, 7.19853 12.6163, 7.40141 12.6221, 7.62362 12.6217 L 7.62362 13.2119 Z M 5.24448 8.1522 C 5.08164 7.83102, 4.84908 7.56607, 4.54769 7.35735, 4.24631 7.14863, 3.90039 7.04427, 3.50994 7.04382, 3.19865 7.04427, 2.90716 7.11759, 2.63547 7.26378, 2.36377 7.41043, 2.12941 7.61285, 1.93149 7.8715, 1.71422 8.16479, 1.57477 8.49227, 1.51269 8.85438, 1.45107 9.21694, 1.42003 9.5921, 1.42003 9.9803, 1.42003 10.3694, 1.44747 10.7414, 1.50145 11.0963, 1.55588 11.4517, 1.68453 11.785, 1.88695 12.0963, 2.05519 12.3415, 2.26886 12.5385, 2.52796 12.6869, 2.78751 12.8358, 3.06056 12.91, 3.3471 12.9096, 3.77713 12.91, 4.15724 12.7913, 4.48831 12.5538, 4.81939 12.3163, 5.07174 12.0126, 5.24448 11.6429 Z" stroke="none" fill="#000000" />
			<path d="M 14.245 11.391 C 14.2059 11.7031, 14.106 11.9816, 13.945 12.2263, 13.7844 12.471, 13.5855 12.6797, 13.348 12.8525, 13.111 13.0252, 12.8465 13.157, 12.555 13.2479, 12.2635 13.3392, 11.9621 13.3846, 11.6504 13.3846, 11.1862 13.3846, 10.744 13.296, 10.3238 13.1188, 9.90369 12.9415, 9.53303 12.6919, 9.21185 12.3698, 8.87583 12.0342, 8.62617 11.6577, 8.46289 11.2403, 8.30005 10.8228, 8.21818 10.3815, 8.21818 9.91553, 8.21818 9.4648, 8.296 9.03206, 8.45164 8.61687, 8.60728 8.20213, 8.84119 7.82877, 9.15248 7.49724, 9.44891 7.17607, 9.79483 6.92821, 10.1902 6.75278, 10.5856 6.57779, 11.0008 6.49008, 11.4354 6.48963, 11.8213 6.49008, 12.1956 6.55485, 12.5586 6.6844, 12.922 6.81395, 13.2419 7.02492, 13.5185 7.31731, 13.7956 7.64389, 13.9859 8.00285, 14.0893 8.39375, 14.1933 8.78511, 14.245 9.17961, 14.245 9.57725, 14.245 9.73604, 14.1636 9.81521, 14.0007 9.81476 L 9.62659 9.81476, 9.62659 9.91553 C 9.62659 10.2758, 9.65898 10.6308, 9.72331 10.9807, 9.78269 11.3748, 9.92348 11.7297, 10.1457 12.0459, 10.3337 12.2911, 10.5645 12.489, 10.8389 12.6401, 11.1133 12.7913, 11.4034 12.8669, 11.7098 12.8664, 11.9423 12.8669, 12.1659 12.83, 12.3809 12.7553, 12.5959 12.6811, 12.7952 12.5745, 12.9778 12.435, 13.1605 12.296, 13.3152 12.1341, 13.4411 11.9492, 13.5671 11.7648, 13.6598 11.5592, 13.7187 11.3334, 13.7484 11.2187, 13.8275 11.1611, 13.9562 11.1607 L 14.0376 11.1607 C 14.1712 11.1899, 14.2405 11.2668, 14.245 11.391 Z M 13.0813 9.36134 C 13.0714 9.06895, 13.0372 8.76936, 12.9778 8.46213, 12.9184 8.15534, 12.7997 7.8697, 12.6216 7.6052, 12.4835 7.40413, 12.3107 7.24579, 12.1029 7.13063, 11.8955 7.01548, 11.6729 6.9579, 11.4354 6.95745, 11.1592 6.9579, 10.9046 7.03257, 10.672 7.18102, 10.4399 7.32991, 10.2447 7.52918, 10.0863 7.77839, 9.92843 8.02804, 9.81957 8.29074, 9.76019 8.56649, 9.70082 8.84268, 9.66393 9.10763, 9.64909 9.36134 L 13.0813 9.36134 Z" stroke="none" fill="#000000" />
			<path d="M 20.8628 11.3982 C 20.7792 11.9982, 20.4962 12.4796, 20.0144 12.8417, 19.5327 13.2038, 18.951 13.3846, 18.2691 13.3846, 17.8148 13.3846, 17.3825 13.296, 16.9722 13.1188, 16.562 12.9415, 16.2039 12.6964, 15.8972 12.3842, 15.576 12.0585, 15.3326 11.6892, 15.1671 11.2763, 15.0015 10.8638, 14.9188 10.4319, 14.9188 9.9803, 14.9188 9.52013, 15.0006 9.07659, 15.1635 8.64926, 15.3268 8.22237, 15.5715 7.84316, 15.8972 7.51164, 16.2039 7.19046, 16.562 6.93991, 16.9722 6.75997, 17.3825 6.58004, 17.8148 6.49008, 18.2691 6.48963, 18.5556 6.49008, 18.8422 6.52022, 19.1287 6.58004, 19.4157 6.64032, 19.6739 6.73478, 19.9033 6.86434, 20.1332 6.99389, 20.3221 7.16302, 20.4706 7.37174, 20.619 7.58046, 20.6928 7.82652, 20.6928 8.10901, 20.6928 8.35912, 20.6127 8.5485, 20.4521 8.67805, 20.2915 8.8076, 20.1148 8.87237, 19.9218 8.87192, 19.7293 8.87237, 19.5525 8.8076, 19.3919 8.67805, 19.2313 8.5485, 19.1508 8.35912, 19.1508 8.10901, 19.1508 7.85981, 19.2376 7.66818, 19.4103 7.53323, 19.5588 7.42797, 19.7194 7.37309, 19.8921 7.36769 L 19.7513 7.36769 C 19.6676 7.29122, 19.4845 7.21115, 19.203 7.12704, 18.9214 7.04337, 18.6101 7.00108, 18.2691 7.00063, 17.9925 7.00108, 17.7271 7.07576, 17.4725 7.2242, 17.2179 7.37309, 17.0069 7.57192, 16.8386 7.82112, 16.6362 8.1333, 16.5026 8.47202, 16.4383 8.83639, 16.3744 9.2012, 16.342 9.58265, 16.342 9.9803, 16.342 10.36, 16.3807 10.727, 16.4572 11.0819, 16.5337 11.4373, 16.6808 11.7634, 16.898 12.0603, 17.0762 12.3055, 17.2948 12.5011, 17.5539 12.6473, 17.8134 12.794, 18.0865 12.8669, 18.3726 12.8664, 18.9016 12.8669, 19.3312 12.7256, 19.6622 12.4422, 19.9933 12.1593, 20.2182 11.7945, 20.337 11.3478, 20.3667 11.2331, 20.4382 11.1755, 20.5515 11.175 L 20.6851 11.1894 C 20.8039 11.2187, 20.8628 11.2884, 20.8628 11.3982 Z" stroke="none" fill="#000000" />
			<path d="M 28.3196 10.0091 C 28.3196 10.4607, 28.2332 10.8926, 28.0605 11.305, 27.8877 11.718, 27.6354 12.0824, 27.3043 12.3986, 26.9885 12.7063, 26.6228 12.9474, 26.2076 13.1224, 25.7924 13.2973, 25.3525 13.3846, 24.8883 13.3846, 24.4241 13.3846, 23.9841 13.2987, 23.5689 13.126, 23.1542 12.9532, 22.7858 12.7108, 22.4646 12.3986, 22.1286 12.0774, 21.8767 11.7117, 21.7084 11.3014, 21.5407 10.8912, 21.4565 10.4607, 21.4565 10.0091, 21.4565 9.54891, 21.542 9.10538, 21.7125 8.67805, 21.883 8.25116, 22.1335 7.867, 22.4646 7.52603, 22.7808 7.20486, 23.1479 6.95205, 23.5653 6.76717, 23.9828 6.58274, 24.4241 6.49008, 24.8883 6.48963, 25.3525 6.49008, 25.7924 6.58274, 26.2076 6.76717, 26.6228 6.95205, 26.9885 7.20486, 27.3043 7.52603, 27.6403 7.87195, 27.8936 8.25701, 28.0641 8.68164, 28.2346 9.10628, 28.3196 9.54891, 28.3196 10.0091 Z M 26.9116 9.84355 C 26.9116 9.47469, 26.886 9.10988, 26.8338 8.75002, 26.7821 8.39016, 26.6548 8.06133, 26.4519 7.76354, 26.2643 7.50984, 26.0345 7.31192, 25.7628 7.17022, 25.4911 7.02897, 25.1996 6.9579, 24.8883 6.95745, 24.577 6.9579, 24.2855 7.02897, 24.0138 7.17022, 23.7421 7.31192, 23.5123 7.50984, 23.3242 7.76354, 23.1218 8.05683, 22.995 8.38431, 22.9428 8.74642, 22.891 9.10898, 22.865 9.47469, 22.865 9.84355, 22.865 10.2327, 22.8888 10.6177, 22.9356 10.9992, 22.9824 11.3806, 23.1119 11.7319, 23.3242 12.0531, 23.4925 12.3032, 23.7174 12.5011, 23.999 12.6473, 24.2806 12.794, 24.577 12.8669, 24.8883 12.8664, 25.1996 12.8669, 25.496 12.794, 25.7776 12.6473, 26.0592 12.5011, 26.2841 12.3032, 26.4519 12.0531, 26.6647 11.7319, 26.7947 11.3806, 26.8414 10.9992, 26.8882 10.6177, 26.9116 10.2327, 26.9116 9.84355 Z" stroke="none" fill="#000000" />
			<path d="M 34.2757 13.3918 L 34.2757 12.5353 C 34.1174 12.7324, 33.8641 12.9235, 33.516 13.108, 33.1678 13.2924, 32.7787 13.3846, 32.3486 13.3846, 31.8943 13.3846, 31.4643 13.296, 31.059 13.1188, 30.6541 12.9415, 30.3033 12.6964, 30.0064 12.3842, 29.6852 12.0486, 29.4419 11.6771, 29.2763 11.2691, 29.1108 10.8615, 29.028 10.4319, 29.028 9.9803, 29.028 9.52957, 29.1148 9.09549, 29.2876 8.67805, 29.4607 8.2606, 29.7126 7.89129, 30.0437 7.56967, 30.3748 7.24849, 30.7527 7.00018, 31.1773 6.82475, 31.6024 6.64977, 32.0473 6.56205, 32.5115 6.5616, 32.9118 6.56205, 33.2766 6.64752, 33.605 6.81755, 33.9334 6.98804, 34.1669 7.16167, 34.3054 7.3389 L 34.3054 4.34484 C 34.3054 4.22069, 34.2996 4.09969, 34.287 3.98183, 34.2744 3.86442, 34.2262 3.77446, 34.1421 3.71148, 34.0584 3.65436, 33.9248 3.62107, 33.7422 3.61117, 33.5596 3.60172, 33.3594 3.59678, 33.1417 3.59633 L 33.1417 3.01335, 35.4763 2.84061, 35.4763 11.8804 C 35.4763 12.0054, 35.4826 12.1255, 35.4948 12.2407, 35.5073 12.3558, 35.5568 12.4422, 35.6432 12.4998, 35.7296 12.5574, 35.8645 12.5925, 36.0471 12.6042, 36.2298 12.6163, 36.4326 12.6221, 36.6549 12.6217 L 36.6549 13.2119 Z M 34.2757 8.1522 C 34.1129 7.83102, 33.8803 7.56607, 33.5789 7.35735, 33.2775 7.14863, 32.9316 7.04427, 32.5412 7.04382, 32.2299 7.04427, 31.9384 7.11759, 31.6667 7.26378, 31.395 7.41043, 31.1606 7.61285, 30.9627 7.8715, 30.7455 8.16479, 30.606 8.49227, 30.5439 8.85438, 30.4823 9.21694, 30.4513 9.5921, 30.4513 9.9803, 30.4513 10.3694, 30.4787 10.7414, 30.5327 11.0963, 30.5871 11.4517, 30.7158 11.785, 30.9182 12.0963, 31.0864 12.3415, 31.3001 12.5385, 31.5592 12.6869, 31.8187 12.8358, 32.0918 12.91, 32.3783 12.9096, 32.8084 12.91, 33.1885 12.7913, 33.5196 12.5538, 33.8506 12.3163, 34.103 12.0126, 34.2757 11.6429 Z" stroke="none" fill="#000000" />
			<path d="M 43.2767 11.391 C 43.2376 11.7031, 43.1377 11.9816, 42.9767 12.2263, 42.8161 12.471, 42.6173 12.6797, 42.3798 12.8525, 42.1427 13.0252, 41.8782 13.157, 41.5867 13.2479, 41.2952 13.3392, 40.9939 13.3846, 40.6821 13.3846, 40.2179 13.3846, 39.7757 13.296, 39.3556 13.1188, 38.9354 12.9415, 38.5648 12.6919, 38.2436 12.3698, 37.9076 12.0342, 37.6579 11.6577, 37.4946 11.2403, 37.3318 10.8228, 37.2499 10.3815, 37.2499 9.91553, 37.2499 9.4648, 37.3278 9.03206, 37.4834 8.61687, 37.639 8.20213, 37.8729 7.82877, 38.1842 7.49724, 38.4807 7.17607, 38.8266 6.92821, 39.222 6.75278, 39.6174 6.57779, 40.0326 6.49008, 40.4671 6.48963, 40.8531 6.49008, 41.2273 6.55485, 41.5903 6.6844, 41.9538 6.81395, 42.2736 7.02492, 42.5503 7.31731, 42.8274 7.64389, 43.0176 8.00285, 43.1211 8.39375, 43.225 8.78511, 43.2767 9.17961, 43.2767 9.57725, 43.2767 9.73604, 43.1953 9.81521, 43.0325 9.81476 L 38.6583 9.81476, 38.6583 9.91553 C 38.6583 10.2758, 38.6907 10.6308, 38.7551 10.9807, 38.8144 11.3748, 38.9552 11.7297, 39.1774 12.0459, 39.3655 12.2911, 39.5962 12.489, 39.8706 12.6401, 40.145 12.7913, 40.4352 12.8669, 40.7415 12.8664, 40.9741 12.8669, 41.1976 12.83, 41.4126 12.7553, 41.6277 12.6811, 41.8269 12.5745, 42.0096 12.435, 42.1922 12.296, 42.3469 12.1341, 42.4729 11.9492, 42.5988 11.7648, 42.6915 11.5592, 42.7504 11.3334, 42.7801 11.2187, 42.8593 11.1611, 42.9879 11.1607 L 43.0694 11.1607 C 43.203 11.1899, 43.2722 11.2668, 43.2767 11.391 Z M 42.113 9.36134 C 42.1031 9.06895, 42.069 8.76936, 42.0096 8.46213, 41.9502 8.15534, 41.8314 7.8697, 41.6533 7.6052, 41.5152 7.40413, 41.3425 7.24579, 41.1347 7.13063, 40.9273 7.01548, 40.7046 6.9579, 40.4671 6.95745, 40.1909 6.9579, 39.9363 7.03257, 39.7037 7.18102, 39.4716 7.32991, 39.2764 7.52918, 39.1181 7.77839, 38.9602 8.02804, 38.8513 8.29074, 38.7919 8.56649, 38.7326 8.84268, 38.6957 9.10763, 38.6808 9.36134 L 42.113 9.36134 Z" stroke="none" fill="#000000" />
			<path d="M 49.1047 7.54763 C 49.1047 7.78783, 49.0296 7.96822, 48.8789 8.08787, 48.7282 8.20797, 48.5613 8.2678, 48.3787 8.26735, 48.196 8.2678, 48.0291 8.20797, 47.8785 8.08787, 47.7278 7.96822, 47.6522 7.78783, 47.6522 7.54763, 47.6522 7.39468, 47.6895 7.26513, 47.7633 7.15942, 47.8375 7.05416, 47.8771 7.00108, 47.882 7.00063, 47.9711 7.02987, 47.986 7.04427, 47.9266 7.04382, 47.6499 7.04427, 47.4052 7.11624, 47.1929 7.26018, 46.9806 7.40413, 46.8002 7.60116, 46.6518 7.85036, 46.5033 8.10002, 46.3922 8.38791, 46.318 8.71403, 46.2442 9.04061, 46.2069 9.37843, 46.2069 9.7284 L 46.2069 12.1611 C 46.2069 12.2479, 46.2244 12.3262, 46.2591 12.3954, 46.2937 12.4652, 46.3405 12.5119, 46.3999 12.5353, 46.5285 12.579, 46.7111 12.6042, 46.9482 12.6114, 47.1857 12.6185, 47.43 12.6221, 47.6819 12.6217 L 47.6819 13.2191 C 47.0251 13.2002, 46.3927 13.1858, 45.7845 13.1759 L 45.5101 13.1759 C 44.9865 13.1759, 44.4409 13.193, 43.8723 13.2263 L 43.8723 12.6217 C 44.0945 12.6221, 44.2983 12.6185, 44.4836 12.6114, 44.6689 12.6042, 44.8088 12.579, 44.9024 12.5353, 44.9618 12.507, 45.0027 12.4566, 45.0247 12.3846, 45.0472 12.3127, 45.058 12.2384, 45.058 12.1611 L 45.058 8.07303 C 45.058 7.93898, 45.0522 7.81707, 45.0396 7.70642, 45.0274 7.59621, 44.9766 7.50714, 44.8875 7.43967, 44.8039 7.38254, 44.6689 7.34925, 44.4836 7.33935, 44.2983 7.32991, 44.0945 7.32496, 43.8723 7.32451 L 43.8723 6.72714, 46.1327 6.5544, 46.1327 7.78514 C 46.1821 7.6223, 46.3652 7.37804, 46.6815 7.05146, 46.9977 6.72534, 47.4129 6.56205, 47.9266 6.5616, 48.2131 6.56205, 48.4812 6.64842, 48.7304 6.82115, 48.9801 6.99389, 49.1047 7.23634, 49.1047 7.54763 Z" stroke="none" fill="#000000" />
			<rect />
		</svg>
	</g>
	<path d="M 0 0 L 105.972 0.00012207" fill="none" stroke="#000000" stroke-width="2" stroke-linecap="round" stroke-linejoin="round" marker-end="url(#CustomMarker-03)" transform="matrix(0.5 0 0 0.5 362.558 126.43)" />
	<rect x="-113.869324" y="-113.869293" width="227.738647" height="227.738586" stroke="none" fill="#B9FAD6" fill-opacity="0.392156839" transform="matrix(0.5 0 -0 0.5 601.044 126.43)" />
	<path d="M -113.869 -113.869 L 113.869 -113.869, 113.869 113.869, -113.869 113.869 Z" fill="none" stroke="#000000" stroke-width="2" stroke-linecap="round" stroke-linejoin="round" transform="matrix(0.5 0 -0 0.5 601.044 126.43)" />
	<g transform="matrix(1 0 -0 1 563.502 117.624)">
		<svg width="230.955704" height="50.9571342">
			<defs />
			<path d="M 6.68151 7.4008 L 6.68151 9.04754, 8.70826 9.04754, 8.70826 7.4008 Z M 6.68151 9.42755 L 6.68151 11.1376, 8.70826 11.1376, 8.70826 9.42755 Z M 9.7533 1.76391 C 8.35991 4.0915, 6.64192 5.71448, 4.59142 6.64077 L 4.46079 6.45076 C 5.72751 5.61156, 6.74089 4.66152, 7.50092 3.60461, 8.26095 2.55165, 8.83889 1.49473, 9.23078 0.43385 L 10.5371 1.19388, 10.0146 1.51056 C 11.3209 3.58481, 13.0191 4.80799, 15.1091 5.18404 L 15.1091 5.43739 C 14.456 5.48489, 14.0641 5.71448, 13.9335 6.13408, 12.2353 5.25134, 10.8419 3.79461, 9.7533 1.76391 Z M 5.83439 15.4445 C 5.87793 14.6013, 5.89773 13.1367, 5.89773 11.0466, 5.89773 8.95649, 5.87793 7.4681, 5.83439 6.57744 L 6.7488 7.02079, 8.57763 7.02079, 9.03285 6.45076, 9.94727 7.14746, 9.49204 7.52747, 9.49204 14.1777 C 9.49204 14.8111, 9.16744 15.2347, 8.51033 15.4445, 8.38366 14.9378, 7.96802 14.6211, 7.27132 14.4944 L 7.27132 14.2411 C 7.70676 14.2846, 8.05511 14.3044, 8.31637 14.3044, 8.57763 14.3044, 8.70826 14.1382, 8.70826 13.7977 L 8.70826 11.5176, 6.68151 11.5176, 6.68151 15.0011 Z M 10.7983 12.911 C 10.8419 12.3252, 10.8617 11.3751, 10.8617 10.0649, 10.8617 8.75857, 10.8419 7.78478, 10.7983 7.14746 L 12.0374 7.78082, 11.6455 8.0975, 11.6455 12.531 Z M 13.0191 8.41418 C 13.0191 7.95499, 12.9993 7.32163, 12.9518 6.5141 L 14.2581 7.08412, 13.8028 7.52747, 13.8028 13.9877 C 13.8464 14.6646, 13.4307 15.1278, 12.5599 15.3811, 12.5203 14.8349, 11.9542 14.4548, 10.8617 14.2411 L 10.8617 13.9877 C 11.693 14.0313, 12.259 14.0511, 12.5638 14.0511, 12.8686 14.0511, 13.0191 13.8848, 13.0191 13.5444 Z M 2.89323 7.4008 C 2.89323 6.30826, 2.87344 5.46114, 2.82989 4.86737 L 4.19953 5.50072, 3.74431 5.94408, 3.74431 7.4008, 4.0689 7.4008, 4.72205 6.83078, 5.63647 7.78082, 3.74431 7.78082, 3.74431 10.4409, 5.50584 10.1242, 5.57313 10.3776, 3.74431 10.8843 C 3.74431 12.915, 3.76806 14.3044, 3.80764 15.0644 L 2.82989 15.4445 C 2.87344 13.675, 2.89323 12.2381, 2.89323 11.1376, 1.28608 11.5651, 0.415211 11.9214, 0.280622 12.2143 L -0.305235 11.1376 C 0.652721 11.0149, 1.72151 10.8447, 2.89323 10.6309 L 2.89323 7.78082, 1.00107 7.78082, 0.478547 8.22417, -0.241899 7.21079 C 0.0668635 7.13163, 0.347917 6.79515, 0.609177 6.20138, 0.870438 5.61156, 1.17524 4.80799, 1.52359 3.79066 L 1.39296 3.79066 C 1.08816 3.79461, 0.696264 3.85795, 0.217286 3.98066 L -0.372529 3.41064, 1.65422 3.41064 C 1.91548 2.40122, 2.15695 1.47098, 2.37071 0.623858 L 3.61368 1.32055 C 3.39596 1.45118, 3.22178 1.63328, 3.09115 1.86287, 2.96052 2.09642, 2.7626 2.61102, 2.50134 3.41064 L 4.33016 3.41064, 5.11394 2.71394, 6.09565 3.79066, 2.37071 3.79066, 1.00107 7.4008 Z M 7.27132 5.05737 L 10.6004 5.05737, 11.2536 4.42401, 12.2353 5.43739, 9.10015 5.43739, 7.40196 5.18404, 7.79385 5.56406 Z" stroke="none" fill="#000000" />
			<path d="M 27.6358 3.72732 L 27.6358 6.19742 C 27.6358 6.62494, 27.6794 7.21475, 27.7665 7.97083 L 26.7214 8.35084, 26.7214 7.59081, 22.8698 7.59081, 22.8698 13.7344, 27.3746 13.7344, 27.3746 10.9476 C 27.3746 10.3618, 27.3548 9.70465, 27.3112 8.9842 L 28.8115 9.80757, 28.289 10.1876, 28.289 12.531 C 28.289 13.295, 28.3127 14.0511, 28.3563 14.8111 L 27.3746 15.1278, 27.3746 14.1144, 17.5773 14.1144, 17.1221 14.5578, 16.2077 13.8611, 16.6629 13.4177, 16.6629 10.9476 C 16.6629 10.3182, 16.6431 9.62152, 16.5996 8.85753 L 18.0998 9.61756, 17.5773 10.0609, 17.5773 13.7344, 21.9554 13.7344, 21.9554 7.59081, 18.1671 7.59081, 17.6446 8.03416, 16.7302 7.33747, 17.1854 6.95745, 17.1854 4.36068 C 17.1854 3.85795, 17.1656 3.30772, 17.1221 2.71394 L 18.6896 3.47398, 18.0998 3.85399, 18.0998 7.21079, 21.9554 7.21079, 21.9554 3.03062 C 21.9554 2.27455, 21.9356 1.53431, 21.8881 0.813867 L 23.3923 1.51056, 22.8698 2.08058, 22.8698 7.21079, 26.7214 7.21079, 26.7214 4.36068 C 26.7214 3.85795, 26.7016 3.26813, 26.6581 2.58727 L 28.1584 3.28397 Z" stroke="none" fill="#000000" />
			<path d="M 32.1307 4.23401 L 32.1307 8.28751, 35.5271 8.28751, 35.5271 4.23401 Z M 32.1307 8.66752 L 32.1307 13.101, 35.5271 13.101, 35.5271 8.66752 Z M 36.3782 4.61402 C 36.3782 9.55818, 36.402 12.7883, 36.4416 14.3044 L 35.5271 14.8111, 35.5271 13.4811, 32.1307 13.4811, 32.1307 14.5578, 31.2163 15.0644 C 31.2638 13.0852, 31.2836 11.1099, 31.2836 9.1465, 31.2836 7.18309, 31.2638 5.23155, 31.2163 3.28397 L 32.198 3.85399, 32.8512 3.85399 C 33.2866 2.42102, 33.5281 1.32451, 33.5677 0.560522 L 35.0046 1.32055 C 34.5692 1.53431, 33.9833 2.38143, 33.2431 3.85399 L 35.3965 3.85399, 36.0497 3.22063, 37.0314 4.17067 Z M 39.5767 0.623858 L 41.0136 1.44723 C 40.6653 1.66098, 40.123 2.52789, 39.3827 4.044 L 42.9097 4.044, 43.6262 3.3473, 44.6079 4.29734, 44.0181 4.74069 C 43.931 9.68485, 43.8123 12.4835, 43.6618 13.1367, 43.5114 13.7938, 43.2937 14.2411, 43.0087 14.4944, 42.7237 14.7478, 42.2764 14.9813, 41.6668 15.1911, 41.453 14.5182, 40.7326 14.0115, 39.5133 13.6711 L 39.5133 13.3544 C 40.6019 13.5681, 41.3857 13.675, 41.8647 13.675, 42.3437 13.675, 42.6366 13.3188, 42.7474 12.5983, 42.8583 11.8818, 42.9533 9.15837, 43.0404 4.42401 L 39.2521 4.42401 C 38.4683 5.65115, 37.641 6.68827, 36.7701 7.52747 L 36.5722 7.4008 C 37.4906 6.05491, 38.1635 4.85153, 38.5989 3.79461, 39.0344 2.74165, 39.3629 1.68474, 39.5767 0.623858 Z M 38.401 6.83078 C 39.446 7.59477, 40.0557 8.15687, 40.2298 8.51314, 40.404 8.87336, 40.4911 9.13462, 40.4911 9.30088, 40.4911 9.60173, 40.404 9.85507, 40.2298 10.0649, 40.0557 10.2786, 39.925 10.3815, 39.8379 10.3776, 39.6638 10.3815, 39.5331 10.0847, 39.446 9.49089, 39.2719 8.65169, 38.88 7.82832, 38.2704 7.02079 Z" stroke="none" fill="#000000" />
			<path d="M 59.0782 1.89058 L 59.0782 12.4043 C 59.0782 13.2515, 59.102 14.0115, 59.1416 14.6844 L 58.1638 15.1911, 58.1638 13.9244, 47.5313 13.9244, 47.5313 14.9378, 46.5496 15.3178 C 46.5971 14.4746, 46.6169 13.6117, 46.6169 12.721 L 46.6169 3.1573 C 46.6169 2.44477, 46.5971 1.64119, 46.5496 0.75053 L 47.5313 1.32055, 58.0332 1.32055, 58.4884 0.687195, 59.5335 1.51056 Z M 47.5313 1.70057 L 47.5313 9.49089 C 49.5739 8.65169, 51.1613 7.70165, 52.2934 6.64077, 51.7273 5.8847, 51.2285 5.01779, 50.7931 4.044, 50.0964 5.10488, 49.3562 5.99158, 48.5724 6.70411 L 48.3784 6.57744 C 49.0751 5.69469, 49.6649 4.77632, 50.14 3.82628, 50.6189 2.87624, 50.9 2.16767, 50.9871 1.70057 Z M 47.5313 13.5444 L 58.1638 13.5444, 58.1638 1.70057, 51.1177 1.70057, 52.2261 2.27059, 51.8342 2.4606 C 51.5729 2.84457, 51.379 3.14146, 51.2483 3.3473 L 54.7041 3.3473, 55.1633 2.77728, 56.141 3.66398, 55.6185 3.98066 C 54.8822 4.998, 54.1183 5.92824, 53.3345 6.76744, 54.6843 7.74123, 56.2281 8.31126, 57.9659 8.47751 L 57.9659 8.73086 C 57.3167 8.77836, 56.9011 9.0317, 56.7269 9.49089, 55.2068 8.94462, 53.8807 8.18458, 52.7486 7.21079, 51.2285 8.39834, 49.4868 9.2613, 47.5313 9.80757 Z M 51.0544 3.72732 C 51.664 4.7882, 52.2498 5.61156, 52.8159 6.19742, 53.4255 5.52448, 54.0312 4.70111, 54.6408 3.72732 Z M 51.4423 8.60419 C 52.4874 8.81794, 53.2276 9.01191, 53.663 9.17817, 54.0985 9.34838, 54.2964 9.63339, 54.2528 10.0332, 54.2093 10.437, 54.1222 10.6349, 53.9876 10.6309, 53.8609 10.6349, 53.7066 10.528, 53.5324 10.3143, 53.097 9.89465, 52.3805 9.38797, 51.379 8.79419 Z M 50.2033 10.8843 C 52.2063 11.098, 53.5205 11.2999, 54.1499 11.4899, 54.7833 11.6799, 55.1198 12.0085, 55.1633 12.4716, 55.2068 12.9387, 55.1198 13.1683, 54.902 13.1644, 54.7714 13.1683, 54.5537 13.0417, 54.2489 12.7844, 53.5997 12.2816, 52.2498 11.7314, 50.2033 11.1376 Z" stroke="none" fill="#000000" />
			<path d="M 64.4994 5.8174 C 64.4994 6.83474, 64.4558 7.74123, 64.3687 8.54085 L 69.8552 8.54085, 70.3144 7.84415, 71.4228 8.66752, 70.9003 9.11087 C 70.9003 11.9452, 70.924 13.8848, 70.9676 14.9378 L 69.9225 15.3811 C 69.966 14.1144, 69.9858 11.9649, 69.9858 8.92087 L 64.3687 8.92087 C 64.0679 11.5018, 62.7814 13.5483, 60.5171 15.0644 L 60.3865 14.8744 C 61.5622 13.7384, 62.3776 12.535, 62.8368 11.2683, 63.296 10.0015, 63.5335 8.32313, 63.5533 6.23305, 63.577 4.14296, 63.5652 2.52789, 63.5216 1.38389 L 65.0892 2.08058, 64.4994 2.58727, 64.4994 5.43739, 68.9408 5.43739 C 68.9408 3.28793, 68.921 1.66098, 68.8775 0.560522 L 70.3777 1.25722, 69.8552 1.76391, 69.8552 5.43739, 72.5984 5.43739, 73.5802 4.48735, 74.7558 5.8174 Z" stroke="none" fill="#000000" />
			<rect />
		</svg>
	</g>
	<path d="M 0 0 L 67.3499 -0.00012207" fill="none" stroke="#000000" stroke-width="2" stroke-linecap="round" stroke-linejoin="round" marker-end="url(#CustomMarker-04)" transform="matrix(0.5 0 0 0.5 510.435 126.43)" />
	<path d="M -536.11 -52.3739 L -536.11 -129.753, 536.11 -129.753, 536.11 -52.3739" fill="none" stroke="#000000" stroke-width="2" stroke-linecap="round" stroke-linejoin="round" marker-end="url(#CustomMarker-05)" transform="matrix(0.5 0 -0 0.5 332.989 95.6823)" />
	<g transform="matrix(1 0 -0 1 306.037 10.75)">
		<svg width="233.914505" height="50.9571342">
			<defs />
			<path d="M 13.6049 11.581 L 14.3254 9.04754, 14.5866 9.11087 C 14.456 10.0847, 14.3887 10.8447, 14.3887 11.391, 14.3887 12.0283, 14.456 12.4518, 14.5866 12.6577, 14.6302 12.7448, 14.65 12.8319, 14.65 12.911, 14.65 13.1683, 14.6737 13.2633, 14.7173 13.2, 14.7608 13.1367, 14.6935 13.105, 14.5193 13.101, 14.3927 13.105, 14.0562 12.9704, 13.5099 12.6933, 12.9636 12.4202, 12.2788 11.7116, 11.4515 10.5676, 10.3629 11.7947, 8.98931 12.7883, 7.33466 13.5444 L 7.27132 13.3544 C 8.79534 12.3885, 10.0344 11.2485, 10.9923 9.93424, 10.4698 8.75461, 10.1452 6.9812, 10.0146 4.61402 L 8.447 4.61402, 8.447 10.1242, 9.94727 8.9842, 10.0779 9.11087 C 9.08036 10.2113, 8.40345 11.0347, 8.05511 11.581 L 7.27132 10.6309 C 7.4455 10.5082, 7.55634 10.2984, 7.59592 9.99758, 7.59592 6.75161, 7.57613 4.66152, 7.53258 3.72732 L 8.447 4.23401, 10.0146 4.23401 C 10.0146 2.88812, 9.99477 1.70453, 9.94727 0.687195 L 11.3842 1.32055, 10.8617 1.76391, 10.8617 4.23401, 12.9518 4.23401, 13.8028 3.41064, 14.8479 4.61402, 10.8617 4.61402 C 10.9092 6.39139, 11.1467 7.86791, 11.5821 9.04754, 12.4095 7.4483, 12.8647 6.26471, 12.9518 5.50072 L 14.1274 6.38743 C 13.8266 6.5616, 13.5218 6.9812, 13.213 7.65415, 12.8647 8.33501, 12.453 9.07129, 11.974 9.8709, 12.3659 10.5518, 12.9082 11.1218, 13.6049 11.581 Z M 11.7128 1.44723 C 12.5836 1.78766, 13.1061 2.05288, 13.2803 2.24288, 13.4545 2.43289, 13.5416 2.61102, 13.5416 2.77728, 13.5416 2.95145, 13.4664 3.15334, 13.312 3.38293, 13.1616 3.61648, 13.0389 3.73128, 12.9518 3.72732, 12.8647 3.73128, 12.7776 3.58481, 12.6905 3.28397, 12.5638 2.86437, 12.1917 2.29434, 11.5821 1.5739 Z M 1.84819 11.201 C 2.41821 11.7947, 2.94073 12.2183, 3.41575 12.4677 L 3.41575 6.64077, 1.4563 6.64077 C 1.10795 6.64473, 0.696264 6.70807, 0.217286 6.83078 L -0.372529 6.26076, 3.15449 6.26076, 3.15449 3.72732, 2.04611 3.72732 C 1.69776 3.73128, 1.28608 3.79461, 0.803144 3.91733 L 0.217286 3.3473, 3.15449 3.3473 C 3.15449 2.42102, 3.1347 1.53431, 3.09115 0.687195 L 4.52809 1.32055, 4.00557 1.70057, 4.00557 3.3473, 5.18124 3.3473, 5.96502 2.58727, 7.01006 3.72732, 4.00557 3.72732, 4.00557 6.26076, 5.63647 6.26076, 6.35691 5.50072, 7.40196 6.64077, 3.54638 6.64077, 4.65872 7.02079, 4.26683 7.4008, 4.26683 9.36422, 5.57313 9.36422, 6.28962 8.66752, 7.33466 9.74423, 4.26683 9.74423, 4.26683 12.911 C 5.70376 13.5919, 7.46529 13.9363, 9.55538 13.9561, 11.6455 13.9798, 13.4743 13.9046, 15.0418 13.7344 L 15.0418 13.9877 C 14.3056 14.2015, 13.9137 14.538, 13.8662 15.0011, 12.6074 15.0011, 11.0834 14.9615, 9.29807 14.8744, 7.51279 14.7913, 6.00065 14.4746, 4.75768 13.9244, 3.51471 13.3781, 2.50134 12.5983, 1.71756 11.581, 1.15545 13.2752, 0.52209 14.5182, -0.174605 15.3178 L -0.372529 15.1911 C 0.324166 13.8413, 0.783351 12.4518, 1.00107 11.0149, 1.21879 9.58193, 1.32566 8.43793, 1.32566 7.59081 L 2.63197 8.22417 C 2.37071 8.48147, 2.22028 8.79815, 2.17674 9.17421, 2.1332 9.60173, 2.02236 10.2747, 1.84819 11.201 Z" stroke="none" fill="#000000" />
			<path d="M 20.6491 2.96729 L 27.5725 2.96729, 28.289 2.27059, 29.4013 3.3473, 22.6719 3.3473 C 22.1098 3.35126, 21.6308 3.4146, 21.235 3.53731 Z M 22.2167 3.60065 C 23.1746 4.23796, 23.709 4.66152, 23.8159 4.87132, 23.9267 5.08508, 23.9782 5.23155, 23.9782 5.31072, 23.9782 5.48489, 23.8911 5.66302, 23.7169 5.85303, 23.5428 6.04304, 23.4121 6.13804, 23.325 6.13408, 23.1984 6.13804, 23.0875 5.94803, 23.0004 5.56406, 22.8698 5.06133, 22.5413 4.44777, 22.0187 3.72732 Z M 24.5007 7.59081 L 23.5863 9.23754, 28.289 9.23754, 29.0728 8.47751, 30.1851 9.61756, 27.4419 9.61756 C 26.7887 10.9714, 26.2425 11.9016, 25.807 12.4043, 26.6779 12.7052, 27.4181 13.01, 28.0277 13.3267, 28.6373 13.6433, 28.9976 13.9165, 29.1084 14.1461, 29.2192 14.3796, 29.2707 14.5815, 29.2707 14.7478, 29.2707 14.8744, 29.239 14.9932, 29.1717 15.0961, 29.1084 15.203, 29.0292 15.2545, 28.9421 15.2545, 28.8155 15.2545, 28.6175 15.1278, 28.3563 14.8744, 27.9644 14.4548, 27.5606 14.1144, 27.1489 13.8611, 26.7373 13.6117, 26.1356 13.3148, 25.3518 12.9744, 24.6551 13.5681, 23.8199 14.0748, 22.8381 14.4944, 21.8564 14.918, 20.5185 15.1911, 18.8203 15.3178 L 18.8203 15.0644 C 19.7347 14.9378, 20.6808 14.6963, 21.6625 14.3361, 22.6442 13.9798, 23.5903 13.4217, 24.5007 12.6577, 23.5032 12.2816, 22.4146 11.9847, 21.235 11.771, 21.6704 11.0585, 22.1058 10.338, 22.5413 9.61756 L 20.1899 9.61756, 19.6041 9.74423, 19.0815 9.23754, 22.6719 9.23754 C 23.1073 8.27167, 23.4557 7.40476, 23.7169 6.64077 L 20.8431 6.64077, 20.2572 6.76744, 19.7347 6.26076, 25.2212 6.26076 C 25.3953 5.8847, 25.5814 5.4651, 25.7753 4.998, 25.9733 4.53485, 26.1554 4.00441, 26.3295 3.41064 L 27.6358 4.29734, 27.05 4.42401 C 26.4404 5.27113, 25.9614 5.8847, 25.6131 6.26076 L 28.0277 6.26076, 28.8115 5.50072, 29.9872 6.64077, 23.8476 6.64077, 25.0232 7.33747 Z M 22.2167 11.581 C 23.1746 11.7551, 24.089 11.9452, 24.9599 12.151, 25.526 11.4385, 26.0049 10.5913, 26.3968 9.61756 L 23.4557 9.61756 C 23.0677 10.2549, 22.6521 10.908, 22.2167 11.581 Z M 23.523 0.560522 C 24.3067 0.98804, 24.8095 1.30472, 25.0272 1.51452, 25.2449 1.72828, 25.3518 1.89454, 25.3518 2.01725, 25.3518 2.19142, 25.2647 2.38143, 25.0905 2.59123, 24.9164 2.80499, 24.8095 2.90791, 24.762 2.90395, 24.6353 2.90791, 24.5245 2.73769, 24.4374 2.39726, 24.2632 1.89454, 23.8951 1.32451, 23.325 0.687195 Z M 18.4284 7.71748 L 20.2572 6.95745, 20.3878 7.14746, 18.4284 8.28751, 18.4284 13.6711 C 18.4284 14.348, 17.9929 14.8744, 17.1221 15.2545, 17.2092 14.7913, 16.6669 14.3282, 15.4872 13.8611 L 15.4872 13.6077 C 16.4452 13.7819, 17.035 13.8531, 17.2527 13.8294, 17.4704 13.8096, 17.5773 13.6315, 17.5773 13.291 L 17.5773 8.73086 C 16.4056 9.41172, 15.7287 9.87486, 15.5545 10.1242 L 14.7034 9.04754 C 15.4872 8.84169, 16.4452 8.50126, 17.5773 8.03416 L 17.5773 4.48735, 16.2077 4.48735, 15.4239 4.61402, 14.9014 4.10733, 17.5773 4.10733 C 17.5773 2.38143, 17.5575 1.1543, 17.514 0.43385 L 18.9509 1.13055, 18.4284 1.5739, 18.4284 4.10733, 19.2755 4.10733, 19.9959 3.41064, 21.1043 4.48735, 18.4284 4.48735 Z" stroke="none" fill="#000000" />
			<path d="M 34.3515 12.2777 C 35.7924 10.6349, 36.4455 8.50126, 36.3109 5.88074, 36.3109 3.98462, 36.2911 2.63477, 36.2476 1.82724 L 37.2253 2.4606 C 38.1437 2.33789, 39.1769 2.13996, 40.3288 1.86287, 41.4847 1.58973, 42.2566 1.28097, 42.6485 0.940538 L 43.5629 2.14392, 42.9097 2.08058 C 40.5148 2.46456, 38.5989 2.69811, 37.162 2.77728 L 37.162 5.8174, 42.9731 5.8174, 43.7569 5.05737, 44.8692 6.19742, 41.4728 6.19742 C 41.4728 9.36817, 41.4966 11.5018, 41.5361 12.5943 L 40.5584 13.0377 C 40.6019 11.9452, 40.6217 9.66506, 40.6217 6.19742 L 37.162 6.19742 C 37.2926 8.90503, 36.398 10.9951, 34.4821 12.4677 Z M 31.347 1.13055 L 31.4776 1.00387 C 32.2614 1.47098, 32.8274 1.86287, 33.1758 2.17955, 33.5241 2.49623, 33.6785 2.79311, 33.635 3.06625, 33.5914 3.34334, 33.4925 3.54127, 33.342 3.66794, 33.1916 3.79461, 33.0689 3.85795, 32.9818 3.85399, 32.8077 3.85795, 32.6572 3.60461, 32.5226 3.09396, 32.3485 2.46456, 31.9566 1.81141, 31.347 1.13055 Z M 33.3064 11.8343 C 33.7023 12.2183, 34.2446 12.6102, 34.9413 13.01, 35.638 13.4138, 36.6514 13.6354, 37.9774 13.675, 39.3075 13.7186, 40.5703 13.7186, 41.7657 13.675, 42.9652 13.6354, 44.1289 13.5681, 45.2611 13.4811 L 45.2611 13.7344 C 44.3467 13.9482, 43.8875 14.2648, 43.8875 14.6844, 41.8845 14.6844, 40.2298 14.6646, 38.9235 14.6211, 37.6172 14.5815, 36.6078 14.4232, 35.8874 14.1461, 35.1709 13.8729, 34.5494 13.485, 34.0269 12.9744, 33.4608 12.4716, 33.1125 12.1866, 32.9818 12.1233, 32.8512 12.06, 32.5662 12.2618, 32.1307 12.725, 31.6953 13.1921, 31.2401 13.7819, 30.7611 14.4944 L 29.8467 13.6711 C 30.7176 13.0852, 31.5884 12.4716, 32.4593 11.8343 L 32.4593 6.38743, 31.9368 6.38743 C 31.3707 6.39139, 30.8482 6.45472, 30.3692 6.57744 L 29.7794 6.00741, 32.2614 6.00741, 32.9818 5.31072, 33.8962 6.19742, 33.3064 6.57744 Z" stroke="none" fill="#000000" />
			<path d="M 58.8328 11.581 L 59.5533 9.04754, 59.8145 9.11087 C 59.6839 10.0847, 59.6166 10.8447, 59.6166 11.391, 59.6166 12.0283, 59.6839 12.4518, 59.8145 12.6577, 59.8581 12.7448, 59.8779 12.8319, 59.8779 12.911, 59.8779 13.1683, 59.9016 13.2633, 59.9452 13.2, 59.9887 13.1367, 59.9214 13.105, 59.7472 13.101, 59.6206 13.105, 59.2841 12.9704, 58.7378 12.6933, 58.1915 12.4202, 57.5067 11.7116, 56.6794 10.5676, 55.5908 11.7947, 54.2172 12.7883, 52.5626 13.5444 L 52.4992 13.3544 C 54.0232 12.3885, 55.2623 11.2485, 56.2202 9.93424, 55.6977 8.75461, 55.3731 6.9812, 55.2425 4.61402 L 53.6749 4.61402, 53.6749 10.1242, 55.1752 8.9842, 55.3058 9.11087 C 54.3083 10.2113, 53.6314 11.0347, 53.283 11.581 L 52.4992 10.6309 C 52.6734 10.5082, 52.7842 10.2984, 52.8238 9.99758, 52.8238 6.75161, 52.804 4.66152, 52.7605 3.72732 L 53.6749 4.23401, 55.2425 4.23401 C 55.2425 2.88812, 55.2227 1.70453, 55.1752 0.687195 L 56.6121 1.32055, 56.0896 1.76391, 56.0896 4.23401, 58.1797 4.23401, 59.0307 3.41064, 60.0758 4.61402, 56.0896 4.61402 C 56.1371 6.39139, 56.3746 7.86791, 56.81 9.04754, 57.6374 7.4483, 58.0926 6.26471, 58.1797 5.50072 L 59.3553 6.38743 C 59.0545 6.5616, 58.7497 6.9812, 58.4409 7.65415, 58.0926 8.33501, 57.6809 9.07129, 57.2019 9.8709, 57.5938 10.5518, 58.1361 11.1218, 58.8328 11.581 Z M 56.9407 1.44723 C 57.8115 1.78766, 58.334 2.05288, 58.5082 2.24288, 58.6824 2.43289, 58.7695 2.61102, 58.7695 2.77728, 58.7695 2.95145, 58.6943 3.15334, 58.5399 3.38293, 58.3895 3.61648, 58.2668 3.73128, 58.1797 3.72732, 58.0926 3.73128, 58.0055 3.58481, 57.9184 3.28397, 57.7917 2.86437, 57.4196 2.29434, 56.81 1.5739 Z M 47.0761 11.201 C 47.6461 11.7947, 48.1686 12.2183, 48.6437 12.4677 L 48.6437 6.64077, 46.6842 6.64077 C 46.3358 6.64473, 45.9242 6.70807, 45.4452 6.83078 L 44.8554 6.26076, 48.3824 6.26076, 48.3824 3.72732, 47.274 3.72732 C 46.9257 3.73128, 46.514 3.79461, 46.031 3.91733 L 45.4452 3.3473, 48.3824 3.3473 C 48.3824 2.42102, 48.3626 1.53431, 48.3191 0.687195 L 49.756 1.32055, 49.2335 1.70057, 49.2335 3.3473, 50.4091 3.3473, 51.1929 2.58727, 52.238 3.72732, 49.2335 3.72732, 49.2335 6.26076, 50.8644 6.26076, 51.5848 5.50072, 52.6299 6.64077, 48.7743 6.64077, 49.8866 7.02079, 49.4947 7.4008, 49.4947 9.36422, 50.801 9.36422, 51.5175 8.66752, 52.5626 9.74423, 49.4947 9.74423, 49.4947 12.911 C 50.9317 13.5919, 52.6932 13.9363, 54.7833 13.9561, 56.8734 13.9798, 58.7022 13.9046, 60.2698 13.7344 L 60.2698 13.9877 C 59.5335 14.2015, 59.1416 14.538, 59.0941 15.0011, 57.8353 15.0011, 56.3113 14.9615, 54.526 14.8744, 52.7407 14.7913, 51.2285 14.4746, 49.9856 13.9244, 48.7426 13.3781, 47.7292 12.5983, 46.9455 11.581, 46.3834 13.2752, 45.75 14.5182, 45.0533 15.3178 L 44.8554 15.1911 C 45.5521 13.8413, 46.0113 12.4518, 46.229 11.0149, 46.4467 9.58193, 46.5536 8.43793, 46.5536 7.59081 L 47.8599 8.22417 C 47.5986 8.48147, 47.4482 8.79815, 47.4046 9.17421, 47.3611 9.60173, 47.2503 10.2747, 47.0761 11.201 Z" stroke="none" fill="#000000" />
			<path d="M 67.5712 13.7344 C 68.7904 13.9482, 69.5306 14.0194, 69.7919 13.9561, 70.0531 13.8927, 70.2075 13.675, 70.2471 13.291 L 70.2471 8.28751, 67.2426 8.28751, 66.6567 8.41418, 66.1342 7.90749, 70.2471 7.90749 C 70.2471 6.72786, 70.2273 5.65115, 70.1838 4.67736 L 70.9676 5.12071, 72.5351 2.58727, 68.4183 2.58727, 67.5712 2.77728, 66.9813 2.20726, 72.5351 2.20726, 73.121 1.5739, 74.3639 2.71394 C 73.8414 2.80103, 73.3189 3.09, 72.7964 3.57294, 72.2739 4.05983, 71.7513 4.61798, 71.2288 5.24738 L 71.684 5.50072, 71.1615 5.94408, 71.1615 7.90749, 73.3189 7.90749, 74.166 7.08412, 75.409 8.28751, 71.1615 8.28751, 71.1615 13.5444 C 71.209 14.3915, 70.73 15.0249, 69.7246 15.4445, 69.7246 14.9378, 69.0081 14.4746, 67.5712 14.0511 Z M 60.1886 15.1911 L 59.9946 15.0011 C 61.7363 13.9482, 62.9793 12.7883, 63.7156 11.5176, 62.5439 11.0149, 61.673 10.6784, 61.103 10.5043, 61.673 8.77836, 62.152 6.87828, 62.5399 4.80403 L 61.2336 4.80403, 60.5805 4.9307, 60.0579 4.42401, 62.6072 4.42401 C 62.912 2.82478, 63.106 1.57786, 63.1931 0.687195 L 64.63 1.38389, 64.1075 1.76391 C 63.9333 2.48435, 63.7393 3.37105, 63.5216 4.42401 L 65.4138 4.42401, 65.873 3.85399, 66.8507 4.67736, 66.3282 5.05737 C 65.9403 7.6779, 65.4177 9.74819, 64.7606 11.2643, 65.7186 11.6483, 66.3401 11.9768, 66.6251 12.25, 66.9101 12.5271, 67.0051 12.82, 66.918 13.1367, 66.8309 13.4533, 66.724 13.6117, 66.5895 13.6077, 66.4153 13.6117, 66.2213 13.485, 66.0036 13.2277, 65.5682 12.725, 65.0456 12.2816, 64.436 11.8977, 63.5652 13.1683, 62.152 14.2648, 60.1886 15.1911 Z M 61.9541 10.3776 C 62.433 10.5082, 63.106 10.6982, 63.9768 10.9476, 64.5865 9.43151, 65.0892 7.38497, 65.4811 4.80403 L 63.4543 4.80403 C 62.9318 6.87828, 62.433 8.73482, 61.9541 10.3776 Z" stroke="none" fill="#000000" />
			<rect />
		</svg>
	</g>
</svg>
