<?xml version="1.0"?>
<svg xmlns="http://www.w3.org/2000/svg" xmlns:xlink="http://www.w3.org/1999/xlink" width="311.471283" height="162.601395">
	<defs>
		<marker id="CustomMarker-01" markerUnits="strokeWidth" markerWidth="15.000001" markerHeight="9" viewBox="-15 -4.5 15 9" orient="auto-start-reverse">
			<path d="M 0 -0 L -10 -3, -8 -0.5, -8 0.5, -10 3 Z" fill="#000000" stroke="#000000" stroke-linejoin="round" />
		</marker>
		<marker id="CustomMarker-02" markerUnits="strokeWidth" markerWidth="15.000001" markerHeight="9" viewBox="-15 -4.5 15 9" orient="auto-start-reverse">
			<path d="M 0 -0 L -10 -3, -8 -0.5, -8 0.5, -10 3 Z" fill="#000000" stroke="#000000" stroke-linejoin="round" />
		</marker>
		<marker id="CustomMarker-03" markerUnits="strokeWidth" markerWidth="15.000001" markerHeight="9" viewBox="-15 -4.5 15 9" orient="auto-start-reverse">
			<path d="M 0 -0 L -10 -3, -8 -0.5, -8 0.5, -10 3 Z" fill="#000000" stroke="#000000" stroke-linejoin="round" />
		</marker>
		<marker id="CustomMarker-04" markerUnits="strokeWidth" markerWidth="15.000001" markerHeight="9" viewBox="-15 -4.5 15 9" orient="auto-start-reverse">
			<path d="M 0 -0 L -10 -3, -8 -0.5, -8 0.5, -10 3 Z" fill="#00A318" stroke="#00A318" stroke-linejoin="round" />
		</marker>
	</defs>
	<rect x="-0" y="-0" width="311.471283" height="162.601395" stroke="none" fill="#FFFFFF" />
	<ellipse cx="571.73098182678223" cy="420.52398109436035" rx="9.9750003814697266" ry="9.9750003814697266" stroke="none" fill="#000000" transform="matrix(0.263158 0 0 0.263158 -134.791 -51.3309)" />
	<path d="M 0 0 L 195.067 -188.733" fill="none" stroke="#000000" stroke-width="3.79999995" stroke-linecap="round" stroke-linejoin="round" marker-end="url(#CustomMarker-01)" transform="matrix(0.263158 0 0 0.263158 15.6648 59.3333)" />
	<g transform="matrix(1 0 -0 1 10.75 65.1941)">
		<svg width="32.9738617" height="47.9999886">
			<defs />
			<path d="M 9.71406 9.95871 C 9.58091 10.4823, 9.34115 10.9681, 8.99523 11.4166, 8.64931 11.8655, 8.23412 12.2384, 7.74966 12.5353, 7.21121 12.8718, 6.65792 13.1057, 6.08934 13.2371, 5.52075 13.3693, 4.9922 13.4449, 4.50279 13.4638 L 3.83524 16.0188 C 3.79116 16.1965, 3.68005 16.2851, 3.50192 16.2851 L 3.21268 16.2851 C 2.98057 16.2851, 2.86451 16.1726, 2.86451 15.9468 L 2.86451 15.8893, 3.49427 13.4638 C 3.07953 13.4494, 2.6234 13.368, 2.12679 13.2191, 1.63018 13.0706, 1.19655 12.8322, 0.825888 12.5034, 0.455228 12.175, 0.210521 11.7706, 0.0917665 11.2902, 0.0278908 11.0653, -0.00449687 10.8395, -0.00449687 10.6137, -0.00449687 10.3501, 0.0350881 10.0793, 0.113808 9.80037, 0.237511 9.28262, 0.473671 8.7995, 0.821839 8.35057, 1.17046 7.90209, 1.5942 7.52873, 2.09351 7.23095, 2.6225 6.90527, 3.1722 6.67271, 3.74303 6.53326, 4.31386 6.39426, 4.84646 6.31509, 5.34037 6.2953 L 6.17795 3.04933 C 6.21259 2.8865, 6.32145 2.80508, 6.50408 2.80463 L 6.80816 2.80463 C 7.03038 2.80508, 7.14149 2.91079, 7.14149 3.12131 L 7.14149 3.20048, 6.34124 6.31689 C 6.75643 6.33174, 7.21211 6.41361, 7.70872 6.56205, 8.20533 6.71094, 8.63897 6.94845, 9.00963 7.27413, 9.37579 7.60565, 9.62274 8.00645, 9.75095 8.47607, 9.80043 8.70189, 9.82517 8.9277, 9.82517 9.15262, 9.82517 9.41712, 9.78828 9.68566, 9.71406 9.95871 Z M 7.85357 9.79317 C 7.96243 9.41442, 8.0164 9.05455, 8.0164 8.71358 L 8.0164 8.64881 C 8.00651 8.31324, 7.91025 8.03029, 7.72716 7.79953, 7.54948 7.57462, 7.31467 7.40683, 7.02318 7.29617, 6.73169 7.18596, 6.43751 7.12344, 6.14107 7.10859 L 4.71016 12.6505 C 4.94767 12.6316, 5.24411 12.5659, 5.59992 12.453, 5.95574 12.3406, 6.29176 12.1593, 6.60799 11.9092, 6.94896 11.6456, 7.21346 11.3293, 7.40149 10.9596, 7.58952 10.5903, 7.74021 10.2016, 7.85357 9.79317 Z M 5.13255 7.11579 C 4.88559 7.13558, 4.58556 7.20396, 4.23199 7.32136, 3.87888 7.43922, 3.54645 7.6151, 3.23517 7.84991, 2.8942 8.12386, 2.62565 8.44324, 2.43043 8.8076, 2.2352 9.17241, 2.08361 9.55611, 1.97475 9.95871, 1.88119 10.3334, 1.83171 10.6883, 1.82631 11.0239 L 1.82631 11.1103 C 1.8362 11.4562, 1.93292 11.7441, 2.11555 11.9739, 2.29368 12.1903, 2.52849 12.3572, 2.81998 12.4746, 3.11147 12.5925, 3.40566 12.6581, 3.70209 12.6721 L 5.13255 7.11579 Z" stroke="none" fill="#000000" />
			<rect />
		</svg>
	</g>
	<ellipse cx="766.79763221740723" cy="231.79065895080566" rx="9.9750003814697266" ry="9.9750003814697266" stroke="none" fill="#000000" transform="matrix(0.263158 0 0 0.263158 -134.791 -51.3309)" />
	<path d="M 0 0 L 197.6 84.8667" fill="none" stroke="#000000" stroke-width="3.79999995" stroke-linecap="round" stroke-linejoin="round" marker-end="url(#CustomMarker-02)" transform="matrix(0.263158 0 0 0.263158 66.9982 9.66665)" />
	<ellipse cx="964.39766883850098" cy="316.65731239318848" rx="9.9750003814697266" ry="9.9750003814697266" stroke="none" fill="#000000" transform="matrix(0.263158 0 0 0.263158 -134.791 -51.3309)" />
	<g transform="matrix(1 0 -0 1 157.841 50.5275)">
		<svg width="87.0039978" height="11.9999981">
			<defs />
			<ellipse cx="-0" cy="-0" rx="0.90798395872116089" ry="0.90798395872116089" stroke="none" fill="#000000" transform="matrix(1 0 0 1 5.159 8.80585)" />
			<ellipse cx="-0" cy="-0" rx="0.90798395872116089" ry="0.90798395872116089" stroke="none" fill="#000000" transform="matrix(1 0 0 1 0.5159 8.80585)" />
			<ellipse cx="-0" cy="-0" rx="0.90798395872116089" ry="0.90798395872116089" stroke="none" fill="#000000" transform="matrix(1 0 0 1 9.8021 8.80585)" />
			<ellipse cx="-0" cy="-0" rx="0.90798395872116089" ry="0.90798395872116089" stroke="none" fill="#000000" transform="matrix(1 0 0 1 20.4886 8.80585)" />
			<ellipse cx="-0" cy="-0" rx="0.90798395872116089" ry="0.90798395872116089" stroke="none" fill="#000000" transform="matrix(1 0 0 1 15.8455 8.80585)" />
			<ellipse cx="-0" cy="-0" rx="0.90798395872116089" ry="0.90798395872116089" stroke="none" fill="#000000" transform="matrix(1 0 0 1 25.1317 8.80585)" />
			<rect />
		</svg>
	</g>
	<ellipse cx="1591.3976078033447" cy="709.32399940490723" rx="9.9750003814697266" ry="9.9750003814697266" stroke="none" fill="#000000" transform="matrix(0.263158 0 0 0.263158 -134.791 -51.3309)" />
	<path d="M 0 0 L 172.267 184.933" fill="none" stroke="#000000" stroke-width="3.79999995" stroke-linecap="round" stroke-linejoin="round" marker-end="url(#CustomMarker-03)" transform="matrix(0.263158 0 0 0.263158 238.665 86.6667)" />
	<ellipse cx="1419.1310062408447" cy="524.39071083068848" rx="9.9750003814697266" ry="9.9750003814697266" stroke="none" fill="#000000" transform="matrix(0.263158 0 0 0.263158 -134.791 -51.3309)" />
	<g transform="matrix(1 0 -0 1 289.942 134.149)">
		<svg width="39.020092" height="44.9142761">
			<defs />
			<path d="M 7.57782 4.25848 C 7.77575 4.76273, 7.87426 5.29308, 7.87426 5.84907, 7.87426 5.95028, 7.86931 6.05104, 7.85941 6.15136, 7.81983 6.80901, 7.71232 7.46666, 7.53689 8.12386, 7.36145 8.78151, 7.12934 9.43646, 6.8401 10.0887, 6.55131 10.7414, 6.14467 11.3532, 5.62061 11.9236, 5.22566 12.3558, 4.76729 12.7112, 4.24549 12.9892, 3.72414 13.2672, 3.18434 13.4062, 2.62565 13.4062, 2.05752 13.4062, 1.56945 13.2591, 1.16191 12.964, 0.754364 12.6689, 0.461075 12.2861, 0.282943 11.8156, 0.164638 11.5232, 0.0854679 11.2164, 0.0458829 10.8944, 0.0161942 10.6451, 0.00134987 10.3887, 0.00134987 10.1242 L 0.00134987 9.92992 C 0.0112461 9.60424, 0.0458829 9.27542, 0.10526 8.94435, 0.164638 8.61327, 0.23886 8.28445, 0.327476 7.95787, 0.50066 7.30112, 0.730523 6.64617, 1.01706 5.99347, 1.30405 5.34121, 1.7116 4.729, 2.24015 4.15771, 2.63555 3.72633, 3.09033 3.37006, 3.60403 3.08937, 4.11819 2.80868, 4.65708 2.66833, 5.22027 2.66788, 5.79875 2.66833, 6.29041 2.81722, 6.69571 3.11456, 7.101 3.41235, 7.39519 3.79335, 7.57782 4.25848 Z M 5.95439 4.50318 C 5.9148 4.182, 5.83338 3.92785, 5.70968 3.74072, 5.58643 3.55359, 5.41324 3.46003, 5.19058 3.45958, 4.93373 3.46003, 4.67417 3.57294, 4.41237 3.7983, 4.15057 4.02411, 3.91576 4.30211, 3.70794 4.63273, 3.45109 5.05062, 3.23247 5.53059, 3.05209 6.07264, 2.87171 6.61513, 2.72461 7.11129, 2.61081 7.56202 L 5.49466 7.56202 C 5.61837 7.04922, 5.73937 6.50942, 5.85767 5.94264, 5.93684 5.55938, 5.97913 5.20896, 5.98363 4.89184, 5.98363 4.74834, 5.97418 4.61879, 5.95439 4.50318 Z M 2.3589 8.51206 C 2.22575 9.03566, 2.1043 9.57546, 1.99544 10.1314, 1.91672 10.5205, 1.87714 10.8732, 1.87714 11.1894, 1.87714 11.3338, 1.88703 11.4706, 1.90638 11.5997, 1.94146 11.9074, 2.02063 12.1543, 2.14389 12.3415, 2.26759 12.5286, 2.44302 12.6221, 2.67019 12.6217, 2.92749 12.6221, 3.18704 12.5106, 3.44884 12.2875, 3.71064 12.0644, 3.94545 11.7895, 4.15282 11.4629, 4.40473 11.0509, 4.62244 10.5687, 4.80507 10.0167, 4.98815 9.46525, 5.1339 8.96369, 5.24231 8.51206 Z" stroke="none" fill="#000000" />
			<path d="M 1.3393 -2.60263 C 1.31436 -2.50036, 1.25693 -2.41497, 1.167 -2.34645, 1.07707 -2.27793, 0.979583 -2.24367, 0.874287 -2.24392, 0.763701 -2.24367, 0.679313 -2.2812, 0.621123 -2.35678, 0.58233 -2.3996, 0.561674 -2.452, 0.558651 -2.51396, 0.558651 -2.55125, 0.564193 -2.58903, 0.575276 -2.62682, 0.600467 -2.72859, 0.658657 -2.81398, 0.749846 -2.8825, 0.841035 -2.95102, 0.939278 -2.98528, 1.04457 -2.98553, 1.15541 -2.98528, 1.2398 -2.949, 1.29774 -2.87671, 1.33653 -2.82532, 1.35593 -2.7704, 1.35593 -2.71146, 1.35593 -2.67367, 1.35039 -2.6374, 1.3393 -2.60263 Z M 1.3849 1.30692 C 1.35467 1.44698, 1.30756 1.59409, 1.24383 1.74851, 1.18035 1.90318, 1.10201 2.04349, 1.00931 2.16969, 0.916607 2.29615, 0.807784 2.40144, 0.683343 2.48583, 0.558903 2.57047, 0.414813 2.61279, 0.251579 2.61279, 0.113284 2.61279, -0.00561488 2.58332, -0.105369 2.52412, -0.205123 2.46518, -0.281954 2.38734, -0.335861 2.29061, -0.389769 2.19388, -0.416723 2.08631, -0.416723 1.96792, -0.422265 1.96288, -0.425036 1.95205, -0.425036 1.93567, -0.425036 1.81501, -0.398586 1.69133, -0.346189 1.56487 L 0.326395 -0.208536 C 0.409523 -0.431219, 0.450836 -0.614102, 0.450836 -0.75668, 0.450836 -0.877342, 0.399699 -0.937799, 0.297174 -0.938051, 0.203214 -0.937799, 0.118826 -0.910845, 0.0440102 -0.85719, -0.0305535 -0.803282, -0.0990714 -0.728718, -0.161544 -0.633498, -0.223764 -0.538027, -0.279687 -0.425174, -0.329564 -0.294939, -0.379441 -0.164453, -0.421005 -0.0256534, -0.454256 0.121963, -0.484485 0.194763, -0.535622 0.232296, -0.607666 0.234816 L -0.699107 0.234816 C -0.76561 0.235068, -0.798862 0.201564, -0.798862 0.134054 L -0.798862 0.105841 C -0.76561 -0.0417752, -0.715733 -0.192666, -0.64923 -0.347335, -0.582728 -0.501753, -0.502622 -0.642063, -0.40841 -0.768519, -0.314198 -0.894723, -0.204871 -0.999516, -0.0804305 -1.0829, 0.0440102 -1.16602, 0.186588 -1.20784, 0.347051 -1.20809, 0.485598 -1.20784, 0.603238 -1.17812, 0.699969 -1.11917, 0.796952 -1.05997, 0.871012 -0.981378, 0.922149 -0.883388, 0.973285 -0.785145, 1.0015 -0.674559, 1.00704 -0.551126 L 1.00704 -0.522913 C 1.00704 -0.407037, 0.983613 -0.287634, 0.936507 -0.164201 L 0.263923 1.61727 C 0.186588 1.83516, 0.147795 2.02057, 0.147795 2.17347, 0.142253 2.17901, 0.139482 2.17901, 0.139482 2.17347, 0.139482 2.28935, 0.19213 2.34703, 0.297174 2.34678, 0.391386 2.34703, 0.47653 2.31882, 0.552605 2.26239, 0.62868 2.20597, 0.697954 2.1309, 0.760174 2.03669, 0.822394 1.94273, 0.877058 1.82987, 0.924164 1.69813, 0.97127 1.56663, 1.01409 1.42809, 1.05289 1.28274, 1.06951 1.21321, 1.11788 1.1782, 1.19798 1.17795 L 1.28943 1.17795 C 1.31991 1.1782, 1.35039 1.18752, 1.38061 1.20616, 1.38918 1.22782, 1.39598 1.24672, 1.40152 1.26259, 1.40152 1.27896, 1.39598 1.29382, 1.3849 1.30692 Z" stroke="none" fill="#000000" transform="matrix(1.12 0 0 1 9.43652 12.8121)" />
			<rect />
		</svg>
	</g>
	<path d="M 0 0 L 1019.67 288.8" fill="none" stroke="#000000" stroke-width="5.0666666" stroke-linecap="round" stroke-linejoin="round" stroke-dasharray="7.62533, 12.6413" transform="matrix(0.263158 0 0 0.263158 15.6648 59.3333)" />
	<path d="M 0 0 L 312.867 89.9333" fill="none" stroke="#00A318" stroke-width="3.79999995" stroke-linecap="round" stroke-linejoin="round" marker-end="url(#CustomMarker-04)" transform="matrix(0.263158 0 0 0.263158 15.6648 59.3333)" />
	<ellipse cx="884.59768104553223" cy="510.45733070373535" rx="9.9750003814697266" ry="9.9750003814697266" stroke="none" fill="#000000" transform="matrix(0.263158 0 0 0.263158 -134.791 -51.3309)" />
	<g transform="matrix(1 0 -0 1 165.918 34.1941)">
		<svg width="278.939606" height="50.9571342">
			<defs />
			<path d="M 2.23612 9.99758 C 2.28362 9.07129, 2.30341 8.00645, 2.30341 6.80307, 2.30341 5.59969, 2.28362 4.47152, 2.23612 3.41064 L 3.28116 3.98066, 6.99819 3.98066, 6.99819 2.14392, 2.30341 2.14392 C 1.73735 2.14788, 1.21483 2.21122, 0.735849 2.33393 L 0.149992 1.76391, 12.3501 1.76391, 13.2605 0.877202, 14.5668 2.14392, 7.9126 2.14392, 7.9126 3.98066, 11.3684 3.98066, 12.0215 3.3473, 12.9993 4.23401, 12.4134 4.61402 C 12.4134 7.06829, 12.4372 8.67148, 12.4807 9.42755 L 11.499 9.8709, 11.499 9.17421, 7.78197 9.17421 C 7.6078 10.6151, 7.23966 11.7116, 6.67359 12.4677, 7.71863 13.1485, 8.75972 13.5602, 9.80476 13.7067, 10.8498 13.8531, 11.784 13.9244, 12.6074 13.9244, 13.3041 13.9244, 14.0879 13.8848, 14.9587 13.7977 L 14.9587 13.9877 C 14.2224 14.2015, 13.8306 14.538, 13.783 15.0011, 12.0453 14.9615, 10.5885 14.8032, 9.41287 14.5261, 8.24116 14.253, 7.17236 13.7384, 6.21441 12.9744, 5.60876 13.5681, 4.77351 14.0511, 3.70472 14.4311, 2.63989 14.8111, 1.389 15.108, -0.0479328 15.3178 L -0.111269 15.0644 C 1.41275 14.728, 2.65176 14.3282, 3.60972 13.8611, 4.56767 13.4019, 5.24062 12.9348, 5.62855 12.4677, 5.10603 12.0085, 4.50038 11.2049, 3.80368 10.0609 L 3.99765 9.93424 C 4.78143 10.8684, 5.45833 11.5414, 6.02044 11.961, 6.23816 11.5849, 6.41233 11.1851, 6.54296 10.7616, 6.67359 10.342, 6.78047 9.81153, 6.86756 9.17421 L 3.21387 9.17421, 3.21387 9.61756 Z M 3.21387 4.36068 L 3.21387 6.32409, 6.99819 6.32409, 6.99819 4.36068 Z M 7.9126 4.36068 L 7.9126 6.32409, 11.499 6.32409, 11.499 4.36068 Z M 3.21387 6.70411 L 3.21387 8.79419, 6.93485 8.79419 C 6.9784 7.86791, 6.99819 7.17121, 6.99819 6.70411 Z M 7.9126 6.70411 C 7.9126 7.29788, 7.89281 7.99458, 7.84531 8.79419 L 11.499 8.79419, 11.499 6.70411 Z" stroke="none" fill="#000000" />
			<path d="M 27.7506 6.76744 L 27.7506 12.5943 C 27.7506 13.2752, 27.7744 14.0511, 27.814 14.9378 L 26.8362 15.3811 C 26.8837 13.1485, 26.9035 10.2747, 26.9035 6.76744 L 24.8134 6.76744 C 24.9005 9.51464, 24.5443 11.482, 23.7407 12.6616, 22.9371 13.8413, 21.991 14.7478, 20.9024 15.3811 L 20.7718 15.1911 C 21.6427 14.4746, 22.3156 13.7304, 22.7946 12.9467, 23.2736 12.1668, 23.5903 11.2999, 23.7407 10.3499, 23.8911 9.39984, 23.9663 8.20834, 23.9663 6.7714, 23.9663 5.33843, 23.9465 3.71148, 23.903 1.89058 L 24.8134 2.4606 C 26.6423 2.041, 27.8417 1.57786, 28.4038 1.06721 L 29.5122 2.20726 C 28.9026 2.21122, 28.3167 2.25476, 27.7506 2.33789, 27.1885 2.42497, 26.2068 2.57144, 24.8134 2.77728 L 24.8134 6.38743, 28.0119 6.38743, 28.859 5.56406, 30.098 6.76744 Z M 16.9202 3.53731 C 17.5298 3.92128, 17.9573 4.23796, 18.1948 4.49131, 18.4323 4.74465, 18.5511 4.9782, 18.5511 5.18404, 18.5511 5.3978, 18.4759 5.61156, 18.3255 5.82136, 18.175 6.03512, 18.0761 6.13804, 18.0286 6.13408, 17.9019 6.13804, 17.7911 5.96783, 17.704 5.6274, 17.5773 5.12467, 17.2487 4.47152, 16.7262 3.66398 Z M 20.5105 10.2509 C 21.3379 10.718, 21.8802 11.0782, 22.1414 11.3316, 22.4027 11.5849, 22.5333 11.8185, 22.5333 12.0243, 22.5333 12.1985, 22.47 12.4004, 22.3394 12.63, 22.2087 12.8635, 22.0979 12.9783, 22.0108 12.9744, 21.9237 12.9783, 21.8169 12.7883, 21.6823 12.4043, 21.4685 11.8581, 21.0331 11.2049, 20.3799 10.4409 Z M 17.0508 10.0609 L 18.2898 10.8209, 17.7713 11.0743 C 16.8133 12.5548, 15.8989 13.6552, 15.028 14.3678 L 14.8341 14.2411 C 15.7485 13.1485, 16.4887 11.7551, 17.0508 10.0609 Z M 16.9202 13.6077 C 17.704 13.7384, 18.2384 13.7977, 18.5194 13.7977, 18.8044 13.7977, 18.943 13.6315, 18.943 13.291 L 18.943 9.30088, 16.5956 9.30088, 16.0097 9.42755, 15.4872 8.92087, 18.943 8.92087, 18.943 6.70411, 17.0508 6.70411 C 16.4887 6.70807, 15.9662 6.7714, 15.4872 6.89412 L 14.8974 6.32409, 19.6595 6.32409 C 20.1424 5.14446, 20.467 4.13109, 20.6412 3.28397 L 17.5733 3.28397 C 17.0112 3.28793, 16.4887 3.35126, 16.0097 3.47398 L 15.4199 2.90395, 19.0103 2.90395 C 18.9667 2.31809, 18.6619 1.6214, 18.0959 0.813867 L 18.2265 0.687195 C 19.0103 1.11471, 19.4813 1.44327, 19.6318 1.67286, 19.7822 1.90641, 19.8574 2.06475, 19.8574 2.14392, 19.8574 2.35768, 19.7268 2.61102, 19.4655 2.90395 L 21.0964 2.90395, 21.8802 2.14392, 23.0519 3.28397, 20.7718 3.28397, 21.8802 3.98066 C 21.5754 4.11129, 21.2825 4.37651, 20.9974 4.77632, 20.7164 5.18009, 20.3799 5.69469, 19.988 6.32409 L 21.6823 6.32409, 22.466 5.56406, 23.6417 6.70411, 19.7901 6.70411, 19.7901 8.92087, 21.2904 8.92087, 22.0742 8.16083, 23.2498 9.30088, 19.7901 9.30088, 19.7901 13.7344 C 19.7901 14.3678, 19.3784 14.8349, 18.5511 15.1278, 18.5511 14.6211, 18.0088 14.2015, 16.9202 13.8611 Z" stroke="none" fill="#000000" />
			<path d="M 36.3663 3.09396 L 35.5865 3.53731 C 36.5009 4.04796, 37.0234 4.40818, 37.1541 4.61798, 37.2847 4.83174, 37.348 5.01779, 37.348 5.18404, 37.348 5.3978, 37.261 5.59969, 37.0868 5.78969, 36.9126 5.9797, 36.8057 6.07471, 36.7582 6.07075, 36.6316 6.07471, 36.5207 5.90449, 36.4336 5.56406, 36.303 5.10488, 35.9547 4.47152, 35.3886 3.66398, 34.8265 4.00441, 34.205 4.34484, 33.5321 4.68132, 32.8591 5.02175, 32.0872 5.35822, 31.2163 5.69073 L 31.0857 5.43739 C 32.7799 4.63777, 34.1615 3.7867, 35.2263 2.87624, 36.2951 1.96975, 37.0234 1.19784, 37.4114 0.560522 L 38.5198 1.51056, 37.9339 1.70057, 36.6949 2.71394, 41.7182 2.71394, 42.4347 2.01725, 43.6104 3.1573, 42.8899 3.41064 C 41.6311 4.55464, 40.0992 5.62344, 38.2941 6.61306, 36.4891 7.60664, 33.9794 8.31126, 30.7572 8.73086 L 30.6938 8.47751 C 32.8235 8.10146, 34.8027 7.51164, 36.6316 6.70807, 38.4604 5.90845, 40.1546 4.70111, 41.7182 3.09396 Z M 38.0645 6.83078 L 39.1729 7.84415, 38.5198 8.03416 C 38.3931 8.16479, 38.0447 8.43793, 37.4787 8.85753 L 42.5653 8.85753, 43.2185 8.22417, 44.3269 9.30088, 43.6104 9.61756 C 41.4372 11.8185, 39.2838 13.2752, 37.1541 13.9877, 35.0244 14.7082, 32.8472 15.1515, 30.6265 15.3178 L 30.6265 15.0644 C 33.065 14.728, 35.2698 14.1382, 37.2491 13.295, 39.2283 12.4518, 41.0017 11.098, 42.5653 9.23754 L 37.1501 9.23754 C 35.6301 10.338, 33.825 11.2485, 31.7349 11.961 L 31.6043 11.7076 C 32.9106 11.0782, 34.0981 10.3934, 35.163 9.65319, 36.2278 8.91691, 37.1937 7.97478, 38.0645 6.83078 Z M 36.0417 10.0609 C 36.8255 10.6547, 37.2847 11.0901, 37.4153 11.3633, 37.546 11.6404, 37.6093 11.8383, 37.6093 11.961, 37.6093 12.2183, 37.5143 12.44, 37.3164 12.63, 37.1185 12.82, 36.9759 12.915, 36.8889 12.911, 36.7147 12.915, 36.6078 12.725, 36.5643 12.341, 36.4772 11.7551, 36.2397 11.0585, 35.8478 10.2509 Z" stroke="none" fill="#000000" />
			<path d="M 56.9882 6.89412 L 58.0332 4.67736, 52.6853 4.67736 C 52.3369 5.27113, 51.9688 5.87678, 51.5769 6.48639, 51.185 7.09996, 50.5516 7.82832, 49.6808 8.66752 L 49.4868 8.47751 C 50.4883 7.2583, 51.2919 5.86491, 51.9015 4.3013, 52.5111 2.74165, 52.8832 1.49473, 53.0099 0.560522 L 54.5735 1.32055 C 54.2291 1.49473, 53.9678 1.76786, 53.7937 2.14788, 53.6195 2.52789, 53.2949 3.24438, 52.8159 4.29734 L 57.9659 4.29734, 58.6864 3.60065, 59.8581 4.80403 C 59.4266 4.89112, 59.0585 5.06133, 58.7536 5.31468, 58.4488 5.56802, 57.9263 6.13804, 57.1861 7.02079 Z M 54.8347 6.45076 C 54.5774 9.28505, 53.8174 11.3633, 52.5546 12.6933, 51.2958 14.0234, 49.7916 14.9378, 48.0499 15.4445 L 47.9232 15.2545 C 50.14 14.2846, 51.6838 13.0337, 52.5546 11.4899, 53.4255 9.95007, 53.8807 7.84811, 53.9243 5.18404 L 55.4246 5.94408, 55.0327 6.26076 C 55.3375 8.41814, 55.9352 10.1599, 56.8259 11.4899, 57.7205 12.82, 58.8843 13.7384, 60.3173 14.2411 L 60.25 14.4311 C 59.6008 14.3915, 59.1218 14.6013, 58.817 15.0644, 57.7324 14.2648, 56.8298 13.1485, 56.1094 11.7116, 55.3929 10.2786, 54.9693 8.52501, 54.8347 6.45076 Z M 46.225 1.25722 C 47.1394 1.72432, 47.7807 2.14788, 48.1488 2.52789, 48.5209 2.90791, 48.703 3.22459, 48.703 3.47398, 48.703 3.73128, 48.608 3.98462, 48.4101 4.23796, 48.2161 4.49131, 48.0974 4.61798, 48.0499 4.61402, 47.8797 4.61798, 47.7292 4.34484, 47.5947 3.79066, 47.3809 3.03458, 46.8782 2.25476, 46.0944 1.44723 Z M 45.3779 9.61756 C 45.6827 9.66506, 45.9637 9.68485, 46.225 9.6809, 46.6169 9.68485, 46.9217 9.60173, 47.1394 9.43151, 47.3571 9.26525, 48.3784 7.08808, 50.2033 2.90395 L 50.4646 3.03062 C 48.7703 7.34143, 47.8797 9.57798, 47.7926 9.74423, 47.7055 9.91841, 47.6619 10.2668, 47.6619 10.7932, 47.6619 11.3237, 47.7292 12.0283, 47.8559 12.911, 47.9865 13.8413, 47.844 14.2846, 47.4324 14.2411, 47.0207 14.2015, 46.7673 14.0748, 46.6802 13.8611, 46.5932 13.6552, 46.5496 13.4652, 46.5496 13.291, 46.5496 13.1248, 46.5932 12.8081, 46.6802 12.341, 46.8148 11.6681, 46.8584 11.1535, 46.8148 10.7932, 46.7713 10.437, 46.2923 10.1282, 45.3779 9.8709 Z" stroke="none" fill="#000000" />
			<path d="M 71.6089 3.91733 C 69.5228 4.04796, 68.1531 4.13109, 67.5 4.17067, 67.1516 4.72486, 66.8033 5.27113, 66.4549 5.8174 L 73.1725 5.8174, 74.0236 4.99404, 75.1953 6.19742, 69.1309 6.19742 C 70.1324 7.21475, 71.1774 7.9352, 72.2621 8.3548, 73.3506 8.77836, 74.3521 9.05149, 75.2626 9.17421 L 75.2626 9.36422 C 74.653 9.49485, 74.2176 9.74819, 73.9563 10.1242, 72.9587 9.74819, 71.9889 9.23359, 71.0547 8.57648, 70.1205 7.92332, 69.3684 7.13163, 68.8023 6.19742 L 66.3243 6.19742 C 65.588 7.13163, 64.7845 7.9352, 63.9136 8.60814, 63.0427 9.28505, 61.8037 9.98174, 60.1926 10.6943 L 60.1253 10.4409 C 61.6929 9.55818, 62.8488 8.76648, 63.585 8.06979, 64.3253 7.37309, 64.8913 6.75161, 65.2793 6.19742 L 61.4316 6.19742, 60.8458 6.32409, 60.3232 5.8174, 65.4772 5.8174 C 65.6514 5.56802, 65.9364 5.04154, 66.3243 4.23401, 64.543 4.32109, 63.3673 4.49131, 62.8013 4.74069 L 62.346 3.60065 C 63.0427 3.56106, 63.8898 3.17313, 64.8874 2.43289, 65.8889 1.69661, 66.5856 1.07117, 66.9775 0.560522 L 67.9552 1.5739, 67.1714 1.76391 C 65.303 2.82478, 64.064 3.47793, 63.4544 3.72732 L 71.411 3.66398 C 70.8489 3.16125, 70.1759 2.69811, 69.3921 2.27059 L 69.5228 2.01725 C 70.9162 2.48435, 71.8702 2.88812, 72.3927 3.22459, 72.9152 3.56502, 73.1725 3.90149, 73.1725 4.23401, 73.1725 4.32109, 73.129 4.48339, 73.0419 4.71298, 72.9548 4.94654, 72.8479 5.06133, 72.7173 5.05737, 72.6302 5.06133, 72.5431 4.998, 72.456 4.86737, 72.2423 4.57444, 71.9572 4.25776, 71.6089 3.91733 Z M 67.8246 6.95745 L 68.8696 7.97083, 68.3471 8.0975 C 66.0433 9.70465, 63.9769 10.7418, 62.1481 11.201 L 62.0848 10.9476 C 63.4782 10.4013, 64.6617 9.77194, 65.6395 9.05149, 66.6212 8.33501, 67.3496 7.63831, 67.8246 6.95745 Z M 69.6494 8.85753 L 70.6945 9.8709, 69.978 9.99758 C 67.1081 11.8185, 64.5192 12.8952, 62.2154 13.2277 L 62.1481 12.9744 C 64.1946 12.3885, 65.7622 11.7551, 66.8468 11.0782, 67.9354 10.4053, 68.8696 9.66506, 69.6494 8.85753 Z M 71.8702 10.6309 L 72.8479 11.7076, 72.1948 11.8343 C 69.6732 13.2752, 67.6385 14.1698, 66.0947 14.5261, 64.5509 14.8863, 62.8685 15.108, 61.0397 15.1911 L 61.0397 14.9378 C 63.4782 14.6844, 65.6395 14.15, 67.5316 13.3267, 69.4238 12.5033, 70.8726 11.6047, 71.8702 10.6309 Z" stroke="none" fill="#000000" />
			<path d="M 79.3101 9.93424 C 78.9618 10.4884, 78.6372 11.0149, 78.3284 11.5176, 78.8984 11.6483, 79.5714 11.7947, 80.3512 11.961, 80.747 11.5414, 81.1389 10.8684, 81.5269 9.93424 Z M 76.6342 1.38389 C 77.4615 1.89454, 77.9603 2.27455, 78.1344 2.52789, 78.3086 2.78124, 78.3957 2.97125, 78.3957 3.09396, 78.3957 3.30772, 78.3205 3.52148, 78.1701 3.73128, 78.0196 3.94504, 77.8969 4.04796, 77.8098 4.044, 77.6792 4.04796, 77.5486 3.83816, 77.418 3.41064, 77.2438 2.82478, 76.9192 2.19142, 76.4402 1.51056 Z M 82.2434 1.19388 L 83.419 1.95391 C 83.0707 2.041, 82.7659 2.25476, 82.5046 2.58727, 82.2038 2.9277, 81.701 3.43439, 81.0043 4.10733 L 80.8104 3.98066 C 81.6377 2.7179, 82.1167 1.78766, 82.2434 1.19388 Z M 79.3101 0.497187 L 80.7431 1.13055, 80.2206 1.5739, 80.2206 4.48735, 81.8515 4.48735, 82.5719 3.79066, 83.6803 4.86737, 80.2206 4.86737, 80.2206 5.43739 C 81.2221 5.65115, 81.8436 5.85303, 82.0811 6.04304, 82.3225 6.23305, 82.4413 6.47451, 82.4413 6.76744, 82.4413 6.89807, 82.4215 7.05641, 82.378 7.24642, 82.3344 7.43643, 82.2671 7.53143, 82.18 7.52747, 82.0929 7.53143, 81.9425 7.38497, 81.7208 7.08412, 81.3764 6.62494, 80.8777 6.18159, 80.2206 5.75407 L 80.2206 7.71748, 79.4407 8.22417, 80.3512 8.60419 C 80.1374 8.69127, 79.8524 9.00795, 79.5041 9.55422 L 81.5269 9.55422, 81.9821 8.9842, 82.9638 9.80757, 82.374 10.1242 C 81.9386 11.098, 81.5506 11.7749, 81.2023 12.151, 81.899 12.3252, 82.3661 12.5033, 82.6036 12.6933, 82.8451 12.8833, 82.9638 13.1287, 82.9638 13.4217, 82.9638 13.7186, 82.9005 13.8611, 82.7659 13.8611, 82.6392 13.8611, 82.4848 13.7819, 82.3107 13.6077, 81.8317 13.2752, 81.2894 12.9783, 80.6798 12.721, 79.1597 13.9046, 77.3546 14.6844, 75.2645 15.0644 L 75.1972 14.8744 C 77.2002 14.2411, 78.7638 13.4217, 79.896 12.4043, 79.0251 12.1114, 78.178 11.9016, 77.3507 11.771, 77.5248 11.5216, 77.8732 10.908, 78.3957 9.93424 L 77.5486 9.93424 C 76.9825 9.9382, 76.46 10.0015, 75.981 10.1242 L 75.3952 9.55422, 78.5263 9.55422 C 78.7005 9.13462, 78.8747 8.62794, 79.0489 8.03416 L 79.3735 8.16083, 79.3735 5.56406 C 78.2017 6.87828, 76.8519 7.89166, 75.3279 8.60419 L 75.1972 8.41418 C 76.8083 7.32163, 78.0276 6.13804, 78.8509 4.86737 L 77.6792 4.86737 C 77.1132 4.87132, 76.5906 4.93466, 76.1116 5.05737 L 75.5258 4.48735, 79.3735 4.48735 C 79.3735 2.97125, 79.3537 1.64119, 79.3101 0.497187 Z M 84.658 4.86737 C 84.8758 7.32163, 85.3983 9.36817, 86.2256 11.011, 86.9223 9.57798, 87.3538 7.53143, 87.528 4.86737 Z M 84.9826 0.497187 L 86.4829 1.32055 C 86.1385 1.45118, 85.8773 1.70453, 85.7031 2.08454, 85.5289 2.46456, 85.2043 3.26813, 84.7214 4.48735 L 88.4424 4.48735, 89.2261 3.72732, 90.3979 4.86737, 88.5057 4.86737 C 88.2444 7.99458, 87.6823 10.3182, 86.8115 11.8343, 87.813 13.0219, 88.9886 13.7581, 90.3345 14.0511 L 90.3345 14.3044 C 89.5112 14.4311, 89.0757 14.6844, 89.0282 15.0644, 87.9 14.3044, 86.9658 13.4415, 86.2256 12.4677, 84.7926 13.8215, 83.0746 14.8111, 81.0716 15.4445 L 80.941 15.2545 C 82.944 14.3678, 84.5314 13.2119, 85.7031 11.771, 84.8797 9.79173, 84.4443 7.61456, 84.3968 5.24738, 83.9613 6.34784, 83.3319 7.38497, 82.5046 8.35084 L 82.3107 8.22417 C 83.3557 6.53785, 84.2464 3.96483, 84.9826 0.497187 Z" stroke="none" fill="#000000" />
			<rect />
		</svg>
	</g>
	<g transform="matrix(1 0 -0 1 28.0602 103.328)">
		<svg width="366.031067" height="110.999985">
			<defs />
			<path d="M 9.71406 10.492 C 9.58091 11.0156, 9.34115 11.5014, 8.99523 11.9499, 8.64931 12.3988, 8.23412 12.7717, 7.74966 13.0686, 7.21121 13.4051, 6.65792 13.639, 6.08934 13.7703, 5.52075 13.9026, 4.9922 13.9781, 4.50279 13.997 L 3.83524 16.5521 C 3.79116 16.7297, 3.68005 16.8184, 3.50192 16.8184 L 3.21268 16.8184 C 2.98057 16.8184, 2.86451 16.7059, 2.86451 16.4801 L 2.86451 16.4225, 3.49427 13.997 C 3.07953 13.9826, 2.6234 13.9012, 2.12679 13.7523, 1.63018 13.6039, 1.19655 13.3655, 0.825888 13.0366, 0.455228 12.7083, 0.210521 12.3039, 0.0917665 11.8235, 0.0278908 11.5985, -0.00449687 11.3727, -0.00449687 11.1469, -0.00449687 10.8833, 0.0350881 10.6125, 0.113808 10.3336, 0.237511 9.81586, 0.473671 9.33275, 0.821839 8.88382, 1.17046 8.43534, 1.5942 8.06198, 2.09351 7.76419, 2.6225 7.43852, 3.1722 7.20596, 3.74303 7.06651, 4.31386 6.92751, 4.84646 6.84834, 5.34037 6.82855 L 6.17795 3.58258 C 6.21259 3.41974, 6.32145 3.33833, 6.50408 3.33788 L 6.80816 3.33788 C 7.03038 3.33833, 7.14149 3.44404, 7.14149 3.65456 L 7.14149 3.73373, 6.34124 6.85014 C 6.75643 6.86499, 7.21211 6.94685, 7.70872 7.0953, 8.20533 7.24419, 8.63897 7.4817, 9.00963 7.80738, 9.37579 8.1389, 9.62274 8.5397, 9.75095 9.00932, 9.80043 9.23514, 9.82517 9.46095, 9.82517 9.68586, 9.82517 9.95036, 9.78828 10.2189, 9.71406 10.492 Z M 7.85357 10.3264 C 7.96243 9.94766, 8.0164 9.5878, 8.0164 9.24683 L 8.0164 9.18206 C 8.00651 8.84648, 7.91025 8.56354, 7.72716 8.33278, 7.54948 8.10786, 7.31467 7.94008, 7.02318 7.82942, 6.73169 7.71921, 6.43751 7.65668, 6.14107 7.64184 L 4.71016 13.1837 C 4.94767 13.1648, 5.24411 13.0992, 5.59992 12.9863, 5.95574 12.8738, 6.29176 12.6925, 6.60799 12.4424, 6.94896 12.1788, 7.21346 11.8626, 7.40149 11.4928, 7.58952 11.1235, 7.74021 10.7349, 7.85357 10.3264 Z M 5.13255 7.64904 C 4.88559 7.66883, 4.58556 7.7372, 4.23199 7.85461, 3.87888 7.97247, 3.54645 8.14835, 3.23517 8.38316, 2.8942 8.6571, 2.62565 8.97648, 2.43043 9.34085, 2.2352 9.70566, 2.08361 10.0894, 1.97475 10.492, 1.88119 10.8667, 1.83171 11.2216, 1.82631 11.5572 L 1.82631 11.6435 C 1.8362 11.9894, 1.93292 12.2773, 2.11555 12.5072, 2.29368 12.7236, 2.52849 12.8904, 2.81998 13.0079, 3.11147 13.1257, 3.40566 13.1914, 3.70209 13.2053 L 5.13255 7.64904 Z" stroke="none" fill="#000000" />
			<path d="M 45.715 0.140238 C 45.715 0.946487, 45.2025 1.61524, 44.1712 2.14024 L -34.5225 2.14024, -34.2163 2.44024 C -27.1413 7.71524, -22.5038 14.4465, -20.31 22.6402, -19.8975 24.1152, -19.6913 24.9465, -19.6913 25.1402, -19.6913 25.8777, -20.41 26.2402, -21.8538 26.2402, -23.0913 26.2402, -23.81 25.7402, -24.0163 24.7402 L -24.4288 23.0402 C -27.035 12.7152, -33.56 5.54649, -43.9975 1.54024, -45.0288 1.14649, -45.6475 0.777739, -45.8538 0.440239, -45.8538 -0.422262, -45.235 -0.984762, -43.9975 -1.25976, -33.56 -5.25351, -27.035 -12.4223, -24.4288 -22.7598 L -23.9163 -25.1598 C -23.5663 -25.6848, -22.8788 -25.9535, -21.8538 -25.9598, -20.41 -25.9535, -19.6913 -25.5848, -19.6913 -24.8598, -19.6913 -24.6535, -19.8975 -23.8223, -20.31 -22.3598, -22.3663 -14.4223, -27.0038 -7.68476, -34.2163 -2.15976 L -34.5225 -1.85976, 44.1712 -1.85976 C 45.2025 -1.38476, 45.715 -0.722261, 45.715 0.140238 Z" stroke="none" fill="#000000" transform="matrix(0.1474 0 0 0.1474 19.9511 9.2654)" />
			<path d="M 40.456 10.492 C 40.3228 11.0156, 40.0831 11.5014, 39.7372 11.9499, 39.3913 12.3988, 38.9761 12.7717, 38.4916 13.0686, 37.9531 13.4051, 37.3999 13.639, 36.8313 13.7703, 36.2627 13.9026, 35.7341 13.9781, 35.2447 13.997 L 34.5772 16.5521 C 34.5331 16.7297, 34.422 16.8184, 34.2439 16.8184 L 33.9546 16.8184 C 33.7225 16.8184, 33.6065 16.7059, 33.6065 16.4801 L 33.6065 16.4225, 34.2362 13.997 C 33.8215 13.9826, 33.3653 13.9012, 32.8687 13.7523, 32.3721 13.6039, 31.9385 13.3655, 31.5678 13.0366, 31.1972 12.7083, 30.9525 12.3039, 30.8337 11.8235, 30.7698 11.5985, 30.7374 11.3727, 30.7374 11.1469, 30.7374 10.8833, 30.777 10.6125, 30.8557 10.3336, 30.9795 9.81586, 31.2156 9.33275, 31.5638 8.88382, 31.9124 8.43534, 32.3361 8.06198, 32.8354 7.76419, 33.3644 7.43852, 33.9141 7.20596, 34.485 7.06651, 35.0558 6.92751, 35.5884 6.84834, 36.0823 6.82855 L 36.9199 3.58258 C 36.9545 3.41974, 37.0634 3.33833, 37.246 3.33788 L 37.5501 3.33788 C 37.7723 3.33833, 37.8834 3.44404, 37.8834 3.65456 L 37.8834 3.73373, 37.0832 6.85014 C 37.4984 6.86499, 37.954 6.94685, 38.4507 7.0953, 38.9473 7.24419, 39.3809 7.4817, 39.7516 7.80738, 40.1177 8.1389, 40.3647 8.5397, 40.4929 9.00932, 40.5424 9.23514, 40.5671 9.46095, 40.5671 9.68586, 40.5671 9.95036, 40.5302 10.2189, 40.456 10.492 Z M 38.5955 10.3264 C 38.7044 9.94766, 38.7583 9.5878, 38.7583 9.24683 L 38.7583 9.18206 C 38.7484 8.84648, 38.6522 8.56354, 38.4691 8.33278, 38.2914 8.10786, 38.0566 7.94008, 37.7651 7.82942, 37.4736 7.71921, 37.1794 7.65668, 36.883 7.64184 L 35.4521 13.1837 C 35.6896 13.1648, 35.986 13.0992, 36.3419 12.9863, 36.6977 12.8738, 37.0337 12.6925, 37.3499 12.4424, 37.6909 12.1788, 37.9554 11.8626, 38.1434 11.4928, 38.3315 11.1235, 38.4821 10.7349, 38.5955 10.3264 Z M 35.8745 7.64904 C 35.6275 7.66883, 35.3275 7.7372, 34.9739 7.85461, 34.6208 7.97247, 34.2884 8.14835, 33.9771 8.38316, 33.6361 8.6571, 33.3676 8.97648, 33.1724 9.34085, 32.9771 9.70566, 32.8255 10.0894, 32.7167 10.492, 32.6231 10.8667, 32.5736 11.2216, 32.5682 11.5572 L 32.5682 11.6435 C 32.5781 11.9894, 32.6749 12.2773, 32.8575 12.5072, 33.0356 12.7236, 33.2704 12.8904, 33.5619 13.0079, 33.8534 13.1257, 34.1476 13.1914, 34.444 13.2053 L 35.8745 7.64904 Z" stroke="none" fill="#000000" />
			<polyline points="-5.159 0 5.159 0" fill="none" stroke="#000000" stroke-width="0.589599967" stroke-linecap="round" stroke-linejoin="round" transform="matrix(1 0 0 1 49.7781 9.3391)" />
			<polyline points="0 -5.159 0 5.159" fill="none" stroke="#000000" stroke-width="0.589599967" stroke-linecap="round" stroke-linejoin="round" transform="matrix(1 0 0 1 49.7781 9.3391)" />
			<path d="M 64.5858 16.4081 C 64.5417 16.5952, 64.449 16.7347, 64.3078 16.8256, 64.167 16.9169, 64.0226 16.9623, 63.8741 16.9623, 63.7311 16.9623, 63.6123 16.9119, 63.5183 16.8112, 63.4445 16.7536, 63.4072 16.6627, 63.4072 16.5377, 63.4072 16.485, 63.4122 16.4324, 63.4221 16.3793 L 65.1791 9.55631 C 65.2484 9.27382, 65.3001 9.00032, 65.3347 8.73582, 65.3446 8.66925, 65.3496 8.60178, 65.3496 8.5343, 65.3496 8.36697, 65.3199 8.20368, 65.2605 8.04489, 65.211 7.90139, 65.131 7.78983, 65.0194 7.71066, 64.9083 7.63149, 64.7738 7.59191, 64.6155 7.59146, 64.0572 7.59191, 63.5889 7.74935, 63.2106 8.06333, 62.8328 8.37776, 62.4977 8.806, 62.2062 9.34759 L 61.1684 13.3853 C 61.1243 13.5728, 61.0317 13.7105, 60.8904 13.7991, 60.7496 13.8882, 60.6052 13.9323, 60.4568 13.9323, 60.3137 13.9323, 60.195 13.8846, 60.101 13.7883, 60.0371 13.7262, 60.0047 13.6354, 60.0047 13.5148, 60.0047 13.4721, 60.0097 13.4194, 60.0191 13.3565 L 61.1608 8.91576 C 61.23 8.6571, 61.2647 8.42679, 61.2647 8.22482, 61.2647 8.11956, 61.2548 8.02599, 61.235 7.94413, 61.1954 7.70932, 61.0623 7.59191, 60.8346 7.59146, 60.7015 7.59191, 60.5854 7.63644, 60.4865 7.72506, 60.3875 7.81413, 60.2939 7.94458, 60.2049 8.11731, 60.1158 8.29004, 60.0366 8.49292, 59.9674 8.72548, 59.8981 8.95849, 59.8293 9.21129, 59.76 9.48434, 59.7056 9.61434, 59.6192 9.68137, 59.5004 9.68586 L 59.4114 9.68586 C 59.3475 9.68631, 59.298 9.66472, 59.2634 9.62109, 59.2288 9.5878, 59.2112 9.54957, 59.2112 9.50593, 59.2112 9.48704, 59.2189 9.4632, 59.2337 9.43396, 59.2881 9.22344, 59.3525 8.98233, 59.4262 8.71108, 59.5004 8.44029, 59.6008 8.18838, 59.7267 7.95537, 59.8527 7.72281, 60.011 7.52354, 60.2013 7.358, 60.3916 7.19246, 60.63 7.10969, 60.9165 7.10924, 61.3614 7.10969, 61.7123 7.23924, 61.9691 7.49835, 62.2264 7.75745, 62.3573 8.0116, 62.3618 8.26081, 62.5746 7.97831, 62.8836 7.71561, 63.2885 7.47316, 63.6938 7.23115, 64.1607 7.10969, 64.6897 7.10924, 64.9911 7.10969, 65.283 7.16142, 65.5646 7.26443, 65.8462 7.36789, 66.0612 7.53928, 66.2092 7.77859, 66.3824 8.02375, 66.4688 8.30444, 66.4688 8.62067 L 66.4688 8.64226 C 66.4589 8.96434, 66.4121 9.28102, 66.3279 9.5923 Z" stroke="none" fill="#000000" />
			<path d="M 81.9266 4.79172 C 82.1245 5.29598, 82.223 5.82633, 82.223 6.38232, 82.223 6.48353, 82.2181 6.58429, 82.2082 6.6846, 82.1686 7.34225, 82.0611 7.9999, 81.8857 8.6571, 81.7102 9.31475, 81.4781 9.96971, 81.1893 10.622, 80.9006 11.2747, 80.4939 11.8864, 79.9699 12.4568, 79.5749 12.8891, 79.1165 13.2445, 78.5952 13.5225, 78.0738 13.8005, 77.534 13.9394, 76.9758 13.9394, 76.4077 13.9394, 75.9196 13.7924, 75.512 13.4973, 75.1045 13.2022, 74.8117 12.8194, 74.6335 12.3489, 74.5148 12.0565, 74.4361 11.7497, 74.3965 11.4276, 74.3668 11.1784, 74.3519 10.922, 74.3519 10.6575 L 74.3519 10.4632 C 74.3618 10.1375, 74.3965 9.80867, 74.4558 9.47759, 74.5152 9.14652, 74.589 8.81769, 74.6781 8.49112, 74.8508 7.83437, 75.0807 7.17942, 75.3672 6.52671, 75.6542 5.87446, 76.0617 5.26224, 76.5903 4.69096, 76.9857 4.25958, 77.4405 3.90331, 77.9542 3.62262, 78.4679 3.34192, 79.0063 3.20158, 79.5695 3.20113, 80.148 3.20158, 80.6396 3.35047, 81.0445 3.64781, 81.4498 3.94559, 81.744 4.3266, 81.9266 4.79172 Z M 80.3032 5.03643 C 80.264 4.71525, 80.1826 4.4611, 80.0589 4.27397, 79.9357 4.08684, 79.7625 3.99328, 79.5398 3.99283, 79.2834 3.99328, 79.0239 4.10618, 78.7621 4.33155, 78.5003 4.55736, 78.2654 4.83536, 78.0576 5.16598, 77.8008 5.58387, 77.5822 6.06384, 77.4018 6.60588, 77.2218 7.14838, 77.0748 7.64454, 76.9609 8.09527 L 79.8439 8.09527 C 79.9676 7.58246, 80.0886 7.04267, 80.2069 6.47588, 80.2861 6.09263, 80.3284 5.74221, 80.3329 5.42508, 80.3329 5.28159, 80.323 5.15204, 80.3032 5.03643 Z M 76.7086 9.04531 C 76.5754 9.56891, 76.4544 10.1087, 76.3456 10.6647, 76.2664 11.0538, 76.2268 11.4065, 76.2268 11.7227, 76.2268 11.8671, 76.2367 12.0038, 76.2565 12.1329, 76.2916 12.4406, 76.3708 12.6876, 76.494 12.8747, 76.6173 13.0618, 76.7927 13.1554, 77.0199 13.1549, 77.2772 13.1554, 77.5367 13.0438, 77.7985 12.8207, 78.0603 12.5976, 78.2951 12.3228, 78.5025 11.9962, 78.7544 11.5841, 78.9721 11.1019, 79.1548 10.55, 79.3374 9.9985, 79.4831 9.49694, 79.592 9.04531 Z" stroke="none" fill="#000000" />
			<path d="M 1.33964 -2.60263 C 1.31471 -2.50036, 1.25727 -2.41497, 1.16734 -2.34645, 1.07741 -2.27793, 0.979926 -2.24367, 0.87463 -2.24392, 0.764044 -2.24367, 0.679656 -2.2812, 0.621466 -2.35678, 0.582924 -2.3996, 0.562268 -2.452, 0.559245 -2.51396, 0.559245 -2.55125, 0.564787 -2.58903, 0.575871 -2.62682, 0.60081 -2.72859, 0.659 -2.81398, 0.750189 -2.8825, 0.84163 -2.95102, 0.939873 -2.98528, 1.04492 -2.98553, 1.15575 -2.98528, 1.24014 -2.949, 1.29808 -2.87671, 1.33687 -2.82532, 1.35627 -2.7704, 1.35627 -2.71146, 1.35627 -2.67367, 1.35073 -2.6374, 1.33964 -2.60263 Z M 1.38524 1.30692 C 1.35501 1.44698, 1.3079 1.59409, 1.24417 1.74851, 1.18069 1.90318, 1.10235 2.04349, 1.00965 2.16969, 0.91695 2.29615, 0.808379 2.40144, 0.683938 2.48583, 0.559497 2.57047, 0.415408 2.61279, 0.252174 2.61279, 0.113879 2.61279, -0.00502026 2.58332, -0.104774 2.52412, -0.204277 2.46518, -0.281107 2.38734, -0.335015 2.29061, -0.388922 2.19388, -0.416128 2.08631, -0.416128 1.96792, -0.42167 1.96288, -0.424441 1.95205, -0.424441 1.93567, -0.424441 1.81501, -0.397991 1.69133, -0.345595 1.56487 L 0.326738 -0.208536 C 0.409866 -0.431219, 0.45143 -0.614102, 0.45143 -0.75668, 0.45143 -0.877342, 0.400294 -0.937799, 0.297769 -0.938051, 0.203808 -0.937799, 0.119421 -0.910845, 0.0446049 -0.85719, -0.0299587 -0.803282, -0.0984767 -0.728718, -0.160697 -0.633498, -0.222917 -0.538027, -0.27884 -0.425174, -0.328717 -0.294939, -0.378594 -0.164453, -0.420159 -0.0256534, -0.45341 0.121963, -0.483638 0.194763, -0.535027 0.232296, -0.607071 0.234816 L -0.698261 0.234816 C -0.764764 0.235068, -0.798015 0.201564, -0.798015 0.134054 L -0.798015 0.105841 C -0.764764 -0.0417752, -0.714886 -0.192666, -0.648384 -0.347335, -0.581881 -0.501753, -0.501776 -0.642063, -0.407815 -0.768519, -0.313603 -0.894723, -0.204277 -0.999516, -0.0798358 -1.0829, 0.0446049 -1.16602, 0.187183 -1.20784, 0.347646 -1.20809, 0.486193 -1.20784, 0.603832 -1.17812, 0.700564 -1.11917, 0.797295 -1.05997, 0.871355 -0.981378, 0.922491 -0.883388, 0.97388 -0.785145, 1.00209 -0.674559, 1.00764 -0.551126 L 1.00764 -0.522913 C 1.00764 -0.407037, 0.984208 -0.287634, 0.93685 -0.164201 L 0.264517 1.61727 C 0.187183 1.83516, 0.148389 2.02057, 0.148389 2.17347, 0.142848 2.17901, 0.140077 2.17901, 0.140077 2.17347, 0.140077 2.28935, 0.192725 2.34703, 0.297769 2.34678, 0.391981 2.34703, 0.476873 2.31882, 0.552948 2.26239, 0.629023 2.20597, 0.698297 2.1309, 0.760517 2.03669, 0.822989 1.94273, 0.877653 1.82987, 0.924507 1.69813, 0.971613 1.56663, 1.01444 1.42809, 1.05323 1.28274, 1.06986 1.21321, 1.11822 1.1782, 1.19833 1.17795 L 1.28977 1.17795 C 1.32025 1.1782, 1.35073 1.18752, 1.38096 1.20616, 1.38952 1.22782, 1.39632 1.24672, 1.40187 1.26259, 1.40187 1.27896, 1.39632 1.29382, 1.38524 1.30692 Z" stroke="none" fill="#000000" transform="matrix(1.12 0 0 1 83.7898 13.3453)" />
			<polyline points="-5.159 0 5.159 0" fill="none" stroke="#000000" stroke-width="0.589599967" stroke-linecap="round" stroke-linejoin="round" transform="matrix(1 0 0 1 95.0081 9.3391)" />
			<path d="M 114.156 10.492 C 114.023 11.0156, 113.783 11.5014, 113.437 11.9499, 113.091 12.3988, 112.676 12.7717, 112.191 13.0686, 111.653 13.4051, 111.1 13.639, 110.531 13.7703, 109.962 13.9026, 109.434 13.9781, 108.944 13.997 L 108.277 16.5521 C 108.233 16.7297, 108.122 16.8184, 107.944 16.8184 L 107.654 16.8184 C 107.422 16.8184, 107.306 16.7059, 107.306 16.4801 L 107.306 16.4225, 107.936 13.997 C 107.521 13.9826, 107.065 13.9012, 106.568 13.7523, 106.072 13.6039, 105.638 13.3655, 105.268 13.0366, 104.897 12.7083, 104.652 12.3039, 104.533 11.8235, 104.47 11.5985, 104.437 11.3727, 104.437 11.1469, 104.437 10.8833, 104.477 10.6125, 104.555 10.3336, 104.679 9.81586, 104.915 9.33275, 105.263 8.88382, 105.612 8.43534, 106.036 8.06198, 106.535 7.76419, 107.064 7.43852, 107.614 7.20596, 108.185 7.06651, 108.756 6.92751, 109.288 6.84834, 109.782 6.82855 L 110.62 3.58258 C 110.654 3.41974, 110.763 3.33833, 110.946 3.33788 L 111.25 3.33788 C 111.472 3.33833, 111.583 3.44404, 111.583 3.65456 L 111.583 3.73373, 110.783 6.85014 C 111.198 6.86499, 111.654 6.94685, 112.15 7.0953, 112.647 7.24419, 113.081 7.4817, 113.451 7.80738, 113.817 8.1389, 114.064 8.5397, 114.193 9.00932, 114.242 9.23514, 114.267 9.46095, 114.267 9.68586, 114.267 9.95036, 114.23 10.2189, 114.156 10.492 Z M 112.295 10.3264 C 112.404 9.94766, 112.458 9.5878, 112.458 9.24683 L 112.458 9.18206 C 112.448 8.84648, 112.352 8.56354, 112.169 8.33278, 111.991 8.10786, 111.756 7.94008, 111.465 7.82942, 111.173 7.71921, 110.879 7.65668, 110.583 7.64184 L 109.152 13.1837 C 109.389 13.1648, 109.686 13.0992, 110.042 12.9863, 110.397 12.8738, 110.733 12.6925, 111.05 12.4424, 111.391 12.1788, 111.655 11.8626, 111.843 11.4928, 112.031 11.1235, 112.182 10.7349, 112.295 10.3264 Z M 109.574 7.64904 C 109.327 7.66883, 109.027 7.7372, 108.674 7.85461, 108.321 7.97247, 107.988 8.14835, 107.677 8.38316, 107.336 8.6571, 107.067 8.97648, 106.872 9.34085, 106.677 9.70566, 106.525 10.0894, 106.416 10.492, 106.323 10.8667, 106.273 11.2216, 106.268 11.5572 L 106.268 11.6435 C 106.278 11.9894, 106.375 12.2773, 106.557 12.5072, 106.735 12.7236, 106.97 12.8904, 107.262 13.0079, 107.553 13.1257, 107.847 13.1914, 108.144 13.2053 L 109.574 7.64904 Z" stroke="none" fill="#000000" />
			<path d="M 1.22206 7.1281 C -3.58318 3.92045, -3.58318 -3.92045, 1.22206 -7.1281 L 1.97675 -7.1281 C -2.35681 -3.92045, -2.35681 3.92045, 1.97675 7.1281" stroke="none" fill="#000000" transform="matrix(1 0 -0 1 71.6282 9.3391)" />
			<path d="M 1.22206 7.1281 C -3.58318 3.92045, -3.58318 -3.92045, 1.22206 -7.1281 L 1.97675 -7.1281 C -2.35681 -3.92045, -2.35681 3.92045, 1.97675 7.1281" stroke="none" fill="#000000" transform="matrix(-1 1.50996e-007 -1.50996e-007 -1 116.998 9.3391)" />
			<rect />
		</svg>
	</g>
</svg>
