<?xml version="1.0"?>
<svg xmlns="http://www.w3.org/2000/svg" xmlns:xlink="http://www.w3.org/1999/xlink" width="622.000549" height="305.42688">
	<defs>
		<marker id="CustomMarker-01" markerUnits="strokeWidth" markerWidth="15.000001" markerHeight="9" viewBox="-15 -4.5 15 9" orient="auto-start-reverse">
			<path d="M 0 -0 L -10 -3, -8 -0.5, -8 0.5, -10 3 Z" fill="#000000" stroke="#000000" stroke-linejoin="round" />
		</marker>
		<marker id="CustomMarker-02" markerUnits="strokeWidth" markerWidth="15.000001" markerHeight="9" viewBox="-15 -4.5 15 9" orient="auto-start-reverse">
			<path d="M 0 -0 L -10 -3, -8 -0.5, -8 0.5, -10 3 Z" fill="#000000" stroke="#000000" stroke-linejoin="round" />
		</marker>
		<marker id="CustomMarker-03" markerUnits="strokeWidth" markerWidth="15.000001" markerHeight="9" viewBox="-15 -4.5 15 9" orient="auto-start-reverse">
			<path d="M 0 -0 L -10 -3, -8 -0.5, -8 0.5, -10 3 Z" fill="#000000" stroke="#000000" stroke-linejoin="round" />
		</marker>
		<marker id="CustomMarker-04" markerUnits="strokeWidth" markerWidth="15.000001" markerHeight="9" viewBox="-15 -4.5 15 9" orient="auto-start-reverse">
			<path d="M 0 -0 L -10 -3, -8 -0.5, -8 0.5, -10 3 Z" fill="#000000" stroke="#000000" stroke-linejoin="round" />
		</marker>
		<marker id="CustomMarker-05" markerUnits="strokeWidth" markerWidth="15.000001" markerHeight="9" viewBox="-15 -4.5 15 9" orient="auto-start-reverse">
			<path d="M 0 -0 L -10 -3, -8 -0.5, -8 0.5, -10 3 Z" fill="#000000" stroke="#000000" stroke-linejoin="round" />
		</marker>
	</defs>
	<rect x="-0" y="-0" width="622.000549" height="305.42688" stroke="none" fill="#FFFFFF" />
	<rect x="-37.9564362" y="-60.7303925" width="75.9128723" height="121.460785" stroke="none" fill="#208D6C" fill-opacity="0.392156839" transform="matrix(0.5 0 -0 0.5 26.9782 178.804)" />
	<path d="M -37.9564 -60.7304 L 37.9564 -60.7304, 37.9564 60.7304, -37.9564 60.7304 Z" fill="none" stroke="#000000" stroke-width="2" stroke-linecap="round" stroke-linejoin="round" transform="matrix(0.5 0 -0 0.5 26.9782 178.804)" />
	<g transform="matrix(1 0 -0 1 22.6994 169.952)">
		<svg width="30.0150681" height="32.9571381">
			<defs />
			<path d="M 5.30079 8.22417 C 5.2567 8.41175, 5.16044 8.55479, 5.012 8.65286, 4.86355 8.75137, 4.71781 8.8004, 4.57431 8.79995, 4.42632 8.8004, 4.30756 8.74777, 4.2185 8.64161, 4.14473 8.57009, 4.10514 8.47427, 4.10019 8.35372, 4.10019 8.30154, 4.10514 8.24846, 4.11459 8.19538, 4.15957 8.02804, 4.24459 7.89849, 4.37054 7.80718, 4.49649 7.71631, 4.59905 7.66323, 4.67822 7.64839, 4.64404 7.49994, 4.52798 7.36455, 4.33006 7.24219, 4.13213 7.11984, 3.89507 7.05866, 3.61798 7.05821, 3.45019 7.05866, 3.2896 7.07665, 3.13621 7.11264, 2.98327 7.14863, 2.83977 7.21925, 2.70617 7.32451, 2.58292 7.41628, 2.48171 7.52783, 2.40254 7.65963, 2.32337 7.79188, 2.26669 7.93178, 2.23205 8.08022, 2.20236 8.16209, 2.18752 8.24396, 2.18752 8.32493, 2.18752 8.45988, 2.22711 8.58673, 2.30583 8.70639, 2.41963 8.88452, 2.59282 8.99473, 2.82493 9.03746 L 3.56625 9.1958 C 3.80825 9.24888, 4.02687 9.34019, 4.2221 9.46975, 4.41732 9.5993, 4.57566 9.75539, 4.69667 9.93757, 4.81812 10.1202, 4.90314 10.3262, 4.95262 10.5561, 4.96252 10.6478, 4.96746 10.7342, 4.96746 10.8152, 4.96746 10.969, 4.94542 11.1301, 4.90044 11.2974, 4.81677 11.5763, 4.69307 11.8547, 4.53023 12.1327, 4.36739 12.4112, 4.14743 12.6509, 3.87033 12.852, 3.56895 13.0634, 3.25496 13.2074, 2.92884 13.2838, 2.60271 13.3608, 2.28873 13.399, 1.98735 13.399, 1.68596 13.399, 1.40527 13.3585, 1.14572 13.2766, 0.886615 13.1952, 0.660351 13.0747, 0.467824 12.9136, 0.275297 12.753, 0.143947 12.5574, 0.0746731 12.3266, 0.0305899 12.2119, 0.0058493 12.0873, 0.000451356 11.9524, 0.000451356 11.8282, 0.0179947 11.6959, 0.0521817 11.5565, 0.107061 11.341, 0.216819 11.1791, 0.382356 11.0711, 0.547893 10.9632, 0.71478 10.9092, 0.882566 10.9087, 1.05575 10.9092, 1.20419 10.9645, 1.32745 11.0743, 1.41157 11.1562, 1.4561 11.2619, 1.46105 11.391, 1.46105 11.4584, 1.4489 11.5259, 1.42371 11.5925, 1.36973 11.8039, 1.25952 11.9636, 1.09399 12.0716, 0.928449 12.1795, 0.79395 12.2357, 0.690039 12.2402, 0.744469 12.4184, 0.900109 12.5767, 1.15696 12.7157, 1.41426 12.8552, 1.7179 12.9244, 2.06877 12.924, 2.28648 12.9244, 2.50015 12.9019, 2.71022 12.8561, 2.92029 12.8106, 3.11192 12.7207, 3.28465 12.5857, 3.45289 12.471, 3.59009 12.332, 3.69625 12.1687, 3.80241 12.0059, 3.87798 11.8282, 3.92206 11.6357, 3.95175 11.5498, 3.96659 11.4584, 3.96659 11.3622, 3.96659 11.1804, 3.90992 11.0172, 3.79611 10.8728, 3.63327 10.6622, 3.40071 10.5205, 3.09932 10.4481 L 2.35801 10.2826 C 1.92302 10.1917, 1.60184 9.97355, 1.39402 9.62764, 1.25592 9.41217, 1.18665 9.16971, 1.18665 8.90071, 1.18665 8.74777, 1.20644 8.59168, 1.24603 8.43289, 1.31035 8.18863, 1.41291 7.94393, 1.55371 7.69922, 1.69451 7.45451, 1.88479 7.24129, 2.12454 7.05866, 2.3643 6.87648, 2.62385 6.75053, 2.90275 6.68081, 3.18209 6.61153, 3.45019 6.57645, 3.70704 6.57599, 3.9594 6.57645, 4.19556 6.61513, 4.41507 6.6916, 4.63504 6.76852, 4.82307 6.88008, 4.97871 7.02627, 5.13435 7.17292, 5.24681 7.3443, 5.31563 7.54043, 5.33542 7.64659, 5.34532 7.75185, 5.34532 7.85711, 5.34532 7.97271, 5.33048 8.09507, 5.30079 8.22417 Z" stroke="none" fill="#000000" />
			<path d="M 1.59352 -0.901777 C 1.5633 -0.820915, 1.50914 -0.780611, 1.43155 -0.780863 L 0.659715 -0.780863, 0.0453203 1.60114 C -0.00430489 1.77345, -0.0292434 1.92383, -0.0292434 2.05256, -0.0292434 2.08782, -0.0264724 2.12133, -0.0209305 2.15332, -0.00707579 2.28255, 0.0579156 2.34703, 0.174043 2.34678, 0.279339 2.34703, 0.378842 2.31832, 0.473054 2.26038, 0.567266 2.20269, 0.655684 2.12536, 0.738561 2.02863, 0.821689 1.93189, 0.896253 1.81778, 0.962756 1.68604, 1.02926 1.55454, 1.08997 1.41599, 1.14539 1.27065, 1.1537 1.23865, 1.17158 1.21523, 1.19929 1.20036, 1.227 1.18575, 1.25345 1.1782, 1.27814 1.17795 L 1.38192 1.17795 C 1.41795 1.1782, 1.44692 1.19306, 1.46908 1.22228, 1.4774 1.24143, 1.48143 1.25881, 1.48143 1.27468 L 1.48143 1.29886 C 1.42349 1.45756, 1.35069 1.61424, 1.26353 1.76866, 1.17637 1.92333, 1.07611 2.06238, 0.962756 2.18581, 0.849399 2.3095, 0.724202 2.41152, 0.587166 2.49188, 0.45013 2.57249, 0.298736 2.61279, 0.132479 2.61279, -0.0113581 2.61279, -0.135799 2.58533, -0.241095 2.53017, -0.346139 2.47525, -0.430527 2.39893, -0.494259 2.30068, -0.557739 2.20269, -0.595272 2.09034, -0.606356 1.96389, -0.611898 1.93189, -0.614669 1.89688, -0.614669 1.85909, -0.614669 1.76791, -0.603585 1.6752, -0.581418 1.58099 L 0.0286946 -0.780863, -0.751453 -0.780863 C -0.820475 -0.780611, -0.858009 -0.816885, -0.86355 -0.889685 L -0.86355 -0.921929, -0.838612 -0.990447 C -0.810902 -1.0708, -0.759766 -1.11111, -0.685202 -1.11136 L 0.107541 -1.11136, 0.447863 -2.43335 C 0.473054 -2.53261, 0.523435 -2.60641, 0.59951 -2.65478, 0.675585 -2.70314, 0.752416 -2.72733, 0.82975 -2.72758, 0.910108 -2.72733, 0.976611 -2.70188, 1.02901 -2.651, 1.06503 -2.61573, 1.08291 -2.56737, 1.08291 -2.5059, 1.08291 -2.47618, 1.08014 -2.44645, 1.0746 -2.41723 L 0.738561 -1.11136, 1.50233 -1.11136 C 1.57438 -1.11111, 1.61015 -1.07483, 1.61015 -1.00254 L 1.61015 -0.974325 Z" stroke="none" fill="#000000" transform="matrix(1.12 0 0 1 6.97476 12.8121)" />
			<rect />
		</svg>
	</g>
	<path d="M 0 0 L 88.8881 -0.00012207" fill="none" stroke="#000000" stroke-width="2" stroke-linecap="round" stroke-linejoin="round" marker-end="url(#CustomMarker-01)" transform="matrix(0.5 0 0 0.5 45.9564 178.804)" />
	<rect x="-189.782257" y="-189.782059" width="379.564514" height="379.564117" stroke="none" fill="#F85136" fill-opacity="0.392156839" transform="matrix(0.5 0 -0 0.5 185.292 178.804)" />
	<path d="M -189.782 -189.782 L 189.782 -189.782, 189.782 189.782, -189.782 189.782 Z" fill="none" stroke="#000000" stroke-width="2" stroke-linecap="round" stroke-linejoin="round" transform="matrix(0.5 0 -0 0.5 185.292 178.804)" />
	<g transform="matrix(1 0 -0 1 132.673 157.507)">
		<svg width="323.964752" height="126.042831">
			<defs />
			<path d="M 5.23666 4.48735 L 5.23666 9.30088, 9.28224 9.30088, 9.28224 4.48735 Z M 4.3262 4.10733 C 4.3262 2.84457, 4.30641 1.76786, 4.25891 0.877202 L 5.69584 1.51056, 5.23666 1.95391, 5.23666 4.10733, 9.28224 4.10733 C 9.28224 2.42102, 9.26245 1.30472, 9.2189 0.75053 L 10.6519 1.44723, 10.1967 1.82724, 10.1967 4.10733, 12.3501 4.10733, 13.1972 3.28397, 14.4362 4.48735, 10.1967 4.48735, 10.1967 9.30088, 12.544 9.30088, 13.5891 8.28751, 15.0221 9.6809, 1.78089 9.6809 C 1.21879 9.68485, 0.696264 9.74819, 0.213328 9.8709 L -0.372529 9.30088, 4.3262 9.30088, 4.3262 4.48735, 2.62801 4.48735 C 2.0659 4.49131, 1.54338 4.55464, 1.0644 4.67736 L 0.474589 4.10733 Z M 5.04269 9.99758 L 6.41233 11.1376, 5.69584 11.391 C 4.34996 12.5785, 3.28116 13.4335, 2.49738 13.9561, 1.7136 14.4865, 0.86648 14.9813, -0.0479328 15.4445 L -0.178563 15.1911 C 1.34546 14.1777, 2.5528 13.1802, 3.44346 12.1866, 4.33808 11.197, 4.86852 10.4647, 5.04269 9.99758 Z M 8.49846 10.7576 L 8.56575 10.5043 C 11.5227 11.7749, 13.1536 12.6221, 13.4585 13.0417, 13.7633 13.4652, 13.9137 13.8215, 13.9137 14.1144, 13.9137 14.2846, 13.8701 14.4628, 13.783 14.6528, 13.696 14.8428, 13.6326 14.9378, 13.5891 14.9378, 13.3714 14.9378, 12.9795 14.5815, 12.4134 13.8611, 11.6771 12.9348, 10.3708 11.9016, 8.49846 10.7576 Z" stroke="none" fill="#000000" />
			<path d="M 19.7901 13.8611 C 20.7045 14.0313, 21.3577 14.1144, 21.7496 14.1144, 22.1414 14.1144, 22.3156 13.8611, 22.2721 13.3544 L 22.2721 11.4543, 16.9875 11.4543 C 16.4254 11.4583, 15.9029 11.5216, 15.4199 11.6443 L 14.8341 11.0743, 22.2721 11.0743, 22.2721 9.49089, 23.1192 9.8709, 25.9258 8.60419, 19.0736 8.60419 C 18.5115 8.60814, 17.989 8.67148, 17.51 8.79419 L 16.9202 8.22417, 25.9891 8.22417, 26.8362 7.59081, 28.0119 8.79419 C 27.4023 8.71502, 25.8585 9.13462, 23.3805 10.0609 L 23.8357 10.3143, 23.1825 10.6309, 23.1825 11.0743, 27.62 11.0743, 28.6651 10.0609, 30.098 11.4543, 23.1825 11.4543, 23.1825 13.8611 C 23.23 14.6646, 22.7511 15.1911, 21.7496 15.4445, 21.7496 14.9813, 21.0766 14.538, 19.7268 14.1144 Z M 18.1592 3.72732 L 19.2715 4.29734, 25.5339 4.29734, 26.1197 3.66398, 27.1648 4.48735, 26.6423 4.86737 C 26.6423 5.92824, 26.666 6.66452, 26.7056 7.08412 L 25.7278 7.52747, 25.7278 6.83078, 19.1409 6.83078, 19.1409 7.33747, 18.1592 7.65415 C 18.2067 7.02475, 18.2265 6.3518, 18.2265 5.63136, 18.2265 4.91487, 18.2067 4.28151, 18.1592 3.72732 Z M 19.1409 4.67736 L 19.1409 6.45076, 25.7278 6.45076, 25.7278 4.67736 Z M 21.0964 0.687195 L 21.227 0.497187 C 22.5333 0.924705, 23.2182 1.24138, 23.2815 1.45118, 23.3488 1.66494, 23.3805 1.8312, 23.3805 1.95391, 23.3805 2.21122, 23.3171 2.4131, 23.1865 2.55956, 23.0559 2.70999, 22.945 2.78124, 22.8579 2.77728, 22.7313 2.78124, 22.6006 2.63477, 22.466 2.33393, 22.2523 1.91433, 21.7931 1.36806, 21.0964 0.687195 Z M 15.6812 2.84062 L 26.9669 2.84062, 27.9446 1.89058, 29.3142 3.22063, 17.8346 3.22063 C 17.2725 3.22459, 16.75 3.28793, 16.267 3.41064 Z" stroke="none" fill="#000000" />
			<path d="M 35.9784 3.09396 L 39.1096 3.09396 C 39.1096 2.00142, 39.0898 1.11471, 39.0423 0.43385 L 40.4792 1.00387, 40.02 1.38389, 40.02 3.09396, 41.8489 3.09396, 42.7593 2.33393, 43.8716 3.47398, 40.02 3.47398, 40.02 6.13408, 43.0206 6.13408, 44.0023 5.24738, 45.174 6.5141, 37.2808 6.5141 C 36.7186 6.51806, 36.1961 6.58139, 35.7171 6.70411 L 35.1273 6.13408, 39.1096 6.13408, 39.1096 3.47398, 38.1279 3.47398 C 37.5658 3.47793, 37.0432 3.54127, 36.5643 3.66398 Z M 38.2585 13.6711 C 39.26 13.7581, 39.9567 13.7977, 40.3486 13.7977, 40.5663 13.7977, 40.7524 13.7819, 40.9028 13.7384, 41.0532 13.6988, 41.1284 13.5286, 41.1284 13.2277 L 41.1284 9.23754, 37.542 9.23754 C 36.9799 9.2415, 36.4574 9.30484, 35.9784 9.42755 L 35.3886 8.85753, 41.1284 8.85753 C 41.1284 7.84811, 41.1086 7.10787, 41.0651 6.64077 L 42.5653 7.33747, 42.0428 7.78082, 42.0428 8.85753, 43.2818 8.85753, 44.1329 8.03416, 45.3046 9.23754, 42.0428 9.23754, 42.0428 13.4177 C 42.0903 14.3915, 41.5678 15.0249, 40.4792 15.3178, 40.4357 14.6844, 39.6954 14.2213, 38.2585 13.9244 Z M 36.6949 9.8709 C 37.4787 10.3815, 37.9972 10.7932, 38.2585 11.1099, 38.5198 11.4266, 38.6504 11.6918, 38.6504 11.8977, 38.6504 12.1114, 38.5554 12.345, 38.3575 12.5983, 38.1635 12.8517, 38.021 12.9783, 37.9339 12.9744, 37.8072 12.9783, 37.6766 12.725, 37.542 12.2143, 37.3678 11.5018, 37.0195 10.7616, 36.497 9.99758 Z M 33.0412 15.4445 C 33.0847 14.6448, 33.1045 12.725, 33.1045 9.6809, 32.4989 10.0213, 31.8695 10.3815, 31.2163 10.7576 L 30.8244 11.3276, 29.9734 10.1242 C 30.4088 10.0451, 31.4538 9.66506, 33.1045 8.9842 L 33.1045 5.50072, 31.2797 5.50072 C 30.9313 6.43493, 30.5196 7.27809, 30.0407 8.03416 L 29.8427 7.90749 C 30.1911 6.85453, 30.4523 5.83324, 30.6265 4.83966, 30.8007 3.85003, 30.8878 3.07813, 30.8878 2.52394 L 32.3247 3.03062 C 32.0635 3.2048, 31.8695 3.49773, 31.7349 3.91733, 31.6082 4.34484, 31.4776 4.74465, 31.343 5.12071 L 33.1045 5.12071 C 33.1045 2.7179, 33.0847 1.19784, 33.0412 0.560522 L 34.5415 1.25722, 34.019 1.70057, 34.019 5.12071, 34.8027 5.12071, 35.5865 4.36068, 36.6949 5.50072, 34.019 5.50072, 34.019 8.54085, 36.3663 7.59081, 36.497 7.78082, 34.019 9.17421 C 34.019 12.3885, 34.0427 14.348, 34.0862 15.0644 Z" stroke="none" fill="#000000" />
			<path d="M 48.4418 0.623858 L 49.6808 1.5739, 49.0316 1.89058 C 47.4244 3.83816, 46.1815 5.08112, 45.3106 5.6274 L 45.18 5.43739 C 45.9242 4.68132, 46.5773 3.86982, 47.1394 3.00291, 47.7055 2.13996, 48.1409 1.34431, 48.4418 0.623858 Z M 48.4418 7.21079 L 48.4418 15.0011, 47.464 15.4445 C 47.5115 14.5578, 47.5313 13.675, 47.5313 12.7844 L 47.5313 8.22417 C 46.8346 8.98816, 46.0746 9.66506, 45.2473 10.2509 L 45.1166 10.0609 C 45.9004 9.30484, 46.7079 8.33501, 47.5313 7.15142, 48.3586 5.97179, 48.988 4.85153, 49.4235 3.79066 L 50.5952 4.80403, 50.0093 5.05737 C 49.4472 5.77782, 48.9247 6.49827, 48.4418 7.21079 Z M 51.4423 8.22417 C 51.4423 7.4681, 51.4225 6.68827, 51.379 5.88074 L 52.8792 6.64077, 52.2934 7.14746, 52.2934 13.7344, 54.7041 13.7344, 54.7041 2.52394, 52.618 2.52394 C 52.0559 2.52789, 51.5334 2.59123, 51.0544 2.71394 L 50.4646 2.14392, 57.7719 2.14392, 58.6191 1.32055, 59.8581 2.52394, 55.5552 2.52394, 55.5552 7.46414, 57.6413 7.46414, 58.4251 6.70411, 59.5968 7.84415, 55.5552 7.84415, 55.5552 13.7344, 57.9659 13.7344, 58.8803 12.8477, 60.1866 14.1144, 51.0544 14.1144 C 50.4883 14.1144, 49.9658 14.1777, 49.4868 14.3044 L 48.901 13.7344, 51.4423 13.7344 Z" stroke="none" fill="#000000" />
			<path d="M 67.8919 4.17067 L 67.8919 6.07075, 72.0641 6.07075, 72.0641 4.17067 Z M 66.9775 7.4008 C 67.021 6.60119, 67.0408 5.5799, 67.0408 4.33297, 67.0408 3.09, 67.021 2.00142, 66.9775 1.06721 L 67.8919 1.63723, 71.9335 1.63723, 72.3927 1.00387, 73.3704 1.70057, 72.9112 2.08058 C 72.9112 4.53485, 72.935 6.07471, 72.9785 6.70411 L 72.0641 7.14746, 72.0641 6.45076, 67.8919 6.45076, 67.8919 7.02079 Z M 64.6934 8.0975 L 73.2398 8.0975, 74.0869 7.27413, 75.3259 8.47751, 70.5005 8.47751, 70.5005 10.6943, 72.7846 10.6943, 73.5011 9.99758, 74.6094 11.0743, 70.5005 11.0743, 70.5005 13.6711 C 71.2843 13.8413, 72.0879 13.9244, 72.9112 13.9244, 73.6079 13.9244, 74.4155 13.8611, 75.3259 13.7344 L 75.3259 13.9877 C 74.5461 14.2411, 74.1542 14.5815, 74.1542 15.0011, 71.8068 14.9615, 70.1878 14.6646, 69.2932 14.1144, 68.4025 13.5681, 67.5871 12.725, 66.8468 11.581, 66.1105 13.1485, 65.0655 14.4113, 63.7157 15.3811 L 63.585 15.1911 C 64.2817 14.5182, 64.9151 13.6671, 65.4772 12.63, 66.0433 11.5968, 66.3679 10.3815, 66.4549 8.9842 L 67.8246 9.80757, 67.3021 10.0609 C 67.1754 10.528, 67.0645 10.9318, 66.9775 11.2643, 67.7612 12.2816, 68.6519 12.9981, 69.6494 13.4177 L 69.6494 8.47751, 66.8468 8.47751 C 66.2847 8.48147, 65.7622 8.54481, 65.2793 8.66752 Z M 67.8919 2.01725 L 67.8919 3.79066, 72.0641 3.79066, 72.0641 2.01725 Z M 60.5172 13.6077 C 61.2139 13.6948, 61.772 13.7502, 62.1837 13.77, 62.5954 13.7938, 62.7815 13.5681, 62.7379 13.101 L 62.7379 8.54085 C 62.1718 8.88128, 61.6493 9.22171, 61.1703 9.55422 L 60.8458 9.99758, 60.062 8.85753 C 60.541 8.73482, 61.4316 8.39834, 62.7379 7.84415 L 62.7379 4.42401, 61.4949 4.42401, 60.7151 4.55069, 60.1926 4.044, 62.7379 4.044 C 62.7379 2.57144, 62.7181 1.40764, 62.6706 0.560522 L 64.1709 1.25722, 63.585 1.70057, 63.585 4.044, 64.3688 4.044, 65.0853 3.3473, 66.1937 4.42401, 63.585 4.42401, 63.585 7.46414, 65.8018 6.45076, 65.9324 6.64077, 63.585 8.0975, 63.585 13.4811 C 63.585 14.2411, 63.1496 14.7913, 62.2787 15.1278, 62.3262 14.7082, 61.7364 14.2846, 60.5172 13.8611 Z" stroke="none" fill="#000000" />
			<path d="M 77.8139 8.16083 L 77.8139 10.9476, 80.7471 10.3776, 80.7471 8.16083 Z M 81.5942 10.6943 C 81.5942 12.5983, 81.618 13.9244, 81.6615 14.6844 L 80.6838 15.2545 C 80.7273 14.0748, 80.7471 12.6181, 80.7471 10.8843, 77.8812 11.6483, 76.2701 12.2618, 75.9217 12.721 L 75.2686 11.4543 C 75.7911 11.3751, 76.3571 11.2683, 76.9628 11.1376 L 76.9628 2.01725, 76.4442 2.01725, 75.7911 2.14392, 75.2686 1.63723, 81.4003 1.63723, 82.1841 0.877202, 83.3558 2.01725, 81.5942 2.01725, 81.5942 10.1876, 83.5537 9.80757, 83.617 10.0609 Z M 77.8139 2.01725 L 77.8139 4.67736, 80.7471 4.67736, 80.7471 2.01725 Z M 80.7471 5.05737 L 77.8139 5.05737, 77.8139 7.78082, 80.7471 7.78082 Z M 82.0534 3.22063 L 87.5993 3.22063, 88.1178 2.58727, 89.2935 3.47398, 88.7077 3.85399 C 88.0585 6.51806, 87.2509 8.75461, 86.293 10.5676, 87.4251 12.0916, 88.771 13.0615, 90.3386 13.4811 L 90.3386 13.7344 C 89.7765 13.8215, 89.341 14.0748, 89.0322 14.4944, 87.7734 13.6552, 86.7086 12.5983, 85.8377 11.3276, 84.666 12.9348, 83.3162 14.2015, 81.7922 15.1278 L 81.6615 14.9378 C 83.1856 13.6315, 84.4048 12.1985, 85.3152 10.6309, 84.4048 8.31126, 83.8387 5.96783, 83.617 3.60065 L 83.1618 3.60065, 82.5759 3.72732 Z M 83.9456 3.60065 C 84.381 6.13804, 84.9906 8.18458, 85.7704 9.74423, 86.5978 7.97478, 87.2272 5.92824, 87.6626 3.60065 Z" stroke="none" fill="#000000" />
			<path d="M 94.9046 6.76744 L 101.951 6.76744, 102.735 6.00741, 103.91 7.14746, 97.0581 7.14746 C 96.4089 7.15142, 95.8864 7.21475, 95.4945 7.33747 Z M 100.842 11.6443 C 101.67 12.1114, 102.378 12.5785, 102.964 13.0417, 103.55 13.5088, 103.867 13.9046, 103.91 14.2411, 103.954 14.5815, 103.886 14.8428, 103.712 15.0328, 103.538 15.2228, 103.431 15.3178, 103.388 15.3178, 103.257 15.3178, 103.17 15.2545, 103.126 15.1278, 102.952 14.8349, 102.735 14.4548, 102.473 13.9877, 100.431 14.158, 98.7919 14.3282, 97.5489 14.4944, 96.3099 14.6646, 95.4945 14.8744, 95.1026 15.1278 L 94.4494 13.9244 C 95.0155 13.8848, 95.7122 13.3583, 96.5395 12.345, 97.3668 11.3316, 97.9329 10.4449, 98.2337 9.6809 L 95.7557 9.6809 C 95.1897 9.68485, 94.6671 9.74819, 94.1882 9.8709 L 93.6023 9.30088, 103.126 9.30088, 103.974 8.47751, 105.213 9.6809, 98.4277 9.6809, 99.6707 10.5043 C 99.2788 10.6349, 98.7365 11.0347, 98.0398 11.7076, 97.3431 12.4281, 96.5395 13.1683, 95.6251 13.9244 L 102.343 13.7344 C 101.955 13.1485, 101.389 12.5152, 100.648 11.8343 Z M 93.535 1.95391 L 93.535 4.10733, 102.671 4.10733, 102.671 1.95391 Z M 90.1426 15.2545 C 90.9739 14.0313, 91.5597 12.7685, 91.9081 11.4583, 92.2564 10.152, 92.4504 8.85357, 92.4939 7.5631, 92.5375 6.27659, 92.5573 5.093, 92.5573 4.01629, 92.5573 2.93958, 92.5375 1.95787, 92.4939 1.06721 L 93.535 1.5739, 102.604 1.5739, 103.257 0.940538, 104.171 1.82724, 103.649 2.20726 C 103.649 2.67436, 103.649 3.15334, 103.649 3.63627, 103.649 4.12317, 103.673 4.53485, 103.712 4.86737 L 102.671 5.24738, 102.671 4.48735, 93.535 4.48735 C 93.535 5.75803, 93.4717 7.0485, 93.341 8.3548, 93.2144 9.66506, 92.9412 10.8882, 92.5256 12.0283, 92.1139 13.1683, 91.3855 14.3044, 90.3405 15.4445 Z" stroke="none" fill="#000000" />
			<path d="M 40.286 36.5627 C 40.286 37.0733, 40.3098 37.8136, 40.3533 38.7794 L 39.4389 39.1594, 39.4389 37.7027, 35.7139 37.7027, 35.7139 39.0961, 34.7995 39.5395 C 34.847 38.2767, 34.8668 37.4335, 34.8668 37.006 L 34.8668 30.7991 C 34.8668 30.043, 34.847 29.2632, 34.7995 28.4557 L 35.7139 28.9624, 39.3083 28.9624, 39.8308 28.329, 40.8085 29.089, 40.286 29.5324 Z M 35.7139 29.3424 L 35.7139 37.3227, 39.4389 37.3227, 39.4389 29.3424 Z M 29.5743 25.6056 L 31.1419 26.3023, 30.556 26.6823 C 30.3819 27.3631, 30.1641 28.3132, 29.9029 29.5324 L 32.3849 29.5324, 32.7767 28.8357, 33.8851 29.5957, 33.3626 30.0391 C 32.9272 33, 32.4482 35.1099, 31.9257 36.3727, 32.9707 36.8002, 33.5803 37.1683, 33.7545 37.485, 33.9287 37.8017, 33.9841 38.0986, 33.9207 38.3717, 33.8574 38.6488, 33.7782 38.7794, 33.6912 38.7794, 33.5605 38.7794, 33.4061 38.6765, 33.232 38.4627, 32.8836 38.0431, 32.3176 37.58, 31.5338 37.0694, 30.275 38.6765, 28.553 39.773, 26.3759 40.3628 L 26.2452 40.1728 C 28.3789 39.2861, 29.9029 38.1302, 30.8173 36.6893, 29.511 36.1431, 28.4462 35.7868, 27.6149 35.6126, 27.9632 34.3063, 28.3986 32.4063, 28.9212 29.9124 L 28.4659 29.9124 C 27.8999 29.9164, 27.3774 29.9797, 26.8984 30.1024 L 26.3086 29.5324, 28.9885 29.5324 C 29.2933 27.9332, 29.4872 26.6229, 29.5743 25.6056 Z M 28.5293 35.4226 C 28.9647 35.5097, 29.8158 35.7433, 31.0786 36.1193, 31.6011 34.8566, 32.0603 32.7863, 32.4482 29.9124 L 29.8356 29.9124 C 29.5347 31.2266, 29.0993 33.0634, 28.5293 35.4226 Z" stroke="none" fill="#000000" />
			<path d="M 55.9665 34.5733 C 55.9665 35.1158, 55.8604 35.6282, 55.648 36.1104, 55.4357 36.5926, 55.1501 37.0101, 54.792 37.3627, 54.4339 37.7154, 54.0102 37.9974, 53.5208 38.208, 53.0318 38.4194, 52.5082 38.5246, 51.9495 38.5246, 51.2334 38.5246, 50.5452 38.387, 49.8857 38.1113, 49.2263 37.8355, 48.6469 37.4455, 48.1476 36.9412, 47.6339 36.4091, 47.2434 35.8131, 46.9767 35.1532, 46.7099 34.4937, 46.5763 33.8059, 46.5763 33.0907, 46.5763 32.3764, 46.7099 31.6877, 46.9767 31.0255, 47.2434 30.3634, 47.6339 29.771, 48.1476 29.2474, 48.6469 28.744, 49.2263 28.3518, 49.8857 28.0711, 50.5452 27.7904, 51.2334 27.65, 51.9495 27.6496, 52.528 27.65, 53.0543 27.7679, 53.5284 28.0027, 54.0026 28.238, 54.3953 28.533, 54.7065 28.8875 L 55.5072 27.7575 C 55.5369 27.686, 55.6013 27.65, 55.6998 27.6496 L 55.7443 27.6496 C 55.8927 27.65, 55.9665 27.7243, 55.9665 27.8727 L 55.9665 31.8024 C 55.9665 31.9468, 55.8927 32.021, 55.7443 32.0255 L 55.5738 32.0255 C 55.4555 32.026, 55.3813 31.9589, 55.3516 31.824, 55.3318 31.34, 55.2342 30.8807, 55.0588 30.4462, 54.8833 30.0121, 54.6499 29.6342, 54.3584 29.3126, 54.0669 28.9914, 53.73 28.7346, 53.3467 28.5425, 52.9639 28.3509, 52.5478 28.2546, 52.098 28.2542, 51.5299 28.2546, 51.0013 28.3747, 50.5119 28.6145, 50.0229 28.8547, 49.6055 29.1902, 49.2591 29.6216, 48.8786 30.102, 48.6195 30.6405, 48.4809 31.2379, 48.3428 31.8352, 48.2735 32.4529, 48.2735 33.0907, 48.2735 33.7245, 48.3428 34.3399, 48.4809 34.9373, 48.6195 35.5346, 48.8786 36.0731, 49.2591 36.5526, 49.61 36.9849, 50.0328 37.3245, 50.5267 37.5715, 51.0206 37.8189, 51.5496 37.9421, 52.1128 37.9417, 52.5771 37.9421, 53.0134 37.8535, 53.4209 37.6758, 53.8285 37.4986, 54.1807 37.2548, 54.4771 36.9453, 54.7736 36.6358, 55.0084 36.2795, 55.1811 35.8765, 55.3543 35.4735, 55.4407 35.0394, 55.4407 34.5733, 55.4407 34.4299, 55.5122 34.3579, 55.6552 34.3574 L 55.7443 34.3574 C 55.8927 34.3579, 55.9665 34.4299, 55.9665 34.5733 Z" stroke="none" fill="#000000" />
			<path d="M 67.3984 28.578 C 67.1515 28.5785, 66.9293 28.5906, 66.7313 28.6145, 66.5339 28.6388, 66.3562 28.7008, 66.1978 28.8011, 66.0791 28.8686, 65.9891 28.9613, 65.9275 29.0787, 65.8659 29.1965, 65.8348 29.3198, 65.8348 29.4489 L 65.8348 37.9633 C 65.8348 38.1221, 65.7556 38.2008, 65.5973 38.2008 L 65.5087 38.2008 C 65.4246 38.2008, 65.358 38.1675, 65.3085 38.1 L 59.0087 29.0746 C 58.9691 29.0175, 58.979 29.0175, 59.0383 29.0746 L 59.0383 36.7397 C 59.0383 37.0087, 59.1594 37.2224, 59.4014 37.3803, 59.5647 37.4815, 59.7437 37.544, 59.9389 37.5679, 60.1341 37.5922, 60.355 37.6038, 60.602 37.6034 L 60.602 38.208 C 59.965 38.1747, 59.3474 38.1576, 58.7491 38.1576, 58.1612 38.1576, 57.5458 38.1747, 56.9035 38.208 L 56.9035 37.6034 C 57.1509 37.6038, 57.3717 37.5908, 57.567 37.5643, 57.7622 37.5382, 57.9412 37.4765, 58.1041 37.3803, 58.3416 37.2273, 58.4626 37.0137, 58.4675 36.7397 L 58.4675 28.6788 C 58.4725 28.6792, 58.4648 28.672, 58.445 28.6572, 58.2871 28.6145, 58.0663 28.5906, 57.782 28.5857, 57.4977 28.5812, 57.2048 28.5785, 56.9035 28.578 L 56.9035 27.9879, 59.7792 27.9879 C 59.8633 27.9883, 59.9299 28.022, 59.9794 28.0886 L 65.264 35.6673, 65.264 29.4489 C 65.264 29.3198, 65.2334 29.1974, 65.1713 29.0823, 65.1097 28.9671, 65.022 28.8713, 64.9082 28.7939, 64.7453 28.6936, 64.5649 28.6325, 64.367 28.6109, 64.1695 28.5893, 63.9473 28.5785, 63.6999 28.578 L 63.6999 27.9879 C 64.3477 28.0076, 64.9653 28.0171, 65.5528 28.0166, 66.151 28.0171, 66.766 28.0076, 67.3984 27.9879 L 67.3984 28.578 Z" stroke="none" fill="#000000" />
			<path d="M 78.6846 28.578 C 78.4376 28.5785, 78.2154 28.5906, 78.0175 28.6145, 77.82 28.6388, 77.6423 28.7008, 77.484 28.8011, 77.3652 28.8686, 77.2753 28.9613, 77.2137 29.0787, 77.152 29.1965, 77.121 29.3198, 77.121 29.4489 L 77.121 37.9633 C 77.121 38.1221, 77.0418 38.2008, 76.8835 38.2008 L 76.7949 38.2008 C 76.7108 38.2008, 76.6442 38.1675, 76.5947 38.1 L 70.2948 29.0746 C 70.2553 29.0175, 70.2652 29.0175, 70.3245 29.0746 L 70.3245 36.7397 C 70.3245 37.0087, 70.4455 37.2224, 70.6875 37.3803, 70.8508 37.4815, 71.0299 37.544, 71.2251 37.5679, 71.4203 37.5922, 71.6412 37.6038, 71.8881 37.6034 L 71.8881 38.208 C 71.2512 38.1747, 70.6336 38.1576, 70.0353 38.1576, 69.4474 38.1576, 68.832 38.1747, 68.1896 38.208 L 68.1896 37.6034 C 68.437 37.6038, 68.6579 37.5908, 68.8531 37.5643, 69.0484 37.5382, 69.2274 37.4765, 69.3902 37.3803, 69.6277 37.2273, 69.7487 37.0137, 69.7537 36.7397 L 69.7537 28.6788 C 69.7586 28.6792, 69.751 28.672, 69.7312 28.6572, 69.5733 28.6145, 69.3524 28.5906, 69.0682 28.5857, 68.7839 28.5812, 68.491 28.5785, 68.1896 28.578 L 68.1896 27.9879, 71.0654 27.9879 C 71.1495 27.9883, 71.2161 28.022, 71.2656 28.0886 L 76.5502 35.6673, 76.5502 29.4489 C 76.5502 29.3198, 76.5196 29.1974, 76.4575 29.0823, 76.3959 28.9671, 76.3082 28.8713, 76.1943 28.7939, 76.0315 28.6936, 75.8511 28.6325, 75.6532 28.6109, 75.4557 28.5893, 75.2335 28.5785, 74.9861 28.578 L 74.9861 27.9879 C 75.6339 28.0076, 76.2515 28.0171, 76.839 28.0166, 77.4372 28.0171, 78.0521 28.0076, 78.6846 27.9879 L 78.6846 28.578 Z" stroke="none" fill="#000000" />
			<rect />
		</svg>
	</g>
	<path d="M 0 0 L 189.854 -189.782" fill="none" stroke="#000000" stroke-width="2" stroke-linecap="round" stroke-linejoin="round" marker-end="url(#CustomMarker-02)" transform="matrix(0.5 0 0 0.5 280.183 178.804)" />
	<path d="M 0 0 L 199.854 161.333" fill="none" stroke="#000000" stroke-width="2" stroke-linecap="round" stroke-linejoin="round" marker-end="url(#CustomMarker-03)" transform="matrix(0.5 0 0 0.5 280.183 178.804)" />
	<rect x="-113.869324" y="-75.9128265" width="227.738647" height="151.825653" stroke="none" fill="#05C346" fill-opacity="0.392156839" transform="matrix(0.5 0 -0 0.5 432.044 83.9128)" />
	<path d="M -113.869 -75.9128 L 113.869 -75.9128, 113.869 75.9128, -113.869 75.9128 Z" fill="none" stroke="#000000" stroke-width="2" stroke-linecap="round" stroke-linejoin="round" transform="matrix(0.5 0 -0 0.5 432.044 83.9128)" />
	<g transform="matrix(1 0 -0 1 396.326 75.1069)">
		<svg width="218.991913" height="50.9571342">
			<defs />
			<path d="M 10.5232 13.2263 C 9.88086 13.193, 9.261 13.1759, 8.66273 13.1759 L 8.37349 13.1759 C 7.6767 13.1858, 6.95248 13.2002, 6.20126 13.2191 L 6.20126 12.6217 C 6.42393 12.6221, 6.6241 12.6141, 6.80178 12.597, 6.97992 12.5803, 7.13781 12.5452, 7.27635 12.4921, 7.34068 12.4589, 7.39736 12.4085, 7.44684 12.341, 7.46663 12.3176, 7.47653 12.2861, 7.47653 12.2474, 7.47653 12.2285, 7.47428 12.207, 7.46888 12.1827 L 6.6313 9.85795, 2.99128 9.85795, 2.30214 11.7868 C 2.2774 11.8448, 2.26481 11.9002, 2.26481 11.9524, 2.26481 12.0009, 2.27246 12.0486, 2.2873 12.0963, 2.32688 12.2025, 2.39121 12.2888, 2.47983 12.3554, 2.60848 12.4616, 2.74568 12.5322, 2.89142 12.5682, 3.03716 12.6042, 3.21395 12.6221, 3.42132 12.6217 L 3.42132 13.2191 C 2.8235 13.2002, 2.25266 13.1858, 1.70882 13.1759 L 1.47941 13.1759 C 1.00484 13.1759, 0.510475 13.193, -0.00322989 13.2263 L -0.00322989 12.6217 C 0.23428 12.6221, 0.440302 12.6069, 0.615735 12.5754, 0.791168 12.5443, 0.960304 12.4832, 1.12314 12.3914, 1.39034 12.2429, 1.57792 12.0248, 1.68678 11.7364 L 4.88911 2.71826 C 4.93859 2.57477, 5.0425 2.50504, 5.20039 2.50954 L 5.31915 2.50954 C 5.47749 2.50999, 5.58095 2.57971, 5.63043 2.71826 L 8.99605 12.1395 C 9.02124 12.2312, 9.05948 12.3127, 9.11121 12.3846, 9.16339 12.4566, 9.23356 12.5047, 9.32218 12.5281, 9.45083 12.5767, 9.62041 12.6042, 9.83048 12.6114, 10.0406 12.6185, 10.2713 12.6221, 10.5232 12.6217 L 10.5232 13.2263 Z M 4.82254 4.74789 L 3.2063 9.26057, 6.41628 9.26057 Z" stroke="none" fill="#000000" />
			<path d="M 17.2377 11.3982 C 17.154 11.9982, 16.8711 12.4796, 16.3893 12.8417, 15.9076 13.2038, 15.3259 13.3846, 14.644 13.3846, 14.1897 13.3846, 13.7574 13.296, 13.3471 13.1188, 12.9369 12.9415, 12.5788 12.6964, 12.272 12.3842, 11.9509 12.0585, 11.7075 11.6892, 11.542 11.2763, 11.3764 10.8638, 11.2937 10.4319, 11.2937 9.9803, 11.2937 9.52013, 11.3755 9.07659, 11.5384 8.64926, 11.7017 8.22237, 11.9464 7.84316, 12.272 7.51164, 12.5788 7.19046, 12.9369 6.93991, 13.3471 6.75997, 13.7574 6.58004, 14.1897 6.49008, 14.644 6.48963, 14.9305 6.49008, 15.2171 6.52022, 15.5036 6.58004, 15.7906 6.64032, 16.0488 6.73478, 16.2782 6.86434, 16.5081 6.99389, 16.697 7.16302, 16.8455 7.37174, 16.9939 7.58046, 17.0677 7.82652, 17.0677 8.10901, 17.0677 8.35912, 16.9876 8.5485, 16.827 8.67805, 16.6664 8.8076, 16.4896 8.87237, 16.2967 8.87192, 16.1041 8.87237, 15.9274 8.8076, 15.7668 8.67805, 15.6062 8.5485, 15.5257 8.35912, 15.5257 8.10901, 15.5257 7.85981, 15.6125 7.66818, 15.7852 7.53323, 15.9336 7.42797, 16.0942 7.37309, 16.267 7.36769 L 16.1262 7.36769 C 16.0425 7.29122, 15.8594 7.21115, 15.5778 7.12704, 15.2962 7.04337, 14.985 7.00108, 14.644 7.00063, 14.3673 7.00108, 14.1019 7.07576, 13.8473 7.2242, 13.5927 7.37309, 13.3818 7.57192, 13.2135 7.82112, 13.0111 8.1333, 12.8775 8.47202, 12.8132 8.83639, 12.7493 9.2012, 12.7169 9.58265, 12.7169 9.9803, 12.7169 10.36, 12.7556 10.727, 12.8321 11.0819, 12.9085 11.4373, 13.0556 11.7634, 13.2729 12.0603, 13.451 12.3055, 13.6697 12.5011, 13.9288 12.6473, 14.1883 12.794, 14.4614 12.8669, 14.7474 12.8664, 15.2764 12.8669, 15.706 12.7256, 16.0371 12.4422, 16.3682 12.1593, 16.5931 11.7945, 16.7119 11.3478, 16.7415 11.2331, 16.8131 11.1755, 16.9264 11.175 L 17.06 11.1894 C 17.1788 11.2187, 17.2377 11.2884, 17.2377 11.3982 Z" stroke="none" fill="#000000" />
			<path d="M 22.5825 11.3622 C 22.5825 11.6024, 22.5506 11.8426, 22.4863 12.0824, 22.4219 12.3226, 22.3293 12.5385, 22.2083 12.7301, 22.0873 12.9222, 21.9303 13.0792, 21.7377 13.2011, 21.5452 13.3234, 21.3203 13.3846, 21.063 13.3846, 20.7962 13.3846, 20.5295 13.3464, 20.2627 13.2695, 19.996 13.193, 19.7562 13.0517, 19.5439 12.8453, 19.3316 12.6392, 19.1854 12.4053, 19.1062 12.1435, 19.0271 11.8822, 18.9875 11.6217, 18.9875 11.3622 L 18.9875 7.32451, 17.6978 7.32451, 17.6978 6.85669 C 18.0586 6.85714, 18.3577 6.77932, 18.5948 6.62323, 18.8323 6.46759, 19.0311 6.26111, 19.1917 6.00426, 19.3523 5.74786, 19.4719 5.45007, 19.5511 5.1118, 19.6303 4.77353, 19.6694 4.40512, 19.6694 4.00657 L 20.1957 4.00657, 20.1957 6.71994, 22.3378 6.71994, 22.3378 7.32451, 20.1957 7.32451, 20.1957 11.3622 C 20.1957 11.5835, 20.2146 11.7909, 20.2515 11.9852, 20.2884 12.1795, 20.3563 12.3558, 20.4553 12.5137, 20.6235 12.7494, 20.848 12.8669, 21.1296 12.8664, 21.278 12.8669, 21.4076 12.83, 21.5187 12.7553, 21.6302 12.6811, 21.7251 12.5731, 21.8043 12.4314, 21.8835 12.2902, 21.9451 12.1269, 21.9896 11.942, 22.0342 11.7576, 22.0562 11.5641, 22.0562 11.3622 L 22.0562 10.4049, 22.5825 10.4049, 22.5825 11.3622 Z" stroke="none" fill="#000000" />
			<path d="M 30.4788 10.0091 C 30.4788 10.4607, 30.3924 10.8926, 30.2197 11.305, 30.0469 11.718, 29.7946 12.0824, 29.4635 12.3986, 29.1477 12.7063, 28.782 12.9474, 28.3668 13.1224, 27.9516 13.2973, 27.5117 13.3846, 27.0475 13.3846, 26.5832 13.3846, 26.1433 13.2987, 25.7281 13.126, 25.3134 12.9532, 24.945 12.7108, 24.6238 12.3986, 24.2878 12.0774, 24.0359 11.7117, 23.8676 11.3014, 23.6998 10.8912, 23.6157 10.4607, 23.6157 10.0091, 23.6157 9.54891, 23.7012 9.10538, 23.8717 8.67805, 24.0422 8.25116, 24.2927 7.867, 24.6238 7.52603, 24.94 7.20486, 25.3071 6.95205, 25.7245 6.76717, 26.142 6.58274, 26.5832 6.49008, 27.0475 6.48963, 27.5117 6.49008, 27.9516 6.58274, 28.3668 6.76717, 28.782 6.95205, 29.1477 7.20486, 29.4635 7.52603, 29.7995 7.87195, 30.0528 8.25701, 30.2233 8.68164, 30.3937 9.10628, 30.4788 9.54891, 30.4788 10.0091 Z M 29.0708 9.84355 C 29.0708 9.47469, 29.0452 9.10988, 28.993 8.75002, 28.9412 8.39016, 28.8139 8.06133, 28.6111 7.76354, 28.4235 7.50984, 28.1936 7.31192, 27.9219 7.17022, 27.6502 7.02897, 27.3587 6.9579, 27.0475 6.95745, 26.7362 6.9579, 26.4447 7.02897, 26.173 7.17022, 25.9013 7.31192, 25.6714 7.50984, 25.4834 7.76354, 25.281 8.05683, 25.1541 8.38431, 25.102 8.74642, 25.0502 9.10898, 25.0241 9.47469, 25.0241 9.84355, 25.0241 10.2327, 25.048 10.6177, 25.0948 10.9992, 25.1415 11.3806, 25.2711 11.7319, 25.4834 12.0531, 25.6516 12.3032, 25.8766 12.5011, 26.1582 12.6473, 26.4397 12.794, 26.7362 12.8669, 27.0475 12.8664, 27.3587 12.8669, 27.6552 12.794, 27.9368 12.6473, 28.2184 12.5011, 28.4433 12.3032, 28.6111 12.0531, 28.8238 11.7319, 28.9538 11.3806, 29.0006 10.9992, 29.0474 10.6177, 29.0708 10.2327, 29.0708 9.84355 Z" stroke="none" fill="#000000" />
			<path d="M 36.3382 7.54763 C 36.3382 7.78783, 36.2631 7.96822, 36.1124 8.08787, 35.9617 8.20797, 35.7948 8.2678, 35.6122 8.26735, 35.4295 8.2678, 35.2626 8.20797, 35.1119 8.08787, 34.9613 7.96822, 34.8857 7.78783, 34.8857 7.54763, 34.8857 7.39468, 34.923 7.26513, 34.9968 7.15942, 35.071 7.05416, 35.1106 7.00108, 35.1155 7.00063, 35.2046 7.02987, 35.2195 7.04427, 35.1601 7.04382, 34.8834 7.04427, 34.6387 7.11624, 34.4264 7.26018, 34.2141 7.40413, 34.0337 7.60116, 33.8853 7.85036, 33.7368 8.10002, 33.6257 8.38791, 33.5515 8.71403, 33.4777 9.04061, 33.4404 9.37843, 33.4404 9.7284 L 33.4404 12.1611 C 33.4404 12.2479, 33.4579 12.3262, 33.4926 12.3954, 33.5272 12.4652, 33.574 12.5119, 33.6334 12.5353, 33.762 12.579, 33.9446 12.6042, 34.1817 12.6114, 34.4192 12.6185, 34.6635 12.6221, 34.9154 12.6217 L 34.9154 13.2191 C 34.2586 13.2002, 33.6262 13.1858, 33.018 13.1759 L 32.7436 13.1759 C 32.22 13.1759, 31.6744 13.193, 31.1058 13.2263 L 31.1058 12.6217 C 31.328 12.6221, 31.5318 12.6185, 31.7171 12.6114, 31.9024 12.6042, 32.0423 12.579, 32.1359 12.5353, 32.1953 12.507, 32.2362 12.4566, 32.2582 12.3846, 32.2807 12.3127, 32.2915 12.2384, 32.2915 12.1611 L 32.2915 8.07303 C 32.2915 7.93898, 32.2857 7.81707, 32.2731 7.70642, 32.2609 7.59621, 32.2101 7.50714, 32.121 7.43967, 32.0374 7.38254, 31.9024 7.34925, 31.7171 7.33935, 31.5318 7.32991, 31.328 7.32496, 31.1058 7.32451 L 31.1058 6.72714, 33.3662 6.5544, 33.3662 7.78514 C 33.4156 7.6223, 33.5987 7.37804, 33.915 7.05146, 34.2312 6.72534, 34.6464 6.56205, 35.1601 6.5616, 35.4466 6.56205, 35.7147 6.64842, 35.9639 6.82115, 36.2136 6.99389, 36.3382 7.23634, 36.3382 7.54763 Z" stroke="none" fill="#000000" />
			<path d="M 46.89 6.89412 C 47.4996 7.74123, 47.8915 8.33501, 48.0657 8.67148, 48.2398 9.01191, 48.3071 9.36026, 48.2636 9.71652, 48.2201 10.0767, 48.133 10.3103, 48.0023 10.4132, 47.8717 10.5201, 47.7846 10.5716, 47.7371 10.5676, 47.5629 10.5716, 47.4323 10.2984, 47.3452 9.74423, 47.1711 9.07129, 46.9098 8.41814, 46.5614 7.78082, 45.9123 9.13462, 45.1285 10.3618, 44.2101 11.4543 L 44.0161 11.3276 C 44.7564 10.148, 45.4293 8.71502, 46.0389 7.02079, 45.5164 6.0945, 44.9068 5.188, 44.2101 4.29734 L 44.408 4.17067 C 45.1483 4.89112, 45.8014 5.58781, 46.3675 6.26076, 46.7158 5.42155, 47.0008 4.47152, 47.2146 3.41064 L 48.4576 4.23401, 47.9984 4.61402 C 47.5629 5.54823, 47.1948 6.30826, 46.89 6.89412 Z M 51.7233 7.27413 C 52.5071 8.20834, 52.998 8.87336, 53.1919 9.27317, 53.3899 9.67694, 53.4651 10.0253, 53.4215 10.3182, 53.378 10.6151, 53.2909 10.8368, 53.1603 10.9832, 53.0296 11.1337, 52.9425 11.2049, 52.899 11.201, 52.7248 11.2049, 52.5507 10.908, 52.3765 10.3143, 52.1588 9.60173, 51.8104 8.86149, 51.3314 8.0975, 50.4606 9.66506, 49.5026 10.908, 48.4576 11.8343 L 48.3269 11.6443 C 49.372 10.3815, 50.1993 8.96837, 50.8089 7.4008, 50.1122 6.30826, 49.4155 5.31468, 48.7188 4.42401 L 48.9128 4.29734 C 49.7837 5.188, 50.5239 5.99158, 51.1335 6.70411, 51.5689 5.61156, 51.8737 4.5111, 52.0479 3.41064 L 53.2909 4.23401 C 53.0732 4.40818, 52.8317 4.77632, 52.5704 5.34634, 52.3092 5.91637, 52.0281 6.5616, 51.7233 7.27413 Z M 51.9846 13.7344 L 51.9846 13.4811 C 52.9425 13.5286, 53.5759 13.5404, 53.8807 13.5167, 54.1855 13.4969, 54.3161 13.2119, 54.2686 12.6577 L 54.2686 2.14392, 43.5569 2.14392, 43.5569 14.4944, 42.5792 15.0011 C 42.6227 13.3583, 42.6425 10.8249, 42.6425 7.40476, 42.6425 3.98462, 42.6227 1.89454, 42.5792 1.13055 L 43.5569 1.76391, 54.138 1.76391, 54.5972 1.06721, 55.7056 1.82724, 55.183 2.27059, 55.183 13.3544 C 55.2306 14.0748, 54.7714 14.6211, 53.8134 15.0011, 53.7699 14.4113, 53.1603 13.9877, 51.9846 13.7344 Z" stroke="none" fill="#000000" />
			<path d="M 63.3989 15.0644 C 63.4424 14.0115, 63.4622 13.0417, 63.4622 12.151 L 63.4622 9.42755 C 62.9397 9.68485, 62.1797 9.95799, 61.1782 10.2509 L 61.1109 10.0609 C 63.0743 9.2613, 64.7052 8.20834, 66.0115 6.89412, 65.3148 5.84116, 64.7923 4.72486, 64.4439 3.53731, 63.6601 4.93466, 62.8764 6.01137, 62.0926 6.76744 L 61.8946 6.64077 C 63.1139 4.87132, 64.0283 2.86437, 64.6379 0.623858 L 65.9442 1.44723, 65.3583 1.70057 C 65.0971 2.21122, 64.8793 2.63477, 64.7052 2.96729 L 68.5568 2.96729, 69.0793 2.33393, 70.1244 3.3473, 69.5385 3.60065 C 68.6676 4.998, 67.8839 6.11825, 67.1872 6.95745, 68.3628 7.89166, 69.8433 8.50126, 71.6286 8.79419 L 71.6286 8.9842 C 71.0625 9.07129, 70.6904 9.32463, 70.5163 9.74423, 68.9091 9.07129, 67.6028 8.31126, 66.5973 7.46414, 65.6869 8.22813, 64.7052 8.86149, 63.6601 9.36422 L 64.3133 9.6809, 68.4262 9.6809, 68.9487 9.17421, 69.9304 9.99758, 69.4079 10.2509, 69.4079 12.7844 C 69.4079 13.5919, 69.4316 14.158, 69.4712 14.4944 L 68.5568 14.8744, 68.5568 13.7977, 64.3133 13.7977, 64.3133 14.6844 Z M 64.3133 10.0609 L 64.3133 13.4177, 68.5568 13.4177, 68.5568 10.0609 Z M 64.6379 3.3473 C 65.1604 4.61798, 65.8136 5.63136, 66.5973 6.38743, 67.2544 5.58781, 67.9076 4.57444, 68.5568 3.3473 Z M 57.9757 9.23754 C 58.8466 9.11483, 60.1331 8.92482, 61.8313 8.66752 L 61.8946 8.92087 C 60.7229 9.17817, 59.8204 9.42359, 59.187 9.65319, 58.5537 9.88674, 58.0628 10.148, 57.7145 10.4409 L 56.8674 9.23754 C 57.3028 9.15837, 57.7936 8.79023, 58.336 8.13312, 58.8822 7.47997, 59.4127 6.68827, 59.9352 5.75407, 59.2385 5.84116, 58.6962 5.94012, 58.3043 6.04304, 57.9124 6.14992, 57.5403 6.30826, 57.192 6.5141 L 56.6061 5.37405 C 56.998 5.37801, 57.5086 4.81986, 58.142 3.69961, 58.7754 2.58331, 59.2425 1.53431, 59.5433 0.560522 L 60.7863 1.38389, 60.0658 1.82724 C 59.2425 3.05437, 58.3914 4.28151, 57.5205 5.50072 L 60.1331 5.43739 C 60.4815 4.85153, 60.81 4.21817, 61.1109 3.53731 L 62.2232 4.42401, 61.6334 4.74069 C 60.3746 6.47451, 59.1554 7.97478, 57.9757 9.23754 Z M 56.4082 12.6577 C 56.804 12.6181, 57.4255 12.5152, 58.2726 12.345, 59.1197 12.1787, 60.3706 11.8818, 62.0253 11.4543 L 62.0926 11.7076 C 61.004 12.0481, 59.9589 12.4202, 58.9574 12.82, 57.9559 13.2237, 57.3463 13.5681, 57.1286 13.8611 Z" stroke="none" fill="#000000" />
			<rect />
		</svg>
	</g>
	<rect x="-113.869324" y="-75.9127808" width="227.738647" height="151.825562" stroke="none" fill="#CFBCCA" fill-opacity="0.392156839" transform="matrix(0.5 0 -0 0.5 437.044 259.471)" />
	<path d="M -113.869 -75.9128 L 113.869 -75.9128, 113.869 75.9128, -113.869 75.9128 Z" fill="none" stroke="#000000" stroke-width="2" stroke-linecap="round" stroke-linejoin="round" transform="matrix(0.5 0 -0 0.5 437.044 259.471)" />
	<g transform="matrix(1 0 -0 1 401.457 250.665)">
		<svg width="218.991913" height="50.9571342">
			<defs />
			<path d="M 9.39078 9.59165 C 9.39078 10.1341, 9.28462 10.6465, 9.0723 11.1287, 8.85998 11.6109, 8.57434 12.0284, 8.21582 12.381, 7.85776 12.7337, 7.43402 13.0157, 6.94461 13.2263, 6.45519 13.4377, 5.93159 13.5429, 5.3729 13.5429, 4.65632 13.5429, 3.96809 13.4053, 3.30819 13.1296, 2.64874 12.8538, 2.06936 12.4638, 1.57005 11.9595, 1.05634 11.4274, 0.665891 10.8314, 0.398693 10.1715, 0.131944 9.51203, -0.0016551 8.82424, -0.0016551 8.10901, -0.0016551 7.39468, 0.131944 6.706, 0.398693 6.04385, 0.665891 5.3817, 1.05634 4.78927, 1.57005 4.26567, 2.06936 3.76231, 2.64874 3.37006, 3.30819 3.08937, 3.96809 2.80868, 4.65632 2.66833, 5.3729 2.66788, 5.95138 2.66833, 6.47768 2.78618, 6.9518 3.021, 7.42637 3.25626, 7.81907 3.55134, 8.13035 3.90581 L 8.93105 2.77584 C 8.96074 2.70432, 9.02506 2.66833, 9.12403 2.66788 L 9.16856 2.66788 C 9.317 2.66833, 9.39078 2.74255, 9.39078 2.891 L 9.39078 6.8207 C 9.39078 6.9651, 9.317 7.03932, 9.16856 7.04382 L 8.99807 7.04382 C 8.87932 7.04427, 8.8051 6.97724, 8.77541 6.84229, 8.75562 6.35828, 8.658 5.899, 8.48257 5.46447, 8.30714 5.03038, 8.07368 4.65253, 7.78219 4.3309, 7.4907 4.00972, 7.15378 3.75287, 6.77052 3.56079, 6.38727 3.36916, 5.97118 3.2729, 5.52135 3.27245, 4.95276 3.2729, 4.42421 3.393, 3.9348 3.63276, 3.44538 3.87297, 3.02794 4.20854, 2.68202 4.63993, 2.30147 5.12035, 2.04237 5.65879, 1.90382 6.25617, 1.76527 6.85354, 1.696 7.47115, 1.696 8.10901, 1.696 8.74282, 1.76527 9.35819, 1.90382 9.95556, 2.04237 10.5529, 2.30147 11.0914, 2.68202 11.5709, 3.03289 12.0032, 3.45573 12.3428, 3.94964 12.5898, 4.44401 12.8372, 4.97255 12.9604, 5.53574 12.96, 6.00086 12.9604, 6.4372 12.8718, 6.84474 12.6941, 7.25229 12.5169, 7.6045 12.2731, 7.90094 11.9636, 8.19738 11.6541, 8.43219 11.2979, 8.60492 10.8948, 8.77811 10.4918, 8.86448 10.0577, 8.86448 9.59165, 8.86448 9.44815, 8.93645 9.37618, 9.07949 9.37573 L 9.16856 9.37573 C 9.317 9.37618, 9.39078 9.44815, 9.39078 9.59165 Z" stroke="none" fill="#000000" />
			<path d="M 15.4744 7.54763 C 15.4744 7.78783, 15.3993 7.96822, 15.2486 8.08787, 15.0979 8.20797, 14.931 8.2678, 14.7483 8.26735, 14.5657 8.2678, 14.3988 8.20797, 14.2481 8.08787, 14.0974 7.96822, 14.0219 7.78783, 14.0219 7.54763, 14.0219 7.39468, 14.0592 7.26513, 14.133 7.15942, 14.2072 7.05416, 14.2468 7.00108, 14.2517 7.00063, 14.3408 7.02987, 14.3556 7.04427, 14.2963 7.04382, 14.0196 7.04427, 13.7749 7.11624, 13.5626 7.26018, 13.3503 7.40413, 13.1699 7.60116, 13.0215 7.85036, 12.873 8.10002, 12.7619 8.38791, 12.6877 8.71403, 12.6139 9.04061, 12.5766 9.37843, 12.5766 9.7284 L 12.5766 12.1611 C 12.5766 12.2479, 12.5941 12.3262, 12.6288 12.3954, 12.6634 12.4652, 12.7102 12.5119, 12.7696 12.5353, 12.8982 12.579, 13.0808 12.6042, 13.3179 12.6114, 13.5554 12.6185, 13.7997 12.6221, 14.0516 12.6217 L 14.0516 13.2191 C 13.3948 13.2002, 12.7624 13.1858, 12.1542 13.1759 L 11.8798 13.1759 C 11.3562 13.1759, 10.8105 13.193, 10.242 13.2263 L 10.242 12.6217 C 10.4642 12.6221, 10.6679 12.6185, 10.8533 12.6114, 11.0386 12.6042, 11.1785 12.579, 11.2721 12.5353, 11.3314 12.507, 11.3724 12.4566, 11.3944 12.3846, 11.4169 12.3127, 11.4277 12.2384, 11.4277 12.1611 L 11.4277 8.07303 C 11.4277 7.93898, 11.4219 7.81707, 11.4093 7.70642, 11.3971 7.59621, 11.3463 7.50714, 11.2572 7.43967, 11.1736 7.38254, 11.0386 7.34925, 10.8533 7.33935, 10.6679 7.32991, 10.4642 7.32496, 10.242 7.32451 L 10.242 6.72714, 12.5024 6.5544, 12.5024 7.78514 C 12.5518 7.6223, 12.7349 7.37804, 13.0511 7.05146, 13.3674 6.72534, 13.7826 6.56205, 14.2963 6.5616, 14.5828 6.56205, 14.8509 6.64842, 15.1001 6.82115, 15.3498 6.99389, 15.4744 7.23634, 15.4744 7.54763 Z" stroke="none" fill="#000000" />
			<path d="M 18.5448 4.04975 C 18.5448 4.28547, 18.4585 4.48699, 18.2857 4.65477, 18.113 4.82301, 17.9052 4.90668, 17.6627 4.90623, 17.4207 4.90668, 17.2147 4.82301, 17.0442 4.65477, 16.8737 4.48699, 16.7883 4.28547, 16.7883 4.04975, 16.7883 3.81494, 16.8737 3.61477, 17.0442 3.44923, 17.2147 3.2837, 17.4207 3.20093, 17.6627 3.20048, 17.9052 3.20093, 18.113 3.2837, 18.2857 3.44923, 18.4585 3.61477, 18.5448 3.81494, 18.5448 4.04975 Z M 19.5457 13.2263 C 18.9528 13.193, 18.382 13.1759, 17.8332 13.1759, 17.2952 13.1759, 16.7293 13.193, 16.136 13.2263 L 16.136 12.6217 C 16.3587 12.6221, 16.5625 12.6185, 16.7478 12.6114, 16.9331 12.6042, 17.073 12.579, 17.1666 12.5353, 17.226 12.507, 17.2651 12.458, 17.2849 12.3882, 17.3047 12.319, 17.3146 12.2429, 17.3146 12.1611 L 17.3146 8.07303 C 17.3146 7.93898, 17.3087 7.81707, 17.2961 7.70642, 17.284 7.59621, 17.2408 7.50714, 17.1666 7.43967, 17.0825 7.38254, 16.9552 7.34925, 16.7847 7.33935, 16.6146 7.32991, 16.4181 7.32496, 16.1954 7.32451 L 16.1954 6.72714, 18.4783 6.5544, 18.4783 12.1611 C 18.4783 12.2429, 18.4859 12.319, 18.5008 12.3882, 18.5156 12.458, 18.5525 12.507, 18.6114 12.5353, 18.6906 12.579, 18.8156 12.6042, 18.9861 12.6114, 19.1566 12.6185, 19.3433 12.6221, 19.5457 12.6217 L 19.5457 13.2263 Z" stroke="none" fill="#000000" />
			<path d="M 24.9207 11.3622 C 24.9207 11.6024, 24.8887 11.8426, 24.8244 12.0824, 24.7601 12.3226, 24.6674 12.5385, 24.5464 12.7301, 24.4254 12.9222, 24.2684 13.0792, 24.0759 13.2011, 23.8834 13.3234, 23.6585 13.3846, 23.4012 13.3846, 23.1344 13.3846, 22.8677 13.3464, 22.6009 13.2695, 22.3342 13.193, 22.0944 13.0517, 21.8821 12.8453, 21.6698 12.6392, 21.5236 12.4053, 21.4444 12.1435, 21.3652 11.8822, 21.3256 11.6217, 21.3256 11.3622 L 21.3256 7.32451, 20.036 7.32451, 20.036 6.85669 C 20.3967 6.85714, 20.6959 6.77932, 20.9329 6.62323, 21.1705 6.46759, 21.3693 6.26111, 21.5299 6.00426, 21.6905 5.74786, 21.8101 5.45007, 21.8893 5.1118, 21.9684 4.77353, 22.0076 4.40512, 22.0076 4.00657 L 22.5339 4.00657, 22.5339 6.71994, 24.676 6.71994, 24.676 7.32451, 22.5339 7.32451, 22.5339 11.3622 C 22.5339 11.5835, 22.5528 11.7909, 22.5897 11.9852, 22.6265 12.1795, 22.6945 12.3558, 22.7934 12.5137, 22.9617 12.7494, 23.1861 12.8669, 23.4677 12.8664, 23.6162 12.8669, 23.7457 12.83, 23.8568 12.7553, 23.9684 12.6811, 24.0633 12.5731, 24.1425 12.4314, 24.2216 12.2902, 24.2833 12.1269, 24.3278 11.942, 24.3723 11.7576, 24.3944 11.5641, 24.3944 11.3622 L 24.3944 10.4049, 24.9207 10.4049, 24.9207 11.3622 Z" stroke="none" fill="#000000" />
			<path d="M 28.4293 4.04975 C 28.4293 4.28547, 28.3429 4.48699, 28.1702 4.65477, 27.9975 4.82301, 27.7896 4.90668, 27.5472 4.90623, 27.3052 4.90668, 27.0991 4.82301, 26.9287 4.65477, 26.7582 4.48699, 26.6727 4.28547, 26.6727 4.04975, 26.6727 3.81494, 26.7582 3.61477, 26.9287 3.44923, 27.0991 3.2837, 27.3052 3.20093, 27.5472 3.20048, 27.7896 3.20093, 27.9975 3.2837, 28.1702 3.44923, 28.3429 3.61477, 28.4293 3.81494, 28.4293 4.04975 Z M 29.4302 13.2263 C 28.8373 13.193, 28.2664 13.1759, 27.7177 13.1759, 27.1797 13.1759, 26.6138 13.193, 26.0205 13.2263 L 26.0205 12.6217 C 26.2431 12.6221, 26.4469 12.6185, 26.6322 12.6114, 26.8175 12.6042, 26.9574 12.579, 27.051 12.5353, 27.1104 12.507, 27.1495 12.458, 27.1693 12.3882, 27.1891 12.319, 27.199 12.2429, 27.199 12.1611 L 27.199 8.07303 C 27.199 7.93898, 27.1932 7.81707, 27.1806 7.70642, 27.1684 7.59621, 27.1252 7.50714, 27.051 7.43967, 26.9669 7.38254, 26.8396 7.34925, 26.6691 7.33935, 26.4991 7.32991, 26.3025 7.32496, 26.0798 7.32451 L 26.0798 6.72714, 28.3627 6.5544, 28.3627 12.1611 C 28.3627 12.2429, 28.3704 12.319, 28.3852 12.3882, 28.4 12.458, 28.4369 12.507, 28.4959 12.5353, 28.575 12.579, 28.7001 12.6042, 28.8706 12.6114, 29.0411 12.6185, 29.2277 12.6221, 29.4302 12.6217 L 29.4302 13.2263 Z" stroke="none" fill="#000000" />
			<path d="M 36.0795 11.3982 C 35.9958 11.9982, 35.7129 12.4796, 35.2311 12.8417, 34.7493 13.2038, 34.1677 13.3846, 33.4858 13.3846, 33.0314 13.3846, 32.5991 13.296, 32.1889 13.1188, 31.7787 12.9415, 31.4206 12.6964, 31.1138 12.3842, 30.7926 12.0585, 30.5493 11.6892, 30.3837 11.2763, 30.2182 10.8638, 30.1354 10.4319, 30.1354 9.9803, 30.1354 9.52013, 30.2173 9.07659, 30.3801 8.64926, 30.5434 8.22237, 30.7881 7.84316, 31.1138 7.51164, 31.4206 7.19046, 31.7787 6.93991, 32.1889 6.75997, 32.5991 6.58004, 33.0314 6.49008, 33.4858 6.48963, 33.7723 6.49008, 34.0588 6.52022, 34.3454 6.58004, 34.6324 6.64032, 34.8906 6.73478, 35.12 6.86434, 35.3499 6.99389, 35.5388 7.16302, 35.6872 7.37174, 35.8357 7.58046, 35.9094 7.82652, 35.9094 8.10901, 35.9094 8.35912, 35.8294 8.5485, 35.6688 8.67805, 35.5082 8.8076, 35.3314 8.87237, 35.1384 8.87192, 34.9459 8.87237, 34.7691 8.8076, 34.6085 8.67805, 34.4479 8.5485, 34.3674 8.35912, 34.3674 8.10901, 34.3674 7.85981, 34.4542 7.66818, 34.627 7.53323, 34.7754 7.42797, 34.936 7.37309, 35.1087 7.36769 L 34.9679 7.36769 C 34.8843 7.29122, 34.7012 7.21115, 34.4196 7.12704, 34.138 7.04337, 33.8267 7.00108, 33.4858 7.00063, 33.2091 7.00108, 32.9437 7.07576, 32.6891 7.2242, 32.4345 7.37309, 32.2235 7.57192, 32.0553 7.82112, 31.8529 8.1333, 31.7193 8.47202, 31.655 8.83639, 31.5911 9.2012, 31.5587 9.58265, 31.5587 9.9803, 31.5587 10.36, 31.5974 10.727, 31.6738 11.0819, 31.7503 11.4373, 31.8974 11.7634, 32.1147 12.0603, 32.2928 12.3055, 32.5114 12.5011, 32.7705 12.6473, 33.0301 12.794, 33.3031 12.8669, 33.5892 12.8664, 34.1182 12.8669, 34.5478 12.7256, 34.8789 12.4422, 35.21 12.1593, 35.4349 11.7945, 35.5536 11.3478, 35.5833 11.2331, 35.6548 11.1755, 35.7682 11.175 L 35.9018 11.1894 C 36.0205 11.2187, 36.0795 11.2884, 36.0795 11.3982 Z" stroke="none" fill="#000000" />
			<path d="M 46.6299 6.89412 C 47.2396 7.74123, 47.6314 8.33501, 47.8056 8.67148, 47.9798 9.01191, 48.0471 9.36026, 48.0035 9.71652, 47.96 10.0767, 47.8729 10.3103, 47.7423 10.4132, 47.6117 10.5201, 47.5246 10.5716, 47.4771 10.5676, 47.3029 10.5716, 47.1723 10.2984, 47.0852 9.74423, 46.911 9.07129, 46.6497 8.41814, 46.3014 7.78082, 45.6522 9.13462, 44.8684 10.3618, 43.95 11.4543 L 43.7561 11.3276 C 44.4963 10.148, 45.1693 8.71502, 45.7789 7.02079, 45.2563 6.0945, 44.6467 5.188, 43.95 4.29734 L 44.148 4.17067 C 44.8882 4.89112, 45.5414 5.58781, 46.1074 6.26076, 46.4558 5.42155, 46.7408 4.47152, 46.9545 3.41064 L 48.1975 4.23401, 47.7383 4.61402 C 47.3029 5.54823, 46.9347 6.30826, 46.6299 6.89412 Z M 51.4633 7.27413 C 52.2471 8.20834, 52.7379 8.87336, 52.9319 9.27317, 53.1298 9.67694, 53.205 10.0253, 53.1615 10.3182, 53.1179 10.6151, 53.0308 10.8368, 52.9002 10.9832, 52.7696 11.1337, 52.6825 11.2049, 52.6389 11.201, 52.4648 11.2049, 52.2906 10.908, 52.1164 10.3143, 51.8987 9.60173, 51.5504 8.86149, 51.0714 8.0975, 50.2005 9.66506, 49.2426 10.908, 48.1975 11.8343 L 48.0669 11.6443 C 49.1119 10.3815, 49.9392 8.96837, 50.5489 7.4008, 49.8522 6.30826, 49.1555 5.31468, 48.4588 4.42401 L 48.6527 4.29734 C 49.5236 5.188, 50.2638 5.99158, 50.8735 6.70411, 51.3089 5.61156, 51.6137 4.5111, 51.7879 3.41064 L 53.0308 4.23401 C 52.8131 4.40818, 52.5716 4.77632, 52.3104 5.34634, 52.0491 5.91637, 51.7681 6.5616, 51.4633 7.27413 Z M 51.7245 13.7344 L 51.7245 13.4811 C 52.6825 13.5286, 53.3158 13.5404, 53.6206 13.5167, 53.9255 13.4969, 54.0561 13.2119, 54.0086 12.6577 L 54.0086 2.14392, 43.2969 2.14392, 43.2969 14.4944, 42.3191 15.0011 C 42.3627 13.3583, 42.3825 10.8249, 42.3825 7.40476, 42.3825 3.98462, 42.3627 1.89454, 42.3191 1.13055 L 43.2969 1.76391, 53.878 1.76391, 54.3371 1.06721, 55.4455 1.82724, 54.923 2.27059, 54.923 13.3544 C 54.9705 14.0748, 54.5113 14.6211, 53.5534 15.0011, 53.5098 14.4113, 52.9002 13.9877, 51.7245 13.7344 Z" stroke="none" fill="#000000" />
			<path d="M 63.1388 15.0644 C 63.1824 14.0115, 63.2022 13.0417, 63.2022 12.151 L 63.2022 9.42755 C 62.6796 9.68485, 61.9196 9.95799, 60.9181 10.2509 L 60.8508 10.0609 C 62.8142 9.2613, 64.4451 8.20834, 65.7514 6.89412, 65.0547 5.84116, 64.5322 4.72486, 64.1839 3.53731, 63.4001 4.93466, 62.6163 6.01137, 61.8325 6.76744 L 61.6346 6.64077 C 62.8538 4.87132, 63.7682 2.86437, 64.3778 0.623858 L 65.6841 1.44723, 65.0983 1.70057 C 64.837 2.21122, 64.6193 2.63477, 64.4451 2.96729 L 68.2967 2.96729, 68.8193 2.33393, 69.8643 3.3473, 69.2784 3.60065 C 68.4076 4.998, 67.6238 6.11825, 66.9271 6.95745, 68.1028 7.89166, 69.5833 8.50126, 71.3685 8.79419 L 71.3685 8.9842 C 70.8025 9.07129, 70.4304 9.32463, 70.2562 9.74423, 68.649 9.07129, 67.3427 8.31126, 66.3373 7.46414, 65.4268 8.22813, 64.4451 8.86149, 63.4001 9.36422 L 64.0532 9.6809, 68.1661 9.6809, 68.6886 9.17421, 69.6703 9.99758, 69.1478 10.2509, 69.1478 12.7844 C 69.1478 13.5919, 69.1716 14.158, 69.2112 14.4944 L 68.2967 14.8744, 68.2967 13.7977, 64.0532 13.7977, 64.0532 14.6844 Z M 64.0532 10.0609 L 64.0532 13.4177, 68.2967 13.4177, 68.2967 10.0609 Z M 64.3778 3.3473 C 64.9004 4.61798, 65.5535 5.63136, 66.3373 6.38743, 66.9944 5.58781, 67.6475 4.57444, 68.2967 3.3473 Z M 57.7157 9.23754 C 58.5866 9.11483, 59.8731 8.92482, 61.5713 8.66752 L 61.6346 8.92087 C 60.4629 9.17817, 59.5603 9.42359, 58.927 9.65319, 58.2936 9.88674, 57.8028 10.148, 57.4544 10.4409 L 56.6073 9.23754 C 57.0427 9.15837, 57.5336 8.79023, 58.0759 8.13312, 58.6222 7.47997, 59.1526 6.68827, 59.6751 5.75407, 58.9784 5.84116, 58.4361 5.94012, 58.0442 6.04304, 57.6523 6.14992, 57.2802 6.30826, 56.9319 6.5141 L 56.346 5.37405 C 56.7379 5.37801, 57.2486 4.81986, 57.8819 3.69961, 58.5153 2.58331, 58.9824 1.53431, 59.2832 0.560522 L 60.5262 1.38389, 59.8058 1.82724 C 58.9824 3.05437, 58.1313 4.28151, 57.2605 5.50072 L 59.8731 5.43739 C 60.2214 4.85153, 60.55 4.21817, 60.8508 3.53731 L 61.9632 4.42401, 61.3733 4.74069 C 60.1145 6.47451, 58.8953 7.97478, 57.7157 9.23754 Z M 56.1481 12.6577 C 56.544 12.6181, 57.1655 12.5152, 58.0126 12.345, 58.8597 12.1787, 60.1106 11.8818, 61.7652 11.4543 L 61.8325 11.7076 C 60.7439 12.0481, 59.6989 12.4202, 58.6974 12.82, 57.6959 13.2237, 57.0863 13.5681, 56.8686 13.8611 Z" stroke="none" fill="#000000" />
			<rect />
		</svg>
	</g>
	<path d="M 0 0 L 107.196 6.10352e-005" fill="none" stroke="#000000" stroke-width="2" stroke-linecap="round" stroke-linejoin="round" marker-end="url(#CustomMarker-04)" transform="matrix(0.5 0 0 0.5 493.979 259.47)" />
	<rect x="-56.9345093" y="-56.9346008" width="113.869019" height="113.869202" stroke="none" fill="#5FA8AD" fill-opacity="0.392156839" transform="matrix(0.5 0 -0 0.5 576.044 259.471)" />
	<path d="M -56.9345 -56.9346 L 56.9345 -56.9346, 56.9345 56.9346, -56.9345 56.9346 Z" fill="none" stroke="#000000" stroke-width="2" stroke-linecap="round" stroke-linejoin="round" transform="matrix(0.5 0 -0 0.5 576.044 259.471)" />
	<g transform="matrix(1 0 -0 1 553.757 250.132)">
		<svg width="141.034149" height="47.9999886">
			<defs />
			<path d="M 10.1027 3.92805 C 10.0735 4.07245, 9.98441 4.14442, 9.83597 4.14397, 9.67808 4.14442, 9.52738 4.16241, 9.38389 4.1984, 9.24084 4.23439, 9.10095 4.29556, 8.9651 4.38193, 8.82925 4.4683, 8.70465 4.57266, 8.59084 4.69501, 8.47703 4.81736, 8.37312 4.95546, 8.27911 5.1084 L 2.87486 13.8963 C 2.80109 14.0308, 2.68728 14.0955, 2.53389 14.0906 L 2.39309 14.0906 C 2.21046 14.0906, 2.1214 14.0141, 2.12635 13.8603 L 1.1997 4.66937 C 1.17991 4.54522, 1.16011 4.44805, 1.14032 4.37833, 1.12053 4.30906, 1.09084 4.25958, 1.05125 4.23034, 0.98243 4.19255, 0.872672 4.16871, 0.721529 4.15881, 0.570836 4.14937, 0.399002 4.14442, 0.206475 4.14397, 0.132253 4.14442, 0.0778238 4.12058, 0.043187 4.072, 0.0134982 4.04366, -0.00134611 4.00767, -0.00134611 3.96404, -0.00134611 3.9357, 0.00630099 3.90916, 0.0211453 3.88487 L 0.043187 3.77691 C 0.0584812 3.71483, 0.0917685 3.6622, 0.143499 3.61902, 0.195679 3.57584, 0.258655 3.55424, 0.332427 3.55379, 0.806997 3.58303, 1.28651 3.59743, 1.77053 3.59698, 1.84475 3.59743, 1.92392 3.59248, 2.00759 3.58258, 2.58112 3.58303, 3.15465 3.57359, 3.72774 3.55379, 3.79701 3.55424, 3.85864 3.57808, 3.91307 3.62577, 3.93286 3.66445, 3.94276 3.70044, 3.94276 3.73373, 3.94276 3.76296, 3.93556 3.7895, 3.92026 3.81289 L 3.89822 3.92085 C 3.88338 3.98833, 3.84739 4.04276, 3.79071 4.08324, 3.73403 4.12418, 3.67331 4.14442, 3.60898 4.14397, 3.43625 4.14442, 3.27791 4.15162, 3.13441 4.16601, 2.99137 4.18041, 2.85057 4.21864, 2.71202 4.28072, 2.62835 4.32435, 2.58877 4.39632, 2.59327 4.49664 L 2.59327 4.54702 C 2.76645 5.82363, 2.905 7.10609, 3.00846 8.3944, 3.11237 9.68272, 3.22348 10.9027, 3.34223 12.0538 L 7.71592 4.93567 C 7.78025 4.83536, 7.81983 4.72965, 7.83468 4.61899 L 7.83468 4.583 C 7.83468 4.51148, 7.81758 4.4467, 7.7825 4.38868, 7.67409 4.22584, 7.47166 4.14442, 7.17478 4.14397, 7.04613 4.14442, 6.9818 4.07964, 6.9818 3.94964 L 6.9818 3.89926, 7.01149 3.76971 C 7.06637 3.62622, 7.16263 3.55424, 7.30073 3.55379, 7.73571 3.57359, 8.17295 3.58303, 8.61288 3.58258, 8.67226 3.59248, 8.72939 3.59743, 8.78337 3.59698, 9.15897 3.59743, 9.54448 3.58303, 9.93988 3.55379, 10.0735 3.55424, 10.145 3.61902, 10.1549 3.74812 L 10.1549 3.8057 Z" stroke="none" fill="#000000" />
			<path d="M 24.312 4.8565 C 24.4308 5.31263, 24.4897 5.7782, 24.4897 6.25277, 24.4897 6.40211, 24.4847 6.54606, 24.4748 6.6846, 24.4254 7.31841, 24.3192 7.95402, 24.1564 8.59188, 23.9787 9.23514, 23.7538 9.87254, 23.4821 10.5032, 23.2104 11.1343, 22.8496 11.7398, 22.3998 12.3201, 22.2468 12.5171, 22.0772 12.7119, 21.8919 12.9035, 21.7066 13.0956, 21.5078 13.267, 21.2954 13.4181, 21.0831 13.5692, 20.8618 13.6929, 20.6319 13.7883, 20.4025 13.8846, 20.1614 13.9323, 19.9095 13.9323, 19.6527 13.9323, 19.4314 13.8832, 19.246 13.7847, 19.0607 13.6866, 18.9015 13.5598, 18.7679 13.4037, 18.6347 13.2481, 18.5245 13.074, 18.4381 12.8819, 18.3518 12.6903, 18.2816 12.4932, 18.2267 12.2913, 18.1035 11.8455, 18.0418 11.3849, 18.0418 10.9094, 18.0418 10.7565, 18.0517 10.6053, 18.0711 10.456, 18.1107 9.83251, 18.2173 9.20185, 18.39 8.56309, 18.5533 7.92073, 18.7733 7.28513, 19.0499 6.65627, 19.3265 6.02785, 19.6945 5.42058, 20.1538 4.83491, 20.3072 4.63878, 20.4754 4.44311, 20.658 4.24878, 20.8407 4.05445, 21.0359 3.88172, 21.2433 3.73058, 21.4511 3.57943, 21.6697 3.45618, 21.8996 3.35992, 22.1294 3.2641, 22.3728 3.21597, 22.6296 3.21552, 22.8865 3.21597, 23.1065 3.26545, 23.2891 3.36352, 23.4722 3.46203, 23.6341 3.58798, 23.7749 3.74137, 23.9157 3.89521, 24.0268 4.0702, 24.1082 4.26677, 24.1896 4.4638, 24.2576 4.66037, 24.312 4.8565 Z M 23.3111 5.02204 C 23.2913 4.83536, 23.267 4.66037, 23.2374 4.49709, 23.2077 4.33425, 23.1645 4.19255, 23.1078 4.07245, 23.0511 3.95279, 22.9783 3.86013, 22.8892 3.79535, 22.8001 3.73058, 22.6863 3.69819, 22.5478 3.69774, 22.2617 3.69819, 21.9972 3.83134, 21.7552 4.09764, 21.5132 4.36394, 21.2784 4.68196, 21.0507 5.05083, 20.7251 5.57892, 20.4732 6.12142, 20.295 6.67786, 20.1169 7.23475, 19.964 7.77184, 19.8353 8.28959 L 22.8519 8.28959 C 22.9855 7.748, 23.1092 7.19606, 23.2225 6.63422, 23.3017 6.25547, 23.3408 5.88121, 23.3408 5.51145, 23.3408 5.34861, 23.3309 5.18577, 23.3111 5.02204 Z M 19.6797 8.87257 C 19.5465 9.41507, 19.43 9.96206, 19.331 10.5135, 19.2523 10.9121, 19.2127 11.3106, 19.2127 11.7083, 19.2127 11.8576, 19.2177 12.0016, 19.2276 12.1401, 19.2375 12.3277, 19.26 12.5031, 19.2942 12.666, 19.3288 12.8293, 19.3747 12.9696, 19.4314 13.087, 19.488 13.2049, 19.5636 13.2957, 19.6576 13.3605, 19.7516 13.4253, 19.865 13.4577, 19.9981 13.4572, 20.2802 13.4577, 20.5433 13.3259, 20.788 13.0618, 21.0327 12.7982, 21.2635 12.4811, 21.4808 12.1113, 21.8069 11.5742, 22.0588 11.03, 22.2365 10.478, 22.4146 9.92652, 22.5676 9.39123, 22.6962 8.87257 Z" stroke="none" fill="#000000" />
			<path d="M 27.791 13.6516 C 27.791 14.2129, 27.6763 14.7433, 27.4464 15.2422, 27.217 15.7415, 26.8945 16.1827, 26.4793 16.5664, 26.4352 16.5952, 26.3857 16.6096, 26.3308 16.6096, 26.2917 16.6096, 26.24 16.5952, 26.1752 16.5664 L 26.1383 16.5089 C 26.0987 16.4706, 26.0789 16.4275, 26.0789 16.3793, 26.0789 16.3361, 26.0987 16.2858, 26.1383 16.2282, 26.5139 15.8827, 26.8018 15.4896, 27.002 15.0478, 27.2022 14.6065, 27.302 14.141, 27.302 13.6516, 27.302 13.6183, 27.2998 13.5814, 27.2948 13.5404, 27.2899 13.5, 27.2872 13.5247, 27.2872 13.6156, 27.208 13.7069, 27.0254 13.7523, 26.7388 13.7523, 26.4523 13.7523, 26.235 13.6642, 26.0866 13.4865, 25.9381 13.3092, 25.8639 13.1122, 25.8639 12.8958, 25.8639 12.6804, 25.9381 12.4852, 26.0866 12.3097, 26.235 12.1347, 26.4523 12.047, 26.7388 12.0466, 26.9511 12.047, 27.1243 12.101, 27.2575 12.209, 27.3911 12.3169, 27.4972 12.4478, 27.5764 12.6012, 27.6556 12.755, 27.7109 12.9251, 27.7428 13.1122, 27.7752 13.2993, 27.791 13.4793, 27.791 13.6516 Z" stroke="none" fill="#000000" />
			<path d="M 36.067 8.75742 C 36.0224 8.94499, 35.9262 9.08804, 35.7777 9.1861, 35.6297 9.28462, 35.484 9.33365, 35.3405 9.3332, 35.1925 9.33365, 35.0737 9.28102, 34.9847 9.17486, 34.9109 9.10334, 34.8713 9.00752, 34.8659 8.88697, 34.8659 8.83479, 34.8709 8.78171, 34.8808 8.72863, 34.9257 8.56129, 35.0108 8.43174, 35.1367 8.34043, 35.2627 8.24956, 35.3652 8.19648, 35.4444 8.18164, 35.4098 8.03319, 35.2937 7.89779, 35.0958 7.77544, 34.8983 7.65309, 34.6612 7.59191, 34.3841 7.59146, 34.2164 7.59191, 34.0558 7.6099, 33.9028 7.64589, 33.7499 7.68188, 33.6064 7.7525, 33.4728 7.85776, 33.3495 7.94952, 33.2483 8.06108, 33.1692 8.19288, 33.09 8.32513, 33.0333 8.46503, 32.9982 8.61347, 32.969 8.69534, 32.9541 8.77721, 32.9541 8.85818, 32.9541 8.99313, 32.9937 9.11998, 33.0724 9.23963, 33.1862 9.41777, 33.3594 9.52797, 33.5915 9.57071 L 34.3324 9.72905 C 34.5749 9.78213, 34.7935 9.87344, 34.9887 10.003, 35.1839 10.1325, 35.3418 10.2886, 35.4628 10.4708, 35.5843 10.6534, 35.6693 10.8595, 35.7183 11.0893, 35.7282 11.1811, 35.7332 11.2675, 35.7332 11.3484, 35.7332 11.5023, 35.7111 11.6633, 35.6666 11.8306, 35.5829 12.1095, 35.4592 12.388, 35.2959 12.666, 35.1331 12.9444, 34.9131 13.1842, 34.6365 13.3853, 34.3351 13.5967, 34.0216 13.7406, 33.6955 13.8171, 33.3693 13.894, 33.0553 13.9323, 32.754 13.9323, 32.4526 13.9323, 32.1723 13.8918, 31.9128 13.8099, 31.6537 13.7285, 31.4274 13.6079, 31.2344 13.4469, 31.0419 13.2863, 30.911 13.0906, 30.8417 12.8599, 30.7972 12.7452, 30.7725 12.6205, 30.7675 12.4856, 30.7675 12.3614, 30.7851 12.2292, 30.8192 12.0898, 30.8741 11.8743, 30.9839 11.7123, 31.1494 11.6044, 31.315 11.4964, 31.4814 11.4424, 31.6496 11.442, 31.8224 11.4424, 31.9708 11.4978, 32.0941 11.6075, 32.1782 11.6894, 32.2227 11.7951, 32.2277 11.9242, 32.2277 11.9917, 32.2155 12.0592, 32.1903 12.1257, 32.1363 12.3372, 32.0261 12.4968, 31.8606 12.6048, 31.6951 12.7128, 31.5606 12.769, 31.4567 12.7735, 31.5111 12.9516, 31.6667 13.11, 31.9236 13.249, 32.1809 13.3884, 32.4845 13.4577, 32.8354 13.4572, 33.0531 13.4577, 33.2668 13.4352, 33.4764 13.3893, 33.6865 13.3439, 33.8781 13.2539, 34.0508 13.119, 34.2191 13.0043, 34.3563 12.8653, 34.4624 12.702, 34.5686 12.5391, 34.6441 12.3614, 34.6882 12.1689, 34.7179 12.083, 34.7328 11.9917, 34.7328 11.8954, 34.7328 11.7137, 34.6761 11.5504, 34.5623 11.406, 34.3994 11.1955, 34.1669 11.0538, 33.8655 10.9814 L 33.1242 10.8158 C 32.6896 10.725, 32.3689 10.5068, 32.1611 10.1609, 32.0225 9.94542, 31.9533 9.70296, 31.9533 9.43396, 31.9533 9.28102, 31.9731 9.12493, 32.0126 8.96614, 32.077 8.72188, 32.1795 8.47717, 32.3203 8.23247, 32.4611 7.98776, 32.6514 7.77454, 32.8912 7.59191, 33.1309 7.40973, 33.3905 7.28378, 33.6694 7.21405, 33.9483 7.14478, 34.2164 7.10969, 34.4732 7.10924, 34.7256 7.10969, 34.9617 7.14838, 35.1812 7.22485, 35.4012 7.30177, 35.5888 7.41333, 35.7444 7.55952, 35.9001 7.70617, 36.0125 7.87755, 36.0818 8.07368, 36.1016 8.17984, 36.1115 8.2851, 36.1115 8.39036, 36.1115 8.50596, 36.0966 8.62832, 36.067 8.75742 Z" stroke="none" fill="#000000" />
			<path d="M 1.59352 -0.901777 C 1.5633 -0.820915, 1.50914 -0.780611, 1.43155 -0.780863 L 0.659715 -0.780863, 0.0453203 1.60114 C -0.00430489 1.77345, -0.0292434 1.92383, -0.0292434 2.05256, -0.0292434 2.08782, -0.0264724 2.12133, -0.0209305 2.15332, -0.00707579 2.28255, 0.0579156 2.34703, 0.174043 2.34678, 0.279339 2.34703, 0.378842 2.31832, 0.473054 2.26038, 0.567266 2.20269, 0.655684 2.12536, 0.738561 2.02863, 0.821689 1.93189, 0.896253 1.81778, 0.962756 1.68604, 1.02926 1.55454, 1.08997 1.41599, 1.14539 1.27065, 1.1537 1.23865, 1.17158 1.21523, 1.19929 1.20036, 1.227 1.18575, 1.25345 1.1782, 1.27814 1.17795 L 1.38192 1.17795 C 1.41795 1.1782, 1.44692 1.19306, 1.46908 1.22228, 1.4774 1.24143, 1.48143 1.25881, 1.48143 1.27468 L 1.48143 1.29886 C 1.42349 1.45756, 1.35069 1.61424, 1.26353 1.76866, 1.17637 1.92333, 1.07611 2.06238, 0.962756 2.18581, 0.849399 2.3095, 0.724202 2.41152, 0.587166 2.49188, 0.45013 2.57249, 0.298736 2.61279, 0.132479 2.61279, -0.0113581 2.61279, -0.135799 2.58533, -0.241095 2.53017, -0.346139 2.47525, -0.430527 2.39893, -0.494259 2.30068, -0.557739 2.20269, -0.595272 2.09034, -0.606356 1.96389, -0.611898 1.93189, -0.614669 1.89688, -0.614669 1.85909, -0.614669 1.76791, -0.603585 1.6752, -0.581418 1.58099 L 0.0286946 -0.780863, -0.751453 -0.780863 C -0.820475 -0.780611, -0.858009 -0.816885, -0.86355 -0.889685 L -0.86355 -0.921929, -0.838612 -0.990447 C -0.810902 -1.0708, -0.759766 -1.11111, -0.685202 -1.11136 L 0.107541 -1.11136, 0.447863 -2.43335 C 0.473054 -2.53261, 0.523435 -2.60641, 0.59951 -2.65478, 0.675585 -2.70314, 0.752416 -2.72733, 0.82975 -2.72758, 0.910108 -2.72733, 0.976611 -2.70188, 1.02901 -2.651, 1.06503 -2.61573, 1.08291 -2.56737, 1.08291 -2.5059, 1.08291 -2.47618, 1.08014 -2.44645, 1.0746 -2.41723 L 0.738561 -1.11136, 1.50233 -1.11136 C 1.57438 -1.11111, 1.61015 -1.07483, 1.61015 -1.00254 L 1.61015 -0.974325 Z" stroke="none" fill="#000000" transform="matrix(1.12 0 0 1 38.0534 13.3453)" />
			<path d="M 1.22206 7.1281 C -3.58318 3.92045, -3.58318 -3.92045, 1.22206 -7.1281 L 1.97675 -7.1281 C -2.35681 -3.92045, -2.35681 3.92045, 1.97675 7.1281" stroke="none" fill="#000000" transform="matrix(1 0 -0 1 15.3152 9.3391)" />
			<path d="M 1.22206 7.1281 C -3.58318 3.92045, -3.58318 -3.92045, 1.22206 -7.1281 L 1.97675 -7.1281 C -2.35681 -3.92045, -2.35681 3.92045, 1.97675 7.1281" stroke="none" fill="#000000" transform="matrix(-1 1.50996e-007 -1.50996e-007 -1 42.3631 9.3391)" />
			<rect />
		</svg>
	</g>
	<rect x="-75.9129028" y="-151.825653" width="151.825806" height="303.651306" stroke="none" fill="#73B60A" fill-opacity="0.392156839" transform="matrix(0.5 0 -0 0.5 576.044 83.9128)" />
	<path d="M -75.9129 -151.826 L 75.9129 -151.826, 75.9129 151.826, -75.9129 151.826 Z" fill="none" stroke="#000000" stroke-width="2" stroke-linecap="round" stroke-linejoin="round" transform="matrix(0.5 0 -0 0.5 576.044 83.9128)" />
	<g transform="matrix(1 0 -0 1 546.039 50.1253)">
		<svg width="189.018036" height="200.999969">
			<defs />
			<path d="M 12.7826 1.25722 L 12.26 1.51056 C 11.9988 1.85099, 11.7613 2.16767, 11.5435 2.4606 L 19.3141 2.4606, 20.2958 1.51056, 21.6654 2.84062, 11.3456 2.84062 C 10.7835 3.56106, 10.2175 4.2063, 9.65139 4.77632, 9.08532 5.34634, 8.34508 5.90449, 7.42671 6.45076 L 7.29608 6.26076 C 8.12737 5.58781, 8.93094 4.69319, 9.71472 3.57294, 10.4985 2.45664, 11.0448 1.40764, 11.3456 0.43385 Z M 9.97598 11.8343 L 10.4312 8.54085, 8.73302 8.54085, 7.75527 8.66752, 7.23275 8.16083, 10.4985 8.16083, 10.8904 4.10733, 11.8048 4.67736, 18.5976 4.67736, 19.1201 3.98066, 20.2285 4.80403, 19.6426 5.24738, 19.512 8.16083, 20.3591 8.16083, 21.2735 7.27413, 22.5798 8.54085, 19.512 8.54085, 19.3141 12.0877, 20.0345 12.0877, 20.9489 11.201, 22.2552 12.4677, 19.2507 12.4677 C 19.1637 13.4415, 19.0132 14.1382, 18.7955 14.5578, 18.5778 14.9813, 18.0553 15.2782, 17.224 15.4445, 17.2715 14.9378, 16.7054 14.4746, 15.5258 14.0511 L 15.5258 13.7344 C 16.6183 13.9877, 17.3269 14.1144, 17.6515 14.1144, 17.9761 14.1144, 18.1819 13.5681, 18.269 12.4677 L 10.8904 12.4677, 10.3679 13.0377, 9.45346 12.2143 Z M 11.7375 5.05737 L 11.4129 8.16083, 18.5976 8.16083, 18.7282 5.05737 Z M 11.3456 8.54085 L 10.8904 12.0877, 18.3363 12.0877, 18.5303 8.54085 Z M 13.697 5.31072 C 14.5678 5.65115, 15.1695 5.92824, 15.4941 6.13804, 15.8227 6.3518, 15.985 6.60119, 15.985 6.89412, 15.985 7.10787, 15.9216 7.34143, 15.791 7.59477, 15.6604 7.84811, 15.5733 7.97478, 15.5258 7.97083, 15.3991 7.97478, 15.2447 7.78478, 15.0706 7.4008, 14.8093 6.81495, 14.3105 6.18159, 13.5663 5.50072 Z M 13.5663 8.85753 C 14.6114 9.32463, 15.2566 9.68485, 15.4941 9.9382, 15.7356 10.1915, 15.8544 10.4251, 15.8544 10.6309, 15.8544 10.8882, 15.7791 11.1416, 15.6248 11.3949, 15.4743 11.6483, 15.3516 11.7749, 15.2645 11.771, 15.1379 11.7749, 15.0072 11.5651, 14.8726 11.1376, 14.6589 10.5082, 14.1799 9.81153, 13.4357 9.04754 Z" stroke="none" fill="#000000" />
			<path d="M 22.57 7.08412 L 34.7186 7.08412, 36.0249 6.07075, 37.4618 7.46414, 24.9213 7.46414 C 24.2246 7.4681, 23.6388 7.53143, 23.1558 7.65415 Z" stroke="none" fill="#000000" />
			<path d="M 44.498 15.4445 C 44.5455 13.7581, 44.5653 12.5785, 44.5653 11.8977 L 44.5653 7.71748 C 44.5653 6.96141, 44.5455 6.05491, 44.498 4.99404 L 46.0656 5.8174, 45.5431 6.19742, 45.5431 12.531 C 45.5431 13.2515, 45.5668 14.0115, 45.6104 14.8111 Z M 45.935 1.19388 L 45.3491 1.5739 C 46.5248 3.30772, 47.7559 4.61006, 49.0384 5.47301, 50.3249 6.33993, 51.556 6.85453, 52.7277 7.02079 L 52.7277 7.27413 C 52.031 7.32163, 51.5323 7.59477, 51.2275 8.0975, 49.9212 7.42455, 48.8128 6.62494, 47.8984 5.69469, 46.984 4.7684, 46.0695 3.52148, 45.1512 1.95391, 44.1536 3.64815, 43.0848 4.998, 41.9527 6.01137, 40.8206 7.02475, 39.3203 7.91145, 37.444 8.66752 L 37.3806 8.41418 C 39.253 7.53143, 40.8087 6.30826, 42.0517 4.74465, 43.2946 3.18501, 44.1299 1.74807, 44.5653 0.43385 Z" stroke="none" fill="#000000" />
			<path d="M 18.9933 38.208 C 18.3509 38.1747, 17.7311 38.1576, 17.1328 38.1576 L 16.8435 38.1576 C 16.1468 38.1675, 15.4225 38.1819, 14.6713 38.2008 L 14.6713 37.6034 C 14.894 37.6038, 15.0942 37.5957, 15.2718 37.5787, 15.45 37.562, 15.6079 37.5269, 15.7464 37.4738, 15.8107 37.4406, 15.8674 37.3902, 15.9169 37.3227, 15.9367 37.2993, 15.9466 37.2678, 15.9466 37.2291, 15.9466 37.2102, 15.9443 37.1887, 15.9389 37.1644 L 15.1014 34.8396, 11.4613 34.8396, 10.7722 36.7685 C 10.7475 36.8265, 10.7349 36.8819, 10.7349 36.9341, 10.7349 36.9826, 10.7425 37.0303, 10.7574 37.078, 10.7969 37.1842, 10.8613 37.2705, 10.9499 37.3371, 11.0785 37.4433, 11.2157 37.5139, 11.3615 37.5499, 11.5072 37.5859, 11.684 37.6038, 11.8914 37.6034 L 11.8914 38.2008 C 11.2936 38.1819, 10.7227 38.1675, 10.1789 38.1576 L 9.94946 38.1576 C 9.47489 38.1576, 8.98053 38.1747, 8.46683 38.208 L 8.46683 37.6034 C 8.70434 37.6038, 8.91036 37.5886, 9.08579 37.5571, 9.26122 37.526, 9.43036 37.4649, 9.5932 37.3731, 9.8604 37.2246, 10.048 37.0065, 10.1568 36.7181 L 13.3592 27.7 C 13.4086 27.5565, 13.5126 27.4867, 13.6704 27.4912 L 13.7892 27.4912 C 13.9475 27.4917, 14.051 27.5614, 14.1005 27.7 L 17.4661 37.1212 C 17.4913 37.2129, 17.5295 37.2944, 17.5813 37.3663, 17.6334 37.4383, 17.7036 37.4864, 17.7922 37.5098, 17.9209 37.5584, 18.0905 37.5859, 18.3005 37.5931, 18.5106 37.6003, 18.7414 37.6038, 18.9933 37.6034 L 18.9933 38.208 Z M 13.2926 29.7296 L 11.6764 34.2423, 14.8863 34.2423 Z" stroke="none" fill="#000000" />
			<path d="M 25.7078 36.3799 C 25.6241 36.9799, 25.3411 37.4613, 24.8594 37.8234, 24.3776 38.1855, 23.796 38.3663, 23.114 38.3663, 22.6597 38.3663, 22.2274 38.2777, 21.8172 38.1005, 21.4069 37.9232, 21.0489 37.6781, 20.7421 37.3659, 20.4209 37.0402, 20.1776 36.6709, 20.012 36.258, 19.8465 35.8455, 19.7637 35.4136, 19.7637 34.962, 19.7637 34.5018, 19.8456 34.0583, 20.0084 33.631, 20.1717 33.2041, 20.4164 32.8249, 20.7421 32.4933, 21.0489 32.1722, 21.4069 31.9216, 21.8172 31.7417, 22.2274 31.5617, 22.6597 31.4718, 23.114 31.4713, 23.4006 31.4718, 23.6871 31.5019, 23.9737 31.5617, 24.2607 31.622, 24.5189 31.7165, 24.7483 31.846, 24.9781 31.9756, 25.1671 32.1447, 25.3155 32.3534, 25.464 32.5622, 25.5377 32.8082, 25.5377 33.0907, 25.5377 33.3408, 25.4577 33.5302, 25.2971 33.6597, 25.1365 33.7893, 24.9597 33.8541, 24.7667 33.8536, 24.5742 33.8541, 24.3974 33.7893, 24.2368 33.6597, 24.0762 33.5302, 23.9957 33.3408, 23.9957 33.0907, 23.9957 32.8415, 24.0825 32.6499, 24.2553 32.5149, 24.4037 32.4097, 24.5643 32.3548, 24.737 32.3494 L 24.5962 32.3494 C 24.5126 32.2729, 24.3295 32.1929, 24.0479 32.1087, 23.7663 32.0251, 23.455 31.9828, 23.114 31.9823, 22.8374 31.9828, 22.572 32.0575, 22.3174 32.2059, 22.0628 32.3548, 21.8518 32.5536, 21.6836 32.8028, 21.4812 33.115, 21.3476 33.4537, 21.2832 33.8181, 21.2194 34.1829, 21.187 34.5644, 21.187 34.962, 21.187 35.3417, 21.2257 35.7087, 21.3021 36.0636, 21.3786 36.419, 21.5257 36.7451, 21.743 37.042, 21.9211 37.2872, 22.1397 37.4828, 22.3988 37.629, 22.6584 37.7757, 22.9314 37.8486, 23.2175 37.8481, 23.7465 37.8486, 24.1761 37.7073, 24.5072 37.4239, 24.8382 37.141, 25.0632 36.7762, 25.1819 36.3295, 25.2116 36.2148, 25.2831 36.1572, 25.3965 36.1567 L 25.5301 36.1711 C 25.6488 36.2004, 25.7078 36.2701, 25.7078 36.3799 Z" stroke="none" fill="#000000" />
			<path d="M 31.0526 36.3439 C 31.0526 36.5841, 31.0206 36.8243, 30.9563 37.0641, 30.892 37.3043, 30.7993 37.5202, 30.6783 37.7118, 30.5573 37.9039, 30.4003 38.0609, 30.2078 38.1828, 30.0153 38.3051, 29.7904 38.3663, 29.5331 38.3663, 29.2663 38.3663, 28.9996 38.3281, 28.7328 38.2512, 28.4661 38.1747, 28.2263 38.0334, 28.014 37.827, 27.8017 37.6209, 27.6555 37.387, 27.5763 37.1252, 27.4971 36.8639, 27.4575 36.6034, 27.4575 36.3439 L 27.4575 32.3062, 26.1679 32.3062, 26.1679 31.8384 C 26.5286 31.8388, 26.8278 31.761, 27.0648 31.6049, 27.3023 31.4493, 27.5012 31.2428, 27.6618 30.986, 27.8224 30.7296, 27.942 30.4318, 28.0212 30.0935, 28.1003 29.7552, 28.1395 29.3868, 28.1395 28.9883 L 28.6658 28.9883, 28.6658 31.7016, 30.8079 31.7016, 30.8079 32.3062, 28.6658 32.3062, 28.6658 36.3439 C 28.6658 36.5652, 28.6847 36.7726, 28.7216 36.9669, 28.7584 37.1612, 28.8264 37.3375, 28.9253 37.4954, 29.0936 37.7311, 29.318 37.8486, 29.5996 37.8481, 29.7481 37.8486, 29.8776 37.8117, 29.9887 37.737, 30.1003 37.6628, 30.1952 37.5548, 30.2744 37.4131, 30.3535 37.2719, 30.4152 37.1086, 30.4597 36.9237, 30.5042 36.7393, 30.5263 36.5458, 30.5263 36.3439 L 30.5263 35.3866, 31.0526 35.3866, 31.0526 36.3439 Z" stroke="none" fill="#000000" />
			<path d="M 34.5612 29.0315 C 34.5612 29.2672, 34.4748 29.4687, 34.3021 29.6365, 34.1293 29.8047, 33.9215 29.8884, 33.6791 29.8879, 33.4371 29.8884, 33.231 29.8047, 33.0606 29.6365, 32.8901 29.4687, 32.8046 29.2672, 32.8046 29.0315, 32.8046 28.7966, 32.8901 28.5965, 33.0606 28.4309, 33.231 28.2654, 33.4371 28.1826, 33.6791 28.1822, 33.9215 28.1826, 34.1293 28.2654, 34.3021 28.4309, 34.4748 28.5965, 34.5612 28.7966, 34.5612 29.0315 Z M 35.5621 38.208 C 34.9692 38.1747, 34.3983 38.1576, 33.8496 38.1576, 33.3116 38.1576, 32.7457 38.1747, 32.1524 38.208 L 32.1524 37.6034 C 32.375 37.6038, 32.5788 37.6003, 32.7641 37.5931, 32.9494 37.5859, 33.0893 37.5607, 33.1829 37.517, 33.2423 37.4887, 33.2814 37.4397, 33.3012 37.3699, 33.321 37.3007, 33.3309 37.2246, 33.3309 37.1428 L 33.3309 33.0547 C 33.3309 32.9207, 33.3251 32.7988, 33.3125 32.6881, 33.3003 32.5779, 33.2571 32.4888, 33.1829 32.4214, 33.0988 32.3642, 32.9715 32.331, 32.801 32.3211, 32.631 32.3116, 32.4344 32.3067, 32.2117 32.3062 L 32.2117 31.7088, 34.4946 31.5361, 34.4946 37.1428 C 34.4946 37.2246, 34.5023 37.3007, 34.5171 37.3699, 34.5319 37.4397, 34.5688 37.4887, 34.6278 37.517, 34.7069 37.5607, 34.832 37.5859, 35.0025 37.5931, 35.173 37.6003, 35.3596 37.6038, 35.5621 37.6034 L 35.5621 38.208 Z" stroke="none" fill="#000000" />
			<path d="M 43.049 34.9908 C 43.049 35.4424, 42.9626 35.8743, 42.7899 36.2867, 42.6171 36.6997, 42.3648 37.0641, 42.0337 37.3803, 41.7179 37.688, 41.3522 37.9291, 40.937 38.1041, 40.5218 38.279, 40.0819 38.3663, 39.6177 38.3663, 39.1534 38.3663, 38.7135 38.2804, 38.2983 38.1077, 37.8836 37.9349, 37.5152 37.6925, 37.194 37.3803, 36.858 37.0591, 36.6061 36.6934, 36.4378 36.2831, 36.27 35.8729, 36.1859 35.4424, 36.1859 34.9908, 36.1859 34.5306, 36.2714 34.0871, 36.4419 33.6597, 36.6124 33.2329, 36.8629 32.8487, 37.194 32.5077, 37.5102 32.1866, 37.8773 31.9338, 38.2947 31.7489, 38.7122 31.5644, 39.1534 31.4718, 39.6177 31.4713, 40.0819 31.4718, 40.5218 31.5644, 40.937 31.7489, 41.3522 31.9338, 41.7179 32.1866, 42.0337 32.5077, 42.3697 32.8537, 42.623 33.2387, 42.7934 33.6633, 42.9639 34.088, 43.049 34.5306, 43.049 34.9908 Z M 41.641 34.8253 C 41.641 34.4564, 41.6153 34.0916, 41.5632 33.7317, 41.5114 33.3719, 41.3841 33.043, 41.1813 32.7452, 40.9937 32.4915, 40.7638 32.2936, 40.4921 32.1519, 40.2204 32.0107, 39.9289 31.9396, 39.6177 31.9391, 39.3064 31.9396, 39.0149 32.0107, 38.7432 32.1519, 38.4715 32.2936, 38.2416 32.4915, 38.0536 32.7452, 37.8512 33.0385, 37.7243 33.366, 37.6721 33.7281, 37.6204 34.0907, 37.5943 34.4564, 37.5943 34.8253, 37.5943 35.2144, 37.6182 35.5994, 37.665 35.9809, 37.7117 36.3623, 37.8413 36.7136, 38.0536 37.0348, 38.2218 37.2849, 38.4468 37.4828, 38.7283 37.629, 39.0099 37.7757, 39.3064 37.8486, 39.6177 37.8481, 39.9289 37.8486, 40.2254 37.7757, 40.507 37.629, 40.7886 37.4828, 41.0135 37.2849, 41.1813 37.0348, 41.394 36.7136, 41.524 36.3623, 41.5708 35.9809, 41.6176 35.5994, 41.641 35.2144, 41.641 34.8253 Z" stroke="none" fill="#000000" />
			<path d="M 51.4985 38.208 C 50.871 38.1747, 50.2732 38.1576, 49.7046 38.1576, 49.127 38.1576, 48.5364 38.1747, 47.9336 38.208 L 47.9336 37.6034 C 48.1558 37.6038, 48.3596 37.6003, 48.5449 37.5931, 48.7303 37.5859, 48.8702 37.5607, 48.9637 37.517, 49.0182 37.4887, 49.0541 37.4397, 49.0712 37.3699, 49.0883 37.3007, 49.0969 37.2246, 49.0969 37.1428 L 49.0969 33.6305 C 49.0969 33.3912, 49.0847 33.1631, 49.06 32.9472, 49.0357 32.7313, 48.9664 32.5347, 48.8526 32.3566, 48.7833 32.2419, 48.6808 32.1582, 48.5449 32.1051, 48.4091 32.0525, 48.2647 32.026, 48.1113 32.0255, 47.8297 32.026, 47.567 32.0849, 47.3223 32.2023, 47.0776 32.3202, 46.8689 32.4785, 46.6957 32.6773, 46.523 32.8766, 46.3844 33.1105, 46.2805 33.3791, 46.177 33.648, 46.1249 33.9283, 46.1249 34.2207 L 46.1249 37.1428 C 46.1249 37.2246, 46.1348 37.3007, 46.1545 37.3699, 46.1743 37.4397, 46.2139 37.4887, 46.2733 37.517, 46.3673 37.5607, 46.5081 37.5859, 46.6957 37.5931, 46.8837 37.6003, 47.0861 37.6038, 47.3034 37.6034 L 47.3034 38.2008 C 47.0515 38.1913, 46.8194 38.1841, 46.6071 38.1792, 46.3948 38.1747, 46.1869 38.1675, 45.9841 38.1576 L 45.5171 38.1576 C 44.9391 38.1576, 44.3485 38.1747, 43.7457 38.208 L 43.7457 37.6034 C 43.9684 37.6038, 44.1721 37.6003, 44.3575 37.5931, 44.5428 37.5859, 44.6827 37.5607, 44.7763 37.517, 44.8356 37.4887, 44.8748 37.4397, 44.8946 37.3699, 44.9144 37.3007, 44.9243 37.2246, 44.9243 37.1428 L 44.9243 33.0547 C 44.9243 32.9207, 44.9184 32.7988, 44.9058 32.6881, 44.8937 32.5779, 44.8455 32.4888, 44.7614 32.4214, 44.6778 32.3642, 44.5419 32.331, 44.3539 32.3211, 44.1658 32.3116, 43.9634 32.3067, 43.7457 32.3062 L 43.7457 31.7088, 45.0205 31.6153, 46.0434 31.5361, 46.0434 32.774 C 46.1374 32.5536, 46.3786 32.2936, 46.7663 31.9936, 47.1541 31.694, 47.6124 31.5438, 48.141 31.5433, 48.4181 31.5438, 48.7033 31.5761, 48.997 31.6409, 49.2912 31.7057, 49.5494 31.846, 49.7716 32.062, 49.9938 32.2779, 50.1396 32.5262, 50.2089 32.8069, 50.2781 33.0876, 50.3128 33.3624, 50.3128 33.6305 L 50.3128 37.1428 C 50.3128 37.2246, 50.3227 37.3007, 50.3425 37.3699, 50.3622 37.4397, 50.4014 37.4887, 50.4608 37.517, 50.5548 37.5607, 50.6956 37.5859, 50.8831 37.5931, 51.0712 37.6003, 51.2763 37.6038, 51.4985 37.6034 L 51.4985 38.208 Z" stroke="none" fill="#000000" />
			<path d="M 6.09565 52.3607 L 6.09565 55.0208, 7.85718 55.0208, 7.85718 52.3607 Z M 6.09565 55.4008 L 6.09565 57.9342, 7.85718 57.9342, 7.85718 55.4008 Z M 6.09565 61.9244 L 7.98781 60.721 C 7.86114 60.4281, 7.51279 59.9451, 6.94277 59.2643 L 7.01006 59.0743 C 7.88093 59.6285, 8.45887 60.0599, 8.73993 60.3766, 9.02494 60.6933, 9.16348 60.9783, 9.16348 61.2277, 9.16348 61.4415, 9.10015 61.6552, 8.96952 61.865, 8.83889 62.0788, 8.7518 62.1817, 8.70826 62.1777, 8.62117 62.1817, 8.55783 62.0986, 8.51033 61.9244, 8.38366 61.6315, 8.25303 61.3148, 8.11844 60.9744, 7.1209 61.8215, 6.33712 62.625, 5.7671 63.3811 L 5.11394 62.5578 C 5.24853 62.3084, 5.31187 61.9086, 5.31187 61.3544 L 5.31187 54.9574 C 5.31187 54.1182, 5.29208 52.9782, 5.24458 51.5373 L 6.09565 51.9807, 7.79385 51.9807, 8.31637 51.474, 9.16348 52.2973, 8.57763 52.614 C 8.57763 55.2781, 8.60138 57.1782, 8.64096 58.3142 L 7.85718 58.7576, 7.85718 58.3142, 6.09565 58.3142 Z M 12.168 57.6809 L 11.974 58.5042, 13.0191 59.0743, 12.5599 59.5176, 12.5599 63.5078 C 12.5599 63.8878, 12.7143 64.0778, 13.0191 64.0778 L 13.4743 64.0778 C 13.8701 64.0778, 14.076 63.8363, 14.0958 63.3534, 14.1195 62.8705, 14.1274 62.3084, 14.1274 61.671 L 14.456 61.671 C 14.456 62.3084, 14.5114 62.8151, 14.6183 63.1951, 14.7291 63.5751, 14.8914 63.8245, 15.1091 63.9511, 14.9785 64.248, 14.8043 64.4578, 14.5866 64.5845, 14.3689 64.7112, 14.0839 64.7745, 13.7355 64.7745 L 12.6905 64.7745 C 12.0809 64.7745, 11.7761 64.438, 11.7761 63.7611 L 11.7761 59.1376 C 10.8656 62.0986, 8.92597 64.1847, 5.96502 65.4079 L 5.89773 65.2179 C 8.77159 63.6582, 10.5806 61.1485, 11.3209 57.6809 L 10.0779 57.6809, 9.62267 58.0609, 8.90222 57.3009 C 9.16348 57.1782, 9.37329 56.8219, 9.52371 56.2281, 9.67809 55.6383, 9.86414 54.7081, 10.0779 53.4374 L 11.0596 54.0074 C 10.8419 54.0945, 10.6875 54.328, 10.6004 54.7041, 10.5133 55.1316, 10.3194 55.9946, 10.0146 57.3009 L 11.3842 57.3009 C 11.5188 56.3746, 11.6257 54.7278, 11.7128 52.3607 L 10.6004 52.3607, 10.0146 52.4873, 9.49204 51.9807, 13.1497 51.9807, 13.8028 51.3473, 14.8479 52.3607, 12.5599 52.3607 C 12.4332 54.7278, 12.3224 56.3746, 12.2353 57.3009 L 13.1497 57.3009, 13.8662 56.6042, 14.9785 57.6809 Z M 3.09115 61.7977 C 3.09115 62.3915, 3.1149 63.4286, 3.15449 64.9012 L 2.24008 65.3445 C 2.28758 62.8586, 2.30737 60.3014, 2.30737 57.6809, 1.74131 59.1614, 0.913981 60.5548, -0.174605 61.8611 L -0.305235 61.671 C 0.26083 60.7052, 0.7596 59.6601, 1.19503 58.5399, 1.63047 57.4236, 1.97882 56.145, 2.24008 54.7041 L 1.0644 54.7041, 0.478547 54.8308, -0.0439743 54.3241, 2.30737 54.3241 C 2.30737 53.188, 2.28758 51.8777, 2.24008 50.3973 L 3.61368 51.0939, 3.09115 51.474, 3.09115 54.3241, 3.41575 54.3241, 4.0689 53.6907, 5.11394 54.7041, 3.09115 54.7041, 3.09115 56.1608 C 3.91848 56.5013, 4.46079 56.7981, 4.72205 57.0515, 4.98331 57.3048, 5.11394 57.5582, 5.11394 57.8076, 5.11394 57.9817, 5.06248 58.1915, 4.95165 58.4449, 4.84477 58.6982, 4.76956 58.8249, 4.72205 58.8209, 4.59538 58.8249, 4.441 58.6151, 4.26683 58.1876, 4.00557 57.6017, 3.61368 57.0515, 3.09115 56.5408 Z" stroke="none" fill="#000000" />
			<path d="M 16.4016 54.3241 L 16.5323 54.1341 C 17.316 54.3914, 17.8623 54.6249, 18.1671 54.8347, 18.4719 55.0485, 18.6223 55.2781, 18.6223 55.5275, 18.6223 55.6581, 18.5709 55.8481, 18.46 56.1014, 18.3532 56.3548, 18.2542 56.4815, 18.1671 56.4775, 18.08 56.4815, 17.9732 56.335, 17.8386 56.0341, 17.5773 55.575, 17.0983 55.0049, 16.4016 54.3241 Z M 15.5545 59.0743 C 16.1206 58.9516, 17.3833 58.338, 19.3428 57.2375 L 19.4734 57.4275 C 18.8203 57.8946, 18.1988 58.3736, 17.6129 58.8566, 17.0271 59.3435, 16.6233 59.7749, 16.4016 60.151 Z M 27.7031 55.0208 C 27.0064 55.5314, 26.2029 56.0817, 25.2845 56.6675 L 25.1539 56.4775 C 26.1118 55.5948, 26.8323 54.7081, 27.3112 53.8174 L 28.3563 54.8308 Z M 25.4151 57.4275 L 25.4824 57.2375 C 27.0064 57.6215, 27.8971 57.9303, 28.1584 58.1599, 28.4196 58.3934, 28.5503 58.6547, 28.5503 58.9476, 28.5503 59.1614, 28.5186 59.3632, 28.4552 59.5533, 28.3919 59.7433, 28.3127 59.8383, 28.2257 59.8343, 28.095 59.8383, 27.9209 59.6285, 27.7031 59.2009, 27.3112 58.6151, 26.5473 58.0213, 25.4151 57.4275 Z M 22.3473 53.8807 C 21.2152 54.8981, 20.4749 55.5314, 20.1266 55.7808, 20.9974 55.7848, 21.9554 55.765, 23.0004 55.7175, 23.523 55.1712, 23.9149 54.6249, 24.1761 54.0707 L 25.2212 55.0208 C 24.8728 55.1079, 24.1761 55.6383, 23.1311 56.6042, 22.086 57.578, 21.2389 58.3182, 20.5818 58.8209, 21.7614 58.7813, 22.9569 58.7418, 24.1761 58.6943, 24.0019 58.4013, 23.7407 58.0213, 23.3923 57.5542 L 23.523 57.4275 C 24.3067 57.8551, 24.8293 58.1915, 25.0905 58.4449, 25.3518 58.6982, 25.4824 58.908, 25.4824 59.0743, 25.4824 59.2049, 25.3953 59.3949, 25.2212 59.6483, 25.047 59.9016, 24.9164 60.0283, 24.8293 60.0243, 24.7857 60.0283, 24.7422 59.9649, 24.6986 59.8343, 24.6116 59.5849, 24.4809 59.288, 24.3067 58.9476, 23.8713 58.9951, 23.1548 59.0782, 22.1494 59.2009 L 23.2617 59.8343, 22.8025 60.151, 22.8025 61.291, 28.0277 61.291, 28.8788 60.4677, 30.0545 61.671, 22.8025 61.671 C 22.8025 63.5315, 22.8263 64.6716, 22.8698 65.0912 L 21.8881 65.4079 C 21.9356 64.3114, 21.9554 63.0684, 21.9554 61.671 L 17.0548 61.671 C 16.4927 61.675, 15.9702 61.7383, 15.4872 61.8611 L 14.9014 61.291, 21.9554 61.291, 21.9554 59.2643 C 20.9974 59.3949, 20.3007 59.6047, 19.8653 59.8976 L 19.2122 58.8209 C 19.7782 58.8249, 20.4076 58.4884, 21.1043 57.8115, 21.801 57.1386, 22.3671 56.5448, 22.8025 56.0341, 21.1954 56.2083, 20.1701 56.4379, 19.7347 56.7308 L 19.2122 55.7175 C 19.5605 55.765, 20.0197 55.4285, 20.5858 54.7081, 21.1518 53.9916, 21.52 53.4413, 21.6941 53.0574 L 17.9059 53.0574 C 17.3398 53.0613, 16.8173 53.1247, 16.3383 53.2474 L 15.7485 52.6773, 22.2167 52.6773 C 22.1296 51.9648, 21.7614 51.2681, 21.1043 50.5873 L 21.235 50.4606 C 22.1058 50.801, 22.6402 51.09, 22.8381 51.3196, 23.0361 51.5531, 23.1311 51.7313, 23.1311 51.854, 23.1311 52.1113, 22.9569 52.3844, 22.6086 52.6773 L 27.2439 52.6773, 28.095 51.9173, 29.2034 53.0574, 22.086 53.0574, 22.9331 53.7541 Z" stroke="none" fill="#000000" />
			<path d="M 35.3332 50.9673 L 36.6395 51.9173, 36.0497 52.234 C 35.3134 53.5878, 34.4979 54.7951, 33.6033 55.8481, 32.7087 56.905, 31.5647 57.8313, 30.1713 58.6309 L 30.0407 58.4409 C 31.1728 57.5582, 32.1743 56.5131, 33.0452 55.3097, 33.916 54.1064, 34.68 52.6615, 35.3332 50.9673 Z M 39.9052 51.1573 L 39.3827 51.474 C 39.8617 53.1682, 40.6455 54.4785, 41.7341 55.4048, 42.8226 56.335, 43.9746 56.905, 45.1938 57.1109 L 45.1938 57.3009 C 44.5446 57.388, 44.0854 57.6651, 43.8241 58.1242, 42.3872 57.3682, 41.2432 56.3548, 40.3961 55.0881, 39.549 53.8214, 38.971 52.3448, 38.6623 50.6506 Z M 32.7839 57.1109 L 40.2298 57.1109, 40.883 56.4775, 41.7974 57.3642, 41.2749 57.7442 C 41.1878 61.0852, 40.9701 63.1001, 40.6217 63.7928, 40.2734 64.4895, 39.6638 64.9883, 38.7929 65.2812, 38.6662 64.6082, 38.0566 64.1214, 36.9641 63.8245 L 36.9641 63.5711 C 38.0566 63.7453, 38.7652 63.8166, 39.0898 63.7928, 39.4144 63.773, 39.6638 63.5355, 39.8379 63.0684, 40.0121 62.6053, 40.1863 60.7448, 40.3605 57.4909 L 36.9641 57.4909 C 36.7028 59.3118, 36.1803 60.8437, 35.3965 62.0867, 34.6127 63.3336, 33.1125 64.4182, 30.8917 65.3445 L 30.7611 65.0912 C 32.7206 64.1214, 34.0387 62.9734, 34.7117 61.6433, 35.3886 60.3133, 35.7924 58.9318, 35.919 57.4909 L 33.8962 57.4909, 33.3064 57.6175 Z" stroke="none" fill="#000000" />
			<path d="M 53.2117 56.8575 C 53.2117 56.0183, 53.1919 55.2583, 53.1483 54.5774 L 54.6486 55.2108, 54.1261 55.6541, 54.1261 56.8575, 57.1979 56.8575, 57.7204 56.2242, 58.8288 57.0475, 58.2429 57.4275, 58.2429 62.4944 C 58.1558 63.1753, 57.6769 63.6384, 56.806 63.8878, 56.806 63.4286, 56.2637 62.9853, 55.1711 62.5578 L 55.1711 62.3044 C 55.9549 62.435, 56.5131 62.4984, 56.8377 62.4984, 57.1662 62.4984, 57.3285 62.3282, 57.3285 61.9877 L 57.3285 57.2375, 54.1261 57.2375, 54.1261 62.3677 C 54.1261 63.3415, 54.1498 64.2282, 54.1934 65.0278 L 53.1483 65.4712 C 53.1919 63.9116, 53.2117 62.4786, 53.2117 61.1644 L 53.2117 57.2375, 50.2072 57.2375, 50.2072 63.4445, 49.2294 63.8245 C 49.273 62.4786, 49.2928 60.3252, 49.2928 57.3642, 48.0736 58.8447, 46.6604 60.1114, 45.0493 61.1644 L 44.9186 60.9744 C 46.7475 59.3751, 48.0656 57.9382, 48.8692 56.6715, 49.6768 55.4048, 50.2072 54.4983, 50.4684 53.9441 L 46.4189 53.9441, 45.833 54.0707, 45.3105 53.564, 50.5991 53.564 C 51.1691 52.3844, 51.5372 51.371, 51.7114 50.5239 L 53.279 51.474, 52.6258 51.7906, 51.6441 53.564, 57.7837 53.564, 58.7655 52.614, 60.1351 53.9441, 51.5135 53.9441 C 51.0385 54.8347, 50.5159 55.7016, 49.9459 56.5408 L 50.1439 56.8575 Z" stroke="none" fill="#000000" />
			<rect />
		</svg>
	</g>
	<path d="M 0 0 L 98.2178 -3.05176e-005" fill="none" stroke="#000000" stroke-width="2" stroke-linecap="round" stroke-linejoin="round" marker-end="url(#CustomMarker-05)" transform="matrix(0.5 0 0 0.5 488.979 83.9128)" />
</svg>
