<?xml version="1.0"?>
<svg xmlns="http://www.w3.org/2000/svg" xmlns:xlink="http://www.w3.org/1999/xlink" width="483.553406" height="441.164825">
	<defs>
		<marker id="CustomMarker-01" markerUnits="strokeWidth" markerWidth="15.000001" markerHeight="9" viewBox="-15 -4.5 15 9" orient="auto-start-reverse">
			<path d="M 0 -0 L -10 -3, -8 -0.5, -8 0.5, -10 3 Z" fill="#000000" stroke="#000000" stroke-linejoin="round" />
		</marker>
		<marker id="CustomMarker-02" markerUnits="strokeWidth" markerWidth="15.000001" markerHeight="9" viewBox="-15 -4.5 15 9" orient="auto-start-reverse">
			<path d="M 0 -0 L -10 -3, -8 -0.5, -8 0.5, -10 3 Z" fill="#000000" stroke="#000000" stroke-linejoin="round" />
		</marker>
		<marker id="CustomMarker-03" markerUnits="strokeWidth" markerWidth="15.000001" markerHeight="9" viewBox="-15 -4.5 15 9" orient="auto-start-reverse">
			<path d="M 0 -0 L -10 -3, -8 -0.5, -8 0.5, -10 3 Z" fill="#000000" stroke="#000000" stroke-linejoin="round" />
		</marker>
		<marker id="CustomMarker-04" markerUnits="strokeWidth" markerWidth="15.000001" markerHeight="9" viewBox="-15 -4.5 15 9" orient="auto-start-reverse">
			<path d="M 0 -0 L -10 -3, -8 -0.5, -8 0.5, -10 3 Z" fill="#000000" stroke="#000000" stroke-linejoin="round" />
		</marker>
		<marker id="CustomMarker-05" markerUnits="strokeWidth" markerWidth="15.000001" markerHeight="9" viewBox="-15 -4.5 15 9" orient="auto-start-reverse">
			<path d="M 0 -0 L -10 -3, -8 -0.5, -8 0.5, -10 3 Z" fill="#000000" stroke="#000000" stroke-linejoin="round" />
		</marker>
		<marker id="CustomMarker-06" markerUnits="strokeWidth" markerWidth="15.000001" markerHeight="9" viewBox="-15 -4.5 15 9" orient="auto-start-reverse">
			<path d="M 0 -0 L -10 -3, -8 -0.5, -8 0.5, -10 3 Z" fill="#000000" stroke="#000000" stroke-linejoin="round" />
		</marker>
		<marker id="CustomMarker-07" markerUnits="strokeWidth" markerWidth="15.000001" markerHeight="9" viewBox="-15 -4.5 15 9" orient="auto-start-reverse">
			<path d="M 0 -0 L -10 -3, -8 -0.5, -8 0.5, -10 3 Z" fill="#000000" stroke="#000000" stroke-linejoin="round" />
		</marker>
	</defs>
	<rect x="-0" y="-0" width="483.553406" height="441.164825" stroke="none" fill="#FFFFFF" />
	<rect x="-39.8543701" y="-26.5695801" width="79.7087402" height="53.1391602" stroke="none" fill="#4F56A7" fill-opacity="0.392156839" transform="matrix(0.714286 0 -0 0.714286 83.9131 414.187)" />
	<path d="M -39.8544 -26.5696 L 39.8544 -26.5696, 39.8544 26.5696, -39.8544 26.5696 Z" fill="none" stroke="#000000" stroke-width="1.39999998" stroke-linecap="round" stroke-linejoin="round" transform="matrix(0.714286 0 -0 0.714286 83.9131 414.187)" />
	<g transform="matrix(1 0 -0 1 65.9378 404.938)">
		<svg width="189.018036" height="123.085678">
			<defs />
			<path d="M 13.8128 10.0338 C 13.8128 10.5763, 13.7066 11.0887, 13.4943 11.5709, 13.282 12.0531, 12.9963 12.4706, 12.6378 12.8232, 12.2798 13.1759, 11.856 13.4579, 11.3666 13.6685, 10.8772 13.8799, 10.3536 13.9851, 9.7949 13.9851, 9.07832 13.9851, 8.39009 13.8475, 7.73019 13.5718, 7.07074 13.296, 6.49136 12.906, 5.99205 12.4017, 5.47834 11.8696, 5.08789 11.2736, 4.82069 10.6137, 4.55394 9.95423, 4.42034 9.26644, 4.42034 8.55121, 4.42034 7.83688, 4.55394 7.1482, 4.82069 6.48605, 5.08789 5.8239, 5.47834 5.23147, 5.99205 4.70787, 6.49136 4.20451, 7.07074 3.81226, 7.73019 3.53157, 8.39009 3.25088, 9.07832 3.11053, 9.7949 3.11008, 10.3734 3.11053, 10.8997 3.22838, 11.3738 3.46319, 11.8484 3.69846, 12.2411 3.99354, 12.5524 4.34801 L 13.3531 3.21804 C 13.3827 3.14651, 13.4471 3.11053, 13.546 3.11008 L 13.5906 3.11008 C 13.739 3.11053, 13.8128 3.18475, 13.8128 3.33319 L 13.8128 7.2629 C 13.8128 7.4073, 13.739 7.48152, 13.5906 7.48602 L 13.4201 7.48602 C 13.3013 7.48647, 13.2271 7.41944, 13.1974 7.28449, 13.1776 6.80048, 13.08 6.3412, 12.9046 5.90667, 12.7291 5.47258, 12.4957 5.09473, 12.2042 4.7731, 11.9127 4.45192, 11.5758 4.19507, 11.1925 4.00299, 10.8093 3.81136, 10.3932 3.7151, 9.94335 3.71465, 9.37476 3.7151, 8.84621 3.8352, 8.3568 4.07496, 7.86738 4.31517, 7.44994 4.65074, 7.10403 5.08213, 6.72347 5.56255, 6.46437 6.10099, 6.32582 6.69837, 6.18727 7.29574, 6.118 7.91335, 6.118 8.55121, 6.118 9.18502, 6.18727 9.80039, 6.32582 10.3978, 6.46437 10.9951, 6.72347 11.5336, 7.10403 12.0131, 7.45489 12.4454, 7.87773 12.785, 8.37164 13.032, 8.866 13.2794, 9.39455 13.4026, 9.95774 13.4022, 10.4229 13.4026, 10.8592 13.314, 11.2667 13.1363, 11.6743 12.9591, 12.0265 12.7153, 12.3229 12.4058, 12.6194 12.0963, 12.8542 11.7401, 13.0269 11.337, 13.2001 10.934, 13.2865 10.4999, 13.2865 10.0338, 13.2865 9.89035, 13.3584 9.81838, 13.5015 9.81793 L 13.5906 9.81793 C 13.739 9.81838, 13.8128 9.89035, 13.8128 10.0338 Z" stroke="none" fill="#000000" />
			<path d="M 22.7946 13.6613 L 14.7454 13.6613, 14.7454 13.0639 C 15.0171 13.0643, 15.2793 13.0607, 15.5312 13.0536, 15.7831 13.0464, 15.9734 13.0212, 16.1016 12.9775, 16.1709 12.9541, 16.2231 12.9074, 16.2577 12.8376, 16.2923 12.7684, 16.3094 12.6901, 16.3094 12.6033 L 16.3094 4.49195 C 16.3094 4.40604, 16.2923 4.32822, 16.2577 4.25849, 16.2231 4.18922, 16.1709 4.14199, 16.1016 4.1177, 15.9734 4.07496, 15.7831 4.05112, 15.5312 4.04617, 15.2793 4.04168, 15.0171 4.03898, 14.7454 4.03853 L 14.7454 3.44835 C 15.4916 3.47759, 16.2132 3.49198, 16.9095 3.49153, 17.0233 3.49198, 17.1394 3.48704, 17.2581 3.47714, 18.0588 3.47759, 18.8888 3.46814, 19.7484 3.44835 L 19.7484 4.03853, 19.2369 4.03853 C 19.084 4.03898, 18.9342 4.04168, 18.7884 4.04617, 18.6427 4.05112, 18.506 4.06057, 18.3773 4.07496, 18.2486 4.08936, 18.1474 4.106, 18.0732 4.12489, 17.9895 4.14918, 17.9239 4.19642, 17.8771 4.26569, 17.8303 4.33541, 17.8065 4.41098, 17.8065 4.49195 L 17.8065 12.6033 C 17.8065 12.6851, 17.8105 12.7598, 17.8177 12.8268, 17.8254 12.8943, 17.8564 12.9469, 17.9104 12.9847, 17.9599 13.0234, 18.044 13.0464, 18.1623 13.0536, 18.281 13.0607, 18.3944 13.0643, 18.5033 13.0639 L 19.7187 13.0639 C 20.119 13.0643, 20.5045 13.014, 20.8752 12.9132, 21.2459 12.8124, 21.5666 12.6276, 21.8383 12.3586, 22.155 12.0329, 22.361 11.6406, 22.4572 11.1823, 22.5535 10.7243, 22.6313 10.2408, 22.6907 9.73156 L 23.217 9.73156 Z" stroke="none" fill="#000000" />
			<path d="M 31.1798 10.8615 C 31.1798 11.2745, 31.1083 11.6694, 30.9653 12.0459, 30.8222 12.4229, 30.6045 12.7621, 30.313 13.0639, 30.0364 13.3522, 29.713 13.5776, 29.3423 13.7404, 28.9716 13.9037, 28.5839 13.9851, 28.1781 13.9851, 27.561 13.9851, 27.0077 13.8952, 26.5183 13.7153, 26.0293 13.5358, 25.6366 13.2969, 25.3397 12.9991 L 24.7765 13.8988 C 24.7172 13.9564, 24.6578 13.9851, 24.5984 13.9851 L 24.539 13.9851 C 24.4059 13.9851, 24.3343 13.9181, 24.3245 13.7836 L 24.3245 10.4081 C 24.3245 10.2696, 24.396 10.1949, 24.539 10.185 L 24.6281 10.185 C 24.7765 10.1854, 24.8503 10.2597, 24.8503 10.4081, 24.8503 10.8786, 24.9295 11.2988, 25.0878 11.6681, 25.2462 12.0378, 25.4684 12.3509, 25.7549 12.6073, 26.0414 12.8642, 26.391 13.0607, 26.8035 13.1975, 27.2164 13.3342, 27.6743 13.4026, 28.1781 13.4022, 28.4305 13.4026, 28.6716 13.3513, 28.901 13.2479, 29.1309 13.1449, 29.3346 12.9973, 29.5123 12.8048, 29.883 12.3973, 30.0661 11.9128, 30.0611 11.3509, 30.0611 11.1211, 30.0278 10.8971, 29.9613 10.6785, 29.8947 10.4603, 29.7944 10.2637, 29.6608 10.0883, 29.5276 9.91329, 29.372 9.7608, 29.1939 9.63125, 29.0162 9.5017, 28.816 9.41039, 28.5933 9.35731 L 26.6145 8.89668 C 26.2691 8.81571, 25.9564 8.68391, 25.6771 8.50128, 25.3982 8.3191, 25.1571 8.10318, 24.9547 7.85353, 24.7522 7.60432, 24.5966 7.32363, 24.4877 7.01145, 24.3789 6.69972, 24.3245 6.37584, 24.3245 6.03937, 24.3245 5.65611, 24.4 5.28545, 24.5507 4.92784, 24.7014 4.57067, 24.9173 4.25265, 25.1989 3.97375, 25.476 3.70565, 25.8021 3.49468, 26.1773 3.34084, 26.5529 3.18745, 26.9357 3.11053, 27.3262 3.11008, 27.875 3.11053, 28.354 3.20409, 28.7643 3.39122, 29.1745 3.57835, 29.4979 3.81091, 29.735 4.08891 L 30.2982 3.21804 C 30.3427 3.14651, 30.4043 3.11053, 30.4835 3.11008 L 30.5352 3.11008 C 30.6837 3.11053, 30.7575 3.18475, 30.7575 3.33319 L 30.7575 6.70871 C 30.7575 6.84366, 30.6837 6.91069, 30.5352 6.91024 L 30.4538 6.91024 C 30.3351 6.91069, 30.2608 6.85086, 30.2312 6.7303, 30.2118 6.26518, 30.129 5.84459, 29.9833 5.46763, 29.8376 5.09113, 29.6423 4.7686, 29.3976 4.4996, 29.1529 4.23105, 28.8592 4.02458, 28.5155 3.88064, 28.1723 3.73669, 27.776 3.66472, 27.3262 3.66427, 26.8075 3.66472, 26.3604 3.8496, 25.9843 4.21846, 25.8066 4.39164, 25.6694 4.59092, 25.5732 4.81628, 25.4769 5.0421, 25.4288 5.27915, 25.4288 5.52836, 25.4288 5.74473, 25.4661 5.94985, 25.5399 6.14418, 25.6141 6.3385, 25.714 6.51619, 25.8399 6.67677, 25.9659 6.83781, 26.1166 6.97546, 26.292 7.09062, 26.4674 7.20577, 26.6618 7.28494, 26.8741 7.32768 L 28.8452 7.7955 C 29.2015 7.87737, 29.5249 8.01816, 29.8164 8.21699, 30.1079 8.41626, 30.354 8.65017, 30.5541 8.91872, 30.7543 9.18772, 30.9086 9.48731, 31.017 9.81838, 31.1259 10.1495, 31.1798 10.4972, 31.1798 10.8615 Z" stroke="none" fill="#000000" />
			<polyline points="0.821018 -6.32953 -1.48137 -6.32953 -1.48137 6.32953 0.821018 6.32953" fill="none" stroke="#000000" stroke-width="0.707520008" stroke-linecap="round" stroke-linejoin="round" transform="matrix(1 0 -0 1 1.95305 9.24805)" />
			<polyline points="0.821018 -6.32953 -1.48137 -6.32953 -1.48137 6.32953 0.821018 6.32953" fill="none" stroke="#000000" stroke-width="0.707520008" stroke-linecap="round" stroke-linejoin="round" transform="matrix(-1 1.50996e-007 -1.50996e-007 -1 33.9974 9.24805)" />
			<rect />
		</svg>
	</g>
	<rect x="-39.8541565" y="-26.5695801" width="79.708313" height="53.1391602" stroke="none" fill="#4F56A7" fill-opacity="0.392156839" transform="matrix(0.714286 0 -0 0.714286 200.747 414.187)" />
	<path d="M -39.8542 -26.5696 L 39.8542 -26.5696, 39.8542 26.5696, -39.8542 26.5696 Z" fill="none" stroke="#000000" stroke-width="1.39999998" stroke-linecap="round" stroke-linejoin="round" transform="matrix(0.714286 0 -0 0.714286 200.747 414.187)" />
	<g transform="matrix(1 0 -0 1 194.089 405.335)">
		<svg width="44.9376793" height="32.9571381">
			<defs />
			<path d="M 9.18866 6.72714 C 9.3317 6.86658, 9.42077 7.05371, 9.45541 7.28852, 9.4653 7.40413, 9.47025 7.51434, 9.47025 7.6196, 9.47025 7.75455, 9.45811 7.8886, 9.43292 8.02264, 9.40368 8.29164, 9.35914 8.56199, 9.29977 8.83279, 9.24039 9.10403, 9.17876 9.34964, 9.11444 9.57006, 9.00108 9.97355, 8.87603 10.3982, 8.74018 10.8444, 8.60433 11.2907, 8.43115 11.7022, 8.22108 12.0788, 8.01146 12.4557, 7.75415 12.7697, 7.45007 13.0216, 7.14599 13.2735, 6.77173 13.399, 6.32685 13.399, 5.98138 13.399, 5.65885 13.3392, 5.35971 13.2191, 5.06103 13.0994, 4.82487 12.9051, 4.65168 12.6361, 4.63189 12.5983, 4.6121 12.5623, 4.59231 12.5286, 4.57251 12.4953, 4.57026 12.4926, 4.58466 12.5209, 4.45646 12.7324, 4.27113 12.9316, 4.02912 13.1188, 3.78711 13.3059, 3.49517 13.399, 3.1542 13.399, 2.79839 13.399, 2.46236 13.3414, 2.14613 13.2263, 1.82991 13.1116, 1.5852 12.9195, 1.41201 12.6505, 1.21949 12.368, 1.12277 12.0513, 1.12277 11.7004, 1.11288 11.6915, 1.10793 11.6672, 1.10793 11.6285, 1.10793 11.2884, 1.15246 10.9501, 1.24153 10.6137, 1.3207 10.283, 1.43585 9.91867, 1.58655 9.52013, 1.73724 9.12203, 1.88164 8.73562, 2.01973 8.36092, 2.16818 7.96327, 2.2424 7.63669, 2.2424 7.38209, 2.2424 7.16662, 2.15108 7.05866, 1.968 7.05821, 1.80022 7.05866, 1.64817 7.10679, 1.51233 7.20261, 1.37648 7.29887, 1.25277 7.43202, 1.14167 7.60206, 1.03056 7.77254, 0.930247 7.97406, 0.841181 8.20662, 0.752115 8.43964, 0.678343 8.68749, 0.618965 8.95109, 0.564536 9.08109, 0.473221 9.14812, 0.34457 9.15262 L 0.174084 9.15262 C 0.0553295 9.15307, -0.00404793 9.09324, -0.00404793 8.97268 L -0.00404793 8.9223 C 0.0652258 8.6587, 0.156991 8.38926, 0.270348 8.11306, 0.384155 7.83732, 0.52765 7.58676, 0.700384 7.36095, 0.873569 7.13558, 1.07149 6.94845, 1.29371 6.79956, 1.51592 6.65112, 1.77053 6.57645, 2.05707 6.57599, 2.30447 6.57645, 2.51544 6.62952, 2.69088 6.73478, 2.86631 6.84049, 2.99991 6.98084, 3.09123 7.15582, 3.18299 7.33126, 3.23337 7.52873, 3.24327 7.74915 L 3.24327 7.79953 C 3.24327 8.00645, 3.20143 8.21967, 3.11687 8.44009, 2.97382 8.81479, 2.83212 9.1976, 2.69088 9.5885, 2.55008 9.97985, 2.43987 10.3312, 2.3607 10.6425, 2.28198 10.9645, 2.2325 11.2763, 2.21271 11.5781, 2.20281 11.6361, 2.19787 11.6865, 2.19787 11.7292, 2.19787 11.9649, 2.24015 12.1831, 2.32382 12.3842, 2.39804 12.5574, 2.51544 12.6905, 2.67603 12.7841, 2.83662 12.8777, 3.02555 12.9244, 3.24327 12.924, 3.48078 12.9244, 3.6931 12.8129, 3.88068 12.5898, 4.0687 12.3666, 4.24144 12.0752, 4.39933 11.7148 L 4.39933 11.5853 C 4.39933 11.4512, 4.40922 11.3172, 4.42902 11.1822, 4.44881 10.9906, 4.48345 10.8012, 4.53293 10.6137 L 5.38535 7.26693 C 5.43034 7.0897, 5.5203 6.95925, 5.65615 6.87513, 5.792 6.79146, 5.9292 6.74918, 6.06729 6.74873, 6.21079 6.74918, 6.32955 6.79236, 6.42356 6.87828, 6.48788 6.94126, 6.51982 7.02492, 6.51982 7.13018, 6.51982 7.18326, 6.51487 7.23859, 6.50498 7.29572 L 5.63771 10.6425 C 5.55854 10.9645, 5.50906 11.2763, 5.48926 11.5781, 5.47937 11.6456, 5.47442 11.7058, 5.47442 11.758, 5.47442 11.9838, 5.50681 12.1953, 5.57068 12.3914, 5.63546 12.5551, 5.74027 12.6847, 5.88601 12.7805, 6.03176 12.8768, 6.20359 12.9244, 6.40107 12.924, 6.69256 12.9244, 6.94581 12.8345, 7.16083 12.6545, 7.37585 12.4746, 7.56253 12.2263, 7.72087 11.9096, 7.87921 11.5929, 8.02 11.2272, 8.14326 10.812, 8.26696 10.3973, 8.38571 9.9713, 8.49907 9.53407, 8.54855 9.31365, 8.57329 9.10268, 8.57329 8.90071, 8.57329 8.76666, 8.5634 8.63981, 8.5436 8.51926, 8.48962 8.20797, 8.35108 7.94393, 8.12841 7.72756, 8.02495 7.62725, 7.97052 7.50714, 7.96512 7.36769, 7.96512 7.33441, 7.97007 7.29617, 7.97997 7.25254, 8.01505 7.08025, 8.09917 6.93271, 8.23232 6.81036, 8.36592 6.688, 8.51661 6.61018, 8.6844 6.57599, 8.71904 6.567, 8.75862 6.56205, 8.80315 6.5616, 8.94665 6.56205, 9.0753 6.61738, 9.18866 6.72714 Z" stroke="none" fill="#000000" />
			<path d="M 1.86424 2.51203 C 1.35514 2.49591, 0.859898 2.48785, 0.378257 2.48785, -0.103133 2.48785, -0.598376 2.49591, -1.10748 2.51203 L -1.10748 2.16541, -0.82106 2.16541 C -0.72987 2.16566, -0.643971 2.1644, -0.563866 2.16163, -0.483508 2.15911, -0.407433 2.15231, -0.335388 2.14148, -0.263344 2.1309, -0.201123 2.12007, -0.148727 2.10898, -0.104392 2.10117, -0.067866 2.07649, -0.0388969 2.03467, -0.0096761 1.99311, 0.00468242 1.94676, 0.00468242 1.89537 L 0.00468242 -2.64697 C -0.133361 -2.57946, -0.303648 -2.52832, -0.505676 -2.49356, -0.707703 -2.45855, -0.928875 -2.44116, -1.1697 -2.44142 L -1.1697 -2.78401 C -0.837685 -2.78375, -0.531118 -2.8233, -0.250245 -2.90265, 0.0306287 -2.98175, 0.273464 -3.13037, 0.478011 -3.34827 L 0.606734 -3.34827 C 0.697923 -3.34802, 0.743518 -3.30368, 0.743518 -3.21527 L 0.743518 1.89537 C 0.743518 1.94928, 0.757372 1.99638, 0.785082 2.03669, 0.812791 2.07699, 0.853096 2.10117, 0.905492 2.10898, 0.949827 2.12007, 1.00676 2.1309, 1.07578 2.14148, 1.1448 2.15231, 1.22289 2.15911, 1.31005 2.16163, 1.39721 2.1644, 1.48235 2.16566, 1.56548 2.16541 L 1.86424 2.16541, 1.86424 2.51203 Z" stroke="none" fill="#000000" transform="matrix(1.12 0 0 1 11.4095 12.8121)" />
			<rect />
		</svg>
	</g>
	<rect x="-39.854187" y="-26.5695801" width="79.708374" height="53.1391602" stroke="none" fill="#4F56A7" fill-opacity="0.392156839" transform="matrix(0.714286 0 -0 0.714286 317.579 414.187)" />
	<path d="M -39.8542 -26.5696 L 39.8542 -26.5696, 39.8542 26.5696, -39.8542 26.5696 Z" fill="none" stroke="#000000" stroke-width="1.39999998" stroke-linecap="round" stroke-linejoin="round" transform="matrix(0.714286 0 -0 0.714286 317.579 414.187)" />
	<g transform="matrix(1 0 -0 1 310.58 405.335)">
		<svg width="48.0251122" height="32.9571381">
			<defs />
			<path d="M 9.18866 6.72714 C 9.3317 6.86658, 9.42077 7.05371, 9.45541 7.28852, 9.4653 7.40413, 9.47025 7.51434, 9.47025 7.6196, 9.47025 7.75455, 9.45811 7.8886, 9.43292 8.02264, 9.40368 8.29164, 9.35914 8.56199, 9.29977 8.83279, 9.24039 9.10403, 9.17876 9.34964, 9.11444 9.57006, 9.00108 9.97355, 8.87603 10.3982, 8.74018 10.8444, 8.60433 11.2907, 8.43115 11.7022, 8.22108 12.0788, 8.01146 12.4557, 7.75415 12.7697, 7.45007 13.0216, 7.14599 13.2735, 6.77173 13.399, 6.32685 13.399, 5.98138 13.399, 5.65885 13.3392, 5.35971 13.2191, 5.06103 13.0994, 4.82487 12.9051, 4.65168 12.6361, 4.63189 12.5983, 4.6121 12.5623, 4.59231 12.5286, 4.57251 12.4953, 4.57026 12.4926, 4.58466 12.5209, 4.45646 12.7324, 4.27113 12.9316, 4.02912 13.1188, 3.78711 13.3059, 3.49517 13.399, 3.1542 13.399, 2.79839 13.399, 2.46236 13.3414, 2.14613 13.2263, 1.82991 13.1116, 1.5852 12.9195, 1.41201 12.6505, 1.21949 12.368, 1.12277 12.0513, 1.12277 11.7004, 1.11288 11.6915, 1.10793 11.6672, 1.10793 11.6285, 1.10793 11.2884, 1.15246 10.9501, 1.24153 10.6137, 1.3207 10.283, 1.43585 9.91867, 1.58655 9.52013, 1.73724 9.12203, 1.88164 8.73562, 2.01973 8.36092, 2.16818 7.96327, 2.2424 7.63669, 2.2424 7.38209, 2.2424 7.16662, 2.15108 7.05866, 1.968 7.05821, 1.80022 7.05866, 1.64817 7.10679, 1.51233 7.20261, 1.37648 7.29887, 1.25277 7.43202, 1.14167 7.60206, 1.03056 7.77254, 0.930247 7.97406, 0.841181 8.20662, 0.752115 8.43964, 0.678343 8.68749, 0.618965 8.95109, 0.564536 9.08109, 0.473221 9.14812, 0.34457 9.15262 L 0.174084 9.15262 C 0.0553295 9.15307, -0.00404793 9.09324, -0.00404793 8.97268 L -0.00404793 8.9223 C 0.0652258 8.6587, 0.156991 8.38926, 0.270348 8.11306, 0.384155 7.83732, 0.52765 7.58676, 0.700384 7.36095, 0.873569 7.13558, 1.07149 6.94845, 1.29371 6.79956, 1.51592 6.65112, 1.77053 6.57645, 2.05707 6.57599, 2.30447 6.57645, 2.51544 6.62952, 2.69088 6.73478, 2.86631 6.84049, 2.99991 6.98084, 3.09123 7.15582, 3.18299 7.33126, 3.23337 7.52873, 3.24327 7.74915 L 3.24327 7.79953 C 3.24327 8.00645, 3.20143 8.21967, 3.11687 8.44009, 2.97382 8.81479, 2.83212 9.1976, 2.69088 9.5885, 2.55008 9.97985, 2.43987 10.3312, 2.3607 10.6425, 2.28198 10.9645, 2.2325 11.2763, 2.21271 11.5781, 2.20281 11.6361, 2.19787 11.6865, 2.19787 11.7292, 2.19787 11.9649, 2.24015 12.1831, 2.32382 12.3842, 2.39804 12.5574, 2.51544 12.6905, 2.67603 12.7841, 2.83662 12.8777, 3.02555 12.9244, 3.24327 12.924, 3.48078 12.9244, 3.6931 12.8129, 3.88068 12.5898, 4.0687 12.3666, 4.24144 12.0752, 4.39933 11.7148 L 4.39933 11.5853 C 4.39933 11.4512, 4.40922 11.3172, 4.42902 11.1822, 4.44881 10.9906, 4.48345 10.8012, 4.53293 10.6137 L 5.38535 7.26693 C 5.43034 7.0897, 5.5203 6.95925, 5.65615 6.87513, 5.792 6.79146, 5.9292 6.74918, 6.06729 6.74873, 6.21079 6.74918, 6.32955 6.79236, 6.42356 6.87828, 6.48788 6.94126, 6.51982 7.02492, 6.51982 7.13018, 6.51982 7.18326, 6.51487 7.23859, 6.50498 7.29572 L 5.63771 10.6425 C 5.55854 10.9645, 5.50906 11.2763, 5.48926 11.5781, 5.47937 11.6456, 5.47442 11.7058, 5.47442 11.758, 5.47442 11.9838, 5.50681 12.1953, 5.57068 12.3914, 5.63546 12.5551, 5.74027 12.6847, 5.88601 12.7805, 6.03176 12.8768, 6.20359 12.9244, 6.40107 12.924, 6.69256 12.9244, 6.94581 12.8345, 7.16083 12.6545, 7.37585 12.4746, 7.56253 12.2263, 7.72087 11.9096, 7.87921 11.5929, 8.02 11.2272, 8.14326 10.812, 8.26696 10.3973, 8.38571 9.9713, 8.49907 9.53407, 8.54855 9.31365, 8.57329 9.10268, 8.57329 8.90071, 8.57329 8.76666, 8.5634 8.63981, 8.5436 8.51926, 8.48962 8.20797, 8.35108 7.94393, 8.12841 7.72756, 8.02495 7.62725, 7.97052 7.50714, 7.96512 7.36769, 7.96512 7.33441, 7.97007 7.29617, 7.97997 7.25254, 8.01505 7.08025, 8.09917 6.93271, 8.23232 6.81036, 8.36592 6.688, 8.51661 6.61018, 8.6844 6.57599, 8.71904 6.567, 8.75862 6.56205, 8.80315 6.5616, 8.94665 6.56205, 9.0753 6.61738, 9.18866 6.72714 Z" stroke="none" fill="#000000" />
			<path d="M 1.87894 2.51203 L -1.4996 2.51203, -1.4996 2.29035 C -1.4996 2.27448, -1.49129 2.2503, -1.47466 2.21781 L -0.1174 0.742655 C 0.0433152 0.565566, 0.205793 0.384195, 0.370539 0.198793, 0.535284 0.0133917, 0.682396 -0.17604, 0.812379 -0.369503, 0.942362 -0.562965, 1.04615 -0.762474, 1.12373 -0.968027, 1.20132 -1.17358, 1.23986 -1.38921, 1.23986 -1.61517, 1.23986 -1.80561, 1.21517 -1.98371, 1.1653 -2.14895, 1.11542 -2.3142, 1.04363 -2.4593, 0.949415 -2.58425, 0.855203 -2.70919, 0.737563 -2.80995, 0.596497 -2.88653, 0.455431 -2.96311, 0.292197 -3.0014, 0.106795 -3.00165, -0.169796 -3.0014, -0.414143 -2.91877, -0.625743 -2.75353, -0.837342 -2.58828, -0.977905 -2.40615, -1.04718 -2.20765, -1.06078 -2.20211, -1.03861 -2.19934, -0.980676 -2.19959 L -0.910143 -2.19959 C -0.827014 -2.18044, -0.755221 -2.15147, -0.694261 -2.11268, -0.6333 -2.07364, -0.582163 -2.01998, -0.540599 -1.95146, -0.499035 -1.88294, -0.478379 -1.80032, -0.478379 -1.70384, -0.478379 -1.54237, -0.530775 -1.41868, -0.636071 -1.33278, -0.741367 -1.24663, -0.859006 -1.20381, -0.988989 -1.20406, -1.11343 -1.20381, -1.22956 -1.24663, -1.33762 -1.33278, -1.44544 -1.41868, -1.4996 -1.54237, -1.4996 -1.70384, -1.4996 -1.92929, -1.45526 -2.14291, -1.36659 -2.34443, -1.27792 -2.54596, -1.15776 -2.72053, -1.00561 -2.86839, -0.853464 -3.01601, -0.673604 -3.13289, -0.466035 -3.21904, -0.258466 -3.30494, -0.0383018 -3.34802, 0.193954 -3.34827, 0.481629 -3.34802, 0.745372 -3.3057, 0.984681 -3.22106, 1.22399 -3.13642, 1.42803 -3.01475, 1.59681 -2.8563, 1.76558 -2.6976, 1.89783 -2.51422, 1.99331 -2.30614, 2.08878 -2.09782, 2.13639 -1.86758, 2.13639 -1.61517, 2.13639 -1.33556, 2.07291 -1.07811, 1.94544 -0.843083, 1.81823 -0.607804, 1.66054 -0.392174, 1.47237 -0.196193, 1.2842 4.07696e-005, 1.08418 0.184687, 0.872584 0.357997, 0.660985 0.531307, 0.469285 0.699831, 0.297738 0.863569 L -0.656979 1.76236, 0.592466 1.76236 C 0.766784 1.76262, 0.929514 1.76136, 1.08015 1.75858, 1.23104 1.75607, 1.35901 1.75052, 1.46406 1.74246, 1.56935 1.7344, 1.62326 1.72911, 1.62578 1.72609, 1.64795 1.70745, 1.66885 1.66991, 1.68825 1.61349, 1.70765 1.55706, 1.72553 1.49056, 1.74216 1.41398, 1.75878 1.3374, 1.77541 1.25956, 1.79203 1.18021, 1.80866 1.10111, 1.82377 1.01421, 1.83763 0.919995 L 2.1447 0.919995 Z" stroke="none" fill="#000000" transform="matrix(1.12 0 0 1 11.7418 12.8121)" />
			<rect />
		</svg>
	</g>
	<rect x="-39.8545532" y="-26.5695801" width="79.7091064" height="53.1391602" stroke="none" fill="#4F56A7" fill-opacity="0.392156839" transform="matrix(0.714286 0 -0 0.714286 434.413 414.187)" />
	<path d="M -39.8546 -26.5696 L 39.8546 -26.5696, 39.8546 26.5696, -39.8546 26.5696 Z" fill="none" stroke="#000000" stroke-width="1.39999998" stroke-linecap="round" stroke-linejoin="round" transform="matrix(0.714286 0 -0 0.714286 434.413 414.187)" />
	<g transform="matrix(1 0 -0 1 427.337 405.335)">
		<svg width="48.0251122" height="32.9571381">
			<defs />
			<path d="M 9.18866 6.72714 C 9.3317 6.86658, 9.42077 7.05371, 9.45541 7.28852, 9.4653 7.40413, 9.47025 7.51434, 9.47025 7.6196, 9.47025 7.75455, 9.45811 7.8886, 9.43292 8.02264, 9.40368 8.29164, 9.35914 8.56199, 9.29977 8.83279, 9.24039 9.10403, 9.17876 9.34964, 9.11444 9.57006, 9.00108 9.97355, 8.87603 10.3982, 8.74018 10.8444, 8.60433 11.2907, 8.43115 11.7022, 8.22108 12.0788, 8.01146 12.4557, 7.75415 12.7697, 7.45007 13.0216, 7.14599 13.2735, 6.77173 13.399, 6.32685 13.399, 5.98138 13.399, 5.65885 13.3392, 5.35971 13.2191, 5.06103 13.0994, 4.82487 12.9051, 4.65168 12.6361, 4.63189 12.5983, 4.6121 12.5623, 4.59231 12.5286, 4.57251 12.4953, 4.57026 12.4926, 4.58466 12.5209, 4.45646 12.7324, 4.27113 12.9316, 4.02912 13.1188, 3.78711 13.3059, 3.49517 13.399, 3.1542 13.399, 2.79839 13.399, 2.46236 13.3414, 2.14613 13.2263, 1.82991 13.1116, 1.5852 12.9195, 1.41201 12.6505, 1.21949 12.368, 1.12277 12.0513, 1.12277 11.7004, 1.11288 11.6915, 1.10793 11.6672, 1.10793 11.6285, 1.10793 11.2884, 1.15246 10.9501, 1.24153 10.6137, 1.3207 10.283, 1.43585 9.91867, 1.58655 9.52013, 1.73724 9.12203, 1.88164 8.73562, 2.01973 8.36092, 2.16818 7.96327, 2.2424 7.63669, 2.2424 7.38209, 2.2424 7.16662, 2.15108 7.05866, 1.968 7.05821, 1.80022 7.05866, 1.64817 7.10679, 1.51233 7.20261, 1.37648 7.29887, 1.25277 7.43202, 1.14167 7.60206, 1.03056 7.77254, 0.930247 7.97406, 0.841181 8.20662, 0.752115 8.43964, 0.678343 8.68749, 0.618965 8.95109, 0.564536 9.08109, 0.473221 9.14812, 0.34457 9.15262 L 0.174084 9.15262 C 0.0553295 9.15307, -0.00404793 9.09324, -0.00404793 8.97268 L -0.00404793 8.9223 C 0.0652258 8.6587, 0.156991 8.38926, 0.270348 8.11306, 0.384155 7.83732, 0.52765 7.58676, 0.700384 7.36095, 0.873569 7.13558, 1.07149 6.94845, 1.29371 6.79956, 1.51592 6.65112, 1.77053 6.57645, 2.05707 6.57599, 2.30447 6.57645, 2.51544 6.62952, 2.69088 6.73478, 2.86631 6.84049, 2.99991 6.98084, 3.09123 7.15582, 3.18299 7.33126, 3.23337 7.52873, 3.24327 7.74915 L 3.24327 7.79953 C 3.24327 8.00645, 3.20143 8.21967, 3.11687 8.44009, 2.97382 8.81479, 2.83212 9.1976, 2.69088 9.5885, 2.55008 9.97985, 2.43987 10.3312, 2.3607 10.6425, 2.28198 10.9645, 2.2325 11.2763, 2.21271 11.5781, 2.20281 11.6361, 2.19787 11.6865, 2.19787 11.7292, 2.19787 11.9649, 2.24015 12.1831, 2.32382 12.3842, 2.39804 12.5574, 2.51544 12.6905, 2.67603 12.7841, 2.83662 12.8777, 3.02555 12.9244, 3.24327 12.924, 3.48078 12.9244, 3.6931 12.8129, 3.88068 12.5898, 4.0687 12.3666, 4.24144 12.0752, 4.39933 11.7148 L 4.39933 11.5853 C 4.39933 11.4512, 4.40922 11.3172, 4.42902 11.1822, 4.44881 10.9906, 4.48345 10.8012, 4.53293 10.6137 L 5.38535 7.26693 C 5.43034 7.0897, 5.5203 6.95925, 5.65615 6.87513, 5.792 6.79146, 5.9292 6.74918, 6.06729 6.74873, 6.21079 6.74918, 6.32955 6.79236, 6.42356 6.87828, 6.48788 6.94126, 6.51982 7.02492, 6.51982 7.13018, 6.51982 7.18326, 6.51487 7.23859, 6.50498 7.29572 L 5.63771 10.6425 C 5.55854 10.9645, 5.50906 11.2763, 5.48926 11.5781, 5.47937 11.6456, 5.47442 11.7058, 5.47442 11.758, 5.47442 11.9838, 5.50681 12.1953, 5.57068 12.3914, 5.63546 12.5551, 5.74027 12.6847, 5.88601 12.7805, 6.03176 12.8768, 6.20359 12.9244, 6.40107 12.924, 6.69256 12.9244, 6.94581 12.8345, 7.16083 12.6545, 7.37585 12.4746, 7.56253 12.2263, 7.72087 11.9096, 7.87921 11.5929, 8.02 11.2272, 8.14326 10.812, 8.26696 10.3973, 8.38571 9.9713, 8.49907 9.53407, 8.54855 9.31365, 8.57329 9.10268, 8.57329 8.90071, 8.57329 8.76666, 8.5634 8.63981, 8.5436 8.51926, 8.48962 8.20797, 8.35108 7.94393, 8.12841 7.72756, 8.02495 7.62725, 7.97052 7.50714, 7.96512 7.36769, 7.96512 7.33441, 7.97007 7.29617, 7.97997 7.25254, 8.01505 7.08025, 8.09917 6.93271, 8.23232 6.81036, 8.36592 6.688, 8.51661 6.61018, 8.6844 6.57599, 8.71904 6.567, 8.75862 6.56205, 8.80315 6.5616, 8.94665 6.56205, 9.0753 6.61738, 9.18866 6.72714 Z" stroke="none" fill="#000000" />
			<path d="M 2.21517 0.992544 C 2.21517 1.22379, 2.16404 1.44572, 2.06176 1.65782, 1.95949 1.87018, 1.82245 2.05155, 1.65066 2.20168, 1.45719 2.37122, 1.24333 2.49666, 1.00956 2.57853, 0.775792 2.66065, 0.531445 2.70146, 0.27677 2.70146, 0.0472851 2.70146, -0.176658 2.66922, -0.395311 2.60473, -0.613964 2.54024, -0.810953 2.44779, -0.986782 2.32688, -1.16261 2.20597, -1.30292 2.0576, -1.40822 1.88151, -1.51326 1.70568, -1.56591 1.50341, -1.56591 1.27468, -1.56591 1.10288, -1.50848 0.974659, -1.39361 0.890019, -1.27874 0.805379, -1.15783 0.763059, -1.03061 0.762807, -0.897608 0.763059, -0.773923 0.805379, -0.659055 0.890019, -0.544186 0.974659, -0.486752 1.10288, -0.486752 1.27468, -0.486752 1.37695, -0.506652 1.46235, -0.546957 1.53086, -0.58701 1.59938, -0.638147 1.65656, -0.700619 1.70216, -0.762839 1.748, -0.834128 1.77597, -0.914234 1.78655, -0.955546 1.79763, -0.994339 1.80292, -1.03061 1.80267, -1.06638 1.80292, -1.07193 1.80569, -1.04724 1.81073, -0.96134 1.96137, -0.792564 2.09462, -0.54066 2.21, -0.288755 2.32562, -0.0164467 2.38331, 0.27677 2.38306, 0.415317 2.38331, 0.544544 2.34905, 0.664954 2.28053, 0.785365 2.21201, 0.885875 2.12007, 0.96598 2.00419, 1.06573 1.85406, 1.1335 1.69284, 1.16927 1.52079, 1.20529 1.34899, 1.22317 1.17291, 1.22317 0.992544, 1.22317 0.807394, 1.20529 0.62955, 1.16927 0.458759, 1.1335 0.288219, 1.06573 0.130275, 0.96598 -0.0150735, 0.882852 -0.132965, 0.781838 -0.228436, 0.662939 -0.300985, 0.54404 -0.373533, 0.415317 -0.409807, 0.27677 -0.410059 L -0.325029 -0.410059 C -0.405135 -0.409807, -0.447959 -0.447341, -0.453501 -0.522913 L -0.453501 -0.567248 C -0.453501 -0.59924, -0.443676 -0.624682, -0.424532 -0.643827, -0.399593 -0.667758, -0.367853 -0.679849, -0.32906 -0.680101, -0.248703 -0.690681, -0.165826 -0.695971, -0.0801785 -0.696223, 0.00294983 -0.695971, 0.0848188 -0.701261, 0.164924 -0.712345, 0.314304 -0.722924, 0.444286 -0.769023, 0.554872 -0.851144, 0.66571 -0.933013, 0.758411 -1.0378, 0.832974 -1.16552, 0.90779 -1.29298, 0.964468 -1.4401, 1.00326 -1.60686, 1.04206 -1.77337, 1.06145 -1.94416, 1.06145 -2.11898, 1.06145 -2.2477, 1.0476 -2.36987, 1.01989 -2.4855, 0.992178 -2.60087, 0.941041 -2.70188, 0.866226 -2.78804, 0.711305 -2.96513, 0.514819 -3.05254, 0.27677 -3.05002, 0.0223465 -3.04976, -0.210665 -3.0019, -0.422265 -2.90668, -0.633864 -2.81121, -0.775938 -2.70843, -0.847983 -2.5986, -0.867128 -2.59558, -0.857555 -2.59432, -0.818762 -2.59457, -0.719008 -2.59432, -0.625048 -2.56485, -0.536629 -2.5059, -0.403624 -2.42781, -0.337373 -2.29607, -0.337373 -2.11092, -0.337373 -1.95474, -0.387754 -1.8371, -0.488767 -1.758, -0.589781 -1.67865, -0.702634 -1.6391, -0.827075 -1.63935, -0.948745 -1.6391, -1.06286 -1.67789, -1.16941 -1.75598, -1.27597 -1.83382, -1.32937 -1.95222, -1.32937 -2.11092, -1.32937 -2.3069, -1.28227 -2.47996, -1.18831 -2.6306, -1.09409 -2.78098, -0.973179 -2.90996, -0.82506 -3.01752, -0.67694 -3.12483, -0.506149 -3.20695, -0.312434 -3.26338, -0.11872 -3.31981, 0.0777655 -3.34802, 0.27677 -3.34827, 0.489881 -3.34802, 0.69619 -3.31981, 0.895447 -3.26338, 1.0947 -3.20695, 1.28288 -3.11954, 1.45971 -3.00165, 1.6038 -2.89938, 1.72472 -2.77368, 1.82296 -2.62455, 1.9212 -2.47542, 1.97032 -2.3069, 1.97032 -2.11898, 1.97032 -1.93055, 1.93657 -1.75321, 1.8688 -1.5867, 1.80104 -1.41994, 1.71111 -1.26956, 1.59902 -1.13529, 1.48692 -1.00078, 1.35341 -0.882632, 1.19849 -0.780611, 1.04357 -0.678338, 0.927187 -0.614102, 0.8496 -0.5874, 0.916103 -0.579087, 1.02971 -0.539286, 1.19017 -0.468249, 1.35064 -0.39696, 1.50405 -0.302244, 1.65066 -0.184353, 1.82245 -0.0362334, 1.95949 0.140352, 2.06176 0.345905, 2.16404 0.551459, 2.21517 0.767089, 2.21517 0.992544 Z" stroke="none" fill="#000000" transform="matrix(1.12 0 0 1 11.808 12.8121)" />
			<rect />
		</svg>
	</g>
	<rect x="-305.549316" y="-26.5695496" width="611.098633" height="53.1390991" stroke="none" fill="#F4FF00" fill-opacity="0.392156839" transform="matrix(0.714286 0 -0 0.714286 257.304 349.729)" />
	<path d="M -305.549 -26.5695 L 305.549 -26.5695, 305.549 26.5695, -305.549 26.5695 Z" fill="none" stroke="#000000" stroke-width="1.39999998" stroke-linecap="round" stroke-linejoin="round" transform="matrix(0.714286 0 -0 0.714286 257.304 349.729)" />
	<g transform="matrix(1 0 -0 1 236.358 340.923)">
		<svg width="128.941681" height="36.0428467">
			<defs />
			<path d="M 9.48029 10.4481 C 9.48029 10.8323, 9.38763 11.1935, 9.2023 11.5318, 9.01697 11.87, 8.77136 12.1615, 8.46458 12.4058, 8.12361 12.6847, 7.74575 12.8898, 7.33056 13.0216, 6.91581 13.1534, 6.49073 13.2191, 6.05529 13.2191 L -0.00120646 13.2191, -0.00120646 12.6217 C 0.27094 12.6221, 0.53319 12.6185, 0.785095 12.6114, 1.037 12.6042, 1.22728 12.579, 1.35548 12.5353, 1.42475 12.5119, 1.47693 12.4652, 1.51157 12.3954, 1.54621 12.3262, 1.5633 12.2479, 1.5633 12.1611 L 1.5633 4.04975 C 1.5633 3.96384, 1.54621 3.88602, 1.51157 3.81629, 1.47693 3.74702, 1.42475 3.69979, 1.35548 3.6755, 1.22728 3.63276, 1.037 3.60892, 0.785095 3.60397, 0.53319 3.59948, 0.27094 3.59678, -0.00120646 3.59633 L -0.00120646 3.00615, 5.62571 3.00615 C 6.05574 3.0066, 6.48038 3.06418, 6.90052 3.17934, 7.32066 3.29449, 7.70122 3.48387, 8.04219 3.74747, 8.34357 3.97823, 8.58828 4.24813, 8.77631 4.55761, 8.96434 4.86709, 9.0579 5.20402, 9.0579 5.56838, 9.0579 5.92869, 8.96299 6.25887, 8.77271 6.55845, 8.58243 6.85849, 8.33907 7.11399, 8.04219 7.32451, 7.57796 7.63219, 7.23204 7.80943, 7.00443 7.85711, 7.01928 7.85756, 7.19471 7.92008, 7.53073 8.04469, 7.8672 8.16974, 8.17848 8.34202, 8.46458 8.56244, 8.76641 8.7932, 9.01112 9.0703, 9.1987 9.39417, 9.38673 9.71805, 9.48029 10.0694, 9.48029 10.4481 Z M 7.43447 5.56838 C 7.43447 5.04118, 7.25409 4.57785, 6.89332 4.17931, 6.72509 3.99757, 6.53256 3.85498, 6.31484 3.75152, 6.09758 3.64851, 5.86771 3.59678, 5.62571 3.59633 L 3.68334 3.59633 C 3.56999 3.59678, 3.45258 3.59948, 3.33113 3.60397, 3.21012 3.60892, 3.12511 3.63051, 3.07562 3.6683, 3.0212 3.70698, 2.99016 3.76231, 2.98296 3.83429, 2.97576 3.90626, 2.97171 3.97823, 2.97171 4.04975 L 2.97171 7.67718, 5.20287 7.67718 C 5.4948 7.67763, 5.77775 7.6214, 6.05214 7.50849, 6.32654 7.39603, 6.5672 7.24354, 6.77457 7.05101, 7.2145 6.64347, 7.43447 6.14956, 7.43447 5.56838 Z M 7.81232 10.4481 C 7.81232 10.1463, 7.76329 9.85615, 7.66433 9.5777, 7.56537 9.29971, 7.41962 9.04511, 7.22665 8.81434, 7.05391 8.60832, 6.84789 8.44548, 6.60813 8.32538, 6.36837 8.20573, 6.11242 8.14545, 5.84072 8.145 L 2.97171 8.145, 2.97171 12.1611 C 2.97171 12.2429, 2.97576 12.3176, 2.98296 12.3846, 2.99016 12.4521, 3.0212 12.5047, 3.07562 12.5425, 3.12511 12.5812, 3.21147 12.6042, 3.33473 12.6114, 3.45843 12.6185, 3.57448 12.6221, 3.68334 12.6217 L 5.62571 12.6217 C 5.9073 12.6221, 6.18304 12.5673, 6.45204 12.4566, 6.72149 12.3464, 6.9599 12.1903, 7.16727 11.9883, 7.37014 11.7778, 7.52848 11.5403, 7.64184 11.2763, 7.75565 11.0127, 7.81232 10.7365, 7.81232 10.4481 Z" stroke="none" fill="#000000" />
			<path d="M 19.1927 13.2191 L 10.3207 13.2191, 10.3207 12.6217 C 10.5924 12.6221, 10.8546 12.6185, 11.1065 12.6114, 11.3584 12.6042, 11.5487 12.579, 11.6769 12.5353, 11.7462 12.5119, 11.7984 12.4652, 11.833 12.3954, 11.8676 12.3262, 11.8847 12.2479, 11.8847 12.1611 L 11.8847 4.10013 C 11.8847 4.01422, 11.8676 3.93505, 11.833 3.86308, 11.7984 3.7911, 11.7462 3.74297, 11.6769 3.71868, 11.5487 3.67595, 11.3584 3.65211, 11.1065 3.64716, 10.8546 3.64266, 10.5924 3.63996, 10.3207 3.63951 L 10.3207 3.03494, 18.9925 3.03494, 19.4297 6.49682, 18.9034 6.49682 C 18.8692 6.24762, 18.8359 6.01416, 18.8036 5.79554, 18.7716 5.57737, 18.7271 5.3673, 18.6704 5.16578, 18.6137 4.96426, 18.5359 4.77713, 18.4369 4.60439, 18.338 4.43166, 18.2143 4.28052, 18.0658 4.15052, 17.9228 4.03086, 17.7546 3.93505, 17.562 3.86308, 17.3695 3.7911, 17.1666 3.73847, 16.9543 3.70474, 16.742 3.67145, 16.5207 3.65211, 16.2908 3.64716, 16.0614 3.64266, 15.8351 3.63996, 15.6129 3.63951 L 14.0786 3.63951 C 13.9652 3.63996, 13.8514 3.64266, 13.7376 3.64716, 13.6242 3.65211, 13.5401 3.6737, 13.4857 3.71148, 13.4317 3.75017, 13.4007 3.8055, 13.393 3.87747, 13.3858 3.94944, 13.3818 4.02366, 13.3818 4.10013 L 13.3818 7.63399, 14.4564 7.63399 C 14.7182 7.63444, 14.9863 7.62275, 15.2607 7.59846, 15.5351 7.57462, 15.751 7.4905, 15.9094 7.3461, 16.0677 7.18821, 16.159 6.98804, 16.1838 6.74558, 16.2085 6.50357, 16.2206 6.23098, 16.2206 5.92824 L 16.7465 5.92824, 16.7465 9.94431, 16.2206 9.94431 C 16.2206 9.64248, 16.2085 9.37033, 16.1838 9.12788, 16.159 8.88587, 16.0677 8.68524, 15.9094 8.52645, 15.751 8.38296, 15.536 8.29929, 15.2643 8.275, 14.9926 8.25116, 14.7236 8.23901, 14.4564 8.23856 L 13.3818 8.23856, 13.3818 12.1611 C 13.3818 12.2429, 13.3858 12.3176, 13.393 12.3846, 13.4007 12.4521, 13.4317 12.5047, 13.4857 12.5425, 13.5352 12.5812, 13.6193 12.6042, 13.7376 12.6114, 13.8563 12.6185, 13.9697 12.6221, 14.0786 12.6217 L 15.7312 12.6217 C 15.9638 12.6221, 16.1986 12.6185, 16.4357 12.6114, 16.6727 12.6042, 16.9026 12.5817, 17.1248 12.543, 17.347 12.5047, 17.5598 12.4449, 17.7622 12.363, 17.9646 12.2816, 18.1477 12.171, 18.3105 12.0315, 18.4689 11.9024, 18.6047 11.7346, 18.7181 11.5282, 18.8319 11.3221, 18.9246 11.0999, 18.9961 10.8624, 19.0681 10.6249, 19.1297 10.3744, 19.1814 10.1103, 19.2336 9.8467, 19.2817 9.57276, 19.3258 9.28936 L 19.8598 9.28936 Z" stroke="none" fill="#000000" />
			<path d="M 31.1153 11.758 C 31.1153 11.9694, 31.0834 12.1831, 31.0191 12.399, 30.9552 12.615, 30.8625 12.807, 30.7415 12.9748, 30.6205 13.143, 30.4712 13.2793, 30.293 13.3846, 30.1149 13.4903, 29.9075 13.5429, 29.67 13.5429, 29.2899 13.5429, 28.9355 13.4975, 28.6066 13.4062, 28.2783 13.3153, 27.994 13.1772, 27.7542 12.9928, 27.5149 12.8084, 27.3269 12.5817, 27.191 12.3127, 27.0552 12.0441, 26.9872 11.7274, 26.9872 11.3622 L 26.9872 10.0667 C 26.9872 9.83186, 26.9418 9.60919, 26.85 9.39777, 26.7587 9.1868, 26.6292 9.00192, 26.4609 8.84358, 26.2932 8.68524, 26.1006 8.56199, 25.8829 8.47292, 25.6656 8.38431, 25.4358 8.33977, 25.1938 8.33932 L 23.4147 8.33932, 23.4147 12.1611 C 23.4147 12.2479, 23.4322 12.3262, 23.4669 12.3954, 23.5015 12.4652, 23.5532 12.5119, 23.6221 12.5353, 23.7507 12.579, 23.941 12.6042, 24.1929 12.6114, 24.4448 12.6185, 24.7021 12.6221, 24.9639 12.6217 L 24.9639 13.2191 C 24.1731 13.1903, 23.4098 13.1759, 22.6734 13.1759, 21.9474 13.1759, 21.1889 13.1903, 20.3981 13.2191 L 20.3981 12.6217 C 20.6698 12.6221, 20.9307 12.6185, 21.1804 12.6114, 21.4301 12.6042, 21.6163 12.579, 21.7395 12.5353, 21.8088 12.5119, 21.8632 12.4638, 21.9028 12.3918, 21.9424 12.3199, 21.9622 12.2429, 21.9622 12.1611 L 21.9622 4.04975 C 21.9622 3.96384, 21.9438 3.88602, 21.9069 3.81629, 21.87 3.74702, 21.8142 3.69979, 21.7395 3.6755, 21.6113 3.63276, 21.4238 3.60892, 21.1764 3.60397, 20.9294 3.59948, 20.6698 3.59678, 20.3981 3.59633 L 20.3981 3.00615, 25.1938 3.00615 C 25.703 3.0066, 26.2018 3.06688, 26.6908 3.18653, 27.1802 3.30664, 27.6372 3.51266, 28.0619 3.80505, 28.4029 4.03581, 28.6885 4.3156, 28.9179 4.64398, 29.1478 4.9728, 29.2625 5.33627, 29.2625 5.73391, 29.2625 6.12302, 29.1455 6.47703, 28.9107 6.79596, 28.6759 7.11534, 28.3907 7.38029, 28.0542 7.59081, 27.8221 7.74465, 27.5779 7.87105, 27.3206 7.96912, 27.0637 8.06763, 26.886 8.12611, 26.7871 8.145, 27.1132 8.24621, 27.4564 8.45493, 27.8172 8.77161, 28.1779 9.08829, 28.4006 9.50573, 28.4843 10.0235 L 28.6993 11.319 C 28.7884 11.8664, 28.8932 12.296, 29.0142 12.6078, 29.1356 12.9199, 29.3542 13.0756, 29.67 13.0751, 29.9372 13.0756, 30.1558 12.946, 30.3263 12.6869, 30.4968 12.4278, 30.5818 12.1183, 30.5818 11.758, 30.5818 11.6001, 30.6637 11.5232, 30.8265 11.5277 L 30.8711 11.5277 C 31.0339 11.5282, 31.1153 11.6051, 31.1153 11.758 Z M 27.5504 5.73391 C 27.5504 5.44153, 27.5135 5.15633, 27.4393 4.87789, 27.3655 4.5999, 27.2171 4.36913, 26.9944 4.1865, 26.7326 3.95664, 26.4263 3.801, 26.0754 3.71913, 25.7246 3.63771, 25.3665 3.59678, 25.0008 3.59633 L 24.1187 3.59633 C 24.0053 3.59678, 23.8893 3.59948, 23.7705 3.60397, 23.6522 3.60892, 23.5658 3.63051, 23.511 3.6683, 23.4669 3.70249, 23.4394 3.75647, 23.4295 3.83069, 23.4196 3.90536, 23.4147 3.97823, 23.4147 4.04975 L 23.4147 7.8715, 25.0008 7.8715 C 25.3715 7.87195, 25.7313 7.83147, 26.0795 7.7496, 26.4277 7.66818, 26.7326 7.51209, 26.9944 7.28133, 27.2171 7.09465, 27.3655 6.86434, 27.4393 6.59084, 27.5135 6.31734, 27.5504 6.0317, 27.5504 5.73391 Z" stroke="none" fill="#000000" />
			<path d="M 41.0893 6.54001 C 41.0646 6.2908, 41.0412 6.05104, 41.0187 5.82073, 40.9967 5.59042, 40.9634 5.37225, 40.9189 5.16578, 40.8743 4.95976, 40.8199 4.76768, 40.7556 4.59, 40.6917 4.41277, 40.6103 4.27557, 40.5113 4.17931, 40.2891 3.96384, 40.021 3.82709, 39.707 3.76951, 39.3935 3.71193, 39.0759 3.68314, 38.7547 3.68269 L 38.0728 3.68269 C 37.9594 3.68314, 37.8434 3.68584, 37.7246 3.69034, 37.6059 3.69529, 37.5195 3.71688, 37.4651 3.75467, 37.4205 3.78885, 37.3931 3.84283, 37.3832 3.91706, 37.3733 3.99173, 37.3684 4.06685, 37.3684 4.14332 L 37.3684 12.1611 C 37.3684 12.2573, 37.3958 12.3392, 37.4502 12.4062, 37.5047 12.4737, 37.5811 12.5142, 37.6796 12.5281, 37.7687 12.5479, 37.8852 12.5646, 38.0283 12.579, 38.1718 12.5934, 38.326 12.6042, 38.4916 12.6114, 38.6571 12.6185, 38.8263 12.6221, 38.999 12.6217 L 39.5698 12.6217, 39.5698 13.2191 C 38.5568 13.1903, 37.5712 13.1759, 36.6126 13.1759, 35.6491 13.1759, 34.6635 13.1903, 33.6555 13.2191 L 33.6555 12.6217, 34.2187 12.6217 C 34.4017 12.6221, 34.5749 12.6185, 34.7378 12.6114, 34.9006 12.6042, 35.0549 12.5934, 35.2006 12.579, 35.3464 12.5646, 35.4638 12.5479, 35.5529 12.5281, 35.6518 12.5142, 35.7296 12.471, 35.7863 12.399, 35.843 12.3271, 35.8713 12.2479, 35.8713 12.1611 L 35.8713 4.14332 C 35.8713 4.0718, 35.8677 3.99892, 35.8605 3.92425, 35.8533 3.85003, 35.8223 3.79335, 35.7679 3.75467, 35.7184 3.71688, 35.632 3.69529, 35.5083 3.69034, 35.3851 3.68584, 35.2686 3.68314, 35.1597 3.68269 L 34.4782 3.68269 C 34.157 3.68314, 33.8422 3.71193, 33.5331 3.76951, 33.2245 3.82709, 32.9587 3.96384, 32.7365 4.17931, 32.633 4.28547, 32.5475 4.42446, 32.481 4.5972, 32.4144 4.76993, 32.36 4.95976, 32.3177 5.16578, 32.2758 5.37225, 32.2426 5.59042, 32.2178 5.82073, 32.1931 6.05104, 32.1683 6.2908, 32.1431 6.54001 L 31.6173 6.54001, 31.9358 3.07812, 41.3116 3.07812, 41.6156 6.54001 Z" stroke="none" fill="#000000" />
			<rect />
		</svg>
	</g>
	<path d="M 0 0 L -0.000427246 -37.1022" fill="none" stroke="#000000" stroke-width="1.39999998" stroke-linecap="round" stroke-linejoin="round" marker-end="url(#CustomMarker-01)" transform="matrix(0.714286 0 0 0.714286 83.9131 395.208)" />
	<path d="M 0 0 L -0.000244141 -37.1022" fill="none" stroke="#000000" stroke-width="1.39999998" stroke-linecap="round" stroke-linejoin="round" marker-end="url(#CustomMarker-02)" transform="matrix(0.714286 0 0 0.714286 200.746 395.208)" />
	<path d="M 0 0 L -0.000610352 -37.1022" fill="none" stroke="#000000" stroke-width="1.39999998" stroke-linecap="round" stroke-linejoin="round" marker-end="url(#CustomMarker-03)" transform="matrix(0.714286 0 0 0.714286 317.58 395.208)" />
	<path d="M 0 0 L -0.000610352 -37.1022" fill="none" stroke="#000000" stroke-width="1.39999998" stroke-linecap="round" stroke-linejoin="round" marker-end="url(#CustomMarker-04)" transform="matrix(0.714286 0 0 0.714286 434.413 395.208)" />
	<path d="M 0 0 L 0.000244141 -49.499" fill="none" stroke="#000000" stroke-width="1.39999998" stroke-linecap="round" stroke-linejoin="round" marker-end="url(#CustomMarker-05)" transform="matrix(0.714286 0 0 0.714286 83.9128 330.75)" />
	<rect x="-26.5695801" y="-106.278076" width="53.1391602" height="212.556152" stroke="none" fill="#BFD969" fill-opacity="0.392156839" transform="matrix(0.714286 0 -0 0.714286 83.9129 219.481)" />
	<path d="M -26.5696 -106.278 L 26.5696 -106.278, 26.5696 106.278, -26.5696 106.278 Z" fill="none" stroke="#000000" stroke-width="1.39999998" stroke-linecap="round" stroke-linejoin="round" transform="matrix(0.714286 0 -0 0.714286 83.9129 219.481)" />
	<g transform="matrix(0.902423 0 -0 0.902423 67.6917 143.568)">
		<svg width="189.018036" height="533.999817">
			<defs />
			<path d="M 13.8128 10.0338 C 13.8128 10.5763, 13.7066 11.0887, 13.4943 11.5709, 13.282 12.0531, 12.9963 12.4706, 12.6378 12.8232, 12.2798 13.1759, 11.856 13.4579, 11.3666 13.6685, 10.8772 13.8799, 10.3536 13.9851, 9.7949 13.9851, 9.07832 13.9851, 8.39009 13.8475, 7.73019 13.5718, 7.07074 13.296, 6.49136 12.906, 5.99205 12.4017, 5.47834 11.8696, 5.08789 11.2736, 4.82069 10.6137, 4.55394 9.95423, 4.42034 9.26644, 4.42034 8.55121, 4.42034 7.83688, 4.55394 7.1482, 4.82069 6.48605, 5.08789 5.8239, 5.47834 5.23147, 5.99205 4.70787, 6.49136 4.20451, 7.07074 3.81226, 7.73019 3.53157, 8.39009 3.25088, 9.07832 3.11053, 9.7949 3.11008, 10.3734 3.11053, 10.8997 3.22838, 11.3738 3.46319, 11.8484 3.69846, 12.2411 3.99354, 12.5524 4.34801 L 13.3531 3.21804 C 13.3827 3.14651, 13.4471 3.11053, 13.546 3.11008 L 13.5906 3.11008 C 13.739 3.11053, 13.8128 3.18475, 13.8128 3.33319 L 13.8128 7.2629 C 13.8128 7.4073, 13.739 7.48152, 13.5906 7.48602 L 13.4201 7.48602 C 13.3013 7.48647, 13.2271 7.41944, 13.1974 7.28449, 13.1776 6.80048, 13.08 6.3412, 12.9046 5.90667, 12.7291 5.47258, 12.4957 5.09473, 12.2042 4.7731, 11.9127 4.45192, 11.5758 4.19507, 11.1925 4.00299, 10.8093 3.81136, 10.3932 3.7151, 9.94335 3.71465, 9.37476 3.7151, 8.84621 3.8352, 8.3568 4.07496, 7.86738 4.31517, 7.44994 4.65074, 7.10403 5.08213, 6.72347 5.56255, 6.46437 6.10099, 6.32582 6.69837, 6.18727 7.29574, 6.118 7.91335, 6.118 8.55121, 6.118 9.18502, 6.18727 9.80039, 6.32582 10.3978, 6.46437 10.9951, 6.72347 11.5336, 7.10403 12.0131, 7.45489 12.4454, 7.87773 12.785, 8.37164 13.032, 8.866 13.2794, 9.39455 13.4026, 9.95774 13.4022, 10.4229 13.4026, 10.8592 13.314, 11.2667 13.1363, 11.6743 12.9591, 12.0265 12.7153, 12.3229 12.4058, 12.6194 12.0963, 12.8542 11.7401, 13.0269 11.337, 13.2001 10.934, 13.2865 10.4999, 13.2865 10.0338, 13.2865 9.89035, 13.3584 9.81838, 13.5015 9.81793 L 13.5906 9.81793 C 13.739 9.81838, 13.8128 9.89035, 13.8128 10.0338 Z" stroke="none" fill="#000000" />
			<path d="M 22.7946 13.6613 L 14.7454 13.6613, 14.7454 13.0639 C 15.0171 13.0643, 15.2793 13.0607, 15.5312 13.0536, 15.7831 13.0464, 15.9734 13.0212, 16.1016 12.9775, 16.1709 12.9541, 16.2231 12.9074, 16.2577 12.8376, 16.2923 12.7684, 16.3094 12.6901, 16.3094 12.6033 L 16.3094 4.49195 C 16.3094 4.40604, 16.2923 4.32822, 16.2577 4.25849, 16.2231 4.18922, 16.1709 4.14199, 16.1016 4.1177, 15.9734 4.07496, 15.7831 4.05112, 15.5312 4.04617, 15.2793 4.04168, 15.0171 4.03898, 14.7454 4.03853 L 14.7454 3.44835 C 15.4916 3.47759, 16.2132 3.49198, 16.9095 3.49153, 17.0233 3.49198, 17.1394 3.48704, 17.2581 3.47714, 18.0588 3.47759, 18.8888 3.46814, 19.7484 3.44835 L 19.7484 4.03853, 19.2369 4.03853 C 19.084 4.03898, 18.9342 4.04168, 18.7884 4.04617, 18.6427 4.05112, 18.506 4.06057, 18.3773 4.07496, 18.2486 4.08936, 18.1474 4.106, 18.0732 4.12489, 17.9895 4.14918, 17.9239 4.19642, 17.8771 4.26569, 17.8303 4.33541, 17.8065 4.41098, 17.8065 4.49195 L 17.8065 12.6033 C 17.8065 12.6851, 17.8105 12.7598, 17.8177 12.8268, 17.8254 12.8943, 17.8564 12.9469, 17.9104 12.9847, 17.9599 13.0234, 18.044 13.0464, 18.1623 13.0536, 18.281 13.0607, 18.3944 13.0643, 18.5033 13.0639 L 19.7187 13.0639 C 20.119 13.0643, 20.5045 13.014, 20.8752 12.9132, 21.2459 12.8124, 21.5666 12.6276, 21.8383 12.3586, 22.155 12.0329, 22.361 11.6406, 22.4572 11.1823, 22.5535 10.7243, 22.6313 10.2408, 22.6907 9.73156 L 23.217 9.73156 Z" stroke="none" fill="#000000" />
			<path d="M 31.1798 10.8615 C 31.1798 11.2745, 31.1083 11.6694, 30.9653 12.0459, 30.8222 12.4229, 30.6045 12.7621, 30.313 13.0639, 30.0364 13.3522, 29.713 13.5776, 29.3423 13.7404, 28.9716 13.9037, 28.5839 13.9851, 28.1781 13.9851, 27.561 13.9851, 27.0077 13.8952, 26.5183 13.7153, 26.0293 13.5358, 25.6366 13.2969, 25.3397 12.9991 L 24.7765 13.8988 C 24.7172 13.9564, 24.6578 13.9851, 24.5984 13.9851 L 24.539 13.9851 C 24.4059 13.9851, 24.3343 13.9181, 24.3245 13.7836 L 24.3245 10.4081 C 24.3245 10.2696, 24.396 10.1949, 24.539 10.185 L 24.6281 10.185 C 24.7765 10.1854, 24.8503 10.2597, 24.8503 10.4081, 24.8503 10.8786, 24.9295 11.2988, 25.0878 11.6681, 25.2462 12.0378, 25.4684 12.3509, 25.7549 12.6073, 26.0414 12.8642, 26.391 13.0607, 26.8035 13.1975, 27.2164 13.3342, 27.6743 13.4026, 28.1781 13.4022, 28.4305 13.4026, 28.6716 13.3513, 28.901 13.2479, 29.1309 13.1449, 29.3346 12.9973, 29.5123 12.8048, 29.883 12.3973, 30.0661 11.9128, 30.0611 11.3509, 30.0611 11.1211, 30.0278 10.8971, 29.9613 10.6785, 29.8947 10.4603, 29.7944 10.2637, 29.6608 10.0883, 29.5276 9.91329, 29.372 9.7608, 29.1939 9.63125, 29.0162 9.5017, 28.816 9.41039, 28.5933 9.35731 L 26.6145 8.89668 C 26.2691 8.81571, 25.9564 8.68391, 25.6771 8.50128, 25.3982 8.3191, 25.1571 8.10318, 24.9547 7.85353, 24.7522 7.60432, 24.5966 7.32363, 24.4877 7.01145, 24.3789 6.69972, 24.3245 6.37584, 24.3245 6.03937, 24.3245 5.65611, 24.4 5.28545, 24.5507 4.92784, 24.7014 4.57067, 24.9173 4.25265, 25.1989 3.97375, 25.476 3.70565, 25.8021 3.49468, 26.1773 3.34084, 26.5529 3.18745, 26.9357 3.11053, 27.3262 3.11008, 27.875 3.11053, 28.354 3.20409, 28.7643 3.39122, 29.1745 3.57835, 29.4979 3.81091, 29.735 4.08891 L 30.2982 3.21804 C 30.3427 3.14651, 30.4043 3.11053, 30.4835 3.11008 L 30.5352 3.11008 C 30.6837 3.11053, 30.7575 3.18475, 30.7575 3.33319 L 30.7575 6.70871 C 30.7575 6.84366, 30.6837 6.91069, 30.5352 6.91024 L 30.4538 6.91024 C 30.3351 6.91069, 30.2608 6.85086, 30.2312 6.7303, 30.2118 6.26518, 30.129 5.84459, 29.9833 5.46763, 29.8376 5.09113, 29.6423 4.7686, 29.3976 4.4996, 29.1529 4.23105, 28.8592 4.02458, 28.5155 3.88064, 28.1723 3.73669, 27.776 3.66472, 27.3262 3.66427, 26.8075 3.66472, 26.3604 3.8496, 25.9843 4.21846, 25.8066 4.39164, 25.6694 4.59092, 25.5732 4.81628, 25.4769 5.0421, 25.4288 5.27915, 25.4288 5.52836, 25.4288 5.74473, 25.4661 5.94985, 25.5399 6.14418, 25.6141 6.3385, 25.714 6.51619, 25.8399 6.67677, 25.9659 6.83781, 26.1166 6.97546, 26.292 7.09062, 26.4674 7.20577, 26.6618 7.28494, 26.8741 7.32768 L 28.8452 7.7955 C 29.2015 7.87737, 29.5249 8.01816, 29.8164 8.21699, 30.1079 8.41626, 30.354 8.65017, 30.5541 8.91872, 30.7543 9.18772, 30.9086 9.48731, 31.017 9.81838, 31.1259 10.1495, 31.1798 10.4972, 31.1798 10.8615 Z" stroke="none" fill="#000000" />
			<polyline points="0.821018 -6.32953 -1.48137 -6.32953 -1.48137 6.32953 0.821018 6.32953" fill="none" stroke="#000000" stroke-width="0.707520008" stroke-linecap="round" stroke-linejoin="round" transform="matrix(1 0 -0 1 1.95305 9.24805)" />
			<polyline points="0.821018 -6.32953 -1.48137 -6.32953 -1.48137 6.32953 0.821018 6.32953" fill="none" stroke="#000000" stroke-width="0.707520008" stroke-linecap="round" stroke-linejoin="round" transform="matrix(-1 1.50996e-007 -1.50996e-007 -1 33.9974 9.24805)" />
			<path d="M 17.2542 33.2669 L 17.2542 34.9136, 19.277 34.9136, 19.277 33.2669 Z M 17.2542 35.2936 L 17.2542 37.0037, 19.277 37.0037, 19.277 35.2936 Z M 20.3181 27.63 C 18.9287 29.9576, 17.2107 31.5806, 15.1641 32.5069 L 15.0335 32.3169 C 16.2963 31.4777, 17.3096 30.5276, 18.0697 29.4707, 18.8297 28.4177, 19.4076 27.3608, 19.7995 26.2999 L 21.1019 27.06, 20.5794 27.3767 C 21.8857 29.4509, 23.5839 30.6741, 25.67 31.0501 L 25.67 31.3035 C 25.0208 31.351, 24.6289 31.5806, 24.4943 32.0002, 22.8001 31.1174, 21.4067 29.6607, 20.3181 27.63 Z M 16.4071 41.3106 C 16.4506 40.4674, 16.4704 39.0028, 16.4704 36.9127, 16.4704 34.8226, 16.4506 33.3342, 16.4071 32.4435 L 17.3176 32.8869, 19.1464 32.8869, 19.6016 32.3169, 20.516 33.0136, 20.0568 33.3936, 20.0568 40.0438 C 20.0568 40.6772, 19.7322 41.1008, 19.0791 41.3106, 18.9524 40.8039, 18.5368 40.4872, 17.8401 40.3605 L 17.8401 40.1072 C 18.2755 40.1507, 18.6239 40.1705, 18.8851 40.1705, 19.1464 40.1705, 19.277 40.0043, 19.277 39.6638 L 19.277 37.3837, 17.2542 37.3837, 17.2542 40.8672 Z M 21.3631 38.7771 C 21.4106 38.1913, 21.4304 37.2412, 21.4304 35.931, 21.4304 34.6247, 21.4106 33.6509, 21.3631 33.0136 L 22.6021 33.6469, 22.2103 33.9636, 22.2103 38.3971 Z M 23.5799 34.2803 C 23.5799 33.8211, 23.5601 33.1877, 23.5166 32.3802 L 24.8189 32.9502, 24.3637 33.3936, 24.3637 39.8538 C 24.4112 40.5307, 23.9955 40.9939, 23.1247 41.2472, 23.0851 40.701, 22.519 40.3209, 21.4304 40.1072 L 21.4304 39.8538 C 22.2578 39.8974, 22.8238 39.9172, 23.1247 39.9172, 23.4295 39.9172, 23.5799 39.7509, 23.5799 39.4105 Z M 13.4699 33.2669 C 13.4699 32.1744, 13.4501 31.3272, 13.4026 30.7335 L 14.7762 31.3668, 14.317 31.8102, 14.317 33.2669, 14.6456 33.2669, 15.2948 32.6969, 16.2092 33.6469, 14.317 33.6469, 14.317 36.307, 16.0785 35.9903, 16.1458 36.2437, 14.317 36.7504 C 14.317 38.7811, 14.3408 40.1705, 14.3843 40.9305 L 13.4026 41.3106 C 13.4501 39.5411, 13.4699 38.1042, 13.4699 37.0037, 11.8627 37.4312, 10.9919 37.7875, 10.8612 38.0804 L 10.2714 37.0037 C 11.2294 36.881, 12.2982 36.7108, 13.4699 36.497 L 13.4699 33.6469, 11.5777 33.6469, 11.0552 34.0903, 10.3387 33.0769 C 10.6435 32.9977, 10.9246 32.6613, 11.1858 32.0675, 11.4471 31.4777, 11.7519 30.6741, 12.1003 29.6568 L 11.9696 29.6568 C 11.6688 29.6607, 11.2769 29.724, 10.794 29.8468 L 10.2081 29.2767, 12.2309 29.2767 C 12.4921 28.2673, 12.7336 27.3371, 12.9474 26.49 L 14.1864 27.1867 C 13.9726 27.3173, 13.7985 27.4994, 13.6678 27.729, 13.5372 27.9625, 13.3393 28.4771, 13.078 29.2767 L 14.9068 29.2767, 15.6867 28.58, 16.6644 29.6568, 12.9474 29.6568, 11.5777 33.2669 Z M 17.8401 30.9235 L 21.1692 30.9235, 21.8184 30.2901, 22.8001 31.3035, 19.6689 31.3035, 17.9707 31.0501, 18.3626 31.4302 Z" stroke="none" fill="#000000" />
			<path d="M 23.1247 54.5607 L 23.1247 57.0308 C 23.1247 57.4583, 23.1682 58.0482, 23.2553 58.8042 L 22.2103 59.1842, 22.2103 58.4242, 18.3626 58.4242, 18.3626 64.5678, 22.8634 64.5678, 22.8634 61.781 C 22.8634 61.1952, 22.8436 60.538, 22.8001 59.8176 L 24.3003 60.641, 23.7778 61.021, 23.7778 63.3644 C 23.7778 64.1284, 23.8016 64.8845, 23.8412 65.6445 L 22.8634 65.9612, 22.8634 64.9478, 13.078 64.9478, 12.6228 65.3912, 11.7084 64.6945, 12.1636 64.2511, 12.1636 61.781 C 12.1636 61.1516, 12.1438 60.4549, 12.1003 59.6909 L 13.6005 60.451, 13.078 60.8943, 13.078 64.5678, 17.4482 64.5678, 17.4482 58.4242, 13.6639 58.4242, 13.1453 58.8676, 12.2309 58.1709, 12.6861 57.7909, 12.6861 55.1941 C 12.6861 54.6913, 12.6663 54.1411, 12.6228 53.5473 L 14.1864 54.3074, 13.6005 54.6874, 13.6005 58.0442, 17.4482 58.0442, 17.4482 53.864 C 17.4482 53.108, 17.4284 52.3677, 17.3848 51.6473 L 18.8851 52.344, 18.3626 52.914, 18.3626 58.0442, 22.2103 58.0442, 22.2103 55.1941 C 22.2103 54.6913, 22.1905 54.1015, 22.1469 53.4207 L 23.6472 54.1174 Z" stroke="none" fill="#000000" />
			<path d="M 12.5555 80.0203 L 12.5555 84.0738, 15.9479 84.0738, 15.9479 80.0203 Z M 12.5555 84.4538 L 12.5555 88.8873, 15.9479 88.8873, 15.9479 84.4538 Z M 16.795 80.4003 C 16.795 85.3445, 16.8188 88.5746, 16.8623 90.0907 L 15.9479 90.5974, 15.9479 89.2674, 12.5555 89.2674, 12.5555 90.3441, 11.645 90.8508 C 11.6886 88.8715, 11.7084 86.8962, 11.7084 84.9328, 11.7084 82.9694, 11.6886 81.0179, 11.645 79.0703 L 12.6228 79.6403, 13.2759 79.6403 C 13.7114 78.2073, 13.9489 77.1108, 13.9924 76.3468 L 15.4254 77.1069 C 14.9939 77.3206, 14.4081 78.1677, 13.6639 79.6403 L 15.8173 79.6403, 16.4704 79.0069, 17.4482 79.957 Z M 19.9935 76.4102 L 21.4304 77.2335 C 21.0821 77.4473, 20.5398 78.3142, 19.7995 79.8303 L 23.3186 79.8303, 24.0391 79.1336, 25.0168 80.0837, 24.431 80.527 C 24.3439 85.4712, 24.2251 88.2698, 24.0707 88.923, 23.9203 89.5801, 23.7026 90.0274, 23.4176 90.2807, 23.1365 90.5341, 22.6892 90.7676, 22.0796 90.9774, 21.8659 90.3045, 21.1454 89.7978, 19.9262 89.4574 L 19.9262 89.1407 C 21.0148 89.3544, 21.7986 89.4613, 22.2775 89.4613, 22.7565 89.4613, 23.0495 89.1051, 23.1563 88.3846, 23.2672 87.6681, 23.3622 84.9447, 23.4493 80.2103 L 19.6689 80.2103 C 18.8851 81.4375, 18.0578 82.4746, 17.1869 83.3138 L 16.993 83.1871 C 17.9074 81.8412, 18.5803 80.6378, 19.0157 79.5809, 19.4512 78.528, 19.7797 77.471, 19.9935 76.4102 Z M 18.8178 82.6171 C 19.8629 83.3811, 20.4725 83.9432, 20.6467 84.2995, 20.8208 84.6597, 20.9079 84.9209, 20.9079 85.0872, 20.9079 85.388, 20.8208 85.6414, 20.6467 85.8512, 20.4725 86.0649, 20.3418 86.1679, 20.2548 86.1639, 20.0806 86.1679, 19.95 85.871, 19.8629 85.2772, 19.6887 84.438, 19.2968 83.6146, 18.6872 82.8071 Z" stroke="none" fill="#000000" />
			<path d="M 17.3176 108.203 L 17.3176 111.18, 20.0568 111.18, 20.0568 108.203 Z M 16.4071 113.144 C 16.4506 112.178, 16.4704 111.208, 16.4704 110.234, 16.4704 109.264, 16.4506 108.314, 16.4071 107.38 L 17.3176 107.823, 19.9262 107.823, 20.5794 107.19, 21.4938 108.077, 20.9079 108.457 C 20.9079 110.317, 20.9317 111.627, 20.9712 112.384 L 20.0568 112.764, 20.0568 111.56, 17.3176 111.56, 17.3176 112.764 Z M 15.3621 105.48 L 20.6467 105.48, 21.3631 104.783, 22.4082 105.86, 17.1869 105.86 C 16.8386 105.864, 16.4269 105.927, 15.9479 106.05 Z M 20.71 114.41 C 21.9727 114.537, 22.7447 114.592, 23.0257 114.569, 23.3107 114.549, 23.4493 114.371, 23.4493 114.03 L 23.4493 102.946, 17.8401 102.946 C 17.4917 102.95, 17.08 103.014, 16.6011 103.136 L 16.0152 102.566, 23.3186 102.566, 23.9718 101.933, 24.9495 102.883, 24.3003 103.326, 24.3003 114.474 C 24.3003 114.854, 24.2053 115.17, 24.0074 115.424, 23.8095 115.677, 23.473 115.891, 22.994 116.057, 22.7328 115.424, 21.9727 114.98, 20.71 114.727 Z M 11.9696 102.123 L 12.1003 101.933 C 12.884 102.234, 13.462 102.539, 13.8301 102.855, 14.2022 103.172, 14.3408 103.489, 14.2537 103.805, 14.1666 104.122, 14.0043 104.336, 13.7628 104.439, 13.5253 104.546, 13.3195 104.3, 13.1453 103.707, 12.9276 103.121, 12.5357 102.59, 11.9696 102.123 Z M 13.7312 113.144 L 15.8846 111.307, 16.0152 111.497 C 15.4056 112.261, 14.895 112.918, 14.4833 113.464, 14.0716 114.014, 13.7114 114.521, 13.4026 114.98 L 12.6228 114.03 C 12.797 113.781, 12.884 113.484, 12.884 113.144 L 12.884 107.127, 12.5555 107.127 C 11.9934 107.131, 11.4709 107.194, 10.9919 107.317 L 10.4021 106.747, 12.7534 106.747, 13.4026 106.113, 14.2537 106.937, 13.7312 107.317 Z" stroke="none" fill="#000000" />
			<path d="M 16.0785 132.776 L 16.0785 136.07, 19.7322 136.07, 19.7322 132.776 Z M 20.3181 139.236 C 21.189 139.284, 21.8857 139.316, 22.4082 139.335, 22.9307 139.359, 23.1682 139.07, 23.1247 138.476 L 23.1247 129.673, 12.9474 129.673, 12.9474 140.567, 11.9696 141.01 C 12.0132 139.787, 12.033 138.797, 12.033 138.033 L 12.033 131.256 C 12.033 130.373, 12.0132 129.507, 11.9696 128.659 L 13.0147 129.293, 15.8173 129.293 C 16.3398 127.82, 16.6248 126.783, 16.6644 126.189 L 18.1013 126.886 C 17.5788 127.187, 16.9732 127.986, 16.2765 129.293 L 22.994 129.293, 23.4493 128.596, 24.5616 129.419, 24.0391 129.863, 24.0391 138.856 C 24.1262 139.913, 23.6472 140.61, 22.6021 140.947, 22.5626 140.23, 21.7986 139.767, 20.3181 139.553 Z M 20.6467 135.626 C 20.6467 135.967, 20.6704 136.473, 20.71 137.146 L 19.7322 137.526, 19.7322 136.45, 16.0785 136.45, 16.0785 137.4, 15.1008 137.78 C 15.1443 136.727, 15.1641 135.654, 15.1641 134.554, 15.1641 133.457, 15.1443 132.547, 15.1008 131.826 L 16.0785 132.396, 19.6689 132.396, 20.1241 131.763, 21.1692 132.586, 20.6467 133.03 Z" stroke="none" fill="#000000" />
			<path d="M 14.0558 158.363 L 14.0558 159.693, 17.5155 159.693, 17.5155 158.363 Z M 18.3626 158.363 L 18.3626 159.693, 21.6877 159.693, 21.6877 158.363 Z M 14.0558 160.073 L 14.0558 161.339, 17.5155 161.339, 17.5155 160.073 Z M 18.3626 160.073 L 18.3626 161.339, 21.6877 161.339, 21.6877 160.073 Z M 22.5388 158.553 C 22.5388 160.203, 22.5626 161.3, 22.6021 161.846 L 21.6877 162.226, 21.6877 161.719, 18.3626 161.719, 18.3626 163.113, 21.8857 163.113, 22.8001 162.353, 23.8412 163.493, 18.3626 163.493, 18.3626 165.013, 23.3859 165.013, 24.3637 164.126, 25.4721 165.393, 12.6861 165.393 C 12.124 165.393, 11.6015 165.456, 11.1225 165.583 L 10.5327 165.013, 17.5155 165.013, 17.5155 163.493, 14.123 163.493 C 13.5609 163.497, 13.0384 163.56, 12.5555 163.683 L 11.9696 163.113, 17.5155 163.113, 17.5155 161.719, 14.0558 161.719, 14.0558 162.099, 13.1453 162.416 C 13.1888 161.577, 13.2086 160.742, 13.2086 159.918, 13.2086 159.095, 13.1888 158.283, 13.1453 157.476 L 14.0558 157.983, 21.6244 157.983, 22.0163 157.476, 22.994 158.173 Z M 14.2537 152.282 L 14.2537 153.359, 21.4938 153.359, 21.4938 152.282 Z M 14.2537 153.739 L 14.2537 154.879, 21.4938 154.879, 21.4938 153.739 Z M 22.3409 152.409 C 22.3409 153.977, 22.3646 155.01, 22.4082 155.512 L 21.4938 155.892, 21.4938 155.259, 14.2537 155.259, 14.2537 155.829, 13.3393 156.209 C 13.3828 155.536, 13.4026 154.685, 13.4026 153.648, 13.4026 152.615, 13.3828 151.886, 13.3393 151.459 L 14.317 151.902, 21.3631 151.902, 21.755 151.332, 22.8001 152.029 Z M 10.2714 156.526 L 23.6472 156.526, 24.5616 155.702, 25.67 156.906, 12.1003 156.906 C 11.7519 156.91, 11.3402 156.973, 10.8612 157.096 Z" stroke="none" fill="#000000" />
			<rect />
		</svg>
	</g>
	<path d="M 0 0 L -0.00012207 -37.4776" fill="none" stroke="#000000" stroke-width="1.39999998" stroke-linecap="round" stroke-linejoin="round" marker-end="url(#CustomMarker-06)" transform="matrix(0.714286 0 0 0.714286 83.9129 143.568)" />
	<rect x="-106.278107" y="-26.5694275" width="212.556213" height="53.138855" stroke="none" fill="#ACF346" fill-opacity="0.392156839" transform="matrix(0.714286 0 -0 0.714286 83.9129 97.8203)" />
	<path d="M -106.278 -26.5694 L 106.278 -26.5694, 106.278 26.5694, -106.278 26.5694 Z" fill="none" stroke="#000000" stroke-width="1.39999998" stroke-linecap="round" stroke-linejoin="round" transform="matrix(0.714286 0 -0 0.714286 83.9129 97.8203)" />
	<g transform="matrix(1 0 -0 1 26.3556 89.0144)">
		<svg width="353.938599" height="110.999985">
			<defs />
			<path d="M 9.23078 5.18404 C 9.23078 5.77782, 9.27432 6.5616, 9.36141 7.52747 L 12.4292 7.21079, 13.2803 6.26076, 14.5866 7.33747, 9.42475 7.84415 C 9.55933 9.15837, 9.77705 10.1915, 10.0779 10.9476, 11.0359 10.1084, 11.7998 9.22171, 12.3659 8.28751 L 13.5416 9.42755, 12.9518 9.49089 C 12.1284 10.2549, 11.3011 11.0149, 10.4698 11.771, 11.2536 12.8319, 12.168 13.5681, 13.213 13.9877 L 14.1274 10.9476, 14.3887 11.011 C 14.3016 11.9847, 14.2502 12.7883, 14.2264 13.4217, 14.2066 14.055, 14.3056 14.5578, 14.5193 14.9378, 14.5668 15.0249, 14.5866 15.0882, 14.5866 15.1278, 14.5866 15.298, 14.361 15.3495, 13.9018 15.2861, 13.4426 15.2228, 12.833 14.9694, 12.073 14.5261, 11.3129 14.0827, 10.5371 13.3781, 9.7533 12.4043, 8.96952 12.915, 8.17782 13.3385, 7.37029 13.675, 6.56275 14.0115, 5.54938 14.348, 4.33016 14.6844 L 4.26683 14.4311 C 6.13919 13.7581, 7.81364 12.8319, 9.29412 11.6443, 8.90618 10.5082, 8.64492 9.28505, 8.51033 7.97083 L 5.83439 8.28751, 5.31187 8.54085, 4.59142 8.03416, 8.447 7.65415 C 8.40345 7.06829, 8.35991 6.26471, 8.31637 5.24738 L 6.42025 5.37405, 6.02836 5.6274, 5.4425 5.12071, 8.31637 4.9307 C 8.27282 3.45814, 8.22928 1.97766, 8.18574 0.497187 L 9.68601 1.19388, 9.16348 1.63723 C 9.16348 2.52789, 9.18724 3.60461, 9.23078 4.86737 L 12.0374 4.61402, 12.8884 3.66398, 14.1947 4.80403 Z M 10.2085 1.5739 L 10.2758 1.38389 C 11.6257 1.72432, 12.3659 2.01329, 12.4965 2.24288, 12.6272 2.47643, 12.6905 2.67436, 12.6905 2.84062, 12.6905 3.05437, 12.647 3.26813, 12.5599 3.47793, 12.4728 3.69169, 12.3857 3.79461, 12.2986 3.79066, 12.2115 3.79461, 12.0809 3.6244, 11.9067 3.28397, 11.6059 2.82478, 11.0398 2.25476, 10.2085 1.5739 Z M 3.02386 0.75053 L 4.33016 1.5739 C 3.98181 1.70453, 3.61368 2.12809, 3.22178 2.84062, 2.82989 3.60461, 2.10945 4.68132, 1.0644 6.07075 L 3.74431 5.8174 C 4.26683 4.9782, 4.68247 4.13109, 4.98331 3.28397 L 6.15899 4.10733 C 5.85814 4.28151, 5.33562 4.89112, 4.59142 5.94408, 3.85514 7.00495, 2.89719 8.27167, 1.71756 9.74423, 2.32716 9.66506, 3.67701 9.43151, 5.7671 9.04754 L 5.7671 9.30088 C 4.59538 9.60173, 3.68097 9.86695, 3.02782 10.0965, 2.37467 10.3301, 1.72151 10.6547, 1.0644 11.0743 L 0.280622 9.74423 C 0.763559 9.62152, 1.31775 9.17025, 1.94715 8.38647, 2.58051 7.60664, 3.1347 6.83474, 3.61368 6.07075, 3.1347 6.15784, 2.63197 6.27659, 2.10945 6.42305, 1.58693 6.57348, 1.10795 6.83474, 0.672513 7.21079 L -0.0439743 6.00741 C 0.435004 5.92824, 0.989193 5.32655, 1.62255 4.2063, 2.25591 3.09, 2.72301 1.93808, 3.02386 0.75053 Z M -0.111269 12.8477 C 1.10795 12.6814, 2.08965 12.535, 2.82989 12.4083, 3.57013 12.2816, 4.7656 12.0481, 6.42025 11.7076 L 6.48754 11.961 C 4.52809 12.5152, 3.10303 12.9467, 2.20841 13.2633, 1.31775 13.58, 0.763559 13.8413, 0.541883 14.0511 Z" stroke="none" fill="#000000" />
			<path d="M 24.5007 5.05737 C 24.5007 2.78124, 24.4809 1.30472, 24.4374 0.623858 L 26.0683 1.32055, 25.4151 1.76391, 25.4151 5.05737, 27.3112 5.05737, 28.2257 4.17067, 29.532 5.43739, 25.4151 5.43739, 25.4151 8.92087, 27.1133 8.92087, 27.9644 8.0975, 29.2034 9.30088, 25.4151 9.30088, 25.4151 13.7344, 27.9644 13.7344, 28.8788 12.8477, 30.1851 14.1144, 21.6268 14.1144 C 21.0647 14.1144, 20.5422 14.1777, 20.0593 14.3044 L 19.4734 13.7344, 24.5007 13.7344, 24.5007 9.30088, 23.1311 9.30088 C 22.565 9.30484, 22.0425 9.36817, 21.5635 9.49089 L 20.9737 8.92087, 24.5007 8.92087, 24.5007 5.43739, 21.8248 5.43739 C 21.2587 6.79119, 20.6253 7.89166, 19.9286 8.73086 L 19.7347 8.60419 C 20.2572 7.59477, 20.6926 6.4666, 21.041 5.21967, 21.3893 3.9767, 21.6071 2.95145, 21.6941 2.14392 L 23.1944 2.84062, 22.6086 3.22063, 21.9554 5.05737 Z M 16.4016 4.61402 C 16.5362 5.8847, 16.556 6.6764, 16.4689 6.99308, 16.3818 7.30976, 16.2433 7.52352, 16.0454 7.62644, 15.8474 7.73332, 15.6851 7.78478, 15.5545 7.78082, 15.4674 7.78478, 15.3487 7.75311, 15.1943 7.68977, 15.0439 7.62644, 14.9647 7.57498, 14.9647 7.52747, 14.9647 7.36122, 15.1191 7.10787, 15.4239 6.76744, 15.8158 6.30826, 16.0533 5.58781, 16.1404 4.61402 Z M 18.2305 3.79066 C 18.9272 4.04796, 19.4299 4.28151, 19.7347 4.49131, 20.0395 4.70507, 20.1701 4.9782, 20.1266 5.31468, 20.083 5.65511, 19.9722 5.8847, 19.798 6.01137, 19.6238 6.13804, 19.4497 5.96783, 19.2755 5.50072, 19.0617 5.04154, 18.7134 4.57444, 18.2305 4.10733 L 18.2305 12.531 C 18.2305 13.2515, 18.2542 14.0313, 18.2978 14.8744 L 17.2527 15.3178 C 17.2963 14.0946, 17.316 12.9981, 17.316 12.0243 L 17.316 3.09396 C 17.316 2.38143, 17.2963 1.51452, 17.2527 0.497187 L 18.8203 1.19388, 18.2305 1.63723 Z" stroke="none" fill="#000000" />
			<path d="M 34.6127 6.76744 L 41.6668 6.76744, 42.4505 6.00741, 43.6262 7.14746, 36.7701 7.14746 C 36.117 7.15142, 35.5944 7.21475, 35.2025 7.33747 Z M 40.5584 11.6443 C 41.3857 12.1114, 42.0943 12.5785, 42.6801 13.0417, 43.27 13.5088, 43.5866 13.9046, 43.6302 14.2411, 43.6737 14.5815, 43.6064 14.8428, 43.4323 15.0328, 43.2581 15.2228, 43.1512 15.3178, 43.1037 15.3178, 42.977 15.3178, 42.8899 15.2545, 42.8424 15.1278, 42.6683 14.8349, 42.4505 14.4548, 42.1893 13.9877, 40.1467 14.158, 38.5039 14.3282, 37.261 14.4944, 36.018 14.6646, 35.2025 14.8744, 34.8106 15.1278 L 34.1575 13.9244 C 34.7236 13.8848, 35.4203 13.3583, 36.2476 12.345, 37.0749 11.3316, 37.641 10.4449, 37.9458 9.6809 L 35.4638 9.6809 C 34.8977 9.68485, 34.3752 9.74819, 33.8962 9.8709 L 33.3064 9.30088, 42.8424 9.30088, 43.6935 8.47751, 44.9325 9.6809, 38.1397 9.6809, 39.3827 10.5043 C 38.9908 10.6349, 38.4445 11.0347, 37.7479 11.7076, 37.0512 12.4281, 36.2476 13.1683, 35.3332 13.9244 L 42.0587 13.7344 C 41.6707 13.1485, 41.1047 12.5152, 40.3605 11.8343 Z M 33.2431 1.95391 L 33.2431 4.10733, 42.3872 4.10733, 42.3872 1.95391 Z M 29.8467 15.2545 C 30.674 14.0313, 31.2599 12.7685, 31.6082 11.4583, 31.9566 10.152, 32.1545 8.85357, 32.198 7.5631, 32.2416 6.27659, 32.2614 5.093, 32.2614 4.01629, 32.2614 2.93958, 32.2416 1.95787, 32.198 1.06721 L 33.2431 1.5739, 42.3199 1.5739, 42.9731 0.940538, 43.8875 1.82724, 43.365 2.20726 C 43.365 2.67436, 43.365 3.15334, 43.365 3.63627, 43.365 4.12317, 43.3887 4.53485, 43.4323 4.86737 L 42.3872 5.24738, 42.3872 4.48735, 33.2431 4.48735 C 33.2431 5.75803, 33.1798 7.0485, 33.0491 8.3548, 32.9185 9.66506, 32.6454 10.8882, 32.2297 12.0283, 31.818 13.1683, 31.0857 14.3044, 30.0407 15.4445 Z" stroke="none" fill="#000000" />
			<polyline points="-5.159 0 5.159 0" fill="none" stroke="#000000" stroke-width="0.589599967" stroke-linecap="round" stroke-linejoin="round" transform="matrix(1 0 0 1 54.6615 8.80585)" />
			<polyline points="0 -5.159 0 5.159" fill="none" stroke="#000000" stroke-width="0.589599967" stroke-linecap="round" stroke-linejoin="round" transform="matrix(1 0 0 1 54.6615 8.80585)" />
			<path d="M 69.1839 11.247 C 69.1839 11.5403, 69.1322 11.8268, 69.0283 12.1075, 68.9248 12.3882, 68.7494 12.6316, 68.502 12.8376, 68.2352 13.049, 67.9402 13.193, 67.6163 13.2695, 67.2929 13.3464, 66.9654 13.3846, 66.6343 13.3846, 66.2686 13.3846, 65.9497 13.3248, 65.678 13.2047, 65.4063 13.085, 65.1841 12.9388, 65.0109 12.7656 L 64.5368 13.3126 C 64.4972 13.3558, 64.4378 13.3801, 64.3586 13.3846 L 64.3145 13.3846 C 64.1661 13.3846, 64.0919 13.3104, 64.0919 13.1615 L 64.0919 10.7864 C 64.0919 10.6811, 64.149 10.6141, 64.2624 10.5849, 64.2974 10.5759, 64.3294 10.5709, 64.3586 10.5705, 64.3982 10.5709, 64.4355 10.5781, 64.4702 10.5921, 64.5444 10.6213, 64.5939 10.6717, 64.6182 10.7432, 64.7468 11.4009, 64.9668 11.9267, 65.2781 12.3199, 65.5894 12.7135, 66.0414 12.91, 66.6343 12.9096, 66.8718 12.91, 67.1012 12.8875, 67.3234 12.8417, 67.5457 12.7962, 67.7386 12.7063, 67.9015 12.5713, 68.0351 12.4616, 68.134 12.3262, 68.1979 12.1651, 68.2622 12.0045, 68.2942 11.8304, 68.2942 11.6429, 68.2942 11.3361, 68.1732 11.0738, 67.9312 10.8552, 67.6892 10.6371, 67.3905 10.4918, 67.0342 10.4193 L 66.0117 10.2106 C 65.7648 10.1629, 65.5264 10.0878, 65.2965 9.98435, 65.0671 9.88134, 64.8642 9.75404, 64.6888 9.60289, 64.5134 9.45175, 64.3703 9.27317, 64.2588 9.0667, 64.1477 8.86068, 64.0919 8.63261, 64.0919 8.38251, 64.0919 8.10946, 64.1504 7.84676, 64.2664 7.59486, 64.3825 7.34295, 64.5565 7.13558, 64.7887 6.97184, 65.0604 6.77077, 65.3595 6.64032, 65.6856 6.58004, 66.0117 6.52022, 66.328 6.49008, 66.6343 6.48963, 67.1975 6.49008, 67.6523 6.61963, 67.9977 6.87828 L 68.3832 6.53281 C 68.4426 6.50447, 68.4921 6.49008, 68.5317 6.48963 L 68.5834 6.48963 C 68.7319 6.49008, 68.8056 6.5571, 68.8056 6.69115 L 68.8056 8.60562 C 68.8056 8.75002, 68.7319 8.82424, 68.5834 8.82874 L 68.502 8.82874 C 68.354 8.82919, 68.2798 8.75497, 68.2798 8.60562, 68.2798 8.08292, 68.1381 7.66953, 67.8538 7.36455, 67.5695 7.06001, 67.1633 6.90752, 66.6343 6.90707, 66.4071 6.90752, 66.1836 6.92686, 65.9636 6.9651, 65.7436 7.00378, 65.5471 7.0825, 65.3743 7.20216, 65.1125 7.37534, 64.9812 7.63219, 64.9812 7.97226, 64.9812 8.22237, 65.095 8.43604, 65.3222 8.61327, 65.5498 8.79095, 65.8363 8.91331, 66.1822 8.97988 L 67.1975 9.16701 C 67.4647 9.21559, 67.7188 9.30196, 67.9609 9.42656, 68.2029 9.55161, 68.4143 9.70141, 68.5947 9.87639, 68.775 10.0518, 68.9185 10.2578, 69.0247 10.4954, 69.1309 10.7329, 69.1839 10.9834, 69.1839 11.247 Z" stroke="none" fill="#000000" />
			<path d="M 76.7292 10.0091 C 76.7292 10.4607, 76.6429 10.8926, 76.4701 11.305, 76.2974 11.718, 76.0451 12.0824, 75.714 12.3986, 75.3982 12.7063, 75.0325 12.9474, 74.6173 13.1224, 74.2021 13.2973, 73.7622 13.3846, 73.298 13.3846, 72.8337 13.3846, 72.3938 13.2987, 71.9786 13.126, 71.5639 12.9532, 71.1954 12.7108, 70.8743 12.3986, 70.5383 12.0774, 70.2863 11.7117, 70.1181 11.3014, 69.9503 10.8912, 69.8662 10.4607, 69.8662 10.0091, 69.8662 9.54891, 69.9517 9.10538, 70.1222 8.67805, 70.2926 8.25116, 70.5432 7.867, 70.8743 7.52603, 71.1905 7.20486, 71.5576 6.95205, 71.975 6.76717, 72.3924 6.58274, 72.8337 6.49008, 73.298 6.48963, 73.7622 6.49008, 74.2021 6.58274, 74.6173 6.76717, 75.0325 6.95205, 75.3982 7.20486, 75.714 7.52603, 76.05 7.87195, 76.3033 8.25701, 76.4737 8.68164, 76.6442 9.10628, 76.7292 9.54891, 76.7292 10.0091 Z M 75.3213 9.84355 C 75.3213 9.47469, 75.2956 9.10988, 75.2435 8.75002, 75.1917 8.39016, 75.0644 8.06133, 74.8616 7.76354, 74.674 7.50984, 74.4441 7.31192, 74.1724 7.17022, 73.9007 7.02897, 73.6092 6.9579, 73.298 6.95745, 72.9867 6.9579, 72.6952 7.02897, 72.4235 7.17022, 72.1518 7.31192, 71.9219 7.50984, 71.7339 7.76354, 71.5315 8.05683, 71.4046 8.38431, 71.3524 8.74642, 71.3007 9.10898, 71.2746 9.47469, 71.2746 9.84355, 71.2746 10.2327, 71.2985 10.6177, 71.3452 10.9992, 71.392 11.3806, 71.5216 11.7319, 71.7339 12.0531, 71.9021 12.3032, 72.127 12.5011, 72.4086 12.6473, 72.6902 12.794, 72.9867 12.8669, 73.298 12.8664, 73.6092 12.8669, 73.9057 12.794, 74.1873 12.6473, 74.4689 12.5011, 74.6938 12.3032, 74.8616 12.0531, 75.0743 11.7319, 75.2043 11.3806, 75.2511 10.9992, 75.2979 10.6177, 75.3213 10.2327, 75.3213 9.84355 Z" stroke="none" fill="#000000" />
			<path d="M 82.4852 3.80505 C 82.4852 4.04526, 82.4065 4.22564, 82.2482 4.34529, 82.0898 4.4654, 81.9171 4.52522, 81.729 4.52477, 81.5464 4.52522, 81.38 4.4654, 81.2288 4.34529, 81.0781 4.22564, 81.0026 4.04526, 81.0026 3.80505, 81.0026 3.60892, 81.1114 3.39525, 81.3287 3.16449, 81.3193 3.15999, 81.2203 3.15549, 81.0323 3.1501, 80.8546 3.15055, 80.689 3.19643, 80.5361 3.28729, 80.3832 3.37861, 80.2496 3.50546, 80.1357 3.6683, 79.9972 3.85588, 79.896 4.06595, 79.8317 4.29851, 79.7678 4.53152, 79.7354 4.77488, 79.7354 5.02858 L 79.7354 6.71994, 81.4992 6.71994, 81.4992 7.32451, 79.7871 7.32451, 79.7871 12.1611 C 79.7871 12.2479, 79.802 12.3262, 79.8317 12.3954, 79.8614 12.4652, 79.9086 12.5119, 79.9725 12.5353, 80.0912 12.579, 80.2716 12.6042, 80.5136 12.6114, 80.7556 12.6185, 81.003 12.6221, 81.2549 12.6217 L 81.2549 13.2191 C 80.5878 13.2002, 79.9504 13.1858, 79.3427 13.1759 L 79.0908 13.1759 C 78.5672 13.1759, 78.0162 13.193, 77.4377 13.2263 L 77.4377 12.6217 C 77.6603 12.6221, 77.8641 12.6185, 78.0494 12.6114, 78.2348 12.6042, 78.3742 12.579, 78.4682 12.5353, 78.5276 12.507, 78.5667 12.458, 78.5865 12.3882, 78.6063 12.319, 78.6162 12.2429, 78.6162 12.1611 L 78.6162 7.32451, 77.4008 7.32451, 77.4008 6.71994, 78.6162 6.71994, 78.6162 5.02858 C 78.6162 4.7173, 78.6792 4.41502, 78.8052 4.12218, 78.9311 3.82979, 79.1106 3.57743, 79.3427 3.36601, 79.5703 3.1456, 79.8321 2.97421, 80.1286 2.85186, 80.425 2.72951, 80.7363 2.66833, 81.062 2.66788, 81.2351 2.66833, 81.4043 2.69487, 81.5698 2.7475, 81.7353 2.80058, 81.8887 2.87255, 82.0295 2.96342, 82.1703 3.05473, 82.2814 3.17214, 82.3629 3.31608, 82.4447 3.46003, 82.4852 3.62332, 82.4852 3.80505 Z" stroke="none" fill="#000000" />
			<path d="M 86.6177 11.3622 C 86.6177 11.6024, 86.5858 11.8426, 86.5215 12.0824, 86.4571 12.3226, 86.3645 12.5385, 86.2435 12.7301, 86.1225 12.9222, 85.9655 13.0792, 85.773 13.2011, 85.5804 13.3234, 85.3555 13.3846, 85.0982 13.3846, 84.8315 13.3846, 84.5647 13.3464, 84.298 13.2695, 84.0312 13.193, 83.7915 13.0517, 83.5791 12.8453, 83.3668 12.6392, 83.2206 12.4053, 83.1415 12.1435, 83.0623 11.8822, 83.0227 11.6217, 83.0227 11.3622 L 83.0227 7.32451, 81.733 7.32451, 81.733 6.85669 C 82.0938 6.85714, 82.3929 6.77932, 82.63 6.62323, 82.8675 6.46759, 83.0663 6.26111, 83.2269 6.00426, 83.3875 5.74786, 83.5072 5.45007, 83.5863 5.1118, 83.6655 4.77353, 83.7046 4.40512, 83.7046 4.00657 L 84.2309 4.00657, 84.2309 6.71994, 86.373 6.71994, 86.373 7.32451, 84.2309 7.32451, 84.2309 11.3622 C 84.2309 11.5835, 84.2498 11.7909, 84.2867 11.9852, 84.3236 12.1795, 84.3915 12.3558, 84.4905 12.5137, 84.6587 12.7494, 84.8832 12.8669, 85.1648 12.8664, 85.3132 12.8669, 85.4428 12.83, 85.5539 12.7553, 85.6655 12.6811, 85.7604 12.5731, 85.8395 12.4314, 85.9187 12.2902, 85.9803 12.1269, 86.0249 11.942, 86.0694 11.7576, 86.0914 11.5641, 86.0914 11.3622 L 86.0914 10.4049, 86.6177 10.4049, 86.6177 11.3622 Z" stroke="none" fill="#000000" />
			<path d="M 99.6726 13.2263 C 99.06 13.193, 98.4698 13.1759, 97.9012 13.1759, 97.3331 13.1759, 96.7353 13.193, 96.1077 13.2263 L 96.1077 12.6217 C 96.33 12.6221, 96.5337 12.6185, 96.7191 12.6114, 96.9044 12.6042, 97.0443 12.579, 97.1378 12.5353, 97.1972 12.507, 97.2382 12.4566, 97.2602 12.3846, 97.2827 12.3127, 97.2935 12.2384, 97.2935 12.1611 L 97.2935 8.64881 C 97.2935 8.4095, 97.2786 8.18278, 97.249 7.96912, 97.2193 7.7559, 97.1455 7.55752, 97.0267 7.37489, 96.9575 7.26018, 96.8576 7.17652, 96.7267 7.12344, 96.5958 7.07081, 96.4487 7.04427, 96.2854 7.04382, 96.0038 7.04427, 95.742 7.10319, 95.5 7.2206, 95.258 7.33846, 95.0493 7.4968, 94.8739 7.69562, 94.6984 7.89489, 94.559 8.12881, 94.4551 8.39735, 94.3516 8.66635, 94.2994 8.94659, 94.2994 9.23898 L 94.2994 12.1611 C 94.2994 12.2429, 94.3093 12.319, 94.3291 12.3882, 94.3489 12.458, 94.3907 12.507, 94.4551 12.5353, 94.5491 12.579, 94.6885 12.6042, 94.8739 12.6114, 95.0592 12.6185, 95.263 12.6221, 95.4852 12.6217 L 95.4852 13.2263 C 94.8577 13.193, 94.2598 13.1759, 93.6913 13.1759, 93.1137 13.1759, 92.523 13.193, 91.9203 13.2263 L 91.9203 12.6217 C 92.1425 12.6221, 92.3463 12.6185, 92.5316 12.6114, 92.7169 12.6042, 92.8568 12.579, 92.9504 12.5353, 93.0048 12.507, 93.0417 12.458, 93.0615 12.3882, 93.0813 12.319, 93.0912 12.2429, 93.0912 12.1611 L 93.0912 8.64881 C 93.0912 8.4095, 93.0777 8.18278, 93.0507 7.96912, 93.0237 7.7559, 92.9504 7.55752, 92.8316 7.37489, 92.7579 7.26018, 92.6553 7.17652, 92.5244 7.12344, 92.3935 7.07081, 92.2464 7.04427, 92.0831 7.04382, 91.8015 7.04427, 91.5388 7.10319, 91.2941 7.2206, 91.0494 7.33846, 90.8407 7.4968, 90.6675 7.69562, 90.4948 7.89489, 90.3562 8.12881, 90.2523 8.39735, 90.1488 8.66635, 90.0967 8.94659, 90.0967 9.23898 L 90.0967 12.1611 C 90.0967 12.2429, 90.1066 12.319, 90.1264 12.3882, 90.1462 12.458, 90.1857 12.507, 90.2451 12.5353, 90.3391 12.579, 90.4799 12.6042, 90.6675 12.6114, 90.8555 12.6185, 91.058 12.6221, 91.2752 12.6217 L 91.2752 13.2191 C 91.0233 13.2096, 90.7912 13.2024, 90.5789 13.1975, 90.3666 13.193, 90.1588 13.1858, 89.9559 13.1759 L 89.489 13.1759 C 88.9109 13.1759, 88.3203 13.193, 87.7175 13.2263 L 87.7175 12.6217 C 87.9402 12.6221, 88.144 12.6185, 88.3293 12.6114, 88.5146 12.6042, 88.6545 12.579, 88.7481 12.5353, 88.8075 12.507, 88.8466 12.458, 88.8664 12.3882, 88.8862 12.319, 88.8961 12.2429, 88.8961 12.1611 L 88.8961 8.07303 C 88.8961 7.93898, 88.8902 7.81707, 88.8776 7.70642, 88.8655 7.59621, 88.8174 7.50714, 88.7332 7.43967, 88.6496 7.38254, 88.5137 7.34925, 88.3257 7.33935, 88.1377 7.32991, 87.9352 7.32496, 87.7175 7.32451 L 87.7175 6.72714, 88.9923 6.63357, 90.0153 6.5544, 90.0153 7.79233 C 90.1093 7.57192, 90.3526 7.31192, 90.7453 7.01188, 91.1385 6.71229, 91.5991 6.56205, 92.1276 6.5616, 92.4047 6.56205, 92.6899 6.59444, 92.9837 6.65921, 93.2779 6.72399, 93.5361 6.86434, 93.7583 7.0798, 93.9067 7.2242, 94.0192 7.38164, 94.0956 7.55167, 94.1721 7.72216, 94.2104 7.81437, 94.2104 7.82832, 94.344 7.54088, 94.6035 7.25794, 94.9886 6.97949, 95.3741 6.7015, 95.8189 6.56205, 96.3228 6.5616, 96.5994 6.56205, 96.8873 6.59444, 97.186 6.65921, 97.4851 6.72399, 97.746 6.86434, 97.9682 7.08025, 98.1904 7.29617, 98.3353 7.54448, 98.4019 7.82517, 98.4684 8.10586, 98.5017 8.38071, 98.5017 8.64881 L 98.5017 12.1611 C 98.5017 12.2429, 98.5116 12.319, 98.5314 12.3882, 98.5512 12.458, 98.5935 12.507, 98.6574 12.5353, 98.7514 12.579, 98.8908 12.6042, 99.0762 12.6114, 99.2615 12.6185, 99.4603 12.6221, 99.6726 12.6217 L 99.6726 13.2263 Z" stroke="none" fill="#000000" />
			<path d="M 107.369 11.9524 C 107.369 12.1399, 107.334 12.3127, 107.265 12.471, 107.196 12.6293, 107.102 12.7724, 106.983 12.8992, 106.865 13.0265, 106.724 13.126, 106.561 13.1975, 106.398 13.2695, 106.223 13.3054, 106.035 13.3054, 105.684 13.3054, 105.396 13.1786, 105.171 12.9244, 104.946 12.6703, 104.829 12.4688, 104.819 12.3194, 104.735 12.5164, 104.515 12.7436, 104.16 13, 103.804 13.2564, 103.396 13.3846, 102.937 13.3846, 102.64 13.3846, 102.342 13.3536, 102.044 13.291, 101.745 13.229, 101.471 13.1359, 101.221 13.0108, 100.971 12.8862, 100.77 12.7193, 100.617 12.5106, 100.464 12.3019, 100.387 12.0464, 100.387 11.7436, 100.387 11.3172, 100.517 10.9429, 100.776 10.6213, 101.036 10.3001, 101.353 10.0433, 101.728 9.85075, 102.203 9.62089, 102.693 9.46525, 103.2 9.38338, 103.706 9.30196, 104.197 9.24888, 104.671 9.22459 L 104.671 8.64881 C 104.671 8.43334, 104.634 8.21877, 104.56 8.0051, 104.486 7.79188, 104.375 7.60565, 104.226 7.44686, 103.94 7.11624, 103.591 6.95295, 103.181 6.95745, 102.845 6.9579, 102.535 7.01188, 102.251 7.11984, 101.967 7.2278, 101.776 7.3416, 101.677 7.46126 L 101.602 7.46126 C 101.78 7.46171, 101.946 7.50984, 102.099 7.6052, 102.282 7.73026, 102.373 7.92728, 102.373 8.19538, 102.373 8.44548, 102.291 8.63261, 102.125 8.75722, 101.96 8.88227, 101.785 8.94434, 101.602 8.9439, 101.415 8.94434, 101.238 8.88227, 101.072 8.75722, 100.907 8.63261, 100.824 8.44548, 100.824 8.19538, 100.824 7.91739, 100.895 7.67043, 101.036 7.45451, 101.176 7.23859, 101.359 7.05866, 101.584 6.91472, 101.809 6.77077, 102.061 6.66416, 102.34 6.59444, 102.619 6.52516, 102.9 6.49008, 103.181 6.48963, 103.527 6.49008, 103.862 6.54046, 104.185 6.64122, 104.509 6.74198, 104.804 6.89807, 105.071 7.10859, 105.313 7.30562, 105.508 7.53503, 105.657 7.79638, 105.805 8.05818, 105.879 8.34202, 105.879 8.64881 L 105.879 11.9524 C 105.879 12.1494, 105.92 12.3226, 106.001 12.471, 106.083 12.6199, 106.205 12.6941, 106.368 12.6937, 106.521 12.6941, 106.637 12.6199, 106.716 12.471, 106.796 12.3226, 106.835 12.1494, 106.835 11.9524 L 106.835 10.9375, 107.369 10.9375, 107.369 11.9524 Z M 104.671 9.68521 C 104.34 9.70006, 103.99 9.74594, 103.622 9.82241, 103.254 9.89933, 102.912 10.0334, 102.596 10.225, 102.324 10.3887, 102.108 10.6083, 101.947 10.884, 101.787 11.1602, 101.706 11.4467, 101.706 11.7436, 101.706 11.9119, 101.739 12.0657, 101.803 12.2047, 101.867 12.3442, 101.957 12.4665, 102.073 12.5718, 102.189 12.6775, 102.324 12.7602, 102.477 12.8201, 102.63 12.8803, 102.793 12.91, 102.966 12.9096, 103.208 12.91, 103.431 12.8669, 103.633 12.7805, 103.836 12.6941, 104.015 12.5718, 104.17 12.4134, 104.326 12.2551, 104.448 12.0707, 104.537 11.8592, 104.627 11.6483, 104.671 11.4252, 104.671 11.1894 Z" stroke="none" fill="#000000" />
			<path d="M 115.195 13.2263 C 114.696 13.193, 114.229 13.1759, 113.794 13.1759 L 113.587 13.1759 C 113.073 13.1858, 112.532 13.2002, 111.964 13.2191 L 111.964 12.6217 C 112.082 12.6221, 112.18 12.6105, 112.257 12.5862, 112.333 12.5623, 112.391 12.5236, 112.431 12.4706, 112.48 12.4229, 112.508 12.3774, 112.512 12.3338, 112.512 12.2911, 112.495 12.2479, 112.46 12.2043 L 111.097 10.4769, 110.015 11.8012 C 109.941 11.8831, 109.891 11.9721, 109.867 12.0675, 109.857 12.1111, 109.852 12.1615, 109.852 12.2187, 109.852 12.2623, 109.857 12.3127, 109.867 12.3698, 109.906 12.538, 110.047 12.6221, 110.289 12.6217 L 110.289 13.2191 C 109.785 13.2002, 109.311 13.1858, 108.866 13.1759 L 108.666 13.1759 C 108.28 13.1759, 107.868 13.193, 107.428 13.2263 L 107.428 12.6217 C 107.873 12.6221, 108.251 12.5452, 108.562 12.3914, 108.725 12.3199, 108.878 12.2227, 109.021 12.1003, 109.165 11.978, 109.296 11.8498, 109.414 11.7148 L 110.771 10.0667, 109.006 7.82832 C 108.933 7.74735, 108.855 7.66593, 108.773 7.58406, 108.692 7.50264, 108.602 7.44237, 108.503 7.40368, 108.389 7.36095, 108.247 7.33711, 108.077 7.33216, 107.906 7.32766, 107.715 7.32496, 107.502 7.32451 L 107.502 6.71274 C 108.006 6.75638, 108.491 6.78022, 108.955 6.78472, 108.999 6.78517, 109.054 6.77797, 109.118 6.76312, 109.637 6.76357, 110.18 6.74693, 110.748 6.71274 L 110.748 7.32451 C 110.516 7.32496, 110.351 7.37534, 110.252 7.47565, 110.208 7.52873, 110.185 7.57686, 110.185 7.6196, 110.185 7.66323, 110.2 7.70417, 110.23 7.74195 L 111.43 9.26057, 112.342 8.1522 C 112.466 8.01365, 112.527 7.86476, 112.527 7.70597, 112.527 7.66323, 112.522 7.6223, 112.512 7.58361, 112.488 7.51209, 112.443 7.45091, 112.379 7.40053, 112.315 7.35015, 112.216 7.32496, 112.082 7.32451 L 112.082 6.71274 C 112.587 6.74693, 113.066 6.76357, 113.521 6.76312, 113.57 6.77302, 113.617 6.78022, 113.661 6.78472, 114.052 6.78517, 114.476 6.76132, 114.936 6.71274 L 114.936 7.32451 C 114.492 7.32496, 114.111 7.40188, 113.794 7.55482, 113.627 7.63219, 113.472 7.72936, 113.332 7.84676, 113.191 7.96462, 113.063 8.09507, 112.95 8.23856 L 111.771 9.67082, 113.691 12.1179 C 113.765 12.2097, 113.84 12.2924, 113.917 12.3666, 113.993 12.4413, 114.086 12.4975, 114.195 12.5353, 114.309 12.579, 114.451 12.6042, 114.621 12.6114, 114.792 12.6185, 114.983 12.6221, 115.195 12.6217 L 115.195 13.2263 Z" stroke="none" fill="#000000" />
			<rect />
		</svg>
	</g>
	<path d="M 0 0 L 0.00012207 -46.0397" fill="none" stroke="#000000" stroke-width="1.39999998" stroke-linecap="round" stroke-linejoin="round" marker-end="url(#CustomMarker-07)" transform="matrix(0.714286 0 0 0.714286 83.9128 78.842)" />
	<rect x="-53.1391602" y="-26.5695038" width="106.27832" height="53.1390076" stroke="none" fill="#EB34D4" fill-opacity="0.392156839" transform="matrix(0.714286 0 -0 0.714286 83.9129 26.9783)" />
	<path d="M -53.1392 -26.5695 L 53.1392 -26.5695, 53.1392 26.5695, -53.1392 26.5695 Z" fill="none" stroke="#000000" stroke-width="1.39999998" stroke-linecap="round" stroke-linejoin="round" transform="matrix(0.714286 0 -0 0.714286 83.9129 26.9783)" />
	<g transform="matrix(1 0 -0 1 53.9084 18.1724)">
		<svg width="185.930603" height="50.9571342">
			<defs />
			<path d="M 2.10945 3.09396 C 2.10945 2.25476, 2.08965 1.40764, 2.04611 0.560522 L 3.61368 1.25722, 3.02386 1.70057, 3.02386 3.41064 C 3.94223 3.75107, 4.48454 4.04004, 4.65872 4.26963, 4.83289 4.50318, 4.91206 4.72486, 4.88831 4.93466, 4.86456 5.14842, 4.80122 5.31468, 4.69039 5.44135, 4.58351 5.56802, 4.48454 5.63136, 4.39746 5.6274, 4.26683 5.63136, 4.1362 5.46114, 4.00557 5.12071, 3.78785 4.66152, 3.45929 4.19442, 3.02386 3.72732 L 3.02386 12.7844 C 3.02386 13.4652, 3.04761 14.1777, 3.09115 14.9378 L 2.04611 15.3811 C 2.08965 14.2846, 2.10945 13.295, 2.10945 12.4043 Z M 1.1317 4.10733 C 1.26233 5.33447, 1.28212 6.13013, 1.19503 6.48639, 1.10795 6.84661, 0.989193 7.06829, 0.83877 7.15142, 0.688347 7.2385, 0.52209 7.27809, 0.347917 7.27413, 0.173743 7.27809, 0.0351956 7.24642, -0.0756423 7.18309, -0.18648 7.11975, -0.241899 7.06829, -0.241899 7.02079, -0.241899 6.85453, -0.131061 6.64473, 0.086656 6.38743, 0.435004 5.96783, 0.696264 5.2078, 0.870438 4.10733 Z M 10.3392 1.25722 L 9.7533 1.63723, 9.7533 2.77728, 12.2986 2.77728, 13.0824 2.01725, 14.2581 3.1573, 9.7533 3.1573, 9.7533 4.67736, 11.7128 4.67736, 12.4292 3.98066, 13.5416 5.05737, 9.7533 5.05737, 9.7533 6.64077, 13.0191 6.64077, 13.8028 5.88074, 14.9785 7.02079, 6.22628 7.02079 C 5.66022 7.02475, 5.1377 7.08808, 4.65872 7.21079 L 4.0689 6.64077, 8.83889 6.64077, 8.83889 5.05737, 7.85718 5.05737 C 7.29507 5.06133, 6.77255 5.12467, 6.28962 5.24738 L 5.70376 4.67736, 8.83889 4.67736, 8.83889 3.1573, 6.94277 3.1573 C 6.38066 3.16125, 5.85814 3.22459, 5.37521 3.3473 L 4.78935 2.77728, 8.83889 2.77728 C 8.83889 2.06475, 8.8191 1.30472, 8.77159 0.497187 Z M 6.81214 8.60419 L 6.81214 9.8709, 11.9067 9.8709, 11.9067 8.60419 Z M 6.81214 10.2509 L 6.81214 11.7076, 11.9067 11.7076, 11.9067 10.2509 Z M 5.89773 7.65415 L 6.81214 8.22417, 11.7761 8.22417, 12.2353 7.59081, 13.2803 8.35084, 12.8211 8.73086, 12.8211 13.6711 C 12.8686 14.5578, 12.4095 15.1278, 11.4515 15.3811, 11.495 14.9615, 10.9488 14.5815, 9.81664 14.2411 L 9.81664 13.9244 C 10.4737 14.0511, 10.9963 14.1065, 11.3882 14.0827, 11.7801 14.063, 11.9542 13.8215, 11.9067 13.3544 L 11.9067 12.0877, 6.81214 12.0877, 6.81214 14.9378, 5.89773 15.3811 C 5.94523 14.158, 5.96502 12.7883, 5.96502 11.2683, 5.96502 9.74819, 5.94523 8.54481, 5.89773 7.65415 Z" stroke="none" fill="#000000" />
			<path d="M 18.0998 4.67736 L 22.1494 4.67736, 22.8025 4.044, 23.8476 5.05737, 19.9286 5.05737 C 19.4536 5.06133, 19.0182 5.10488, 18.6223 5.18404 Z M 23.1944 7.02079 C 23.1944 8.08166, 23.2182 8.84169, 23.2617 9.30088 L 22.3473 9.6809, 22.3473 9.04754, 19.798 9.04754, 19.798 9.61756, 18.8836 9.99758 C 18.9311 9.28505, 18.9509 8.58835, 18.9509 7.91145, 18.9509 7.2385, 18.9311 6.5616, 18.8836 5.88074 L 19.8653 6.38743, 22.28 6.38743, 22.7392 5.88074, 23.6536 6.64077 Z M 19.798 6.76744 L 19.798 8.66752, 22.3473 8.66752, 22.3473 6.76744 Z M 25.9376 0.560522 C 26.6343 0.944496, 27.0935 1.22159, 27.3112 1.38785, 27.529 1.55806, 27.6358 1.72432, 27.6358 1.89058, 27.6358 1.97766, 27.6042 2.09642, 27.5408 2.24288, 27.4775 2.39331, 27.3548 2.5081, 27.1806 2.59123, 27.0064 2.67832, 26.856 2.5081, 26.7214 2.08058, 26.5473 1.70453, 26.2425 1.26118, 25.807 0.75053 Z M 28.8115 9.8709 L 29.2034 7.59081, 29.4647 7.59081 C 29.4251 8.01833, 29.4251 8.56856, 29.4686 9.2415, 29.5122 9.91841, 29.6626 10.4013, 29.9239 10.6943, 30.0109 10.8249, 30.0545 10.908, 30.0545 10.9476, 30.0545 11.0782, 29.8288 11.1099, 29.3697 11.0466, 28.9105 10.9832, 28.3127 10.7418, 27.5725 10.3182, 26.8323 9.89861, 26.1554 9.30484, 25.5458 8.54085, 24.6749 9.30484, 23.6734 10.0015, 22.5413 10.6309 L 22.3473 10.5043 C 23.4794 9.62152, 24.3938 8.77836, 25.0905 7.97083, 24.8293 7.51164, 24.5918 6.84661, 24.374 5.9797, 24.1563 5.11675, 24.0257 4.17463, 23.9782 3.1573 L 17.7752 3.1573 C 17.7752 5.10488, 17.6367 6.64473, 17.3517 7.78478, 17.0667 8.92482, 16.2948 10.0847, 15.032 11.2643 L 14.8341 11.1376 C 15.792 9.87486, 16.3581 8.7269, 16.5323 7.68977, 16.7064 6.65661, 16.8054 5.78178, 16.8291 5.06133, 16.8529 4.34484, 16.841 3.37105, 16.7935 2.14392 L 17.7752 2.77728, 23.9149 2.77728 C 23.8713 1.85099, 23.8278 1.07117, 23.7842 0.43385 L 25.1539 1.00387, 24.6986 1.38389 C 24.6986 1.68474, 24.7224 2.14788, 24.762 2.77728 L 27.8971 2.77728, 28.7482 1.95391, 29.9872 3.1573, 24.8293 3.1573 C 24.9164 4.72486, 25.2212 6.07471, 25.7437 7.21079, 26.3097 6.41118, 26.7135 5.80157, 26.951 5.37801, 27.1925 4.95841, 27.4221 4.49131, 27.6358 3.98066 L 28.9421 4.86737, 28.3563 5.05737 C 27.5725 6.24492, 26.8323 7.19496, 26.1356 7.90749, 26.8758 8.84169, 27.7665 9.49485, 28.8115 9.8709 Z M 17.1221 11.201 L 17.3833 11.201 C 17.3398 12.5152, 17.2092 13.3385, 16.9914 13.675, 16.7737 14.0115, 16.5125 14.2094, 16.2077 14.2727, 15.9029 14.3361, 15.697 14.2965, 15.5862 14.1461, 15.4793 13.9996, 15.4239 13.8848, 15.4239 13.7977, 15.4239 13.6315, 15.5981 13.4415, 15.9464 13.2277, 16.3818 12.9348, 16.7737 12.2618, 17.1221 11.201 Z M 21.3022 10.5676 L 21.4329 10.3776 C 22.3908 10.7616, 23.0123 11.0703, 23.2934 11.2999, 23.5784 11.5335, 23.7169 11.7314, 23.7169 11.8977, 23.7169 12.0283, 23.6536 12.2104, 23.523 12.44, 23.3923 12.6735, 23.2815 12.7883, 23.1944 12.7844, 23.0677 12.7883, 22.9371 12.6419, 22.8025 12.341, 22.5413 11.8818, 22.0425 11.288, 21.3022 10.5676 Z M 26.5275 11.011 L 26.7214 10.8209 C 27.9881 11.5849, 28.673 12.0718, 28.7798 12.2816, 28.8907 12.4954, 28.9421 12.6814, 28.9421 12.8477, 28.9421 13.105, 28.8669 13.3188, 28.7165 13.485, 28.5661 13.6552, 28.4434 13.7384, 28.3563 13.7344, 28.1821 13.7384, 28.0317 13.5286, 27.8971 13.101, 27.6833 12.4716, 27.2242 11.7749, 26.5275 11.011 Z M 18.9509 13.8611 C 18.9509 12.5152, 18.9311 11.5018, 18.8836 10.8209 L 20.3878 11.5176, 19.798 11.961, 19.798 13.4177 C 19.7109 14.0511, 20.0593 14.3282, 20.8431 14.2411 L 24.3701 14.2411 C 24.853 14.2846, 25.1459 14.1065, 25.2528 13.7067, 25.3637 13.3069, 25.4389 12.7448, 25.4824 12.0243 L 25.7437 12.0243 C 25.7872 12.6616, 25.8506 13.1287, 25.9376 13.4217, 26.0247 13.7186, 26.2227 13.9244, 26.5275 14.0511, 26.1356 14.728, 25.4151 15.0249, 24.3701 14.9378 L 20.4512 14.9378 C 19.4536 15.0249, 18.9509 14.6646, 18.9509 13.8611 Z" stroke="none" fill="#000000" />
			<path d="M 32.7839 1.32055 L 32.9145 1.13055 C 33.8725 1.51452, 34.5494 1.84307, 34.9413 2.11621, 35.3332 2.39331, 35.5192 2.66644, 35.4955 2.93958, 35.4757 3.21667, 35.4005 3.44627, 35.2698 3.63627, 35.1392 3.82628, 35.0284 3.92128, 34.9413 3.91733, 34.8106 3.92128, 34.6563 3.71148, 34.4821 3.28397, 34.1813 2.69811, 33.6152 2.041, 32.7839 1.32055 Z M 37.2253 4.29734 L 37.2253 1.5739 C 37.2253 1.28097, 37.2055 0.944496, 37.162 0.560522 L 38.8602 1.19388, 38.1397 1.70057, 38.1397 4.29734, 39.3827 4.29734 C 40.3842 2.99104, 41.1245 1.87474, 41.6034 0.940538 L 42.9097 2.01725, 42.1893 2.20726 C 41.7143 2.54769, 40.9067 3.24438, 39.7746 4.29734 L 42.9731 4.29734, 43.8875 3.47398, 45.0632 4.67736, 38.1397 4.67736, 38.1397 5.05737 C 40.8869 5.77782, 42.5178 6.28847, 43.0404 6.58139, 43.5629 6.87828, 43.8479 7.13163, 43.8914 7.34143, 43.935 7.55518, 43.9548 7.70165, 43.9548 7.78082, 43.9548 7.99458, 43.9231 8.16479, 43.8558 8.29146, 43.7925 8.41814, 43.7371 8.48147, 43.6935 8.47751, 43.4758 8.48147, 43.1274 8.22813, 42.6485 7.71748, 41.9953 7.08808, 40.4911 6.28451, 38.1397 5.31072, 38.1397 6.62494, 38.1635 7.42455, 38.207 7.71748 L 37.162 8.0975 C 37.2055 7.55123, 37.2253 6.43493, 37.2253 4.74069, 36.4416 5.71448, 35.539 6.5616, 34.5177 7.27809, 33.4964 7.99854, 32.0674 8.60814, 30.2386 9.11087 L 30.1713 8.92087 C 31.7864 8.24792, 33.0372 7.57498, 33.9279 6.89807, 34.8225 6.22513, 35.5707 5.48489, 36.1803 4.67736 L 32.4593 4.67736 C 31.8932 4.68132, 31.3707 4.74465, 30.8917 4.86737 L 30.3019 4.29734 Z M 37.6845 9.30088 C 37.5974 9.55818, 37.5103 9.79173, 37.4233 9.99758 L 43.0404 9.99758, 43.9548 9.11087, 45.1304 10.3776, 38.3377 10.3776 C 39.0779 11.3949, 39.9923 12.2183, 41.0809 12.8517, 42.1695 13.485, 43.5391 13.8848, 45.1938 14.0511 L 45.1938 14.3044 C 44.3704 14.348, 43.8479 14.6448, 43.6262 15.1911, 42.1932 14.6448, 40.9859 13.9046, 40.0042 12.9783, 39.0225 12.052, 38.3575 11.1851, 38.0091 10.3776 L 37.356 10.3776 C 36.8334 12.0283, 36.0061 13.2, 34.874 13.8927, 33.7419 14.5894, 32.111 15.108, 29.9773 15.4445 L 29.91 15.2545 C 31.4776 14.8744, 32.8274 14.34, 33.9596 13.6433, 35.0917 12.9467, 35.8992 11.8581, 36.3782 10.3776 L 32.0001 10.3776 C 31.438 10.3815, 30.9155 10.4449, 30.4326 10.5676 L 29.8467 9.99758, 36.4416 9.99758 C 36.5286 9.41172, 36.5959 8.79815, 36.6395 8.16083 L 38.2704 8.92087 Z" stroke="none" fill="#000000" />
			<path d="M 47.8558 2.08058 L 47.8558 5.18404, 51.9054 5.18404, 51.9054 2.08058 Z M 46.8781 6.5141 C 46.9216 5.63136, 46.9414 4.75653, 46.9414 3.88962, 46.9414 3.02666, 46.9216 2.12809, 46.8781 1.19388 L 47.9865 1.70057, 51.7747 1.70057, 52.2973 1.06721, 53.3423 1.89058, 52.7565 2.33393, 52.7565 4.48735 C 52.7565 5.08112, 52.7802 5.58781, 52.8198 6.00741 L 51.9054 6.32409, 51.9054 5.56406, 47.8558 5.56406, 47.8558 6.19742 Z M 49.6847 13.6077 C 50.5159 13.7819, 51.0385 13.8611, 51.2562 13.8611, 51.4739 13.8611, 51.6679 13.7621, 51.842 13.5483, 52.0162 13.3385, 52.2339 11.7947, 52.4952 8.92087 L 49.8153 8.92087 C 49.6411 10.3618, 49.2176 11.577, 48.5446 12.5666, 47.8717 13.5602, 46.7712 14.4311, 45.2432 15.1911 L 45.1126 15.0011 C 46.3793 14.158, 47.2937 13.2317, 47.8598 12.2183, 48.4259 11.2049, 48.7742 10.1084, 48.9009 8.92087 L 46.6168 8.92087, 45.8964 9.04754, 45.3739 8.54085, 48.9009 8.54085 C 48.9484 7.74123, 48.9484 6.83474, 48.9009 5.8174 L 50.4051 6.45076, 49.9459 6.83078 C 49.9063 7.38497, 49.8628 7.95499, 49.8153 8.54085 L 52.4279 8.54085, 53.0177 7.90749, 53.9955 8.73086, 53.4096 9.17421 C 53.1919 12.0085, 52.9425 13.6631, 52.6575 14.1461, 52.3764 14.633, 51.9093 14.9813, 51.2522 15.1911, 51.1256 14.6448, 50.5793 14.2015, 49.6213 13.8611 Z M 54.8465 11.961 C 54.8901 10.4884, 54.9099 8.9367, 54.9099 7.30976, 54.9099 5.68677, 54.8901 4.28151, 54.8465 3.09396 L 56.2835 3.72732, 55.8243 4.17067, 55.8243 9.55422 C 55.8243 10.0649, 55.848 10.6784, 55.8916 11.391 Z M 55.4997 13.6711 C 56.4141 13.7977, 57.1108 13.8611, 57.5898 13.8611, 57.8075 13.8611, 57.9579 13.8334, 58.045 13.77, 58.1321 13.7067, 58.1756 13.5681, 58.1756 13.3544 L 58.1756 2.71394 C 58.1756 2.29434, 58.1558 1.64119, 58.1123 0.75053 L 59.6126 1.38389, 59.09 1.89058, 59.09 13.3544 C 59.1771 14.3282, 58.6982 15.0011, 57.6531 15.3811, 57.3048 14.7082, 56.5883 14.2411, 55.4997 13.9877 Z" stroke="none" fill="#000000" />
			<rect />
		</svg>
	</g>
</svg>
